<svg width="100" height="97" viewBox="0 0 100 97" fill="none" xmlns="http://www.w3.org/2000/svg">
<path d="M98.6948 46.8577C97.6262 35.7791 92.0622 24.7274 87.2635 18.6229C66.9178 -7.24768 26.0985 -7.19816 6.63985 25.2968C1.15422 34.4608 -2.28899 54.8375 1.78551 69.908C6.99882 89.1975 27.5426 96.709 50.3887 96.5419C71.735 96.3665 88.5199 87.0849 94.7978 74.261C98.7361 66.242 99.7635 57.9362 98.6948 46.8577Z" fill="#37474F"/>
<path d="M6.63985 25.2968C1.15422 34.4608 -2.28899 54.8375 1.78551 69.908C2.64475 73.1439 4.0281 76.2173 5.88065 79.006L28.5741 65.9119L47.9048 54.7529L93.3041 28.5275C91.4144 24.6078 89.2729 21.179 87.2656 18.6249C66.9178 -7.24768 26.0985 -7.19816 6.63985 25.2968Z" fill="#263238"/>
<path opacity="0.2" d="M60.869 63.3826V60.8368L57.1927 58.714V56.1682L53.5164 54.0432V51.4995L49.8421 49.3766L33.9567 58.0414L38.0827 60.4119V62.9576L41.7591 65.0785V67.6263L45.4354 69.7471V72.295L61.5395 95.5681C77.4868 92.8759 89.6609 84.7557 94.7978 74.2611C95.392 73.048 95.9208 71.826 96.3843 70.595L60.869 63.3826Z" fill="#00FF00"/>
<path opacity="0.15" d="M38.2251 13.752C27.4766 19.9411 18.7623 36.528 18.7623 50.8084C18.7623 59.2937 21.8404 65.0557 26.6019 67.0363L28.568 65.9016L47.8987 54.7426L49.9143 53.579C54.6407 46.1418 57.6961 36.8684 57.6961 28.4099C57.6878 14.1337 48.9756 7.56908 38.2251 13.752Z" fill="#00FF00"/>
<path opacity="0.15" d="M38.2251 17.8822C29.1931 23.0811 21.8713 37.019 21.8713 49.0197C21.8713 61.0204 29.1931 66.537 38.2251 61.3423C47.2571 56.1475 54.5809 42.2034 54.5809 30.2027C54.5809 18.202 47.2591 12.6854 38.2251 17.8822Z" fill="#00FF00"/>
<path opacity="0.15" d="M38.2251 20.7932C30.4309 25.2948 24.1118 37.3677 24.1118 47.7592C24.1118 58.1508 30.4309 62.9308 38.2251 58.4313C46.0193 53.9318 52.3384 41.8569 52.3384 31.4633C52.3384 21.0696 46.0213 16.2896 38.2251 20.7932Z" fill="#00FF00"/>
<path d="M29.9027 48.2522C29.9027 39.2491 35.378 28.7895 42.1304 24.8883C45.1073 23.1718 47.8326 23.013 49.9514 24.1435L47.2055 22.555C45.0599 21.3172 42.2542 21.4203 39.1926 23.1904C32.4361 27.0916 26.9629 37.5512 26.9629 46.5544C26.9629 51.483 28.603 54.953 31.1963 56.4466C31.6398 56.7004 33.2882 57.6556 33.9607 58.0434C31.4624 56.4941 29.9027 53.0694 29.9027 48.2522Z" fill="#00FF00"/>
<path opacity="0.3" d="M29.9027 48.2522C29.9027 39.2491 35.378 28.7895 42.1304 24.8883C45.1073 23.1718 47.8326 23.013 49.9514 24.1435L47.2055 22.555C45.0599 21.3172 42.2542 21.4203 39.1926 23.1904C32.4361 27.0916 26.9629 37.5512 26.9629 46.5544C26.9629 51.483 28.603 54.953 31.1963 56.4466C31.6398 56.7004 33.2882 57.6556 33.9607 58.0434C31.4624 56.4941 29.9027 53.0694 29.9027 48.2522Z" fill="white"/>
<path d="M46.9352 26.776C48.0018 28.1995 48.5733 30.4647 48.4453 33.4107C48.138 40.6314 43.7457 49.2219 38.6376 52.5826C37.0862 53.6038 35.6442 54.0267 34.4022 53.9132C35.9536 55.9763 38.5531 56.2713 41.5775 54.2805C46.6876 50.9198 51.0798 42.3355 51.3872 35.1066C51.5977 30.0769 49.7781 27.0298 46.9352 26.776Z" fill="#00FF00"/>
<path opacity="0.15" d="M46.9352 26.776C48.0018 28.1995 48.5733 30.4647 48.4453 33.4107C48.138 40.6314 43.7457 49.2219 38.6376 52.5826C37.0862 53.6038 35.6442 54.0267 34.4022 53.9132C35.9536 55.9763 38.5531 56.2713 41.5775 54.2805C46.6876 50.9198 51.0798 42.3355 51.3872 35.1066C51.5977 30.0769 49.7781 27.0298 46.9352 26.776Z" fill="black"/>
<path d="M33.0179 28.9876L35.9578 30.6854L36.193 30.3698L33.2531 28.6678C33.1727 28.7771 33.0963 28.8741 33.0179 28.9876Z" fill="#00FF00"/>
<path d="M31.6687 38.82L28.7185 37.1263C28.6773 37.2397 28.6381 37.3573 28.5989 37.4729L31.5387 39.1708C31.58 39.0511 31.6171 38.9335 31.6687 38.82Z" fill="#00FF00"/>
<path d="M45.0785 21.8062L48.0204 23.5102C48.14 23.5309 48.2597 23.5515 48.3773 23.5762L45.4354 21.8784C45.3178 21.8474 45.1981 21.8247 45.0785 21.8062Z" fill="#00FF00"/>
<path d="M30.3174 43.8064C30.3401 43.6785 30.3648 43.5485 30.3896 43.4206L27.4498 41.7227C27.4229 41.8506 27.3982 41.9785 27.3755 42.1085L30.3174 43.8064Z" fill="#00FF00"/>
<path d="M35.9083 25.6867L38.8482 27.3846C38.9492 27.2876 39.0545 27.1907 39.1535 27.0978L36.2075 25.4C36.1105 25.4928 36.0012 25.5898 35.9083 25.6867Z" fill="#00FF00"/>
<path d="M30.3319 52.2937C30.3051 52.1803 30.2803 52.0647 30.2556 51.9492L30.2329 51.8976L27.3075 50.208C27.3343 50.34 27.3611 50.47 27.3921 50.5979L30.3319 52.2937Z" fill="#00FF00"/>
<path d="M42.5141 21.8824C42.3904 21.9072 42.2624 21.9402 42.1366 21.9712L45.0785 23.669C45.2064 23.636 45.3343 23.6072 45.4602 23.5824L42.5141 21.8824Z" fill="#00FF00"/>
<path d="M42.3141 24.7893L39.3742 23.0976C39.3123 23.1327 39.2525 23.1615 39.1927 23.1966L39.0132 23.306L41.953 25.0038L42.1304 24.8945L42.3141 24.7893Z" fill="#00FF00"/>
<path d="M30.5258 33.0002L33.4656 34.6981L33.6389 34.3762L30.6991 32.6783C30.6372 32.7815 30.5815 32.8888 30.5258 33.0002Z" fill="#00FF00"/>
<path d="M31.58 55.5327C31.5139 55.4193 31.452 55.3058 31.3881 55.1882L28.4503 53.4924C28.5122 53.61 28.5782 53.7234 28.6442 53.8369L31.58 55.5327Z" fill="#00FF00"/>
<path d="M26.9629 46.5874L29.9027 48.2873V48.2523C29.9027 48.1264 29.9027 47.9964 29.9027 47.8685L26.9608 46.1707C26.9608 46.2986 26.9608 46.4285 26.9608 46.5544L26.9629 46.5874Z" fill="#00FF00"/>
<path d="M42.1304 24.8883C35.378 28.7895 29.9027 39.2492 29.9027 48.2523C29.9027 57.2554 35.378 61.3959 42.1304 57.4968C48.8827 53.5976 54.3621 43.138 54.3621 34.1328C54.3621 25.1276 48.8848 20.9892 42.1304 24.8883ZM51.381 35.1066C51.0736 42.3272 46.6814 50.9177 41.5713 54.2784C36.4611 57.6391 32.5723 54.5054 32.8797 47.2785C33.1871 40.0517 37.5834 31.4674 42.6894 28.1067C47.7955 24.746 51.6905 27.8797 51.381 35.1066Z" fill="#00FF00"/>
<g opacity="0.15">
<path d="M39.628 30.8236C39.727 30.7143 39.824 30.6029 39.925 30.4956L39.1514 27.0978C39.0482 27.1906 38.9451 27.2855 38.8461 27.3825L39.628 30.8236Z" fill="black"/>
<path d="M41.9509 24.9956V28.6389C42.0706 28.5461 42.1902 28.4553 42.312 28.3687V24.7872L42.1304 24.8883L41.9509 24.9956Z" fill="black"/>
<path d="M44.4369 27.1906C44.5689 27.1391 44.701 27.0916 44.8309 27.0504L45.4498 23.5803C45.324 23.6051 45.1961 23.634 45.0682 23.6649L44.4369 27.1906Z" fill="black"/>
<path d="M34.4683 39.7277L34.5982 39.3853L31.6687 38.8179C31.6275 38.9335 31.5862 39.049 31.547 39.1645L34.4683 39.7277Z" fill="black"/>
<path d="M35.8566 36.5073L36.0217 36.1772L33.6368 34.3741L33.4656 34.698L35.8566 36.5073Z" fill="black"/>
<path d="M53.8608 29.8087L51.2676 32.241C51.2882 32.3854 51.3068 32.5319 51.3233 32.6845L53.966 30.2089C53.9268 30.0769 53.8959 29.9407 53.8608 29.8087Z" fill="black"/>
<path d="M32.9684 46.1005L29.9069 47.8664C29.9069 47.9964 29.9069 48.1243 29.9069 48.2522V48.2873L32.9313 46.542C32.9375 46.3955 32.954 46.2469 32.9684 46.1005Z" fill="black"/>
<path d="M33.4635 43.1091C33.4945 42.9791 33.5275 42.8491 33.5584 42.7171L30.3875 43.4165C30.3628 43.5444 30.338 43.6744 30.3153 43.8023L33.4635 43.1091Z" fill="black"/>
<path d="M46.8733 26.7739C46.9991 26.7842 47.1209 26.7987 47.2405 26.8193L48.3793 23.5659C48.2597 23.5411 48.14 23.5184 48.0183 23.4978L46.8733 26.7739Z" fill="black"/>
<path d="M50.4713 29.4807C50.5291 29.6024 50.5848 29.7303 50.6384 29.8603L52.7634 26.9988C52.6994 26.8833 52.6313 26.7719 52.557 26.6625L50.4713 29.4807Z" fill="black"/>
<path d="M48.9694 27.5641C49.0663 27.6383 49.1612 27.7167 49.2541 27.8013L50.855 24.7356C50.758 24.6593 50.6611 24.5871 50.56 24.517L48.9694 27.5641Z" fill="black"/>
<path d="M37.5834 33.5036L37.8062 33.1673L36.1909 30.3677L35.9557 30.6854L37.5834 33.5036Z" fill="black"/>
<path d="M44.6967 51.4912C44.5998 51.6047 44.4904 51.714 44.4017 51.8213L45.1754 55.2294C45.2785 55.1366 45.3817 55.0355 45.4807 54.9386L44.6967 51.4912Z" fill="black"/>
<path d="M48.532 45.6301C48.4783 45.7415 48.4226 45.8509 48.3669 45.9602L50.758 47.7674L50.9251 47.4394L48.532 45.6301Z" fill="black"/>
<path d="M46.7867 48.7205L46.5638 49.0589L48.1833 51.8646C48.2617 51.7594 48.3422 51.6583 48.4185 51.549L46.7867 48.7205Z" fill="black"/>
<path d="M49.9102 42.3313C49.8689 42.4468 49.8297 42.5624 49.7864 42.6758L52.7159 43.2411C52.7572 43.1256 52.7964 43.01 52.8356 42.8945L49.9102 42.3313Z" fill="black"/>
<path d="M50.8777 38.9087C50.8509 39.0387 50.824 39.1687 50.7931 39.2966L53.9495 38.6055C53.9722 38.4755 53.9929 38.3476 54.0156 38.2197L50.8777 38.9087Z" fill="black"/>
<path d="M54.3621 33.7532L51.3584 35.4758C51.3584 35.6202 51.3398 35.7646 51.3295 35.9111L54.3621 34.1678V34.1328C54.3621 34.0049 54.3621 33.879 54.3621 33.7532Z" fill="black"/>
<path d="M42.312 57.3874V53.7482C42.1923 53.841 42.0706 53.9318 41.9509 54.0184V57.5999L42.1304 57.4967C42.1902 57.4616 42.2521 57.4224 42.312 57.3874Z" fill="black"/>
<path d="M33.6926 52.6898C33.6369 52.564 33.5833 52.434 33.5317 52.2979L31.3882 55.1861C31.4501 55.3037 31.5161 55.4192 31.5821 55.5306L33.6926 52.6898Z" fill="black"/>
<path d="M35.1634 54.7219C35.0685 54.6435 34.9757 54.561 34.8849 54.4723L33.2758 57.5504C33.3707 57.6287 33.4676 57.703 33.5666 57.7752L35.1634 54.7219Z" fill="black"/>
<path d="M39.7558 55.2253C39.6237 55.2749 39.4938 55.3182 39.3638 55.3594L38.7449 58.8192C38.8728 58.7944 39.0007 58.7676 39.1286 58.7366L39.7558 55.2253Z" fill="black"/>
<path d="M37.2699 55.6028C37.1461 55.5905 37.0265 55.5719 36.9068 55.5492L35.7804 58.7882C35.9001 58.8171 36.0197 58.8397 36.1394 58.8604L37.2699 55.6028Z" fill="black"/>
<path d="M32.9622 49.8367C32.9457 49.6881 32.9313 49.5355 32.9189 49.3807L30.2369 51.8832C30.2658 52.0214 30.2947 52.1576 30.3257 52.2958L32.9622 49.8367Z" fill="black"/>
</g>
<path d="M45.4312 72.297L31.4562 64.2284V56.589L34.3981 58.2869L38.0785 60.4139V62.9597L41.7549 65.0805V67.6283L45.4312 69.7491V72.297Z" fill="#263238"/>
<path d="M34.4022 58.291L49.842 49.3766L53.5163 51.4995L38.0786 60.4139L34.4022 58.291Z" fill="#455A64"/>
<path d="M38.0786 60.4139V62.9597L53.5164 54.0453V51.4995L38.0786 60.4139Z" fill="#37474F"/>
<path d="M38.0786 62.9597L53.5164 54.0453L57.1927 56.1682L41.755 65.0805L38.0786 62.9597Z" fill="#455A64"/>
<path d="M41.7549 65.0805V67.6284L57.1926 58.714V56.1682L41.7549 65.0805Z" fill="#37474F"/>
<path d="M41.7549 67.6283L57.1926 58.7139L60.869 60.8368L45.4312 69.7491L41.7549 67.6283Z" fill="#455A64"/>
<path d="M45.4313 69.7491V72.297L60.869 63.3826V60.8368L45.4313 69.7491Z" fill="#37474F"/>
<path d="M49.8523 34.238C49.5449 41.4587 45.1507 50.0492 40.0426 53.4119C38.1446 54.6601 36.4157 55.0129 35.0046 54.5899C33.5605 53.2716 32.7353 50.7465 32.8797 47.2826C33.1891 40.062 37.5834 31.4715 42.6894 28.1108C44.5895 26.8606 46.3225 26.5099 47.7315 26.9349C49.1839 28.2552 50.0009 30.7721 49.8523 34.238Z" fill="#00FF00"/>
<path opacity="0.9" d="M49.8523 34.238C49.5449 41.4587 45.1507 50.0492 40.0426 53.4119C38.1446 54.6601 36.4157 55.0129 35.0046 54.5899C33.5605 53.2716 32.7353 50.7465 32.8797 47.2826C33.1891 40.062 37.5834 31.4715 42.6894 28.1108C44.5895 26.8606 46.3225 26.5099 47.7315 26.9349C49.1839 28.2552 50.0009 30.7721 49.8523 34.238Z" fill="white"/>
<path opacity="0.1" d="M40.02 49.7108C38.4253 49.8954 36.9496 50.6457 35.8609 51.8255C35.2727 52.4567 34.7931 53.181 34.4415 53.969C34.6113 54.1909 34.7997 54.398 35.0047 54.5879C35.3084 54.6766 35.6213 54.7306 35.9372 54.7488C36.0197 54.5425 36.0816 54.3259 36.1538 54.1175C36.5106 53.1473 37.1464 52.3042 37.9811 51.6945C38.8159 51.0848 39.8124 50.7355 40.8452 50.6908C41.5528 50.6722 42.2542 50.8001 42.9577 50.8558C43.2362 50.5484 43.5086 50.2369 43.783 49.8986C42.5369 49.8346 41.2516 49.5871 40.02 49.7108ZM39.7146 39.146C41.1588 39.3337 42.7349 39.4142 43.9975 38.6756C45.4272 37.838 46.1059 36.1773 46.795 34.6733C47.4366 33.2767 48.3134 31.8016 49.7142 31.2611C49.4233 29.3074 48.726 27.8364 47.7296 26.9287C47.0499 26.7331 46.3334 26.7027 45.6397 26.84C44.9407 27.6403 44.4316 28.5881 44.1502 29.6127C43.8201 30.768 43.7046 31.9955 43.1744 33.0704C42.6344 34.1511 41.718 34.997 40.5976 35.449C39.7146 35.7998 38.7553 35.8843 37.8166 36.0288C37.1619 36.1254 36.5146 36.2674 35.8794 36.4537C35.3894 37.4271 34.9527 38.4264 34.5715 39.4472C34.8248 39.3176 35.0884 39.2093 35.3596 39.1233C36.7604 38.6921 38.2705 38.9603 39.7146 39.146ZM41.1918 31.9254C41.6539 31.127 41.8107 30.1965 42.0644 29.3074C42.1552 28.9752 42.2707 28.6513 42.378 28.3274C42.0479 28.5599 41.7206 28.8129 41.396 29.0866C40.9298 30.2192 40.4759 31.356 39.6156 32.2101C39.1771 32.6397 38.6536 32.9728 38.0786 33.1879C37.97 33.2243 37.8581 33.2499 37.7444 33.2643C37.534 33.5737 37.3277 33.8901 37.1255 34.2133C37.591 34.176 38.0522 34.0972 38.5036 33.9781C39.6214 33.6427 40.5781 32.9105 41.1938 31.9192L41.1918 31.9254ZM49.8565 33.1776C49.4531 33.3867 49.0876 33.6622 48.7755 33.9925C48.0081 34.8343 47.5955 35.9256 47.1251 36.9654C46.469 38.4466 45.6129 39.9547 44.1873 40.7222C43.2383 41.2317 42.1243 41.3597 41.0577 41.3885C39.0256 41.4442 36.9625 41.1822 34.9758 41.6175C34.5476 41.7111 34.1291 41.8444 33.7256 42.0157C33.5881 42.5095 33.4677 43.0012 33.3646 43.4908C33.8272 43.2459 34.3167 43.0555 34.8232 42.9234C37.7589 42.1807 41.0123 43.8106 43.8242 42.7171C45.8873 41.9105 47.1436 39.8619 48.1566 37.8937C48.5692 37.0912 49.0128 36.2433 49.7245 35.711C49.7795 35.22 49.818 34.7332 49.84 34.2504C49.8669 33.8688 49.871 33.516 49.8648 33.1714L49.8565 33.1776ZM42.5328 45.2031C40.9442 45.2609 39.3577 45.1123 37.7692 45.0896C36.9552 45.0453 36.1394 45.1289 35.3513 45.3372C34.6614 45.5705 34.0126 45.911 33.4285 46.346C33.2491 46.4739 33.0758 46.606 32.9045 46.7401C32.8922 46.9237 32.8798 47.1052 32.8715 47.2847C32.7828 49.3787 33.0489 51.1261 33.5915 52.4753C33.9422 52.171 34.254 51.8245 34.5199 51.4438C35.6112 49.9687 36.6634 48.3369 38.318 47.5467C40.0942 46.6988 42.1882 47.0021 44.1192 46.6142C44.9639 46.4417 45.7754 46.1345 46.5227 45.7044C46.828 45.1323 47.1161 44.5491 47.3871 43.955C47.3046 44.0045 47.22 44.0519 47.1354 44.0994C45.7387 44.8648 44.1275 45.1391 42.541 45.1969L42.5328 45.2031Z" fill="#00FF00"/>
<path d="M53.4564 21.5235C53.4564 22.2249 53.3244 22.848 52.4662 22.9986C53.345 23.0357 53.4069 23.6175 53.4564 24.4303C53.4853 23.6237 53.5617 23.0357 54.358 22.9986C53.5369 22.8624 53.4564 22.2249 53.4564 21.5235Z" fill="#00FF00"/>
<path d="M33.4326 58.8666C33.4326 59.5681 33.3006 60.1911 32.4424 60.3417C33.3212 60.3788 33.3831 60.9606 33.4326 61.7735C33.4615 60.9648 33.5379 60.3788 34.3342 60.3417C33.509 60.2035 33.4326 59.5681 33.4326 58.8666Z" fill="#00FF00"/>
<path d="M26.9815 37.2542C26.9815 37.5616 26.9237 37.8319 26.5482 37.8979C26.9319 37.9144 26.9608 38.1723 26.9815 38.5168C26.9938 38.164 27.0268 37.8979 27.3755 37.8979C27.0145 37.8381 26.9815 37.5616 26.9815 37.2542Z" fill="#00FF00"/>
<path d="M25.2938 38.4611C25.2938 39.1605 25.1598 39.7835 24.3036 39.9341C25.1824 39.9713 25.2443 40.553 25.2938 41.3679C25.3207 40.5592 25.397 39.9733 26.1954 39.9341C25.3702 39.8083 25.2938 39.1605 25.2938 38.4611Z" fill="#E0E0E0"/>
<path d="M24.4893 34.9457C24.4893 35.3067 24.4212 35.6244 23.9818 35.7028C24.4316 35.7214 24.4646 36.0226 24.4893 36.4373C24.5038 36.0247 24.543 35.7214 24.9535 35.7028C24.5285 35.6327 24.4893 35.3067 24.4893 34.9457Z" fill="#E0E0E0"/>
<path d="M51.0737 19.4151C51.0737 19.8277 51.0634 20.2197 50.4713 20.3125C51.0902 20.3125 51.049 20.6983 51.0799 21.1934C51.0964 20.6983 51.1397 20.3435 51.6287 20.3208C51.1232 20.2362 51.1377 20.0031 51.0737 19.4151Z" fill="#E0E0E0"/>
<path d="M56.2189 38.5085C56.1756 39.2822 56.1137 39.6164 55.4143 39.7092C56.1261 39.7484 56.1859 40.2209 56.2271 40.879C56.2498 40.2209 56.3076 39.7422 56.9575 39.7092C56.289 39.602 56.2725 39.2925 56.2189 38.5085Z" fill="#E0E0E0"/>
<path d="M30.5898 58.8728C30.565 59.3246 30.5299 59.5185 30.1215 59.5742C30.5341 59.5969 30.5712 59.8693 30.596 60.253C30.6083 59.8693 30.6413 59.5907 31.0209 59.5742C30.6372 59.5082 30.6207 59.3308 30.5898 58.8728Z" fill="#E0E0E0"/>
<path d="M54.7582 20.8056C54.7582 21.0552 54.7582 21.2945 54.3931 21.3502C54.7727 21.3502 54.7438 21.5834 54.7624 21.8825C54.7727 21.5834 54.7974 21.3688 55.0924 21.3544C54.7871 21.3028 54.7954 21.1625 54.7582 20.8056Z" fill="#E0E0E0"/>
<path d="M55.5361 40.7573C55.5361 41.0048 55.5361 41.2441 55.1709 41.2998C55.5484 41.2998 55.5196 41.535 55.5381 41.8342C55.5484 41.535 55.5753 41.3184 55.8703 41.306C55.5649 41.2524 55.5732 41.1121 55.5361 40.7573Z" fill="#E0E0E0"/>
<path d="M32.4939 57.8888C32.4939 58.1364 32.4939 58.3757 32.1288 58.4314C32.5084 58.4314 32.4795 58.6645 32.4981 58.9636C32.5084 58.6645 32.5352 58.4499 32.8302 58.4355C32.529 58.386 32.5373 58.2436 32.4939 57.8888Z" fill="#E0E0E0"/>
<path d="M73.5999 55.8133L80.0965 52.0627L89.9042 57.7237L94.61 55.0067L84.8043 49.3457L87.9897 47.5055L82.8321 44.5244L79.6467 46.3646L73.961 43.0864L69.2531 45.8055L74.9327 49.0919L62.8206 56.0733L66.6104 58.2601L97.1805 66.4669L97.7747 66.1244C98.0662 64.9526 98.3076 63.7567 98.4988 62.5368L73.5999 55.8133Z" fill="#263238"/>
<path d="M74.2107 27.036L73.9672 27.1763V19.25L71.0253 17.5522L67.3861 19.6523L70.3878 8.3675L67.448 6.66962L62.3874 9.59088L54.2095 40.1693V44.5533L57.1493 46.2511L66.3278 40.9491V44.1076L69.2697 45.8055L73.961 43.0864V36.5342L77.1443 34.696V28.7338L74.2107 27.036ZM66.3278 31.5932L63.8377 33.0374L66.3278 23.667V31.5932Z" fill="#00FF00"/>
<path opacity="0.3" d="M74.2107 27.036L73.9672 27.1763V19.25L71.0253 17.5522L67.3861 19.6523L70.3878 8.3675L67.448 6.66962L62.3874 9.59088L54.2095 40.1693V44.5533L57.1493 46.2511L66.3278 40.9491V44.1076L69.2697 45.8055L73.961 43.0864V36.5342L77.1443 34.696V28.7338L74.2107 27.036ZM66.3278 31.5932L63.8377 33.0374L66.3278 23.667V31.5932Z" fill="black"/>
<path d="M73.9651 30.572V19.25L69.2593 21.9671V33.2911L62.7608 37.0417L70.3878 8.36749L65.3272 11.2888L57.1493 41.8672V46.2429L69.2593 39.2533V45.8055L73.9651 43.0864V36.5342L77.1505 34.696V28.7338L73.9651 30.572Z" fill="#00FF00"/>
<path opacity="0.3" d="M73.9651 30.572V19.25L69.2593 21.9671V33.2911L62.7608 37.0417L70.3878 8.36749L65.3272 11.2888L57.1493 41.8672V46.2429L69.2593 39.2533V45.8055L73.9651 43.0864V36.5342L77.1505 34.696V28.7338L73.9651 30.572Z" fill="white"/>
<path d="M70.3878 8.3675L67.448 6.66962L62.3873 9.59088L65.3272 11.2888L70.3878 8.3675Z" fill="#00FF00"/>
<path opacity="0.5" d="M70.3878 8.3675L67.448 6.66962L62.3873 9.59088L65.3272 11.2888L70.3878 8.3675Z" fill="white"/>
<path d="M71.0253 17.5522L73.9652 19.2501L69.2594 21.9671L67.1014 20.721L67.3861 19.6524L71.0253 17.5522Z" fill="#00FF00"/>
<path opacity="0.5" d="M71.0253 17.5522L73.9652 19.2501L69.2594 21.9671L67.1014 20.721L67.3861 19.6524L71.0253 17.5522Z" fill="white"/>
<path d="M69.2593 33.2911L66.3174 31.5932L63.8273 33.0311L62.7607 37.0417L69.2593 33.2911Z" fill="#00FF00"/>
<path opacity="0.5" d="M69.2593 33.2911L66.3174 31.5932L63.8273 33.0311L62.7607 37.0417L69.2593 33.2911Z" fill="white"/>
<path d="M77.1505 28.7338L74.2107 27.0359L73.9652 27.1762V30.572L77.1505 28.7338Z" fill="#00FF00"/>
<path opacity="0.5" d="M73.9652 30.572L77.1505 28.7338L74.2107 27.0359L73.9652 27.1762V30.572Z" fill="white"/>
<path d="M57.1493 41.8672L54.2095 40.1693L62.3874 9.59088L65.3272 11.2888L57.1493 41.8672Z" fill="#00FF00"/>
<path opacity="0.15" d="M57.1493 41.8672L54.2095 40.1693L62.3874 9.59088L65.3272 11.2888L57.1493 41.8672Z" fill="black"/>
<path d="M40.2199 75.0863L35.0561 72.1052L31.8728 73.9433L26.1974 70.6672L21.4896 73.3843L27.165 76.6604L15.0549 83.652L18.8447 85.8409L49.417 94.0477L54.4776 91.1264L25.8302 83.3941L32.3288 79.6415L42.1344 85.3045L46.8423 82.5854L37.0346 76.9244L40.2199 75.0863Z" fill="#263238"/>
<path d="M26.4409 54.6147L26.1974 54.7571V46.8226L23.2556 45.1247L19.6163 47.2352L22.6181 35.9504L19.6782 34.2525L14.6176 37.1696L6.4397 67.7501V72.1258L9.38778 73.8237L18.558 68.5299V71.6864L21.4978 73.3843L26.2057 70.6672V64.113L29.389 62.2748V56.3126L26.4409 54.6147ZM18.5498 59.172L16.0597 60.6161L18.5498 51.254V59.172Z" fill="#00FF00"/>
<path opacity="0.3" d="M26.4409 54.6147L26.1974 54.7571V46.8226L23.2556 45.1247L19.6163 47.2352L22.6181 35.9504L19.6782 34.2525L14.6176 37.1696L6.4397 67.7501V72.1258L9.38778 73.8237L18.558 68.5299V71.6864L21.4978 73.3843L26.2057 70.6672V64.113L29.389 62.2748V56.3126L26.4409 54.6147ZM18.5498 59.172L16.0597 60.6161L18.5498 51.254V59.172Z" fill="black"/>
<path d="M26.1974 58.1528V46.8288L21.4896 49.5458V60.8698L14.991 64.6204L22.6201 35.9462L17.5595 38.8675L9.37952 69.4459V73.8237L21.4896 66.832V73.3842L26.1974 70.6672V64.1129L29.3807 62.2748V56.3126L26.1974 58.1528Z" fill="#00FF00"/>
<path opacity="0.3" d="M26.1974 58.1528V46.8288L21.4896 49.5458V60.8698L14.991 64.6204L22.6201 35.9462L17.5595 38.8675L9.37952 69.4459V73.8237L21.4896 66.832V73.3842L26.1974 70.6672V64.1129L29.3807 62.2748V56.3126L26.1974 58.1528Z" fill="white"/>
<path d="M22.6201 35.9462L19.6782 34.2484L14.6176 37.1696L17.5595 38.8675L22.6201 35.9462Z" fill="#00FF00"/>
<path opacity="0.5" d="M22.6201 35.9462L19.6782 34.2484L14.6176 37.1696L17.5595 38.8675L22.6201 35.9462Z" fill="white"/>
<path d="M23.2556 45.1309L26.1975 46.8288L21.4896 49.5458L19.3317 48.3018L19.6164 47.2332L23.2556 45.1309Z" fill="#00FF00"/>
<path opacity="0.5" d="M23.2556 45.1309L26.1975 46.8288L21.4896 49.5458L19.3317 48.3018L19.6164 47.2332L23.2556 45.1309Z" fill="white"/>
<path d="M21.4895 60.8698L18.5497 59.1719L16.0596 60.6099L14.991 64.6204L21.4895 60.8698Z" fill="#00FF00"/>
<path opacity="0.5" d="M21.4895 60.8698L18.5497 59.1719L16.0596 60.6099L14.991 64.6204L21.4895 60.8698Z" fill="white"/>
<path d="M29.3808 56.3126L26.441 54.6147L26.1975 54.757V58.1528L29.3808 56.3126Z" fill="#00FF00"/>
<path opacity="0.5" d="M26.1975 58.1528L29.3808 56.3126L26.441 54.6147L26.1975 54.757V58.1528Z" fill="white"/>
<path d="M9.37953 69.4459L6.4397 67.7501L14.6176 37.1696L17.5595 38.8675L9.37953 69.4459Z" fill="#00FF00"/>
<path opacity="0.15" d="M9.37953 69.4459L6.4397 67.7501L14.6176 37.1696L17.5595 38.8675L9.37953 69.4459Z" fill="black"/>
<path d="M29.4757 19.479C29.5953 18.9138 27.2909 20.2444 27.1713 20.8097L27.914 22.8088C27.9389 22.8688 27.9823 22.9194 28.0377 22.9532C28.2007 23.0543 28.8011 23.3926 28.8526 23.4236C28.8941 23.4494 28.9409 23.4655 28.9894 23.4705C29.038 23.4755 29.0871 23.4692 29.1329 23.4523C29.1787 23.4354 29.2201 23.4082 29.2537 23.3728C29.2874 23.3374 29.3125 23.2948 29.3271 23.2482L30.2906 19.9473C30.3504 19.6709 29.4757 19.479 29.4757 19.479Z" fill="#00FF00"/>
<path opacity="0.25" d="M29.4757 19.479C29.5953 18.9138 27.2909 20.2444 27.1713 20.8097L27.914 22.8088C27.9389 22.8688 27.9823 22.9194 28.0377 22.9532C28.2007 23.0543 28.8011 23.3926 28.8526 23.4236C28.8941 23.4494 28.9409 23.4655 28.9894 23.4705C29.038 23.4755 29.0871 23.4692 29.1329 23.4523C29.1787 23.4354 29.2201 23.4082 29.2537 23.3728C29.2874 23.3374 29.3125 23.2948 29.3271 23.2482L30.2906 19.9473C30.3504 19.6709 29.4757 19.479 29.4757 19.479Z" fill="black"/>
<path d="M37.3111 8.45L18.0835 19.5409C17.9939 19.6001 17.9195 19.6794 17.8661 19.7726C17.8127 19.8657 17.7819 19.9701 17.7761 20.0773V26.351C17.7816 26.4582 17.8125 26.5626 17.8664 26.6555C17.9202 26.7484 17.9953 26.8272 18.0856 26.8853L18.2774 26.9967C18.3735 27.045 18.4794 27.0701 18.5869 27.0701C18.6944 27.0701 18.8003 27.045 18.8964 26.9967L38.1239 15.877C38.2141 15.8187 38.2891 15.7399 38.3429 15.647C38.3967 15.5541 38.4277 15.4498 38.4334 15.3426V9.08542C38.4279 8.97819 38.3969 8.87381 38.3431 8.7809C38.2893 8.68799 38.2142 8.60922 38.1239 8.55109L37.93 8.43969C37.8332 8.39302 37.7268 8.36964 37.6193 8.37143C37.5118 8.37322 37.4063 8.40013 37.3111 8.45Z" fill="#00FF00"/>
<path opacity="0.25" d="M37.3111 8.45L18.0835 19.5409C17.9939 19.6001 17.9195 19.6794 17.8661 19.7726C17.8127 19.8657 17.7819 19.9701 17.7761 20.0773V26.351C17.7816 26.4582 17.8125 26.5626 17.8664 26.6555C17.9202 26.7484 17.9953 26.8272 18.0856 26.8853L18.2774 26.9967C18.3735 27.045 18.4794 27.0701 18.5869 27.0701C18.6944 27.0701 18.8003 27.045 18.8964 26.9967L38.1239 15.877C38.2141 15.8187 38.2891 15.7399 38.3429 15.647C38.3967 15.5541 38.4277 15.4498 38.4334 15.3426V9.08542C38.4279 8.97819 38.3969 8.87381 38.3431 8.7809C38.2893 8.68799 38.2142 8.60922 38.1239 8.55109L37.93 8.43969C37.8332 8.39302 37.7268 8.36964 37.6193 8.37143C37.5118 8.37322 37.4063 8.40013 37.3111 8.45Z" fill="black"/>
<path d="M38.4333 9.0854V9.20712C38.4335 9.15706 38.4205 9.10784 38.3956 9.06442C38.3707 9.021 38.3347 8.98491 38.2914 8.95981C38.2481 8.9347 38.199 8.92146 38.1489 8.92141C38.0988 8.92137 38.0496 8.93453 38.0063 8.95956L19.0139 19.9308C18.8841 20.0049 18.7765 20.1125 18.7024 20.2423L17.8772 19.7596C17.9293 19.6628 18.0062 19.5816 18.1 19.5244L37.3111 8.44998C37.4071 8.40172 37.513 8.37659 37.6205 8.37659C37.728 8.37659 37.8339 8.40172 37.93 8.44998L38.1239 8.56139C38.2128 8.6185 38.2871 8.69565 38.3408 8.78664C38.3946 8.87764 38.4263 8.97996 38.4333 9.0854Z" fill="#00FF00"/>
<path opacity="0.45" d="M38.4333 9.0854V9.20712C38.4335 9.15706 38.4205 9.10784 38.3956 9.06442C38.3707 9.021 38.3347 8.98491 38.2914 8.95981C38.2481 8.9347 38.199 8.92146 38.1489 8.92141C38.0988 8.92137 38.0496 8.93453 38.0063 8.95956L19.0139 19.9308C18.8841 20.0049 18.7765 20.1125 18.7024 20.2423L17.8772 19.7596C17.9293 19.6628 18.0062 19.5816 18.1 19.5244L37.3111 8.44998C37.4071 8.40172 37.513 8.37659 37.6205 8.37659C37.728 8.37659 37.8339 8.40172 37.93 8.44998L38.1239 8.56139C38.2128 8.6185 38.2871 8.69565 38.3408 8.78664C38.3946 8.87764 38.4263 8.97996 38.4333 9.0854Z" fill="white"/>
<path d="M38.1486 9.0318C38.118 9.03174 38.0879 9.04032 38.062 9.05656L19.0696 20.0278C18.9572 20.093 18.8639 20.1865 18.799 20.2992C18.7342 20.4118 18.7002 20.5395 18.7003 20.6694V26.6687C18.7003 26.7286 18.7003 26.8627 18.8241 26.8627C18.8725 26.8602 18.9194 26.8453 18.9603 26.8193L28.1862 21.4905L28.8051 23.1987C28.8313 23.2583 28.875 23.3086 28.9303 23.3429C28.9857 23.3771 29.0502 23.3938 29.1152 23.3907C29.1802 23.3876 29.2428 23.3648 29.2946 23.3253C29.3464 23.2859 29.3851 23.2317 29.4054 23.1698L30.2307 20.3063L37.9464 15.8522C38.2043 15.7057 38.3178 15.5551 38.3178 15.3674V9.20716C38.3178 9.1617 38.3002 9.11801 38.2686 9.0853C38.2371 9.05259 38.194 9.0334 38.1486 9.0318Z" fill="#263238"/>
<path d="M18.8242 26.974C18.6818 26.974 18.589 26.8544 18.589 26.6687V20.6694C18.5891 20.5202 18.6285 20.3736 18.703 20.2443C18.7776 20.1151 18.8848 20.0077 19.014 19.9329L38.0063 8.96162C38.0493 8.9358 38.0985 8.92224 38.1487 8.92243C38.224 8.92297 38.2961 8.95313 38.3494 9.00641C38.4027 9.05968 38.4328 9.13179 38.4334 9.20713V15.3674C38.4212 15.4938 38.375 15.6146 38.2999 15.717C38.2247 15.8194 38.1233 15.8996 38.0063 15.9491L30.3298 20.3806L29.5045 23.2007C29.4786 23.2851 29.4272 23.3593 29.3574 23.4132C29.2876 23.4672 29.2028 23.4982 29.1146 23.5019C29.0279 23.5055 28.9421 23.4828 28.8685 23.4368C28.7949 23.3907 28.7368 23.3236 28.702 23.2441L28.1264 21.6535L19.016 26.9163C18.9583 26.9521 18.8921 26.972 18.8242 26.974ZM38.1487 9.14317C38.1386 9.14036 38.1279 9.14036 38.1177 9.14317L19.1254 20.1227C19.0297 20.1784 18.9502 20.2582 18.8949 20.3541C18.8395 20.45 18.8102 20.5587 18.8097 20.6694V26.6687C18.808 26.6985 18.8137 26.7283 18.8262 26.7554C18.854 26.7499 18.8806 26.7394 18.9046 26.7244L28.244 21.3296L28.9042 23.1615C28.9204 23.2021 28.949 23.2366 28.986 23.2599C29.0229 23.2831 29.0664 23.2941 29.11 23.2911C29.1536 23.2881 29.1951 23.2714 29.2286 23.2433C29.262 23.2151 29.2857 23.1771 29.2962 23.1347L30.142 20.2341L30.1792 20.2114L37.8949 15.7573C38.1734 15.5964 38.2126 15.4705 38.2126 15.3674V9.20713C38.2121 9.19033 38.2052 9.17436 38.1933 9.16248C38.1815 9.15059 38.1655 9.14369 38.1487 9.14317Z" fill="#00FF00"/>
<path opacity="0.3" d="M20.4745 24.5417C20.3528 24.5417 20.2084 24.4571 20.2084 24.2158V21.2244C20.2038 21.1356 20.2237 21.0473 20.2659 20.969C20.3081 20.8908 20.371 20.8257 20.4477 20.7808L20.5179 20.7395C20.5705 20.7086 20.6301 20.6915 20.6912 20.69C20.7523 20.6911 20.8115 20.7117 20.8602 20.7488C20.9088 20.7859 20.9443 20.8376 20.9614 20.8963L21.3121 21.7731V20.591C21.3078 20.5023 21.3278 20.414 21.3699 20.3359C21.4121 20.2577 21.4749 20.1925 21.5515 20.1474L21.5907 20.1248C21.6417 20.0936 21.7 20.0765 21.7598 20.0752C21.8192 20.0751 21.8768 20.0956 21.9227 20.1332C21.9686 20.1709 22 20.2233 22.0115 20.2815C22.0287 20.2257 22.0501 20.1712 22.0755 20.1186L22.1889 19.9123C22.2436 19.7996 22.3295 19.7051 22.4365 19.6399L23.1194 19.2459C23.1772 19.2105 23.2434 19.1913 23.3112 19.1902C23.3866 19.1897 23.4598 19.216 23.5175 19.2645C23.5224 19.1854 23.5465 19.1086 23.5879 19.041C23.6292 18.9734 23.6865 18.9169 23.7548 18.8766L24.8647 18.2371C24.9153 18.2047 24.9738 18.1869 25.0339 18.1855C25.1577 18.1855 25.3 18.2721 25.3 18.5176V18.5589C25.3036 18.6461 25.2832 18.7326 25.241 18.809C25.1988 18.8854 25.1364 18.9488 25.0607 18.9921L24.809 19.1386C24.7925 19.1386 24.7657 19.1634 24.7657 19.2418V21.8041C24.7703 21.8926 24.7506 21.9807 24.7088 22.0589C24.667 22.137 24.6046 22.2023 24.5284 22.2476L24.4892 22.2703C24.438 22.301 24.3797 22.318 24.3201 22.3198C24.1901 22.3198 24.0539 22.2332 24.0539 21.9897V19.5781L23.9508 19.6379C23.8994 19.6703 23.8402 19.6881 23.7795 19.6895H23.7672V22.0991C23.7657 22.2256 23.7346 22.3499 23.6764 22.4622L23.5629 22.6809C23.5082 22.793 23.4222 22.8868 23.3154 22.9511L22.6366 23.3431C22.5748 23.3817 22.5032 23.4017 22.4303 23.4009C22.3608 23.401 22.2932 23.3778 22.2384 23.3348L22.1209 23.2482C22.0752 23.2129 22.0391 23.1668 22.0156 23.1141V23.3967C22.0198 23.4846 21.9996 23.5719 21.9574 23.649C21.9152 23.7262 21.8526 23.7902 21.7763 23.8341L21.7371 23.8568C21.6852 23.8895 21.6252 23.9073 21.5638 23.9084C21.503 23.9069 21.4443 23.8861 21.3961 23.849C21.3479 23.8119 21.3127 23.7605 21.2956 23.7021L20.9119 22.7531V24.0218C20.916 24.11 20.8958 24.1975 20.8536 24.275C20.8114 24.3525 20.7488 24.4169 20.6726 24.4613L20.6334 24.484C20.5862 24.5163 20.5315 24.5362 20.4745 24.5417ZM22.7439 20.3352C22.7295 20.3352 22.7026 20.3599 22.7026 20.4342V22.4271L23.0203 22.2456C23.0348 22.2456 23.0616 22.2208 23.0616 22.1465V20.1536L22.7439 20.3352ZM25.9519 21.3832C25.8302 21.3832 25.6858 21.2986 25.6858 21.0573V18.07C25.6822 17.9819 25.7025 17.8945 25.7447 17.8172C25.7868 17.7398 25.8492 17.6753 25.9251 17.6305L27.033 16.9931C27.0834 16.9604 27.142 16.9425 27.2021 16.9415C27.2536 16.9411 27.3039 16.9566 27.3463 16.9857C27.3888 17.0149 27.4212 17.0563 27.4394 17.1045C27.4517 17.0699 27.4662 17.0361 27.4827 17.0034L27.5962 16.7971C27.6502 16.684 27.7363 16.5893 27.8437 16.5247L28.5266 16.1307C28.5843 16.0951 28.6506 16.0758 28.7185 16.075C28.7936 16.0737 28.8668 16.0993 28.9248 16.1472L29.03 16.2277C29.0764 16.2636 29.1132 16.3103 29.1373 16.3638V16.0709C29.1332 15.9828 29.1534 15.8952 29.1955 15.8177C29.2377 15.7403 29.3003 15.6758 29.3766 15.6315L29.4158 15.6088C29.4668 15.5776 29.5252 15.5605 29.5849 15.5592C29.7067 15.5592 29.8511 15.6438 29.8511 15.8852V18.3052L30.1667 18.1215C30.1832 18.1215 30.21 18.0968 30.21 18.0184V15.452C30.2041 15.3657 30.2214 15.2793 30.2603 15.202C30.2991 15.1247 30.358 15.0593 30.4308 15.0125L30.47 14.9898C30.521 14.9587 30.5794 14.9416 30.6392 14.9403C30.6851 14.9398 30.7302 14.9521 30.7696 14.9758C30.8089 14.9995 30.8409 15.0336 30.862 15.0744C30.8574 14.9857 30.8772 14.8973 30.9195 14.8191C30.9617 14.7409 31.0246 14.6758 31.1013 14.6309L31.1714 14.5917C31.2226 14.559 31.2819 14.5411 31.3427 14.5401C31.4042 14.5407 31.4639 14.5611 31.5129 14.5983C31.5619 14.6354 31.5977 14.6874 31.615 14.7464L31.9657 15.6232V14.4328C31.9615 14.3444 31.9815 14.2565 32.0237 14.1787C32.0659 14.1009 32.1286 14.0361 32.205 13.9913L32.2421 13.9686C32.2928 13.9365 32.3513 13.9187 32.4113 13.9171C32.458 13.9168 32.5038 13.9296 32.5435 13.954C32.5833 13.9785 32.6154 14.0135 32.6362 14.0553C32.6314 13.965 32.652 13.8751 32.6958 13.796C32.7396 13.7168 32.8047 13.6515 32.8837 13.6076L33.7791 13.0918C33.8375 13.0559 33.9044 13.0359 33.973 13.0341C34.0484 13.0339 34.1214 13.0602 34.1793 13.1084L34.2845 13.1888C34.3348 13.2304 34.3744 13.2833 34.4002 13.3432C34.4261 13.4031 34.4373 13.4683 34.4331 13.5333V15.943C34.4314 16.0701 34.4003 16.195 34.3423 16.3081L34.2288 16.5144C34.1733 16.6272 34.0867 16.7217 33.9792 16.7868L33.0797 17.3211C33.0285 17.3517 32.9702 17.3688 32.9106 17.3706C32.8643 17.3715 32.8187 17.3594 32.779 17.3357C32.7392 17.312 32.7069 17.2776 32.6857 17.2365C32.6897 17.3244 32.6698 17.4117 32.628 17.4891C32.5862 17.5665 32.5241 17.6311 32.4484 17.6759L32.4092 17.6966C32.3567 17.7296 32.296 17.7475 32.2339 17.7481C32.175 17.7471 32.1178 17.7279 32.0702 17.6932C32.0226 17.6585 31.9868 17.61 31.9678 17.5542L31.582 16.6031V17.874C31.5859 17.9616 31.5658 18.0485 31.524 18.1256C31.4822 18.2026 31.4202 18.2669 31.3447 18.3113L31.3055 18.334C31.2542 18.3665 31.195 18.3843 31.1343 18.3856C31.0749 18.3858 31.0173 18.3653 30.9714 18.3276C30.9255 18.29 30.8941 18.2376 30.8826 18.1793C30.8674 18.2342 30.8467 18.2874 30.8207 18.3382L30.7072 18.5445C30.6538 18.6591 30.5677 18.7553 30.4597 18.8209L29.7809 19.2129C29.7223 19.2481 29.6554 19.2673 29.587 19.2686C29.5119 19.2695 29.4389 19.2439 29.3807 19.1964L29.2714 19.1139C29.2255 19.0774 29.1888 19.0308 29.1641 18.9777C29.1624 19.1035 29.1313 19.2271 29.0733 19.3387L28.9598 19.545C28.9052 19.6577 28.8192 19.7523 28.7123 19.8174L28.0335 20.2093C27.9711 20.2464 27.8999 20.2664 27.8272 20.2671C27.7571 20.267 27.689 20.2438 27.6333 20.2011L27.5178 20.1124C27.4675 20.0708 27.4279 20.0179 27.4021 19.958C27.3763 19.8981 27.365 19.8329 27.3692 19.7679V19.1861C27.3289 19.2494 27.2737 19.3018 27.2083 19.3387L26.4202 19.7947C26.4037 19.805 26.379 19.8194 26.379 19.8937V20.8571C26.383 20.9453 26.3629 21.0328 26.3207 21.1103C26.2785 21.1877 26.2159 21.2522 26.1397 21.2966L26.1005 21.3193C26.0553 21.3539 26.002 21.3766 25.9457 21.3853L25.9519 21.3832ZM28.1449 17.2179C28.1284 17.2179 28.1037 17.2427 28.1037 17.317V19.3099L28.4193 19.1262C28.4358 19.1262 28.4626 19.1015 28.4626 19.0272V17.0343L28.1449 17.2179ZM27.3899 17.6017C27.3502 17.6661 27.2948 17.7193 27.2289 17.7564L26.4409 18.2103C26.4244 18.2206 26.3996 18.235 26.3996 18.3093V18.953L27.033 18.5878C27.0834 18.5551 27.142 18.5373 27.2021 18.5362C27.2377 18.5359 27.2729 18.5433 27.3053 18.5579C27.3377 18.5725 27.3666 18.5939 27.3899 18.6208V17.6017ZM33.4057 14.1894C33.3871 14.1894 33.3644 14.2141 33.3644 14.2884V16.271L33.6801 16.0894C33.6966 16.0894 33.7234 16.0647 33.7234 15.9904V14.0202L33.4057 14.1894ZM36.3538 15.7944C36.2917 15.794 36.2314 15.7738 36.1817 15.7367C36.1319 15.6996 36.0954 15.6475 36.0773 15.5881L35.8834 15.0827C35.8542 15.0064 35.8348 14.9266 35.8256 14.8454L35.706 13.9047C35.706 13.8284 35.706 13.785 35.706 13.7665C35.706 13.7479 35.706 13.6963 35.706 13.6303L35.8256 12.5431C35.8362 12.4491 35.8534 12.3561 35.8772 12.2646L36.0732 11.5301C36.0905 11.4582 36.1219 11.3904 36.1654 11.3306C36.2089 11.2707 36.2638 11.2201 36.327 11.1815L36.3971 11.1423C36.4484 11.1098 36.5076 11.092 36.5683 11.0907H36.6117H36.6467C36.6991 11.1099 36.7438 11.1457 36.774 11.1926C36.8041 11.2395 36.8181 11.295 36.8138 11.3506C36.814 11.4016 36.807 11.4522 36.7932 11.5012L36.5869 12.1986C36.5659 12.2707 36.5514 12.3446 36.5436 12.4193L36.4384 13.4508C36.4384 13.4983 36.4384 13.5333 36.4384 13.5519C36.4384 13.5705 36.4384 13.6035 36.4384 13.6489L36.5436 14.5504C36.5479 14.5994 36.5597 14.6474 36.5787 14.6928L36.785 15.159C36.8042 15.209 36.814 15.2622 36.8138 15.3158C36.8124 15.3881 36.7932 15.4589 36.7581 15.5221C36.7205 15.5926 36.6631 15.6507 36.5931 15.6892L36.523 15.7305C36.472 15.7619 36.4136 15.779 36.3538 15.78V15.7944ZM35.2542 15.2952C35.1325 15.2952 34.9922 15.2127 34.9922 14.9775V14.7712C34.9868 14.682 35.0061 14.593 35.048 14.514C35.0898 14.4351 35.1526 14.3691 35.2294 14.3235L35.3037 14.2802C35.3548 14.2493 35.4131 14.2322 35.4729 14.2306C35.6008 14.2306 35.739 14.3173 35.739 14.5649V14.7712C35.7421 14.8577 35.7214 14.9435 35.6792 15.0191C35.637 15.0947 35.5749 15.1574 35.4997 15.2003L35.4254 15.2415C35.3727 15.2765 35.3112 15.2958 35.248 15.2972L35.2542 15.2952ZM35.2542 13.5767C35.1325 13.5767 34.9922 13.4921 34.9922 13.2569V13.0506C34.9871 12.9614 35.0065 12.8725 35.0483 12.7936C35.0901 12.7147 35.1528 12.6487 35.2294 12.6029L35.3037 12.5596C35.3547 12.5284 35.4131 12.5113 35.4729 12.5101C35.6008 12.5101 35.739 12.5988 35.739 12.8463V13.0526C35.7423 13.1392 35.7217 13.2251 35.6795 13.3008C35.6373 13.3764 35.5751 13.4391 35.4997 13.4818L35.4254 13.5251C35.3725 13.5593 35.311 13.5779 35.248 13.5787L35.2542 13.5767Z" fill="#00FF00"/>
<path opacity="0.3" d="M20.4746 24.4468C20.4354 24.4468 20.3075 24.4303 20.3075 24.2178V21.2243C20.3024 21.1527 20.3175 21.0812 20.351 21.0177C20.3846 20.9542 20.4352 20.9015 20.4973 20.8654L20.5674 20.8241C20.6047 20.8011 20.6474 20.7883 20.6912 20.787C20.7321 20.7884 20.7715 20.8028 20.8037 20.828C20.836 20.8532 20.8594 20.8879 20.8707 20.9273L21.4092 22.2724C21.4103 22.26 21.4103 22.2476 21.4092 22.2352V20.5848C21.404 20.5132 21.4191 20.4416 21.4527 20.3782C21.4862 20.3147 21.5369 20.2619 21.599 20.2258L21.6382 20.2031C21.6741 20.1805 21.7154 20.1677 21.7578 20.166C21.797 20.166 21.9249 20.1846 21.9249 20.3991V23.3947C21.9291 23.4653 21.9135 23.5357 21.88 23.598C21.8465 23.6603 21.7963 23.712 21.7351 23.7474L21.6959 23.7701C21.6586 23.7932 21.6159 23.806 21.5721 23.8073C21.5321 23.8067 21.4933 23.7934 21.4614 23.7693C21.4295 23.7452 21.4061 23.7115 21.3947 23.6732L20.8253 22.2724C20.8253 22.2847 20.8253 22.2992 20.8253 22.3116V24.0404C20.8296 24.1113 20.8142 24.182 20.7807 24.2447C20.7471 24.3073 20.6969 24.3595 20.6355 24.3952L20.5984 24.4179C20.5602 24.4378 20.5176 24.4478 20.4746 24.4468ZM22.4407 23.3018C22.392 23.303 22.3445 23.2869 22.3066 23.2564L22.191 23.1698C22.1529 23.137 22.123 23.0955 22.104 23.0489C22.085 23.0022 22.0774 22.9518 22.0817 22.9016V20.4858C22.0827 20.3743 22.1102 20.2647 22.1622 20.166L22.2756 19.9494C22.3214 19.854 22.3928 19.7733 22.4819 19.7163L23.1627 19.3243C23.2062 19.2974 23.256 19.2825 23.3072 19.281C23.3587 19.28 23.4088 19.2984 23.4474 19.3325L23.5568 19.4151C23.5949 19.4475 23.6248 19.4885 23.6438 19.5348C23.6628 19.5811 23.6705 19.6313 23.6661 19.6812V22.0991C23.6647 22.2105 23.6371 22.32 23.5857 22.4188L23.4722 22.6252C23.4269 22.7203 23.3553 22.8005 23.2659 22.8562L22.5872 23.2482C22.5431 23.2754 22.4925 23.2904 22.4407 23.2915V23.3018ZM22.6903 20.2527C22.6586 20.2709 22.633 20.298 22.6165 20.3306C22.6 20.3632 22.5934 20.3999 22.5975 20.4363C22.5975 20.4363 22.5975 22.5942 22.5975 22.5983L23.0596 22.3322C23.0913 22.314 23.1169 22.2869 23.1334 22.2542C23.1499 22.2216 23.1565 22.1849 23.1524 22.1486C23.1524 22.1486 23.1524 19.9906 23.1524 19.9845L22.6903 20.2527ZM24.3201 22.227C24.2685 22.227 24.1509 22.2043 24.1509 21.9939V19.4089L23.9013 19.5533C23.8646 19.576 23.8227 19.5888 23.7796 19.5904C23.7404 19.5904 23.6145 19.5739 23.6145 19.3655V19.314C23.6098 19.2427 23.6251 19.1715 23.6586 19.1085C23.6922 19.0454 23.7426 18.993 23.8043 18.9571L24.9143 18.3155C24.9502 18.2929 24.9915 18.28 25.0339 18.2783C25.0731 18.2783 25.201 18.2948 25.201 18.5114V18.5589C25.2051 18.6287 25.1897 18.6983 25.1565 18.7598C25.1234 18.8214 25.0738 18.8725 25.0133 18.9075L24.7595 19.054C24.7277 19.073 24.7022 19.1009 24.6861 19.1343C24.6699 19.1677 24.6639 19.205 24.6688 19.2418V21.8041C24.6739 21.8757 24.6588 21.9473 24.6252 22.0107C24.5917 22.0742 24.541 22.1269 24.479 22.163L24.4398 22.1857C24.4038 22.2083 24.3625 22.2211 24.3201 22.2229V22.227ZM25.9458 21.2883C25.9066 21.2883 25.7787 21.2718 25.7787 21.0593V18.07C25.7744 17.999 25.7898 17.9283 25.8233 17.8657C25.8568 17.803 25.9071 17.7509 25.9685 17.7151L27.0743 17.0776C27.1107 17.0543 27.1528 17.0415 27.196 17.0405C27.2352 17.0405 27.3631 17.057 27.3631 17.2674V17.3211C27.3676 17.392 27.3523 17.4628 27.3188 17.5255C27.2852 17.5882 27.2348 17.6403 27.1733 17.6759L26.3873 18.1298C26.3552 18.1476 26.3293 18.1746 26.3127 18.2074C26.2962 18.2401 26.2898 18.277 26.2944 18.3134V19.1262L27.0743 18.6765C27.1111 18.6541 27.1529 18.6413 27.196 18.6394C27.2352 18.6394 27.3631 18.6559 27.3631 18.8684V18.9199C27.3677 18.9906 27.3524 19.0612 27.3188 19.1236C27.2853 19.186 27.2348 19.2376 27.1733 19.2727L26.3873 19.7266C26.3551 19.7448 26.329 19.7721 26.3125 19.8052C26.2959 19.8383 26.2897 19.8756 26.2944 19.9122V20.8757C26.299 20.9466 26.2836 21.0175 26.2501 21.0802C26.2166 21.1429 26.1662 21.1949 26.1046 21.2305L26.0675 21.2512C26.031 21.2743 25.989 21.2871 25.9458 21.2883ZM27.8417 20.1846C27.7933 20.1844 27.7462 20.1685 27.7076 20.1392L27.5921 20.0525C27.5539 20.0197 27.5241 19.9783 27.5051 19.9316C27.4861 19.885 27.4784 19.8345 27.4828 19.7843V17.3665C27.4839 17.2557 27.5115 17.1468 27.5632 17.0487L27.6767 16.8321C27.7219 16.7364 27.7935 16.6555 27.883 16.599L28.5638 16.205C28.6073 16.1781 28.6571 16.1631 28.7082 16.1616C28.7595 16.1622 28.8091 16.1804 28.8485 16.2132L28.9578 16.2957C28.996 16.3286 29.0258 16.37 29.0448 16.4167C29.0638 16.4633 29.0715 16.5138 29.0672 16.5639V18.9818C29.066 19.0926 29.0384 19.2015 28.9867 19.2995L28.8732 19.5058C28.8275 19.6012 28.756 19.6819 28.6669 19.739L27.9882 20.1309C27.944 20.1579 27.8935 20.1728 27.8417 20.1743V20.1846ZM28.0893 17.1354C28.0578 17.1537 28.0324 17.1809 28.0163 17.2136C28.0001 17.2462 27.994 17.2829 27.9985 17.319V19.4811L28.4627 19.2129C28.4944 19.1946 28.52 19.1675 28.5365 19.1349C28.553 19.1023 28.5596 19.0656 28.5555 19.0293C28.5555 19.0293 28.5555 16.8713 28.5555 16.8672L28.0893 17.1354ZM29.5871 19.1778C29.5357 19.1773 29.4862 19.1591 29.4468 19.1262L29.3354 19.0416C29.2973 19.0087 29.2676 18.9672 29.2486 18.9206C29.2296 18.874 29.2219 18.8236 29.226 18.7735V16.0709C29.2215 15.9999 29.2368 15.9291 29.2704 15.8664C29.3039 15.8037 29.3543 15.7516 29.4158 15.716L29.455 15.6933C29.491 15.6707 29.5322 15.6579 29.5747 15.6562C29.6139 15.6562 29.7418 15.6727 29.7418 15.8852V18.4743L30.206 18.2061C30.2378 18.1871 30.2633 18.1592 30.2794 18.1258C30.2956 18.0925 30.3016 18.0551 30.2967 18.0184V15.452C30.2924 15.381 30.3079 15.3103 30.3414 15.2477C30.3749 15.185 30.4252 15.1329 30.4865 15.0971L30.5257 15.0744C30.5624 15.0517 30.6044 15.0389 30.6475 15.0373C30.6867 15.0373 30.8146 15.0538 30.8146 15.2663V17.9709C30.8126 18.0819 30.7843 18.1908 30.732 18.2886L30.6206 18.4949C30.5761 18.5922 30.5045 18.6746 30.4143 18.7322L29.7356 19.1242C29.6922 19.1513 29.6423 19.1663 29.5912 19.1675L29.5871 19.1778ZM31.1343 18.2907C31.0951 18.2907 30.9693 18.2742 30.9693 18.0617V15.0682C30.9646 14.997 30.9799 14.9258 31.0134 14.8628C31.0469 14.7997 31.0974 14.7473 31.1591 14.7113L31.2292 14.6701C31.2658 14.6471 31.3078 14.6343 31.351 14.6329C31.3919 14.6329 31.4318 14.6465 31.4642 14.6715C31.4967 14.6965 31.52 14.7315 31.5304 14.7712L32.0813 16.1183C32.0813 16.1059 32.0813 16.0936 32.0813 16.0812V14.4328C32.0766 14.3616 32.0918 14.2904 32.1254 14.2273C32.1589 14.1643 32.2094 14.1118 32.2711 14.0759L32.3082 14.0532C32.3442 14.0306 32.3854 14.0178 32.4279 14.0161C32.4671 14.0161 32.597 14.0326 32.597 14.2492V17.2427C32.6017 17.3134 32.5863 17.3839 32.5528 17.4463C32.5192 17.5087 32.4688 17.5604 32.4072 17.5955L32.368 17.6181C32.3307 17.6429 32.287 17.6565 32.2422 17.6573C32.2025 17.6564 32.1642 17.6429 32.1327 17.6188C32.1012 17.5947 32.0781 17.5613 32.0668 17.5232L31.4954 16.1101C31.4943 16.1238 31.4943 16.1376 31.4954 16.1513V17.8802C31.5 17.9508 31.4847 18.0214 31.4511 18.0838C31.4176 18.1462 31.3671 18.1979 31.3056 18.2329L31.2664 18.2556C31.2266 18.2797 31.1808 18.2919 31.1343 18.2907ZM32.9106 17.2592C32.8714 17.2592 32.7435 17.2427 32.7435 17.0302V14.0491C32.7392 13.9782 32.7546 13.9074 32.7882 13.8448C32.8217 13.7821 32.8719 13.73 32.9333 13.6942L33.8287 13.1785C33.872 13.1513 33.9219 13.1364 33.9731 13.1352C34.0246 13.1342 34.0747 13.1526 34.1134 13.1867L34.2206 13.2693C34.2596 13.3011 34.2901 13.342 34.3095 13.3884C34.3289 13.4348 34.3367 13.4853 34.332 13.5354V15.943C34.3303 16.0546 34.302 16.1642 34.2495 16.2627L34.1361 16.469C34.0905 16.5645 34.019 16.6453 33.9298 16.7022L33.0323 17.2179C32.9969 17.242 32.9555 17.2556 32.9127 17.2571L32.9106 17.2592ZM33.35 14.0986C33.3188 14.1171 33.2935 14.1443 33.2774 14.1769C33.2613 14.2095 33.255 14.2461 33.2593 14.2822V16.4443L33.7235 16.1761C33.7549 16.1578 33.7803 16.1306 33.7964 16.0979C33.8126 16.0653 33.8188 16.0286 33.8142 15.9925V13.8387L33.35 14.0986ZM36.3476 15.6892C36.3048 15.6888 36.2633 15.6739 36.2299 15.647C36.1966 15.62 36.1733 15.5825 36.164 15.5407L35.968 15.0517C35.9439 14.9849 35.9266 14.9158 35.9165 14.8454L35.7947 13.8861C35.7947 13.818 35.7947 13.7788 35.7947 13.7603C35.7947 13.7417 35.7947 13.6942 35.7947 13.6324L35.9144 12.5472C35.9242 12.4587 35.9408 12.3711 35.9639 12.2852L36.1599 11.5507C36.1732 11.4913 36.1984 11.435 36.2338 11.3854C36.2692 11.3358 36.3143 11.2938 36.3662 11.2619L36.4364 11.2207C36.4729 11.1974 36.5148 11.1839 36.5581 11.1815H36.5766L36.6117 11.1918C36.6432 11.2053 36.6695 11.2288 36.6866 11.2585C36.7037 11.2883 36.7107 11.3227 36.7066 11.3568C36.7064 11.3988 36.7001 11.4404 36.688 11.4806L36.4817 12.1779C36.4591 12.2554 36.4439 12.3348 36.4364 12.4152L36.3291 13.4467C36.3291 13.5003 36.3291 13.5375 36.3291 13.5581C36.327 13.5931 36.327 13.6283 36.3291 13.6633L36.4343 14.569C36.4387 14.6272 36.4526 14.6844 36.4755 14.7381L36.6819 15.2044C36.6971 15.2417 36.7048 15.2817 36.7045 15.322C36.7034 15.3803 36.6885 15.4375 36.6612 15.4891C36.63 15.543 36.5852 15.5878 36.5313 15.6191L36.4611 15.6603C36.4248 15.6818 36.3836 15.6938 36.3414 15.6954L36.3476 15.6892ZM35.248 15.192C35.2088 15.192 35.083 15.1755 35.083 14.9713V14.765C35.0776 14.6928 35.0925 14.6205 35.126 14.5563C35.1596 14.4921 35.2104 14.4386 35.2728 14.4019L35.3471 14.3585C35.383 14.3359 35.4243 14.3231 35.4667 14.3214C35.5162 14.3214 35.6338 14.3462 35.6338 14.5587V14.765C35.6375 14.8341 35.6216 14.9029 35.588 14.9634C35.5545 15.024 35.5046 15.0739 35.444 15.1074L35.3698 15.1508C35.3336 15.1749 35.2915 15.1885 35.248 15.1899V15.192ZM35.248 13.4714C35.2088 13.4714 35.083 13.457 35.083 13.2507V13.0444C35.0781 12.9722 35.0932 12.9001 35.1267 12.8361C35.1602 12.772 35.2107 12.7184 35.2728 12.6813L35.3471 12.64C35.383 12.6174 35.4243 12.6046 35.4667 12.6029C35.5162 12.6029 35.6338 12.6256 35.6338 12.8401V13.0464C35.6396 13.1176 35.6248 13.1889 35.5912 13.2518C35.5575 13.3147 35.5064 13.3666 35.444 13.4013L35.3698 13.4446C35.3331 13.4673 35.2911 13.4801 35.248 13.4817V13.4714Z" fill="#00FF00"/>
<path d="M20.5859 24.3024L20.5467 24.323C20.4518 24.3787 20.4064 24.3416 20.4064 24.2178V21.2243C20.4015 21.17 20.4121 21.1154 20.4369 21.0669C20.4618 21.0183 20.4998 20.9778 20.5467 20.9499L20.6169 20.9107C20.6932 20.8654 20.7468 20.8819 20.7778 20.9623L21.3431 22.3734C21.3519 22.3964 21.3678 22.4159 21.3885 22.4291C21.3957 22.4342 21.4044 22.4369 21.4132 22.4369C21.4221 22.4369 21.4307 22.4342 21.438 22.4291C21.4629 22.4136 21.4813 22.3893 21.4895 22.3611C21.504 22.3207 21.511 22.2781 21.5102 22.2352V20.5848C21.5055 20.5305 21.5162 20.476 21.541 20.4275C21.5658 20.379 21.6037 20.3384 21.6505 20.3104L21.6876 20.2898C21.7825 20.2341 21.8299 20.2712 21.8299 20.3991V23.3946C21.8339 23.4482 21.8227 23.5018 21.7975 23.5493C21.7723 23.5968 21.7342 23.6361 21.6876 23.6628L21.6505 23.6855C21.5721 23.7289 21.5184 23.7144 21.4875 23.6381L20.8913 22.1589C20.8665 22.097 20.8376 22.0764 20.7984 22.097C20.7736 22.1155 20.7555 22.1416 20.7468 22.1713C20.732 22.2129 20.725 22.257 20.7262 22.3012V24.0301C20.7305 24.084 20.7196 24.1381 20.6948 24.1862C20.67 24.2343 20.6323 24.2745 20.5859 24.3024Z" fill="#00FF00"/>
<path d="M23.5011 22.3735L23.3897 22.5798C23.3518 22.6597 23.2916 22.7271 23.2164 22.7737L22.5376 23.1657C22.5127 23.1836 22.4828 23.1933 22.452 23.1933C22.4213 23.1933 22.3913 23.1836 22.3664 23.1657L22.2509 23.077C22.225 23.0531 22.2052 23.0235 22.193 22.9905C22.1808 22.9575 22.1766 22.9221 22.1807 22.8872V20.4858C22.1817 20.3894 22.2058 20.2946 22.2509 20.2093L22.3623 20.003C22.4008 19.924 22.4609 19.8575 22.5356 19.8112L23.2164 19.4171C23.2414 19.3984 23.2718 19.3882 23.303 19.3882C23.3343 19.3882 23.3647 19.3984 23.3897 19.4171L23.5011 19.5038C23.5269 19.5272 23.5467 19.5565 23.5589 19.5891C23.5711 19.6218 23.5753 19.6569 23.5712 19.6915V22.1094C23.5686 22.2017 23.5446 22.2921 23.5011 22.3735ZM23.2514 22.1486V20.003C23.2514 19.8772 23.2061 19.8421 23.1112 19.8958L22.6408 20.1681C22.5942 20.1947 22.5562 20.2341 22.5314 20.2816C22.5065 20.3292 22.4958 20.3828 22.5005 20.4363V22.5818C22.5005 22.7077 22.5459 22.7428 22.6408 22.6891L23.1112 22.4168C23.1576 22.39 23.1954 22.3505 23.2202 22.3031C23.2451 22.2556 23.2559 22.202 23.2514 22.1486Z" fill="#00FF00"/>
<path d="M23.8517 19.0417L24.9637 18.4001C25.0566 18.3464 25.104 18.3835 25.104 18.5115V18.5589C25.1076 18.6116 25.0964 18.6643 25.0716 18.711C25.0468 18.7577 25.0095 18.7965 24.9637 18.823L24.71 18.9695C24.6634 18.9971 24.6255 19.0373 24.6007 19.0855C24.5759 19.1336 24.5652 19.1878 24.5697 19.2418V21.8041C24.5741 21.8583 24.5633 21.9127 24.5385 21.9612C24.5137 22.0097 24.476 22.0503 24.4294 22.0785L24.3902 22.1011C24.2974 22.1548 24.2499 22.1177 24.2499 21.9897V19.4316C24.2499 19.3016 24.2025 19.2665 24.1096 19.3202L23.8517 19.4687C23.7589 19.5223 23.7115 19.4873 23.7115 19.3656V19.314C23.7069 19.26 23.7177 19.2058 23.7425 19.1577C23.7673 19.1095 23.8052 19.0693 23.8517 19.0417Z" fill="#00FF00"/>
<path d="M26.0179 17.8017L27.1237 17.1622C27.2186 17.1086 27.264 17.1436 27.264 17.2674V17.3211C27.2684 17.3747 27.2575 17.4285 27.2327 17.4763C27.2079 17.5241 27.1701 17.564 27.1237 17.5913L26.3377 18.0452C26.2911 18.0718 26.2532 18.1112 26.2283 18.1587C26.2034 18.2063 26.1927 18.2599 26.1974 18.3134V19.1097C26.1974 19.2356 26.2428 19.2706 26.3377 19.217L27.1299 18.7652C27.2248 18.7115 27.2702 18.7466 27.2702 18.8725V18.924C27.2719 18.9751 27.2598 19.0256 27.2351 19.0703C27.2104 19.115 27.174 19.1521 27.1299 19.1778L26.3439 19.6317C26.2977 19.6587 26.26 19.6981 26.2352 19.7456C26.2104 19.793 26.1994 19.8465 26.2036 19.8999V20.8654C26.2079 20.919 26.1967 20.9727 26.1715 21.0202C26.1463 21.0677 26.1081 21.107 26.0613 21.1336L26.0241 21.1563C25.9292 21.212 25.8839 21.1748 25.8839 21.051V18.0699C25.8785 18.0171 25.8883 17.9639 25.9121 17.9164C25.9358 17.869 25.9725 17.8292 26.0179 17.8017Z" fill="#00FF00"/>
<path d="M28.9021 19.2562L28.7907 19.4625C28.7522 19.5421 28.6922 19.6093 28.6174 19.6565L27.9386 20.0464C27.9137 20.0644 27.8838 20.074 27.853 20.074C27.8223 20.074 27.7923 20.0644 27.7674 20.0464L27.6519 19.9597C27.626 19.9359 27.6062 19.9063 27.594 19.8733C27.5818 19.8403 27.5776 19.8049 27.5817 19.7699V17.3665C27.5827 17.2707 27.6068 17.1766 27.6519 17.0921L27.7633 16.8858C27.8012 16.8058 27.8614 16.7385 27.9366 16.6919L28.6174 16.2978C28.6422 16.2788 28.6727 16.2684 28.704 16.2684C28.7354 16.2684 28.7658 16.2788 28.7907 16.2978L28.9021 16.3824C28.9279 16.4063 28.9477 16.4359 28.9599 16.4689C28.9721 16.5019 28.9763 16.5373 28.9722 16.5722V18.9901C28.9699 19.0831 28.9459 19.1742 28.9021 19.2562ZM28.6525 19.0293V16.8837C28.6525 16.76 28.605 16.7228 28.5122 16.7785L28.0418 17.0488C27.9954 17.0761 27.9576 17.116 27.9328 17.1638C27.908 17.2116 27.8972 17.2654 27.9015 17.319V19.4646C27.9015 19.5884 27.9469 19.6235 28.0418 19.5698L28.5122 19.2975C28.5584 19.2705 28.5961 19.231 28.6209 19.1836C28.6457 19.1362 28.6567 19.0827 28.6525 19.0293Z" fill="#00FF00"/>
<path d="M30.536 15.1817L30.5752 15.1611C30.668 15.1054 30.7155 15.1425 30.7155 15.2663V17.971C30.7145 18.0667 30.6904 18.1608 30.6453 18.2453L30.5319 18.4517C30.4973 18.5364 30.4375 18.6084 30.3606 18.658L29.6819 19.0499C29.6575 19.0692 29.6273 19.0796 29.5963 19.0796C29.5652 19.0796 29.535 19.0692 29.5107 19.0499L29.3993 18.9715C29.3732 18.9478 29.353 18.9182 29.3405 18.8853C29.328 18.8523 29.3233 18.8168 29.327 18.7817V16.0709C29.3231 16.0171 29.3344 15.9632 29.3596 15.9154C29.3847 15.8676 29.4228 15.8279 29.4694 15.8006L29.5065 15.78C29.6014 15.7243 29.6468 15.7614 29.6468 15.8852V18.4537C29.6468 18.5816 29.6943 18.6188 29.7892 18.5631L30.2595 18.2928C30.3059 18.2644 30.3436 18.2238 30.3684 18.1754C30.3931 18.127 30.404 18.0726 30.3998 18.0184V15.452C30.3955 15.3988 30.406 15.3454 30.43 15.2978C30.454 15.2501 30.4907 15.2099 30.536 15.1817Z" fill="#00FF00"/>
<path d="M31.256 18.1463L31.2168 18.169C31.124 18.2226 31.0766 18.1875 31.0766 18.0617V15.0682C31.0721 15.0142 31.0828 14.9601 31.1076 14.9119C31.1324 14.8638 31.1703 14.8236 31.2168 14.7959L31.287 14.7546C31.3654 14.7092 31.419 14.7278 31.45 14.8062L32.0152 16.2173C32.0228 16.2403 32.0381 16.26 32.0586 16.273C32.0663 16.278 32.0752 16.2807 32.0844 16.2807C32.0935 16.2807 32.1025 16.278 32.1101 16.273C32.1354 16.2578 32.1539 16.2334 32.1617 16.205C32.1752 16.1651 32.1815 16.1232 32.1803 16.0812V14.4328C32.1758 14.3788 32.1865 14.3247 32.2114 14.2765C32.2362 14.2284 32.274 14.1881 32.3206 14.1605L32.3598 14.1378C32.4526 14.0841 32.5001 14.1213 32.5001 14.2492V17.2427C32.5043 17.296 32.4933 17.3495 32.4685 17.3969C32.4437 17.4444 32.406 17.4839 32.3598 17.5109L32.3206 17.5336C32.2442 17.5789 32.1906 17.5624 32.1597 17.4861L31.5614 16.009C31.5387 15.945 31.5077 15.9244 31.4706 15.9471C31.4452 15.9645 31.4263 15.9899 31.417 16.0193C31.403 16.0619 31.396 16.1065 31.3963 16.1513V17.8801C31.4004 17.9332 31.3894 17.9863 31.3645 18.0334C31.3397 18.0805 31.3021 18.1196 31.256 18.1463Z" fill="#00FF00"/>
<path d="M34.1629 16.2194L34.0494 16.4257C34.0117 16.5051 33.9524 16.5723 33.8782 16.6196L32.9828 17.1354C32.8879 17.189 32.8405 17.154 32.8405 17.0302V14.0491C32.8362 13.9955 32.8474 13.9417 32.8726 13.8942C32.8978 13.8467 32.936 13.8074 32.9828 13.7809L33.8782 13.2631C33.9029 13.2445 33.9329 13.2344 33.9638 13.2344C33.9947 13.2344 34.0247 13.2445 34.0494 13.2631L34.1629 13.3497C34.1887 13.3731 34.2085 13.4024 34.2207 13.4351C34.2329 13.4677 34.2372 13.5028 34.233 13.5374V15.943C34.232 16.0394 34.208 16.1342 34.1629 16.2194ZM33.3026 16.533L33.773 16.2607C33.8192 16.2337 33.8569 16.1942 33.8817 16.1467C33.9065 16.0993 33.9175 16.0458 33.9133 15.9925V13.8572C33.9133 13.7314 33.8658 13.6963 33.773 13.7499L33.3026 14.0202C33.2558 14.0467 33.2176 14.0861 33.1924 14.1336C33.1671 14.1811 33.156 14.2348 33.1603 14.2884V16.4278C33.1603 16.5515 33.2077 16.5866 33.3026 16.533Z" fill="#00FF00"/>
<path d="M35.3965 13.3147L35.3223 13.3559C35.2274 13.4116 35.182 13.3786 35.182 13.259V13.0527C35.1769 12.998 35.1874 12.9431 35.2122 12.8942C35.237 12.8453 35.2752 12.8044 35.3223 12.7762L35.3965 12.7329C35.4894 12.6793 35.5368 12.7164 35.5368 12.8484V13.0547C35.5402 13.1069 35.5288 13.1589 35.504 13.2048C35.4792 13.2508 35.4419 13.2889 35.3965 13.3147ZM35.3965 15.0332L35.3223 15.0765C35.2274 15.1301 35.182 15.0971 35.182 14.9795V14.7732C35.1765 14.7183 35.1868 14.6629 35.2116 14.6136C35.2365 14.5643 35.2748 14.5231 35.3223 14.4947L35.3965 14.4514C35.4894 14.3978 35.5368 14.437 35.5368 14.5669V14.7732C35.5404 14.8254 35.5291 14.8775 35.5043 14.9235C35.4795 14.9695 35.4421 15.0076 35.3965 15.0332Z" fill="#00FF00"/>
<path d="M36.62 15.3241C36.6198 15.3659 36.6091 15.407 36.589 15.4437C36.5674 15.4828 36.5353 15.515 36.4962 15.5366L36.4261 15.5778C36.349 15.6218 36.2954 15.6012 36.2651 15.5159L36.0588 15.0064C36.0345 14.9441 36.0186 14.8789 36.0114 14.8124L35.8938 13.8738C35.8938 13.8139 35.8938 13.7768 35.8938 13.7603C35.8938 13.7438 35.8938 13.6984 35.8938 13.6406L36.0114 12.5596C36.0203 12.4759 36.0362 12.3931 36.0588 12.312L36.2651 11.5755C36.2818 11.4801 36.3351 11.395 36.4137 11.3383L36.4838 11.297C36.5107 11.2777 36.5439 11.2696 36.5767 11.2743C36.5973 11.2826 36.6076 11.3073 36.6076 11.3486C36.6077 11.3815 36.6028 11.4141 36.5932 11.4455L36.3869 12.1429C36.3639 12.2253 36.3473 12.3095 36.3374 12.3946L36.2321 13.4261C36.2321 13.4859 36.2321 13.5251 36.2321 13.5478C36.2321 13.5705 36.2321 13.6076 36.2321 13.6613L36.3374 14.569C36.3449 14.6396 36.3616 14.7089 36.3869 14.7753L36.5932 15.2395C36.6085 15.2652 36.6177 15.2942 36.62 15.3241Z" fill="#00FF00"/>
<path opacity="0.6" d="M27.1299 17.1622L26.0241 17.8017C25.9775 17.8284 25.9396 17.8678 25.9147 17.9153C25.8898 17.9628 25.8791 18.0165 25.8838 18.0699V21.0593C25.8838 21.1831 25.9292 21.2202 26.0241 21.1645L26.0612 21.1418C26.108 21.1153 26.1463 21.076 26.1715 21.0285C26.1967 20.9809 26.2078 20.9272 26.2036 20.8736V19.9081C26.1994 19.8547 26.2103 19.8013 26.2351 19.7538C26.26 19.7064 26.2976 19.6669 26.3439 19.6399L27.1299 19.1778C27.1763 19.151 27.2141 19.1115 27.239 19.0641C27.2638 19.0166 27.2746 18.963 27.2702 18.9096V18.858C27.2702 18.7322 27.2248 18.6971 27.1299 18.7507L26.3439 19.2067C26.249 19.2603 26.2036 19.2252 26.2036 19.0994V18.3113C26.1989 18.2579 26.2096 18.2042 26.2345 18.1567C26.2593 18.1091 26.2973 18.0697 26.3439 18.0431L27.1299 17.5893C27.1763 17.5619 27.2141 17.5221 27.2389 17.4743C27.2637 17.4265 27.2745 17.3727 27.2702 17.319V17.2674C27.264 17.1436 27.2186 17.1148 27.1299 17.1622ZM21.6876 20.2918L21.6505 20.3125C21.6035 20.3404 21.5653 20.3809 21.5401 20.4294C21.515 20.4778 21.5039 20.5324 21.5081 20.5869V22.2373C21.5094 22.28 21.5031 22.3226 21.4895 22.3631C21.4813 22.3914 21.4629 22.4156 21.438 22.4312C21.4307 22.4363 21.4221 22.439 21.4132 22.439C21.4044 22.439 21.3957 22.4363 21.3885 22.4312C21.3678 22.4179 21.3519 22.3984 21.3431 22.3755L20.7778 20.9644C20.7468 20.8839 20.6932 20.8674 20.6169 20.9128L20.5467 20.952C20.4998 20.9798 20.4618 21.0204 20.4369 21.0689C20.4121 21.1175 20.4015 21.1721 20.4064 21.2264V24.2199C20.4064 24.3437 20.4518 24.3808 20.5467 24.3251L20.5859 24.3045C20.632 24.2768 20.6695 24.2369 20.6943 24.1891C20.719 24.1414 20.7301 24.0878 20.7262 24.0342V22.3054C20.725 22.2611 20.732 22.2171 20.7468 22.1754C20.7555 22.1457 20.7736 22.1196 20.7984 22.1011C20.8376 22.0805 20.8665 22.1011 20.8913 22.163L21.4875 23.6422C21.5184 23.7185 21.5721 23.733 21.6505 23.6897L21.6876 23.667C21.7342 23.6403 21.7723 23.6009 21.7975 23.5534C21.8227 23.506 21.8339 23.4524 21.8299 23.3988V20.4012C21.8299 20.2733 21.7825 20.2361 21.6876 20.2918ZM28.7906 16.2895C28.7658 16.2705 28.7353 16.2601 28.704 16.2601C28.6727 16.2601 28.6422 16.2705 28.6174 16.2895L27.9365 16.6836C27.8613 16.7302 27.8012 16.7975 27.7633 16.8775L27.6518 17.0838C27.6068 17.1683 27.5827 17.2624 27.5817 17.3582V19.7761C27.5776 19.811 27.5818 19.8464 27.594 19.8794C27.6062 19.9124 27.626 19.942 27.6518 19.9659L27.7674 20.0525C27.7923 20.0705 27.8223 20.0802 27.853 20.0802C27.8837 20.0802 27.9137 20.0705 27.9386 20.0525L28.6174 19.6626C28.6921 19.6155 28.7522 19.5483 28.7906 19.4687L28.902 19.2624C28.9471 19.1779 28.9712 19.0838 28.9722 18.988V16.5639C28.9763 16.529 28.9721 16.4936 28.9599 16.4606C28.9477 16.4276 28.9279 16.398 28.902 16.3741L28.7906 16.2895ZM28.6524 19.0293C28.6566 19.0826 28.6457 19.1361 28.6209 19.1835C28.5961 19.231 28.5584 19.2705 28.5121 19.2975L28.0418 19.5698C27.9469 19.6234 27.9015 19.5883 27.9015 19.4646V17.3211C27.8971 17.2674 27.908 17.2136 27.9328 17.1658C27.9576 17.118 27.9954 17.0781 28.0418 17.0508L28.5121 16.7805C28.605 16.7248 28.6524 16.762 28.6524 16.8858V19.0293ZM23.3896 19.4068C23.3646 19.388 23.3342 19.3779 23.303 19.3779C23.2717 19.3779 23.2413 19.388 23.2163 19.4068L22.5355 19.8008C22.4608 19.8472 22.4007 19.9137 22.3622 19.9927L22.2508 20.199C22.2057 20.2842 22.1817 20.379 22.1807 20.4754V22.8913C22.1765 22.9262 22.1808 22.9616 22.1929 22.9946C22.2051 23.0276 22.225 23.0572 22.2508 23.0811L22.3663 23.1698C22.3913 23.1877 22.4212 23.1974 22.4519 23.1974C22.4827 23.1974 22.5126 23.1877 22.5376 23.1698L23.2163 22.7778C23.2915 22.7312 23.3517 22.6638 23.3896 22.5839L23.501 22.3776C23.5461 22.2931 23.5701 22.199 23.5712 22.1032V19.6812C23.5753 19.6466 23.5711 19.6115 23.5589 19.5788C23.5466 19.5461 23.5268 19.5169 23.501 19.4934L23.3896 19.4068ZM23.2514 22.1486C23.2558 22.202 23.245 22.2555 23.2202 22.303C23.1953 22.3505 23.1575 22.39 23.1111 22.4168L22.6407 22.685C22.5458 22.7386 22.5004 22.7035 22.5004 22.5777V20.4363C22.4957 20.3828 22.5064 20.3291 22.5313 20.2816C22.5562 20.2341 22.5941 20.1947 22.6407 20.1681L23.1111 19.8957C23.206 19.8421 23.2514 19.8772 23.2514 20.003V22.1486ZM24.9637 18.4L23.8517 19.0416C23.8052 19.0693 23.7673 19.1095 23.7425 19.1577C23.7177 19.2058 23.7069 19.26 23.7114 19.314V19.3655C23.7114 19.4873 23.7589 19.5223 23.8517 19.4687L24.1096 19.3201C24.2024 19.2665 24.2499 19.3016 24.2499 19.4315V21.9938C24.2499 22.1218 24.2973 22.1589 24.3902 22.1053L24.4294 22.0826C24.4759 22.0544 24.5137 22.0138 24.5385 21.9653C24.5633 21.9168 24.5741 21.8624 24.5697 21.8082V19.2459C24.5652 19.1919 24.5759 19.1377 24.6007 19.0896C24.6255 19.0414 24.6634 19.0012 24.71 18.9736L24.9637 18.8271C25.0094 18.8006 25.0468 18.7618 25.0716 18.7151C25.0964 18.6684 25.1076 18.6157 25.104 18.563V18.5114C25.104 18.3835 25.0669 18.3526 24.9637 18.4ZM30.5752 15.1611L30.536 15.1817C30.4899 15.2094 30.4524 15.2493 30.4276 15.297C30.4029 15.3447 30.3918 15.3983 30.3957 15.4519V18.0184C30.3999 18.0726 30.389 18.1269 30.3642 18.1753C30.3395 18.2238 30.3018 18.2644 30.2554 18.2927L29.785 18.5589C29.6901 18.6146 29.6427 18.5775 29.6427 18.4495V15.8769C29.6427 15.7531 29.5973 15.716 29.5024 15.7717L29.4653 15.7923C29.4186 15.8196 29.3806 15.8593 29.3554 15.9071C29.3303 15.9549 29.319 16.0088 29.3229 16.0626V18.7652C29.3192 18.8003 29.3238 18.8357 29.3364 18.8687C29.3489 18.9017 29.369 18.9312 29.3951 18.955L29.5106 19.0416C29.535 19.0609 29.5652 19.0713 29.5963 19.0713C29.6273 19.0713 29.6575 19.0609 29.6819 19.0416L30.3606 18.6497C30.4375 18.6001 30.4973 18.5281 30.5319 18.4434L30.6453 18.237C30.6904 18.1525 30.7145 18.0584 30.7155 17.9627V15.258C30.7155 15.1425 30.668 15.1054 30.5752 15.1611ZM35.3965 14.4472L35.3222 14.4906C35.2748 14.5189 35.2365 14.5601 35.2116 14.6094C35.1868 14.6588 35.1765 14.7141 35.1819 14.7691V14.9754C35.1819 15.093 35.2273 15.126 35.3222 15.0723L35.3965 15.029C35.4417 15.0035 35.4789 14.9658 35.5037 14.9202C35.5285 14.8746 35.54 14.823 35.5368 14.7711V14.5648C35.5368 14.4328 35.4893 14.3936 35.3965 14.4472ZM36.3971 14.7794C36.3718 14.713 36.3551 14.6437 36.3476 14.5731L36.2424 13.6653C36.2424 13.6117 36.2424 13.5746 36.2424 13.5519C36.2424 13.5292 36.2424 13.49 36.2424 13.4302L36.3476 12.3986C36.3575 12.3136 36.3741 12.2294 36.3971 12.1469L36.6034 11.4496C36.6131 11.4182 36.6179 11.3855 36.6178 11.3527C36.6178 11.3114 36.6075 11.2867 36.5869 11.2784C36.5542 11.2737 36.5209 11.2818 36.494 11.3011L36.4136 11.3382C36.3321 11.3907 36.2744 11.4728 36.2527 11.5672L36.0464 12.3037C36.0247 12.385 36.0088 12.4678 35.9989 12.5513L35.8813 13.6323C35.8813 13.6901 35.8813 13.7314 35.8813 13.752C35.8813 13.7726 35.8813 13.8056 35.8813 13.8655L35.9989 14.8041C36.0071 14.8704 36.023 14.9355 36.0464 14.9981L36.2527 15.5076C36.2829 15.5915 36.3366 15.6122 36.4136 15.5695L36.4837 15.5283C36.5228 15.5067 36.555 15.4745 36.5766 15.4354C36.5967 15.3987 36.6073 15.3576 36.6075 15.3158C36.6085 15.2882 36.6035 15.2608 36.5931 15.2353L36.3971 14.7794ZM35.3965 12.7287L35.3222 12.772C35.2752 12.8002 35.237 12.8411 35.2122 12.89C35.1874 12.9389 35.1769 12.9939 35.1819 13.0485V13.2548C35.1819 13.3745 35.2273 13.4075 35.3222 13.3518L35.3965 13.3105C35.4419 13.2847 35.4791 13.2466 35.5039 13.2007C35.5288 13.1547 35.5401 13.1027 35.5368 13.0506V12.8443C35.5368 12.7122 35.4893 12.6751 35.3965 12.7287ZM32.3494 14.1357L32.3102 14.1584C32.2636 14.1861 32.2258 14.2263 32.201 14.2744C32.1762 14.3226 32.1654 14.3768 32.1699 14.4307V16.0812C32.1711 16.1232 32.1648 16.1651 32.1513 16.205C32.1428 16.233 32.1245 16.2572 32.0998 16.273C32.0921 16.278 32.0831 16.2807 32.074 16.2807C32.0648 16.2807 32.0559 16.278 32.0482 16.273C32.0278 16.26 32.0125 16.2403 32.0049 16.2173L31.4396 14.8062C31.4086 14.7278 31.355 14.7092 31.2766 14.7546L31.2065 14.7959C31.1599 14.8236 31.1221 14.8638 31.0972 14.9119C31.0724 14.9601 31.0617 15.0142 31.0662 15.0682V18.0617C31.0662 18.1875 31.1136 18.2226 31.2065 18.169L31.256 18.1463C31.3024 18.1195 31.3402 18.08 31.3651 18.0325C31.3899 17.9851 31.4007 17.9315 31.3963 17.8781V16.1492C31.3959 16.1044 31.4029 16.0598 31.4169 16.0172C31.4262 15.9878 31.4451 15.9624 31.4705 15.945C31.5077 15.9223 31.5386 15.945 31.5613 16.0069L32.1596 17.484C32.1905 17.5604 32.2442 17.5769 32.3205 17.5315L32.3597 17.5088C32.4059 17.4818 32.4436 17.4423 32.4684 17.3949C32.4933 17.3474 32.5042 17.294 32.5 17.2406V14.2471C32.4938 14.1192 32.4422 14.0821 32.3494 14.1357ZM34.0493 13.261C34.0247 13.2424 33.9946 13.2324 33.9637 13.2324C33.9328 13.2324 33.9028 13.2424 33.8781 13.261L32.9827 13.7788C32.936 13.8053 32.8977 13.8447 32.8725 13.8922C32.8473 13.9397 32.8361 13.9934 32.8404 14.047V17.0364C32.8404 17.1601 32.8878 17.1952 32.9827 17.1416L33.8781 16.6258C33.9523 16.5785 34.0116 16.5113 34.0493 16.4319L34.1628 16.2256C34.2079 16.1403 34.232 16.0456 34.2329 15.9491V13.5354C34.2371 13.5008 34.2329 13.4657 34.2206 13.433C34.2084 13.4003 34.1886 13.3711 34.1628 13.3476L34.0493 13.261ZM33.9132 15.9925C33.9174 16.0458 33.9064 16.0993 33.8816 16.1467C33.8568 16.1942 33.8191 16.2337 33.7729 16.2607L33.3025 16.533C33.2076 16.5866 33.1602 16.5515 33.1602 16.4278V14.2904C33.1559 14.2368 33.1671 14.1831 33.1923 14.1356C33.2175 14.0881 33.2557 14.0488 33.3025 14.0223L33.7729 13.7499C33.8657 13.6963 33.9132 13.7314 33.9132 13.8572V15.9925Z" fill="white"/>
<path d="M67.3097 74.1827C66.4869 73.8072 65.6164 73.5469 64.7226 73.409C64.1758 73.3184 63.6174 73.3232 63.0722 73.4235C62.684 73.5028 62.308 73.6333 61.954 73.8113C60.741 74.4137 60.5656 75.0842 60.5264 75.6516C60.4872 76.2189 60.8008 76.9781 61.8034 77.6795L79.0113 89.7339C82.1434 88.0652 85.0543 86.011 87.676 83.619C80.1996 80.1449 67.9987 74.4777 67.3097 74.1827Z" fill="#263238"/>
<path d="M72.816 48.8134C73.8723 49.0197 74.2849 49.0919 74.7904 49.9667C75.2958 50.8414 76.154 54.0927 76.3892 54.7674C76.6244 55.442 76.6946 55.6875 76.5955 56.4384C76.4944 57.2224 76.0323 58.6149 75.8384 59.3783C75.7476 59.731 75.6878 60.0756 75.6218 60.4366C75.5305 60.8061 75.4133 61.1687 75.2711 61.5218C75.2102 61.6939 75.104 61.8464 74.9637 61.9632C74.877 62.0396 74.7574 62.0478 74.6748 62.118C74.5923 62.1881 74.5696 62.3119 74.4541 62.3697C74.3386 62.4274 74.1776 62.3944 74.0642 62.4604C73.9522 62.5425 73.8359 62.6182 73.7155 62.6874C73.6047 62.7196 73.5035 62.7784 73.4205 62.8586C73.3462 62.9391 73.2761 63.1206 73.142 63.1062C73.0079 63.0917 72.9687 62.9473 72.9625 62.8235C72.9673 62.5806 73.0497 62.3457 73.1977 62.153C73.3293 61.9386 73.4733 61.7319 73.6289 61.5341C73.7804 61.3507 73.8889 61.1357 73.9466 60.9049C73.994 60.7502 73.9796 60.5542 73.7795 60.6429C73.5464 60.7502 73.2988 60.973 73.0182 60.9235C72.8243 60.8905 72.8119 60.7378 72.9254 60.6099C73.1119 60.3991 73.2829 60.175 73.437 59.9394C73.5938 59.698 73.7238 59.4443 73.8868 59.2091C73.9748 59.0869 74.0706 58.9704 74.1735 58.8604C74.4582 58.551 74.4458 58.1281 74.4789 57.734C74.5242 57.1873 74.5634 55.7844 74.5634 55.7844L73.2843 52.6342L72.816 48.8134Z" fill="#FFBDA7"/>
<path d="M74.4809 57.734C74.4933 57.0841 74.5201 56.4343 74.5448 55.7844C74.1322 54.7818 73.6907 53.6781 73.2864 52.6342C73.732 53.6781 74.1652 54.7268 74.5861 55.7803C74.5531 56.4322 74.5242 57.0841 74.4809 57.734Z" fill="white"/>
<path d="M65.6841 73.279C66.0471 73.1511 66.3174 73.1387 66.3133 73.3182C66.2641 73.5394 66.1857 73.7531 66.0802 73.9536L65.7913 74.3518L65.6531 74.7438C65.6531 74.7438 65.4839 74.9501 65.4736 74.9707C65.4633 74.9913 65.4076 74.2383 65.4076 74.2383C65.4076 74.2383 65.2034 73.3718 65.6841 73.279Z" fill="#263238"/>
<path d="M69.5831 57.963C69.5831 57.963 68.7579 58.9429 68.269 60.779C67.8179 62.4855 67.4734 64.2184 67.2375 65.9676C67.1199 66.7495 66.9301 67.7356 66.6495 69.2685C66.4329 70.4485 65.7521 74.0671 65.7521 74.0671C65.7521 74.0671 66.1441 74.719 66.6186 74.9171C67.2994 75.2018 67.9554 75.0718 68.0421 74.4632C68.0421 74.4632 68.4918 73.7453 69.1747 71.8926C69.5029 71.0421 69.765 70.1676 69.9586 69.2767C70.0262 68.7176 70.0462 68.1537 70.0185 67.5912L72.7582 62.8276C73.061 62.3058 73.4238 61.8211 73.8392 61.3835C74.0958 61.1208 74.2972 60.8094 74.4313 60.4675C74.8852 59.2297 74.225 57.5648 74.225 57.5648L69.5831 57.963Z" fill="#263238"/>
<path d="M67.2478 65.9656C66.8063 68.6785 66.3009 71.3811 65.7625 74.0754C66.237 71.3687 66.7445 68.6682 67.2478 65.9656Z" fill="white"/>
<path d="M66.1792 76.1611L66.0327 76.1322C66.043 76.0765 67.1406 70.4279 67.908 68.0554C68.6755 65.6829 70.6869 60.9709 70.7076 60.9235L70.8458 60.9833C70.8252 61.0287 68.8178 65.7386 68.0524 68.1028C67.287 70.4671 66.1916 76.1054 66.1792 76.1611Z" fill="black"/>
<path d="M73.1894 59.5495H68.6899C68.5253 59.949 68.3874 60.3591 68.2773 60.777C67.8613 62.3481 67.541 63.9431 67.318 65.553C67.4273 66.2895 67.5511 67.0466 67.6646 67.5665C67.9679 68.9405 68.1577 69.9101 68.397 70.4774C68.628 70.957 68.9006 71.4154 69.2119 71.8473C69.5322 71.0141 69.7881 70.1574 69.9773 69.285C70.0448 68.7259 70.0648 68.162 70.0371 67.5995L72.719 62.9473L72.9109 62.2149C73.5773 61.1071 73.5009 60.2757 73.1894 59.5495Z" fill="black"/>
<path d="M61.9953 75.109C61.9149 75.0718 61.8159 75.3875 61.8076 75.501C61.7993 75.6144 62.0139 76.0765 62.5771 76.4169C63.1403 76.7574 64.1079 76.9471 64.471 77.0606C64.8341 77.1741 65.125 77.4732 65.6036 77.7064C66.0286 77.9127 66.6702 78.022 66.9508 77.8961C67.0049 77.8639 67.0514 77.8202 67.087 77.7682C67.1226 77.7162 67.1465 77.6571 67.1571 77.5949C67.2334 77.3618 67.2272 77.3082 67.1983 77.2999L61.9953 75.109Z" fill="#37474F"/>
<path d="M67.3985 76.7841C67.3615 77.0224 67.2826 77.2522 67.1654 77.4629C67.0833 77.5246 66.9898 77.5694 66.8903 77.5945C66.7907 77.6197 66.6872 77.6247 66.5857 77.6093C66.1488 77.578 65.7281 77.4314 65.3664 77.1844C65.0902 77.0047 64.792 76.8611 64.4793 76.7573C64.0489 76.6536 63.6263 76.5198 63.2146 76.3571C62.9075 76.2273 62.6217 76.0521 62.3667 75.8372C62.1604 75.6433 61.9686 75.4246 61.9892 75.1523C62.0355 74.9808 62.1337 74.8279 62.2704 74.7145C62.4071 74.6011 62.5755 74.5328 62.7525 74.5189C63.0914 74.5017 63.4303 74.5529 63.749 74.6695C64.0585 74.7743 64.379 74.8435 64.7042 74.8758C64.927 74.8944 65.189 75.0821 65.3623 74.8861C65.5686 74.6592 65.649 74.1228 65.7873 73.8546C65.81 73.8113 65.8409 73.7638 65.8883 73.7535C65.9358 73.7432 66.0142 73.801 66.0575 73.8587C66.2595 74.1108 66.5182 74.3116 66.8126 74.4446C67.6089 74.8387 67.9782 74.6303 67.9782 74.6303L68.0525 74.4653C68.0525 74.4653 68.2113 74.554 68.0092 74.9253C67.8386 75.2306 67.695 75.5503 67.58 75.8805C67.4797 76.1723 67.4186 76.4762 67.3985 76.7841Z" fill="#455A64"/>
<path d="M61.9954 75.1523C62.245 74.228 63.293 74.4756 63.9697 74.7087C64.2094 74.7932 64.4578 74.8506 64.7103 74.88C64.4552 74.8685 64.2027 74.8234 63.9594 74.7459C63.2909 74.5396 62.2863 74.2755 61.9954 75.1585V75.1523Z" fill="white"/>
<path d="M63.8975 74.7108C63.5571 74.7417 63.4642 75.2925 63.4642 75.2925C63.7692 75.4563 64.1011 75.5639 64.4442 75.6102C64.6827 75.6516 64.9281 75.6023 65.1323 75.4722C65.3364 75.3421 65.4846 75.1404 65.5479 74.9067C65.6923 74.4467 65.5603 73.803 65.5335 73.5946C65.5178 73.5231 65.5306 73.4482 65.5691 73.3859C65.6076 73.3235 65.6688 73.2785 65.7398 73.2604C65.6814 73.2659 65.6247 73.2833 65.5733 73.3116C65.522 73.3399 65.477 73.3785 65.4412 73.4249C65.4054 73.4714 65.3795 73.5247 65.3652 73.5816C65.3509 73.6385 65.3485 73.6977 65.3581 73.7556C65.3684 74.0031 65.3581 74.4921 65.2529 74.6551C65.1477 74.818 64.6216 74.8902 63.8975 74.7108Z" fill="#455A64"/>
<path d="M72.426 57.963C72.9216 58.5486 73.2115 59.2806 73.2513 60.0467C73.2853 60.7909 73.0518 61.5227 72.5931 62.1097C72.4219 64.6184 71.9268 69.448 71.9268 69.448C72.589 70.1288 72.752 70.5702 73.144 71.7916C73.3771 72.5343 74.2518 74.9212 74.4685 75.5855C73.309 75.7279 72.6777 76.8811 72.6777 76.8811C72.6777 76.8811 70.6353 73.8649 69.6533 72.0907C68.9251 70.7786 68.5888 70.3 68.3722 69.5243C68.104 68.5567 68.0318 68.0575 67.7925 66.4297C67.5531 64.802 67.3241 62.7307 67.2065 61.1256C67.089 59.5206 67.0002 57.8248 67.0002 57.8248L72.426 57.963Z" fill="#263238"/>
<path d="M72.686 76.8749C71.4956 75.1213 70.328 73.3471 69.3047 71.4904C68.9681 70.949 68.6789 70.3795 68.4403 69.7884C68.2493 69.181 68.1032 68.5604 68.0029 67.9316C67.4764 64.5798 67.143 61.2005 67.0044 57.8104L67.1777 60.3479C67.3345 62.8875 67.6501 65.4147 68.0545 67.9234C68.201 68.7486 68.3536 69.6006 68.7291 70.3598C69.9333 72.6005 71.2541 74.7766 72.686 76.8791V76.8749Z" fill="white"/>
<path d="M69.7999 70.2299C69.1995 68.6991 68.4795 60.3665 68.5167 57.4865H68.3661C68.3537 58.4499 68.4259 60.0199 68.5497 61.7425C68.0607 61.4949 67.7451 61.0411 67.7451 58.7593H67.5945C67.5945 61.0534 67.8936 61.6084 68.562 61.9158C68.8137 65.3281 69.2635 69.2747 69.6596 70.2876C70.2475 71.7854 73.3153 76.846 73.3442 76.8894L73.4742 76.811C73.4432 76.7656 70.3837 71.7173 69.7999 70.2299Z" fill="black"/>
<path d="M72.5169 76.6191C72.3333 76.879 72.125 77.0626 72.6469 77.4092C73.0595 77.6754 73.0739 77.8899 73.1998 78.1746C73.2817 78.4522 73.3152 78.7418 73.2988 79.0308C73.2988 79.0308 73.992 77.9848 73.7898 77.3102C73.5876 76.6356 72.5169 76.6191 72.5169 76.6191Z" fill="#455A64"/>
<path d="M74.7388 76.0208C74.9341 76.2268 75.1638 76.3971 75.4176 76.5242C75.5929 76.6335 75.7745 76.7305 75.8302 76.9368C75.8302 76.9595 75.727 77.0833 75.7291 77.106C75.738 77.2044 75.7345 77.3035 75.7188 77.401C75.6796 77.7414 75.4939 77.9931 75.4526 78.3314C75.4391 78.4665 75.415 78.6003 75.3804 78.7316C75.3507 78.8915 75.3376 79.0539 75.3412 79.2165C75.3309 79.3856 75.3185 79.5548 75.3103 79.724C75.301 79.7959 75.301 79.8687 75.3103 79.9406C75.3247 80.0128 74.1735 80.5925 73.7094 80.8153C73.6818 80.8286 73.6536 80.8403 73.6248 80.8504C73.3415 80.9274 73.0399 80.8981 72.7769 80.7679C71.8526 80.4316 71.9104 80.0974 71.9104 80.0974C71.9151 79.959 71.9588 79.8247 72.0366 79.7101C72.1144 79.5954 72.2229 79.5051 72.3498 79.4496C72.4061 79.4168 72.4655 79.3899 72.5272 79.3691C72.7572 79.2837 73.008 79.2715 73.2452 79.3341C73.292 79.1967 73.3137 79.052 73.3091 78.907C73.328 78.6902 73.3315 78.4724 73.3194 78.2551C73.2785 78.0096 73.1833 77.7763 73.0409 77.5722C72.8449 77.302 72.6283 76.9533 72.4983 76.7635C72.3684 76.5737 72.3333 76.1157 73.1028 75.5649C73.8414 75.0388 74.3819 75.1523 74.4871 75.3689C74.5457 75.5951 74.6301 75.8139 74.7388 76.0208Z" fill="#455A64"/>
<path d="M71.8979 80.0994C71.8979 79.4619 72.7108 79.1422 73.241 79.3299C72.6984 79.2288 71.9763 79.4805 71.8979 80.0994Z" fill="white"/>
<path opacity="0.1" d="M72.7521 79.6642C72.8137 79.5068 72.9302 79.3771 73.0801 79.299C73.1344 79.3053 73.1882 79.3156 73.241 79.33C73.1482 79.4187 72.816 79.5507 72.7521 79.6642Z" fill="black"/>
<path d="M75.9374 77.1369C76.1437 77.2236 75.9725 77.5495 75.7311 78.055C75.513 78.4285 75.4259 78.8642 75.4835 79.2928C75.533 79.7405 75.4278 79.9592 75.2339 80.118C75.04 80.2769 73.6 80.9061 73.6 80.9061C73.9424 80.4737 74.1408 79.9449 74.1673 79.3939C74.2457 78.4078 74.3406 77.7744 74.8316 77.3432C74.9843 77.2197 75.1653 77.1361 75.3584 77.1001C75.5515 77.0641 75.7505 77.0768 75.9374 77.1369Z" fill="black"/>
<path d="M71.898 80.0974C71.9207 80.2913 72.4715 80.6833 73.1214 80.675C73.7712 80.6667 73.8269 80.5285 73.928 79.7673C74.0291 79.006 74.0992 77.9477 74.4293 77.4979C74.7594 77.0482 75.1927 76.7759 75.826 76.9409C75.8982 76.976 76.0942 77.172 76.022 77.3535C76.022 77.3535 76.022 77.2091 75.7621 77.1328C75.5392 77.0688 75.2731 77.075 74.9018 77.3968C74.4665 77.7702 74.3695 78.6512 74.32 79.4062C74.2705 80.1613 74.0353 80.8854 73.4102 80.9535C73.1403 80.9901 72.8658 80.9673 72.6057 80.8867C72.3456 80.8062 72.1061 80.6699 71.9042 80.4873C71.8651 80.3605 71.8629 80.2253 71.898 80.0974Z" fill="#37474F"/>
<path d="M68.1721 44.0767C68.0878 43.9581 68.036 43.8197 68.0215 43.675C68.007 43.5303 68.0305 43.3843 68.0895 43.2515C68.1947 42.9833 68.4134 42.7006 69.0509 42.3705C69.8101 41.9786 71.8938 41.698 72.9253 43.0617C73.0738 43.268 71.0232 47.1155 71.1243 47.9139C70.592 47.3548 68.8364 45.3888 68.8364 45.3888C68.4237 45.2114 68.1679 45.0607 68.0792 44.6688C68.0471 44.4666 68.0796 44.2594 68.1721 44.0767Z" fill="#263238"/>
<path d="M68.8364 45.3785C68.2175 45.2155 67.8234 44.6729 68.1721 44.0705C67.908 44.6894 68.2608 45.1392 68.8364 45.3785Z" fill="white"/>
<path d="M68.1721 44.0767C67.9121 43.792 67.9761 43.334 68.1721 43.0286C68.3996 42.7324 68.7034 42.5035 69.0509 42.3664C68.8924 42.4576 68.7395 42.5582 68.5929 42.6676C68.1617 42.9667 67.8399 43.596 68.1803 44.0767H68.1721Z" fill="white"/>
<path d="M68.4856 45.1722C68.4856 45.1722 67.9224 46.0902 67.9864 46.1666C68.1159 46.2696 68.2539 46.3614 68.399 46.4409L68.4856 45.1722Z" fill="#F0997A"/>
<path d="M68.4856 45.1722C68.3453 45.4672 68.1762 45.7457 68.0379 46.0387C68.0194 46.0861 67.9802 46.1418 68.007 46.1748C68.0424 46.2157 68.0842 46.2505 68.1308 46.278C68.0751 46.247 67.9822 46.2223 67.9698 46.148C68.0834 45.7951 68.258 45.4648 68.4856 45.1722Z" fill="white"/>
<path d="M69.1829 43.4928C68.8054 43.6723 68.4795 43.9611 68.3577 44.7884C68.3268 45.005 68.496 45.3 68.4196 45.5868C68.0916 46.8246 68.4815 47.8561 68.7208 48.0728C68.8817 48.2254 69.7276 48.2935 70.165 48.1697C70.7199 48.015 71.9268 47.4704 72.5024 46.6018C73.1791 45.5703 73.3276 44.2087 72.5828 43.6579C71.5328 42.8821 69.5852 43.303 69.1829 43.4928Z" fill="#FFBDA7"/>
<path d="M68.3619 44.7885C68.3619 45.069 68.527 45.3434 68.4321 45.6302C68.2567 46.4286 68.2443 47.3776 68.725 48.0728C68.1969 47.4003 68.1969 46.4224 68.3991 45.6219C68.494 45.3496 68.3372 45.0711 68.3619 44.7967V44.7885Z" fill="white"/>
<path d="M72.0692 47.1857L72.2878 48.7061C72.6282 48.7783 72.6592 49.1806 72.4941 49.4839L72.5746 49.913L70.2475 50.3297L69.9875 48.2028L72.0692 47.1857Z" fill="#FFBDA7"/>
<path d="M68.7704 48.1037C68.9767 48.2131 69.3996 48.2935 69.9896 48.211L69.9546 47.9098C69.7674 47.98 69.5749 48.0352 69.379 48.0748C69.1787 48.1145 68.9736 48.1243 68.7704 48.1037Z" fill="#F0997A"/>
<path d="M68.6259 43.9343C68.6102 44.1128 68.6569 44.2913 68.7581 44.4391C68.8594 44.587 69.0088 44.6952 69.1809 44.7451C69.089 44.9427 69.0547 45.1622 69.0818 45.3785C69.0896 45.5062 69.1337 45.629 69.209 45.7325C69.2843 45.8359 69.3877 45.9157 69.5068 45.9623C69.6698 46.018 69.7131 45.9458 69.7771 45.8158C69.8596 45.6322 69.9648 45.3517 70.3589 45.4032C70.8107 45.4651 70.9303 46.1459 70.6662 46.5915C70.6155 46.6857 70.5426 46.7662 70.4538 46.8258C70.3651 46.8855 70.2631 46.9226 70.1567 46.934C70.0981 46.9331 70.0404 46.9198 69.9874 46.8949C69.9344 46.87 69.8873 46.8341 69.8493 46.7896C69.8493 46.7896 69.8782 47.3837 70.6436 47.7365C71.1223 47.9912 71.6768 48.0644 72.2053 47.9428C72.5611 47.5476 72.8964 47.1345 73.21 46.705C74.0352 45.5002 74.2106 43.2948 72.7974 42.8987C72.7293 42.8801 71.444 42.6924 70.8169 42.8368C68.8838 43.2494 68.63 43.8415 68.6259 43.9343Z" fill="#263238"/>
<path d="M72.1146 42.744C71.9437 42.8671 71.8263 43.0508 71.7865 43.2577C71.7689 43.3608 71.7786 43.4667 71.8148 43.5648C71.851 43.663 71.9124 43.7498 71.9928 43.8167C72.4054 44.1406 73.0491 43.7631 73.1254 43.2845C73.2121 42.7192 72.5313 42.4345 72.1146 42.744Z" fill="#00FF00"/>
<path d="M72.4509 42.9234C72.0279 43.1834 71.7639 43.7961 71.9888 44.2376C72.0506 44.3573 72.1373 44.4645 72.1951 44.5904C72.358 44.9927 72.1208 45.4362 72.0692 45.8674C72.0339 46.2096 72.0931 46.555 72.2404 46.8659C72.3807 47.0949 72.6902 47.1527 72.814 47.392C72.8986 47.557 72.8408 47.7592 72.8738 47.9428C72.946 48.3369 73.4123 48.5267 73.8145 48.5349C73.9846 48.55 74.1559 48.5274 74.3164 48.469C74.4768 48.4105 74.6224 48.3175 74.7429 48.1966C74.8352 48.0533 74.9358 47.9155 75.0441 47.784C75.2834 47.5591 75.663 47.5777 75.9271 47.3714C76.0248 47.2851 76.1013 47.1776 76.1507 47.057C76.2 46.9364 76.221 46.8061 76.2118 46.6761C76.1874 46.4157 76.1176 46.1615 76.0055 45.9252C75.8343 45.5126 75.9704 45.2464 76.0571 44.8276C76.0977 44.6014 76.0602 44.3681 75.9507 44.1661C75.8413 43.964 75.6663 43.8052 75.4547 43.7156C75.1638 43.6001 74.8089 43.6187 74.5737 43.4103C74.4622 43.2783 74.3575 43.1405 74.2602 42.9977C73.8187 42.5129 72.9481 42.6202 72.4509 42.9234Z" fill="#263238"/>
<path d="M74.1116 49.9501C74.0189 49.698 73.872 49.4692 73.6813 49.2799C73.4906 49.0907 73.2607 48.9455 73.0079 48.8547C72.8016 48.7928 72.2879 48.7061 72.2879 48.7061C72.4055 48.9743 72.2074 49.1517 71.8588 49.2322C71.4111 49.3374 70.7282 49.3477 70.264 49.0403L70.0742 48.9227C69.5677 49.0472 69.0678 49.1973 68.5765 49.3725C68.4754 49.4199 67.9163 49.6077 67.0374 51.582C66.662 52.4258 66.7734 53.2819 67.4645 53.8905C67.5037 54.4249 67.1592 55.6276 67.1592 55.6276C66.984 56.6314 66.9437 57.6541 67.0395 58.6685C67.0395 58.6685 67.4521 59.762 70.7241 59.7496C73.2554 59.7496 74.5283 58.5118 74.5283 58.5118C74.4974 57.8928 73.5236 55.7205 73.6206 54.9901C73.7712 53.9256 74.747 52.0173 74.1116 49.9501Z" fill="#00FF00"/>
<path d="M68.5765 49.3725C69.2428 49.9151 69.2944 50.6598 69.1954 51.6645C69.0964 52.6692 68.0875 55.8092 67.8812 56.4921C67.6749 57.1749 67.3799 57.4122 66.86 57.9651C66.3401 58.518 65.125 59.3968 64.5205 59.9002C64.24 60.1333 63.9903 60.3768 63.7242 60.6305C63.4334 60.8757 63.126 61.1005 62.8041 61.3031C62.6536 61.406 62.4784 61.4672 62.2966 61.4805C62.181 61.4805 62.08 61.4269 61.9706 61.4351C61.8613 61.4434 61.7643 61.53 61.6446 61.5094C61.525 61.4887 61.4053 61.367 61.2754 61.3526C61.1376 61.3545 60.9998 61.3483 60.8628 61.334C60.7541 61.2937 60.637 61.2816 60.5224 61.2989C60.4151 61.3196 60.2521 61.4248 60.151 61.3361C60.0499 61.2474 60.1056 61.105 60.1716 60.9998C60.3176 60.8029 60.523 60.6582 60.7575 60.5872C60.9897 60.4913 61.2274 60.4093 61.4693 60.3417C61.6969 60.2806 61.9083 60.17 62.0882 60.0178C62.2161 59.9208 62.3193 59.7517 62.1068 59.7083C61.8551 59.6568 61.5229 59.6918 61.3228 59.4876C61.1867 59.3473 61.2671 59.2173 61.4342 59.1802C61.7089 59.1195 61.9785 59.0382 62.2409 58.9368C62.5091 58.8336 62.7628 58.7036 63.0331 58.6087C63.1772 58.5622 63.3239 58.5243 63.4725 58.4953C63.8851 58.4107 64.1224 58.062 64.3782 57.7629C64.7371 57.3503 65.354 56.5622 65.7728 55.9969L66.4062 52.9333C66.8064 51.2705 66.9467 49.8759 68.5765 49.3725Z" fill="#FFBDA7"/>
<path d="M69.1912 51.6645C69.0302 52.5722 68.809 53.4682 68.529 54.3465C68.5083 54.4187 68.4856 54.4889 68.465 54.5528C68.2113 55.4131 67.9658 56.1888 67.875 56.49C67.6893 57.1089 67.4273 57.3647 66.992 57.8186L66.8538 57.963C66.3112 58.5386 65.1188 59.3948 64.5143 59.9002C64.2358 60.1333 63.9841 60.3747 63.72 60.6285C63.4286 60.8744 63.1205 61.0998 62.7978 61.3031C62.6471 61.4053 62.472 61.4658 62.2903 61.4784C62.1748 61.4888 62.0737 61.4248 61.9644 61.4331C61.855 61.4413 61.7581 61.5279 61.6384 61.5073C61.5188 61.4867 61.3991 61.365 61.2691 61.3526C61.1313 61.3538 60.9935 61.3469 60.8565 61.332C60.7476 61.2926 60.6307 61.2806 60.5161 61.2969C60.4831 61.2969 60.4439 61.3196 60.4027 61.334L60.3511 61.3505C60.3278 61.3592 60.3036 61.3647 60.2789 61.367C60.2558 61.3717 60.232 61.3711 60.2091 61.3654C60.1863 61.3597 60.165 61.349 60.1468 61.334C60.0334 61.235 60.0994 61.105 60.1654 60.9998C60.3112 60.8028 60.5167 60.6581 60.7513 60.5872C60.9834 60.4906 61.2211 60.4079 61.4631 60.3396C61.6907 60.2785 61.902 60.168 62.082 60.0157C62.2099 59.9188 62.313 59.7517 62.1005 59.7063C61.8488 59.6547 61.5167 59.6898 61.3186 59.4876C61.1804 59.3453 61.2609 59.2153 61.428 59.1781C61.7027 59.1177 61.9724 59.0364 62.2346 58.9347C62.5028 58.8316 62.7586 58.7016 63.0268 58.6087C63.1705 58.5608 63.3173 58.5229 63.4663 58.4953C63.8789 58.4107 64.1161 58.06 64.3719 57.7629C64.7309 57.3503 65.3478 56.5601 65.7686 55.9949L66.3999 52.9313C66.8001 51.2602 66.9466 49.8656 68.5702 49.3643C68.7379 49.5001 68.8779 49.6668 68.9828 49.8553C69.2593 50.3421 69.2655 50.9342 69.1912 51.6645Z" fill="#FFBDA7"/>
<path d="M60.1386 61.3361C60.1001 61.2971 60.0772 61.2454 60.0742 61.1907C60.0712 61.136 60.0882 61.0821 60.1221 61.039C60.2768 60.7399 60.6131 60.612 60.9102 60.5109C61.1077 60.4181 61.3154 60.3488 61.5291 60.3046C61.7318 60.2419 61.9223 60.1449 62.0923 60.0178C61.9315 60.1621 61.7435 60.273 61.5394 60.3438C61.1274 60.4448 60.7315 60.6032 60.3635 60.8142C60.2273 60.9235 59.9901 61.1525 60.1469 61.3279L60.1386 61.3361Z" fill="white"/>
<path d="M61.3228 59.4958C61.067 59.2029 61.5622 59.1658 61.7478 59.1039C62.2388 58.978 62.6721 58.7078 63.1548 58.5716C63.4023 58.5337 63.6391 58.4445 63.8501 58.3096C64.1863 58.0435 64.5474 57.5091 64.8259 57.1729L65.7543 55.9907C65.9606 54.9592 66.2886 53.3521 66.5341 52.3041C66.7961 51.0663 67.1984 49.7438 68.5765 49.3725C67.219 49.7583 66.8229 51.0724 66.5712 52.3123C66.3237 53.3769 66.0266 54.9345 65.7935 56.0258L64.8568 57.2059C64.5701 57.5442 64.2173 58.0682 63.8686 58.3426C63.6549 58.4779 63.4153 58.5671 63.1651 58.6046C62.6824 58.7387 62.243 59.0028 61.752 59.1204C61.5642 59.1802 61.0732 59.207 61.3228 59.502V59.4958Z" fill="white"/>
<path opacity="0.3" d="M73.241 62.7926C73.2409 62.8727 73.2631 62.9513 73.3049 63.0195C73.3483 62.9659 73.3854 62.8999 73.4225 62.8586C73.5055 62.7784 73.6068 62.7196 73.7176 62.6874C73.8379 62.6182 73.9543 62.5425 74.0662 62.4604C74.1776 62.3944 74.3261 62.4336 74.4561 62.3697C74.5861 62.3057 74.5902 62.1923 74.6769 62.118C74.7635 62.0437 74.8832 62.0396 74.9657 61.9633C75.106 61.8464 75.2122 61.6939 75.2731 61.5218C75.4153 61.1687 75.5325 60.8061 75.6238 60.4366C75.6898 60.0756 75.7496 59.731 75.8404 59.3783C76.0343 58.6149 76.4965 57.2224 76.5976 56.4384C76.6945 55.6875 76.6244 55.4399 76.3913 54.7674C76.1581 54.0948 75.2978 50.8476 74.7924 49.9667C74.3138 49.1414 73.9156 49.03 72.9749 48.8444L72.9192 48.8299L72.8242 48.8093L72.75 48.7928L72.6551 48.7742L72.5994 48.7639L72.4632 48.7371L72.3601 48.7185H72.3332H72.2899L72.1806 47.9573H72.2074C72.3745 47.751 72.5581 47.555 72.75 47.3239C72.7734 47.351 72.7935 47.3808 72.8098 47.4126C72.8965 47.5777 72.8366 47.7778 72.8696 47.9614C72.9418 48.3575 73.4081 48.5452 73.8104 48.5555C73.9806 48.5698 74.1518 48.5467 74.3122 48.4879C74.4725 48.4291 74.6181 48.336 74.7388 48.2151C74.8317 48.0723 74.9323 47.9346 75.04 47.8025C75.2793 47.5777 75.6589 47.5962 75.925 47.3899C76.0225 47.3032 76.0987 47.1952 76.1477 47.0742C76.1967 46.9533 76.2172 46.8227 76.2076 46.6926C76.1843 46.432 76.1144 46.1777 76.0013 45.9417C75.8301 45.5291 75.9663 45.2629 76.0529 44.8462C76.0938 44.62 76.0567 44.3865 75.9476 44.1842C75.8385 43.9818 75.664 43.8224 75.4526 43.7322C75.1596 43.6166 74.8048 43.6373 74.5696 43.4268C74.4587 43.2947 74.3547 43.157 74.2581 43.0142C73.928 42.6532 73.3606 42.6222 72.8861 42.7543C72.7689 42.673 72.6285 42.6317 72.4859 42.6367C71.8422 42.1374 71.0026 42.0178 70.2826 42.0755C70.0116 42.1893 69.7666 42.3571 69.5626 42.5686C68.9148 43.2102 68.5311 44.153 68.7002 45.0442C68.7332 45.2114 68.7848 45.3723 68.8116 45.5394C68.8797 45.9664 68.7848 46.4017 68.7869 46.835C68.7889 47.2682 68.9251 47.7468 69.3006 47.9593C69.5853 48.1182 69.9339 48.0872 70.2578 48.1285C70.7901 48.1966 70.7282 48.5246 70.7488 48.9764C70.7578 49.0456 70.7522 49.1158 70.7323 49.1827C70.7241 49.2068 70.7115 49.2292 70.6952 49.2487C70.557 49.42 70.165 49.488 69.9917 49.5458C69.6482 49.629 69.3127 49.7422 68.9891 49.8841C68.8404 49.9596 68.7118 50.0692 68.6136 50.2039C68.2195 50.7568 68.0524 51.4149 67.8853 52.0607C67.7306 52.6589 67.5676 53.2572 67.3964 53.8514C67.2423 54.3905 67.0814 54.9269 66.9136 55.4605C66.7831 55.9461 66.5874 56.4118 66.3319 56.8448C66.0121 57.3338 65.5541 57.7134 65.1415 58.1301C64.2069 59.075 63.425 60.2839 62.1748 60.7378C61.6941 60.9111 61.1784 60.9586 60.6853 61.0906C60.5141 61.136 60.3202 61.2267 60.2727 61.3856C60.2974 61.3833 60.3217 61.3777 60.3449 61.3691L60.3965 61.3526C60.4377 61.3381 60.4769 61.3237 60.51 61.3155C60.6246 61.2991 60.7415 61.3112 60.8504 61.3505C60.9874 61.3655 61.1251 61.3724 61.263 61.3712C61.3929 61.3835 61.4899 61.5032 61.6322 61.5259C61.7746 61.5486 61.8386 61.4599 61.9582 61.4516C62.0779 61.4434 62.1645 61.5073 62.2842 61.497C62.4659 61.4844 62.641 61.4239 62.7917 61.3216C63.1143 61.1184 63.4224 60.8929 63.7139 60.647C63.9779 60.3933 64.2296 60.1519 64.5081 59.9188C65.1126 59.4133 66.305 58.5572 66.8476 57.9816L66.9858 57.8372C67.4191 57.3854 67.6811 57.1316 67.8668 56.5106C67.9575 56.2094 68.203 55.4337 68.4568 54.5734L68.5207 54.3671C68.616 54.4831 68.6658 54.6297 68.661 54.7797C68.7374 55.7824 68.9767 56.7974 69.1397 57.7959C69.2552 58.5077 69.3728 59.2194 69.4264 59.9373C69.4677 60.4572 69.4739 60.9689 69.4821 61.497L69.5316 65.2105C69.5316 65.4168 69.5316 65.6231 69.5419 65.8418C69.5446 66.4262 69.5846 67.0098 69.6616 67.5892C69.7289 68.0998 69.84 68.6037 69.9938 69.0952C70.0309 69.2148 70.0701 69.3345 70.1134 69.4542C70.5405 70.6404 71.211 71.7235 71.8567 72.7922C72.5118 73.9341 73.0994 75.1134 73.6165 76.3241C73.7224 76.5358 73.8001 76.7605 73.8475 76.9925C73.9135 77.3927 73.8042 77.7992 73.7732 78.2035C73.7423 78.6079 73.7877 78.9957 73.7732 79.3918C73.7822 79.7904 73.6668 80.182 73.4432 80.5121C73.2819 80.7199 73.0586 80.8709 72.8057 80.9432C73.0039 80.9777 73.206 80.984 73.406 80.9618C73.5214 80.9512 73.6325 80.913 73.7299 80.8504C74.2404 80.6351 74.739 80.3927 75.2236 80.1242C75.4175 79.9695 75.5227 79.7487 75.4753 79.299C75.4157 78.8705 75.5022 78.4345 75.7208 78.0612C75.8531 77.8344 75.9544 77.5908 76.022 77.337C76.0735 77.1617 75.892 76.9801 75.8157 76.9451C75.7641 76.7388 75.5825 76.6397 75.4031 76.5325C75.1499 76.4054 74.9208 76.2351 74.7264 76.0291C74.6147 75.8214 74.5281 75.6012 74.4685 75.373C74.4421 75.3228 74.4011 75.2818 74.3509 75.2554C74.0332 74.3415 73.3421 72.4414 73.1378 71.7957C72.7541 70.5723 72.5829 70.1308 71.9206 69.45C71.9206 69.45 72.2858 65.8851 72.4983 63.2918L72.7541 62.8442C72.7809 62.7967 72.8077 62.7513 72.8366 62.7059C73.1231 62.239 73.4577 61.8033 73.8351 61.4062C73.8723 61.367 73.9094 61.3216 73.9465 61.2783C73.8908 61.3712 73.8372 61.464 73.7753 61.5548C73.5298 61.9302 73.2224 62.3325 73.241 62.7926ZM74.5036 58.5386L74.5283 58.5159C74.5159 58.3817 74.4903 58.249 74.452 58.1198C74.4045 57.9444 74.3385 57.7361 74.2663 57.5112C74.2436 57.4411 74.2189 57.3689 74.1941 57.3049C74.1095 57.0532 74.0188 56.785 73.9362 56.5251C73.9094 56.4446 73.8847 56.3642 73.862 56.2858C73.8393 56.2074 73.8083 56.1125 73.7856 56.0299C73.7629 55.9474 73.7526 55.9124 73.7382 55.8546C73.7382 55.836 73.7279 55.8154 73.7237 55.7968C73.7196 55.7783 73.7052 55.7205 73.6969 55.6854C73.6804 55.6173 73.666 55.5534 73.6557 55.4915L73.6433 55.4234C73.6423 55.4076 73.6423 55.3918 73.6433 55.376C73.6373 55.346 73.6331 55.3157 73.6309 55.2852V55.2233C73.6289 55.1862 73.6289 55.149 73.6309 55.1119C73.6287 55.0762 73.6287 55.0403 73.6309 55.0046C73.6867 54.6843 73.7632 54.368 73.8599 54.0577C73.9259 53.8184 74.0002 53.5625 74.0662 53.2902C74.2622 53.6554 74.452 54.0205 74.6418 54.3878C74.8049 54.6781 74.9429 54.9818 75.0544 55.2955C75.2813 56.0093 75.2256 56.783 75.139 57.5277C75.0484 58.3773 74.8601 59.2135 74.5778 60.0199C74.6382 59.5255 74.6131 59.0244 74.5036 58.5386Z" fill="black"/>
</svg>
