<svg width="97" height="99" viewBox="0 0 97 99" fill="none" xmlns="http://www.w3.org/2000/svg">
<path d="M67.5713 55.0059C67.5517 55.0052 67.5325 54.9996 67.5156 54.9894C50.3924 44.2801 35.2889 43.6427 25.6359 45.0063C15.166 46.4752 8.65913 50.5291 8.59518 50.5765C8.58376 50.584 8.57093 50.5891 8.55749 50.5915C8.54404 50.5939 8.53025 50.5935 8.51695 50.5905C8.50365 50.5874 8.49111 50.5816 8.48009 50.5736C8.46906 50.5655 8.45979 50.5553 8.45283 50.5435C8.43809 50.5205 8.43308 50.4926 8.43888 50.466C8.44468 50.4393 8.46082 50.416 8.48377 50.4012C8.54979 50.362 15.0855 46.2751 25.607 44.8083C31.8517 43.9437 38.1969 44.1285 44.3807 45.355C52.2347 46.892 60.0598 50.0773 67.6436 54.8202C67.6553 54.8272 67.6655 54.8365 67.6736 54.8475C67.6816 54.8585 67.6874 54.871 67.6905 54.8843C67.6936 54.8976 67.6939 54.9114 67.6915 54.9249C67.6891 54.9383 67.684 54.9512 67.6766 54.9626C67.6652 54.9793 67.6492 54.9924 67.6305 55.0001C67.6118 55.0078 67.5912 55.0098 67.5713 55.0059Z" fill="#263238"/>
<path d="M39.4913 52.3363C37.7191 50.8798 42.9984 45.2683 42.9984 45.2683C40.6878 44.8557 41.0014 44.9383 41.0014 44.9383C41.0014 44.9383 34.9938 50.7313 34.932 54.0321C34.8701 57.333 44.0898 60.4069 44.0898 60.4069L47.5495 58.8885L50.5719 57.7683C50.5719 57.7683 41.2655 53.7928 39.4913 52.3363Z" fill="#00FF00"/>
<path d="M44.0899 60.506H44.0569C43.6773 60.3802 34.7732 57.3619 34.8289 54.0322C34.8887 50.8427 40.3021 45.4767 40.8839 44.9115C40.8942 44.8681 40.9045 44.8413 41.0221 44.8454C41.2284 44.8454 41.7236 44.9445 43.0088 45.1735C43.0268 45.1774 43.0435 45.186 43.0572 45.1984C43.0708 45.2108 43.081 45.2265 43.0866 45.2441C43.0922 45.2616 43.0932 45.2804 43.0893 45.2984C43.0854 45.3164 43.0769 45.3331 43.0645 45.3468C43.0253 45.388 39.1014 49.5863 39.2293 51.5813C39.2317 51.7113 39.2618 51.8393 39.3176 51.9567C39.3735 52.0741 39.4538 52.1783 39.5532 52.2621C41.2944 53.6938 50.5142 57.626 50.607 57.6755C50.6262 57.6834 50.6425 57.6968 50.6539 57.7141C50.6653 57.7314 50.6713 57.7518 50.671 57.7725C50.6698 57.7931 50.6627 57.813 50.6507 57.8298C50.6386 57.8466 50.622 57.8596 50.6029 57.8674L47.5867 58.9835L44.1394 60.4977C44.1239 60.505 44.1068 60.5078 44.0899 60.506ZM41.0407 45.0332C40.5951 45.4706 35.095 50.9252 35.0352 54.0239C34.9753 57.1226 43.4462 60.0666 44.0857 60.2853L47.5083 58.7834L50.2934 57.7518C48.7977 57.1102 41.0531 53.7475 39.4274 52.4127C39.3061 52.3114 39.2078 52.1854 39.1392 52.0431C39.0705 51.9008 39.033 51.7454 39.0292 51.5875C38.9054 49.6915 42.0928 46.0998 42.7902 45.3385C41.5544 45.1178 41.1645 45.0559 41.0448 45.0394L41.0407 45.0332Z" fill="#263238"/>
<path d="M34.5772 66.7467C34.5634 66.7469 34.5496 66.7442 34.5368 66.7389C34.5241 66.7336 34.5125 66.7257 34.5029 66.7157C34.4933 66.7061 34.4856 66.6947 34.4803 66.6822C34.4751 66.6696 34.4724 66.6561 34.4724 66.6425C34.4724 66.6289 34.4751 66.6154 34.4803 66.6028C34.4856 66.5902 34.4933 66.5788 34.5029 66.5692C34.5586 66.5177 40.1784 61.2487 50.2006 57.7539C56.157 55.6901 62.4167 54.6372 68.7205 54.6387H68.8711C76.8283 54.6387 85.0743 56.2396 93.3821 59.3981C93.4079 59.4077 93.4287 59.4271 93.4401 59.452C93.4515 59.477 93.4526 59.5055 93.443 59.5312C93.4334 59.5569 93.414 59.5778 93.3891 59.5892C93.3641 59.6006 93.3356 59.6016 93.3099 59.592C74.4352 52.4168 59.4925 54.7377 50.279 57.9416C40.2939 61.4199 34.701 66.6621 34.6453 66.7157C34.6275 66.7345 34.6031 66.7456 34.5772 66.7467Z" fill="#263238"/>
<path d="M94.2712 86.4219C94.2434 86.4218 94.2166 86.4107 94.197 86.3909C94.0918 86.2816 83.3949 75.366 65.8549 69.2429C47.4361 62.8166 17.8355 67.8958 5.61407 76.3872C5.59137 76.4028 5.5634 76.4088 5.53631 76.4037C5.50923 76.3987 5.48526 76.3831 5.46966 76.3604C5.45407 76.3377 5.44813 76.3097 5.45316 76.2827C5.45819 76.2556 5.47377 76.2316 5.49648 76.216C11.7227 71.8836 22.333 68.426 33.8798 66.9426C45.963 65.3892 57.6461 66.1587 65.9292 69.049C83.5187 75.1866 94.2444 86.1372 94.3517 86.2465C94.3614 86.2561 94.369 86.2675 94.3743 86.2801C94.3795 86.2927 94.3822 86.3061 94.3822 86.3198C94.3822 86.3334 94.3795 86.3469 94.3743 86.3594C94.369 86.372 94.3614 86.3834 94.3517 86.393C94.341 86.4031 94.3283 86.4108 94.3145 86.4158C94.3006 86.4208 94.2859 86.4228 94.2712 86.4219Z" fill="#263238"/>
<path d="M26.1022 81.2643C23.9443 82.0235 22.0298 82.6775 20.3257 83.2427C26.4364 86.1001 34.1687 88.0022 43.9063 89.0296C46.0559 89.2565 48.0653 89.4154 49.9489 89.5103C62.3767 80.4329 68.0645 69.9114 68.0645 69.9114C68.4874 70.0496 61.143 66.8168 52.8578 66.5321C52.8516 66.5342 42.4889 75.5063 26.1022 81.2643Z" fill="#00FF00"/>
<path d="M33.6323 98.3752C33.6112 98.3756 33.5906 98.3695 33.5732 98.3577C33.5559 98.3458 33.5426 98.3289 33.5353 98.3091C33.5303 98.2964 33.5279 98.2828 33.5283 98.2692C33.5286 98.2555 33.5316 98.2421 33.5372 98.2296C33.5427 98.2171 33.5507 98.2059 33.5607 98.1965C33.5706 98.1871 33.5823 98.1799 33.5951 98.1751C45.8929 93.6364 54.5845 86.1867 59.7091 80.73C64.8337 75.2732 67.5198 70.6603 67.9159 69.9568C67.0288 69.5792 60.4229 66.9076 52.8887 66.6394C52.245 67.184 41.9174 75.8179 26.1372 81.3613C10.0868 86.9996 7.38625 86.9315 3.96985 86.8283C3.51805 86.8159 3.0518 86.8036 2.54016 86.8036C2.51281 86.8036 2.48657 86.7927 2.46722 86.7734C2.44788 86.754 2.43701 86.7278 2.43701 86.7004C2.43701 86.6731 2.44788 86.6468 2.46722 86.6275C2.48657 86.6081 2.51281 86.5973 2.54016 86.5973C3.05386 86.5973 3.52217 86.6096 3.98429 86.622C7.38212 86.7169 10.0641 86.7912 26.0795 81.1653C42.2599 75.4816 52.6927 66.5466 52.7938 66.4579C52.8138 66.4404 52.8395 66.4309 52.866 66.431C60.425 66.693 67.1299 69.342 68.0686 69.8103H68.0995C68.1511 69.8371 68.18 69.8557 68.182 69.8639C68.1899 69.882 68.1924 69.9019 68.1891 69.9214C68.1858 69.9408 68.1769 69.9588 68.1635 69.9733C68.1563 69.9817 68.1471 69.9882 68.1366 69.9918C67.8581 70.4911 65.1659 75.2196 59.8721 80.8558C54.731 86.3311 46.0146 93.8117 33.6715 98.3545L33.6323 98.3752Z" fill="#263238"/>
<path d="M73.1622 72.0363C77.0242 73.598 81.367 69.8103 81.0575 65.775C80.7584 61.8552 75.8483 59.7323 72.7661 58.4368C64.5903 55.0018 59.2594 55.5939 59.2594 55.5939C59.2594 55.5939 67.5508 54.0549 76.2011 55.1194C83.6879 56.0416 91.48 60.572 94.6488 67.6482C96.3529 71.4525 96.421 75.6776 96.0929 79.7645C95.7257 84.3878 94.2692 86.3126 94.2692 86.3126C94.2692 86.3126 83.8385 77.9201 73.1622 72.0363Z" fill="#00FF00"/>
<path d="M94.2712 86.4219C94.248 86.4216 94.2255 86.4136 94.2073 86.3992C94.1021 86.3146 83.659 77.9407 73.1127 72.1333C73.09 72.1204 73.0731 72.0994 73.0653 72.0745C73.0575 72.0496 73.0594 72.0227 73.0706 71.9991C73.0819 71.9756 73.1016 71.9572 73.1259 71.9476C73.1501 71.9381 73.1771 71.9381 73.2014 71.9476C74.8518 72.616 76.7086 72.3272 78.3177 71.1575C80.0982 69.8536 81.109 67.7968 80.9564 65.7935C80.6552 61.8717 75.7039 59.7798 72.7269 58.5337C64.681 55.1482 59.3171 55.6908 59.2697 55.697C59.243 55.6994 59.2165 55.6916 59.1954 55.6751C59.1743 55.6586 59.1603 55.6347 59.1562 55.6083C59.1526 55.5818 59.1594 55.555 59.1752 55.5335C59.191 55.5119 59.2145 55.4973 59.2408 55.4928C59.3233 55.4763 67.6477 53.962 76.2134 55.0183C80.0925 55.512 83.8121 56.8668 87.1001 58.9834C90.5928 61.2528 93.2356 64.2318 94.7437 67.5987C96.5674 71.6732 96.4787 76.2408 96.1878 79.7706C95.8206 84.3712 94.4033 86.294 94.3435 86.3724C94.3352 86.3837 94.3247 86.3931 94.3126 86.4002C94.3006 86.4073 94.2872 86.4119 94.2733 86.4136L94.2712 86.4219ZM74.0328 72.4118C83.7992 77.9139 93.2439 85.3697 94.2506 86.1681C94.5271 85.7432 95.6762 83.7626 95.9939 79.7624C96.2745 76.2552 96.3632 71.7268 94.5498 67.6957C91.6615 61.2363 84.2737 56.2252 76.1887 55.2287C69.8098 54.4427 63.5608 55.0884 60.7819 55.4701C62.9357 55.534 67.233 56.0044 72.8094 58.348C75.8173 59.6127 80.8553 61.7314 81.1627 65.775C81.3215 67.8545 80.2797 69.9815 78.4415 71.3246C77.0675 72.321 75.4976 72.6965 74.0328 72.4056V72.4118Z" fill="#263238"/>
<path d="M59.4059 57.1041C59.3249 57.1041 59.2471 57.0723 59.1892 57.0156C59.1314 56.9589 59.0981 56.8818 59.0964 56.8008L58.3001 17.1698C58.2985 17.0877 58.3295 17.0083 58.3864 16.9491C58.4432 16.8899 58.5213 16.8558 58.6034 16.8541C58.6854 16.8525 58.7648 16.8835 58.824 16.9404C58.8832 16.9973 58.9174 17.0753 58.919 17.1574L59.7154 56.7884C59.7165 56.8291 59.7094 56.8697 59.6947 56.9076C59.68 56.9456 59.658 56.9803 59.6297 57.0097C59.6015 57.039 59.5678 57.0625 59.5304 57.0787C59.493 57.0949 59.4528 57.1035 59.4121 57.1041H59.4059Z" fill="#263238"/>
<path d="M63.8807 22.1953L67.5838 24.2996L66.3212 26.1027L67.2434 28.4381L62.3148 26.8929L63.8807 22.1953Z" fill="#00FF00"/>
<path d="M67.2455 28.5413C67.2353 28.5433 67.2248 28.5433 67.2146 28.5413L62.2942 26.9919C62.2812 26.9879 62.2692 26.9812 62.2589 26.9724C62.2486 26.9635 62.2403 26.9526 62.2344 26.9403C62.2284 26.9278 62.2252 26.914 62.2252 26.9001C62.2252 26.8862 62.2284 26.8724 62.2344 26.8599L63.8002 22.1623C63.8051 22.1481 63.813 22.135 63.8233 22.124C63.8336 22.113 63.8462 22.1042 63.8601 22.0984C63.8741 22.0923 63.8892 22.0892 63.9044 22.0892C63.9197 22.0892 63.9348 22.0923 63.9488 22.0984L67.6519 24.2027C67.6644 24.21 67.6753 24.2198 67.6838 24.2316C67.6923 24.2433 67.6983 24.2566 67.7014 24.2708C67.7045 24.2846 67.7046 24.2989 67.7017 24.3127C67.6989 24.3266 67.6932 24.3397 67.6849 24.3512L66.4471 26.1089L67.3487 28.3948C67.3556 28.4128 67.3574 28.4324 67.3537 28.4514C67.3501 28.4703 67.3412 28.4879 67.328 28.5021C67.3183 28.5146 67.3058 28.5247 67.2915 28.5315C67.2771 28.5383 67.2614 28.5417 67.2455 28.5413ZM62.4489 26.8269L67.0702 28.271L66.2284 26.1358C66.2224 26.1199 66.2201 26.1029 66.2219 26.086C66.2237 26.0692 66.2295 26.053 66.2388 26.0388L67.4374 24.3285L63.9446 22.3459L62.4489 26.8269Z" fill="#263238"/>
<path d="M63.695 26.375L62.3148 26.8929L63.8807 22.1953L63.695 26.375Z" fill="#263238"/>
<path d="M62.3148 27.0063C62.2983 27.0067 62.282 27.003 62.2673 26.9956C62.2525 26.9882 62.2399 26.9773 62.2303 26.9639C62.2207 26.9505 62.2146 26.9349 62.2124 26.9186C62.2103 26.9022 62.2121 26.8856 62.2178 26.8702L63.7837 22.1726C63.7861 22.1591 63.7912 22.1461 63.7986 22.1345C63.8061 22.123 63.8157 22.113 63.827 22.1051C63.8383 22.0973 63.8511 22.0917 63.8645 22.0888C63.878 22.0858 63.8919 22.0856 63.9054 22.088C63.9189 22.0905 63.9319 22.0955 63.9435 22.103C63.955 22.1104 63.9651 22.1201 63.9729 22.1314C63.9808 22.1427 63.9863 22.1554 63.9892 22.1689C63.9922 22.1823 63.9924 22.1962 63.99 22.2097L63.8043 26.3915C63.8035 26.4115 63.7968 26.4308 63.7851 26.4469C63.7733 26.4631 63.757 26.4754 63.7383 26.4823L62.3581 27.0001C62.3442 27.0049 62.3295 27.007 62.3148 27.0063ZM63.7383 22.9277L62.4757 26.7216L63.5898 26.309L63.7383 22.9277Z" fill="#263238"/>
<path d="M58.7561 17.7969L64.1406 20.089L63.695 26.3751L58.8902 24.6359L58.7561 17.7969Z" fill="#00FF00"/>
<path d="M63.6949 26.4782H63.6598L58.853 24.737C58.8337 24.7295 58.8169 24.7165 58.8049 24.6996C58.7928 24.6828 58.7858 24.6628 58.7849 24.6421L58.6528 17.8031C58.6526 17.7861 58.6567 17.7692 58.6646 17.7541C58.6725 17.739 58.6841 17.726 58.6982 17.7165C58.7135 17.7084 58.7305 17.7041 58.7477 17.7041C58.765 17.7041 58.782 17.7084 58.7972 17.7165L64.1818 19.992C64.202 20 64.219 20.0145 64.2302 20.0331C64.2414 20.0518 64.2461 20.0736 64.2437 20.0952L63.7981 26.3874C63.7975 26.4032 63.793 26.4186 63.7851 26.4323C63.7772 26.4459 63.7661 26.4575 63.7527 26.4658C63.7351 26.4757 63.715 26.4801 63.6949 26.4782ZM58.9932 24.5617L63.6041 26.2327L64.0353 20.155L58.8633 17.9558L58.9932 24.5617Z" fill="#263238"/>
<path d="M39.2417 45.8687C39.187 45.8687 39.1345 45.847 39.0959 45.8083C39.0572 45.7696 39.0354 45.7171 39.0354 45.6624L38.5692 29.0322C38.5675 28.9775 38.5877 28.9244 38.6252 28.8845C38.6628 28.8447 38.7146 28.8214 38.7693 28.8197C38.824 28.8181 38.8771 28.8383 38.917 28.8758C38.9568 28.9133 38.9802 28.9651 38.9818 29.0198L39.4439 45.6562C39.4439 45.7109 39.4222 45.7634 39.3835 45.8021C39.3448 45.8408 39.2923 45.8625 39.2376 45.8625L39.2417 45.8687Z" fill="#263238"/>
<path d="M41.0118 31.1221L42.6148 32.1929L42.0496 32.754L42.6375 33.639L40.3702 33.0985L41.0118 31.1221Z" fill="#00FF00"/>
<path d="M42.6396 33.7422H42.6148L40.3455 33.2037C40.3317 33.2004 40.3186 33.1943 40.3073 33.1858C40.2959 33.1772 40.2865 33.1664 40.2795 33.154C40.2725 33.1416 40.2682 33.1279 40.2668 33.1137C40.2653 33.0995 40.2669 33.0852 40.2712 33.0717L40.9128 31.0932C40.9176 31.0783 40.926 31.0647 40.9371 31.0535C40.9482 31.0424 40.9618 31.0341 40.9768 31.0293C40.9917 31.0242 41.0076 31.0225 41.0233 31.0243C41.039 31.0261 41.0541 31.0313 41.0676 31.0396L42.6685 32.1103C42.681 32.119 42.6914 32.1302 42.6991 32.1432C42.7069 32.1563 42.7117 32.1709 42.7132 32.186C42.7148 32.2011 42.7131 32.2163 42.7082 32.2307C42.7033 32.245 42.6954 32.2582 42.685 32.2692L42.1816 32.7705L42.7221 33.5957C42.7336 33.6128 42.7398 33.6329 42.7398 33.6535C42.7398 33.6741 42.7336 33.6942 42.7221 33.7113C42.7115 33.7222 42.6986 33.7306 42.6843 33.736C42.6701 33.7413 42.6548 33.7435 42.6396 33.7422ZM40.5043 33.0243L42.4085 33.4781L41.965 32.8118C41.9512 32.7918 41.9449 32.7676 41.9471 32.7435C41.9494 32.7193 41.9601 32.6968 41.9774 32.6797L42.4519 32.2073L41.0696 31.283L40.5043 33.0243Z" fill="#263238"/>
<path d="M40.9479 32.8778L40.3702 33.0985L41.0118 31.1221L40.9479 32.8778Z" fill="#263238"/>
<path d="M40.3702 33.1955C40.3442 33.1961 40.319 33.1864 40.3001 33.1686C40.2861 33.155 40.2762 33.1378 40.2715 33.1188C40.2667 33.0999 40.2673 33.08 40.2733 33.0614L40.9149 31.0829C40.9229 31.0596 40.9389 31.04 40.9601 31.0275C40.9813 31.015 41.0062 31.0105 41.0304 31.0148C41.055 31.0189 41.0772 31.0318 41.0928 31.0512C41.1084 31.0707 41.1163 31.0952 41.115 31.12L41.051 32.8757C41.0506 32.896 41.0441 32.9157 41.0324 32.9323C41.0206 32.9488 41.0041 32.9615 40.985 32.9685L40.4074 33.1893C40.3954 33.1933 40.3829 33.1954 40.3702 33.1955ZM40.8819 31.8504L40.5353 32.919L40.8489 32.7994L40.8819 31.8504Z" fill="#263238"/>
<path d="M38.8477 29.2922L41.1335 30.2845L40.9478 32.8777L38.924 32.1619L38.8477 29.2922Z" fill="#00FF00"/>
<path d="M40.9478 32.9892C40.9369 32.9911 40.9257 32.9911 40.9148 32.9892L38.891 32.2733C38.8714 32.2669 38.8543 32.2544 38.842 32.2378C38.8298 32.2211 38.8231 32.2011 38.8229 32.1805L38.7445 29.3087C38.7437 29.2915 38.7475 29.2745 38.7555 29.2592C38.7634 29.244 38.7753 29.2312 38.7899 29.2221C38.805 29.2136 38.822 29.2091 38.8394 29.2091C38.8567 29.2091 38.8738 29.2136 38.8889 29.2221L41.1748 30.2144C41.1946 30.2223 41.2113 30.2364 41.2225 30.2546C41.2336 30.2729 41.2386 30.2942 41.2366 30.3155L41.051 32.9087C41.05 32.9247 41.0454 32.9403 41.0376 32.9542C41.0297 32.9681 41.0188 32.9801 41.0056 32.9892C40.9867 32.9943 40.9667 32.9943 40.9478 32.9892ZM39.0271 32.0979L40.855 32.7437L41.0262 30.3588L38.9632 29.4593L39.0271 32.0979Z" fill="#263238"/>
<path d="M53.1363 47.9689C53.1095 47.9684 53.0838 47.9577 53.0647 47.9389C53.0455 47.9201 53.0342 47.8947 53.0332 47.8678L52.6928 37.0822C52.6922 37.0552 52.7023 37.0291 52.7208 37.0094C52.7393 36.9897 52.7648 36.9781 52.7918 36.977C52.8055 36.9759 52.8192 36.9776 52.8322 36.9821C52.8452 36.9865 52.8571 36.9936 52.8672 37.0029C52.8773 37.0123 52.8853 37.0236 52.8908 37.0362C52.8963 37.0487 52.8991 37.0623 52.8991 37.0761L53.2395 47.8616C53.24 47.8752 53.2379 47.8887 53.2332 47.9014C53.2286 47.9142 53.2214 47.9258 53.2122 47.9358C53.203 47.9458 53.1919 47.9538 53.1796 47.9595C53.1673 47.9652 53.154 47.9684 53.1405 47.9689H53.1363Z" fill="#263238"/>
<path d="M54.4402 38.6234L55.6182 39.4114L55.2035 39.824L55.6368 40.4739L53.9678 40.0778L54.4402 38.6234Z" fill="#00FF00"/>
<path d="M55.6367 40.5791H55.614L53.943 40.183C53.9155 40.1754 53.892 40.1577 53.877 40.1335C53.8714 40.1205 53.8685 40.1064 53.8685 40.0922C53.8685 40.0781 53.8714 40.064 53.877 40.051L54.3494 38.5945C54.3546 38.5791 54.3632 38.5652 54.3747 38.5537C54.3861 38.5423 54.4001 38.5336 54.4154 38.5285C54.4305 38.5234 54.4465 38.5219 54.4622 38.524C54.478 38.5262 54.493 38.5319 54.5062 38.5408L55.6842 39.3289C55.6973 39.3371 55.7082 39.3483 55.7161 39.3616C55.724 39.3749 55.7286 39.3898 55.7296 39.4053C55.7307 39.4203 55.7287 39.4353 55.7237 39.4495C55.7188 39.4637 55.7109 39.4767 55.7007 39.4878L55.3458 39.8406L55.7316 40.4223C55.7432 40.4394 55.7493 40.4595 55.7493 40.4801C55.7493 40.5007 55.7432 40.5208 55.7316 40.5379C55.721 40.5526 55.7066 40.5643 55.6899 40.5716C55.6732 40.5788 55.6548 40.5814 55.6367 40.5791ZM54.0998 40.0035L55.4057 40.313L55.1168 39.8818C55.1037 39.8615 55.098 39.8373 55.1006 39.8132C55.1032 39.7892 55.1141 39.7668 55.1313 39.7498L55.4572 39.4259L54.4959 38.7843L54.0998 40.0035Z" fill="#263238"/>
<path d="M54.3928 39.9148L53.9678 40.0778L54.4402 38.6234L54.3928 39.9148Z" fill="#00FF00"/>
<path d="M53.9677 40.1809C53.9409 40.1807 53.9151 40.1704 53.8955 40.1521C53.8815 40.1389 53.8715 40.122 53.8668 40.1034C53.862 40.0847 53.8627 40.0651 53.8687 40.0468L54.3411 38.5903C54.3458 38.563 54.3611 38.5386 54.3837 38.5225C54.4064 38.5065 54.4345 38.5001 54.4618 38.5047C54.4892 38.5094 54.5136 38.5247 54.5296 38.5473C54.5457 38.57 54.5521 38.598 54.5474 38.6254L54.5 39.9189C54.4991 39.9391 54.4923 39.9586 54.4806 39.9751C54.4689 39.9915 54.4527 40.0043 54.434 40.0118L54.009 40.1747L53.9677 40.1809ZM54.3102 39.3578L54.1328 39.9045L54.2916 39.8426L54.3102 39.3578Z" fill="#263238"/>
<path d="M52.8455 37.2762L54.5289 38.0065L54.3927 39.9148L52.9032 39.3887L52.8455 37.2762Z" fill="#00FF00"/>
<path d="M54.3928 40.018H54.3577L52.8682 39.4919C52.8475 39.4832 52.8301 39.4681 52.8186 39.4488C52.8071 39.4295 52.802 39.407 52.8042 39.3846L52.7465 37.272C52.7465 37.2547 52.7506 37.2376 52.7585 37.2222C52.7664 37.2068 52.7778 37.1935 52.7918 37.1833C52.8071 37.1752 52.8241 37.171 52.8414 37.171C52.8586 37.171 52.8756 37.1752 52.8909 37.1833L54.5743 37.9137C54.5942 37.9216 54.6109 37.9357 54.6221 37.9539C54.6332 37.9721 54.6382 37.9935 54.6362 38.0147L54.5 39.9251C54.4989 39.9408 54.4943 39.956 54.4864 39.9696C54.4785 39.9832 54.4677 39.9948 54.4547 40.0035C54.4357 40.0139 54.4143 40.0189 54.3928 40.018ZM53.0105 39.3145L54.3061 39.7725L54.4278 38.0704L52.959 37.435L53.0105 39.3145Z" fill="#263238"/>
<path d="M69.0651 73.3649C68.9556 73.3649 68.8507 73.3215 68.7733 73.2441C68.6959 73.1667 68.6525 73.0618 68.6525 72.9523L69.1146 6.94532C69.1146 6.83589 69.1581 6.73094 69.2354 6.65357C69.3128 6.57619 69.4178 6.53271 69.5272 6.53271C69.6366 6.53271 69.7416 6.57619 69.819 6.65357C69.8963 6.73094 69.9398 6.83589 69.9398 6.94532L69.4777 72.9627C69.475 73.0703 69.4303 73.1726 69.3532 73.2478C69.2762 73.3229 69.1727 73.365 69.0651 73.3649Z" fill="#263238"/>
<path d="M76.4467 13.8916L81.4516 17.4895L79.5866 19.2246L81.3732 22.119L75.0211 21.2959L76.4467 13.8916Z" fill="#00FF00"/>
<path d="M81.3732 22.2201H81.3608L75.0087 21.3949C74.9947 21.3935 74.9812 21.3891 74.9691 21.382C74.957 21.3748 74.9466 21.3652 74.9385 21.3536C74.9221 21.3303 74.9154 21.3014 74.92 21.2732L76.3435 13.8689C76.347 13.8519 76.3547 13.836 76.3659 13.8227C76.377 13.8094 76.3913 13.799 76.4074 13.7926C76.4237 13.7863 76.4412 13.7841 76.4585 13.7863C76.4758 13.7884 76.4923 13.7949 76.5065 13.805L81.5114 17.405C81.5239 17.4136 81.5343 17.425 81.5418 17.4382C81.5493 17.4514 81.5537 17.4661 81.5547 17.4813C81.5557 17.4966 81.5533 17.512 81.5476 17.5263C81.5419 17.5406 81.533 17.5534 81.5217 17.5638L79.7186 19.2411L81.4619 22.0551C81.4726 22.0717 81.4782 22.091 81.4782 22.1108C81.4782 22.1305 81.4726 22.1498 81.4619 22.1665C81.4531 22.1824 81.4403 22.1958 81.4248 22.2052C81.4092 22.2147 81.3914 22.2198 81.3732 22.2201ZM75.1449 21.2071L81.1731 21.987L79.4999 19.2782C79.4872 19.258 79.4819 19.234 79.4849 19.2103C79.4879 19.1866 79.4991 19.1646 79.5164 19.1482L81.2886 17.4978L76.5168 14.069L75.1449 21.2071Z" fill="#263238"/>
<path d="M78.584 20.9678L75.0211 21.2959L76.4467 13.8916L78.584 20.9678Z" fill="#263238"/>
<path d="M75.021 21.399C75.0066 21.3988 74.9923 21.3956 74.9791 21.3896C74.966 21.3835 74.9543 21.3748 74.9447 21.3639C74.934 21.3521 74.9262 21.3379 74.9219 21.3225C74.9176 21.3071 74.9169 21.2909 74.92 21.2752L76.3435 13.871C76.3484 13.8485 76.3605 13.8283 76.378 13.8134C76.3956 13.7985 76.4175 13.7897 76.4404 13.7884C76.4632 13.7874 76.4856 13.7939 76.5043 13.807C76.523 13.82 76.5368 13.8389 76.5436 13.8606L78.6829 20.9369C78.6872 20.9518 78.6882 20.9675 78.6857 20.9829C78.6832 20.9982 78.6773 21.0128 78.6685 21.0256C78.6597 21.0381 78.6483 21.0486 78.6352 21.0564C78.622 21.0642 78.6074 21.0692 78.5922 21.071L75.0314 21.399H75.021ZM76.4652 14.3207L75.1469 21.1803L78.4478 20.877L76.4652 14.3207Z" fill="#263238"/>
<path d="M69.715 7.80353L79.2442 12.5774L78.584 20.9678L69.6531 16.9944L69.715 7.80353Z" fill="#00FF00"/>
<path d="M78.5922 21.071C78.5779 21.0738 78.5632 21.0738 78.5489 21.071L69.6118 17.0872C69.5935 17.079 69.578 17.0656 69.567 17.0488C69.556 17.032 69.5501 17.0124 69.5499 16.9923L69.6118 7.80354C69.6117 7.78574 69.6162 7.76821 69.6249 7.75267C69.6336 7.73712 69.6461 7.72409 69.6613 7.71483C69.6766 7.70671 69.6936 7.70245 69.7108 7.70245C69.7281 7.70245 69.7451 7.70671 69.7604 7.71483L79.2916 12.4887C79.3101 12.4979 79.3253 12.5125 79.3353 12.5305C79.3453 12.5486 79.3495 12.5693 79.3473 12.5898L78.6871 20.9802C78.685 20.9966 78.6793 21.0123 78.6704 21.0262C78.6615 21.0401 78.6496 21.0519 78.6356 21.0606C78.6219 21.0669 78.6072 21.0704 78.5922 21.071ZM69.7583 16.9263L78.4911 20.8172L79.1369 12.6414L69.8161 7.97065L69.7583 16.9263Z" fill="#263238"/>
<path d="M44.5066 9.6644H25.9C25.882 9.66472 25.8641 9.66009 25.8485 9.65099C25.8328 9.6419 25.82 9.6287 25.8113 9.61282C25.8027 9.59739 25.7981 9.57998 25.7981 9.56228C25.7981 9.54457 25.8027 9.52716 25.8113 9.51173C25.8464 9.44984 26.6551 8.00984 27.8104 7.34966C28.5222 6.93705 29.6816 7.24857 30.61 7.49408C31.1587 7.63849 31.7261 7.78703 31.887 7.67975C32.0263 7.53384 32.1307 7.35819 32.1923 7.16605C32.4976 6.48112 33.0175 5.33407 35.0125 4.74817C36.075 4.43871 36.8878 4.78324 37.5397 5.05969C38.1916 5.33613 38.6187 5.51562 39.0561 5.08032C39.2579 4.86502 39.4473 4.63841 39.6234 4.40158C39.9519 3.96158 40.314 3.54773 40.7065 3.16375C40.7164 3.1544 40.728 3.1471 40.7407 3.14225C40.7534 3.13739 40.767 3.13509 40.7806 3.13548C40.7942 3.13586 40.8076 3.13892 40.82 3.14448C40.8324 3.15004 40.8436 3.15799 40.853 3.16788C40.8623 3.17777 40.8696 3.1894 40.8745 3.20211C40.8793 3.21482 40.8816 3.22837 40.8812 3.24197C40.8809 3.25557 40.8778 3.26896 40.8722 3.28138C40.8667 3.2938 40.8587 3.30501 40.8488 3.31435C40.4633 3.69162 40.1081 4.09861 39.7864 4.53155C39.605 4.77532 39.4093 5.00816 39.2005 5.22886C38.6682 5.76112 38.1071 5.52593 37.4593 5.25155C36.8115 4.97716 36.0626 4.65946 35.0703 4.94828C33.1578 5.50737 32.6916 6.55745 32.3883 7.2527C32.3156 7.48269 32.1841 7.68966 32.0066 7.85305C31.7694 8.0119 31.2639 7.87986 30.5625 7.69419C29.6692 7.459 28.5552 7.16399 27.9177 7.53121C27.0285 8.03872 26.3292 9.07024 26.0878 9.46015H44.5128C44.5402 9.46015 44.5664 9.47102 44.5857 9.49037C44.6051 9.50971 44.616 9.53595 44.616 9.56331C44.6157 9.57722 44.6126 9.59093 44.6069 9.60362C44.6013 9.61632 44.5931 9.62773 44.5828 9.63717C44.5726 9.64662 44.5606 9.6539 44.5475 9.65857C44.5344 9.66325 44.5205 9.66523 44.5066 9.6644Z" fill="#263238"/>
<path d="M58.067 9.66441H46.5985C46.5711 9.66441 46.5449 9.65354 46.5256 9.63419C46.5062 9.61485 46.4954 9.58861 46.4954 9.56125C46.4954 9.5339 46.5062 9.50766 46.5256 9.48831C46.5449 9.46897 46.5711 9.4581 46.5985 9.4581H57.9329C57.7781 8.91346 57.0891 6.77615 55.581 6.22944C54.3576 5.78382 53.7243 6.48319 53.2518 6.99483C53.106 7.18773 52.9202 7.34679 52.7072 7.46108C52.6221 7.50294 52.5286 7.52471 52.4338 7.52471C52.339 7.52471 52.2455 7.50294 52.1605 7.46108C52.1004 7.42528 52.0483 7.3775 52.0075 7.32072C51.9667 7.26393 51.938 7.19935 51.9232 7.13099C51.9046 7.09179 49.4476 1.18324 45.338 1.50095C44.2015 1.55832 43.0916 1.86469 42.0866 2.39837C42.0628 2.41174 42.0347 2.41511 42.0084 2.40777C41.9821 2.40042 41.9598 2.38294 41.9463 2.35917C41.9394 2.34745 41.935 2.33446 41.9332 2.32098C41.9315 2.30749 41.9324 2.29379 41.9361 2.28069C41.9398 2.2676 41.946 2.25537 41.9545 2.24475C41.963 2.23413 41.9736 2.22533 41.9855 2.21889C43.0165 1.67037 44.1553 1.35486 45.3215 1.29464C49.5961 0.968684 52.0965 7.0134 52.1295 7.07116C52.1384 7.11328 52.1555 7.15322 52.1799 7.18864C52.2044 7.22406 52.2356 7.25426 52.2719 7.27747C52.3313 7.30153 52.3951 7.31268 52.4591 7.31019C52.5231 7.3077 52.5859 7.29163 52.6432 7.26302C52.8234 7.15631 52.9816 7.01629 53.1095 6.85042C53.586 6.32847 54.306 5.53832 55.6614 6.0252C57.4872 6.6895 58.1474 9.41271 58.1742 9.53237C58.1779 9.54728 58.1782 9.56282 58.1749 9.57784C58.1717 9.59285 58.1651 9.60693 58.1557 9.61902C58.1458 9.63333 58.1325 9.64496 58.117 9.65288C58.1015 9.6608 58.0843 9.66476 58.067 9.66441Z" fill="#263238"/>
<path d="M85.7757 35.3596H73.8224C73.8044 35.3595 73.7867 35.3547 73.7712 35.3456C73.7556 35.3366 73.7427 35.3236 73.7337 35.308C73.725 35.2926 73.7205 35.2752 73.7205 35.2575C73.7205 35.2398 73.725 35.2223 73.7337 35.2069C73.7543 35.1718 74.2061 34.3652 74.856 33.9938C75.2686 33.7607 75.9143 33.932 76.4383 34.0702C76.7024 34.1403 77.0325 34.227 77.1047 34.1795C77.1727 34.1025 77.2246 34.0128 77.2574 33.9155C77.4286 33.5297 77.7174 32.8839 78.8438 32.5538C79.4463 32.3785 79.9043 32.5724 80.2715 32.7271C80.6387 32.8819 80.8491 32.9582 81.0575 32.7478C81.1679 32.631 81.2713 32.5077 81.3669 32.3785C81.583 32.0841 81.8291 31.8131 82.1014 31.5698C82.121 31.5507 82.1473 31.5401 82.1746 31.5401C82.202 31.5401 82.2282 31.5507 82.2479 31.5698C82.2575 31.5792 82.2651 31.5904 82.2703 31.6028C82.2755 31.6152 82.2782 31.6285 82.2782 31.642C82.2782 31.6554 82.2755 31.6687 82.2703 31.6811C82.2651 31.6935 82.2575 31.7048 82.2479 31.7142C81.986 31.9493 81.7489 32.2106 81.5402 32.494C81.4392 32.6302 81.3304 32.7604 81.2143 32.8839C80.8966 33.2016 80.5582 33.0572 80.2013 32.9066C79.8444 32.756 79.4442 32.5869 78.9119 32.7416C77.8804 33.0428 77.6225 33.6122 77.4554 33.9794C77.4142 34.1159 77.3356 34.2381 77.2285 34.3322C77.0799 34.4312 76.7932 34.3549 76.4033 34.2497C75.9185 34.1218 75.314 33.9629 74.9777 34.1548C74.5931 34.4076 74.269 34.7422 74.0287 35.1347H85.788C85.8154 35.1347 85.8416 35.1456 85.861 35.1649C85.8803 35.1843 85.8912 35.2105 85.8912 35.2379C85.8912 35.2652 85.8803 35.2915 85.861 35.3108C85.8416 35.3301 85.8154 35.341 85.788 35.341L85.7757 35.3596Z" fill="#263238"/>
<path d="M91.5893 35.3596H86.7515C86.7241 35.3596 86.6979 35.3487 86.6786 35.3294C86.6592 35.31 86.6483 35.2838 86.6483 35.2564C86.6483 35.2291 86.6592 35.2028 86.6786 35.1835C86.6979 35.1641 86.7241 35.1533 86.7515 35.1533H91.4552C91.3438 34.7881 90.9683 33.738 90.203 33.4595C89.5531 33.2243 89.2271 33.5812 88.9651 33.8721C88.8798 33.9847 88.7706 34.077 88.6454 34.1424C88.5923 34.1681 88.5341 34.1815 88.4752 34.1815C88.4162 34.1815 88.358 34.1681 88.305 34.1424C88.2669 34.1201 88.2337 34.0903 88.2075 34.0549C88.1812 34.0194 88.1625 33.979 88.1523 33.9361C88.1523 33.9216 86.8113 30.6847 84.5626 30.8621C84.0833 30.8931 83.6115 30.9975 83.1639 31.1716C83.1514 31.177 83.138 31.1798 83.1245 31.1799C83.1109 31.18 83.0975 31.1773 83.085 31.1721C83.0725 31.1669 83.0612 31.1593 83.0517 31.1496C83.0422 31.14 83.0347 31.1285 83.0298 31.1159C83.0244 31.1035 83.0216 31.0901 83.0215 31.0765C83.0214 31.063 83.024 31.0496 83.0292 31.037C83.0344 31.0245 83.0421 31.0132 83.0517 31.0037C83.0614 30.9942 83.0729 30.9868 83.0855 30.9818C83.5535 30.799 84.0468 30.6891 84.5482 30.6558C86.933 30.4722 88.2926 33.738 88.3483 33.8783C88.3558 33.9157 88.3771 33.9489 88.4081 33.9711C88.4626 33.9886 88.5218 33.9841 88.5732 33.9588C88.6651 33.9055 88.7462 33.8355 88.8125 33.7525C89.0848 33.4554 89.4953 33.0056 90.2731 33.2883C91.3046 33.6637 91.676 35.1904 91.6904 35.2564C91.6941 35.2713 91.6943 35.2869 91.6911 35.3019C91.6879 35.3169 91.6813 35.331 91.6718 35.3431C91.66 35.3513 91.6465 35.3571 91.6323 35.3599C91.6181 35.3628 91.6035 35.3626 91.5893 35.3596Z" fill="#263238"/>
<path d="M51.2465 40.7276H40.8385C40.8202 40.7274 40.8023 40.7226 40.7864 40.7136C40.7705 40.7046 40.7572 40.6916 40.7477 40.676C40.7387 40.6603 40.7339 40.6426 40.7339 40.6245C40.7339 40.6063 40.7387 40.5886 40.7477 40.5729C40.9117 40.2813 41.1421 40.0325 41.4203 39.8467C41.6761 39.7002 42.066 39.8034 42.3796 39.8859C42.496 39.926 42.6176 39.9489 42.7406 39.954C42.7694 39.9123 42.7929 39.8673 42.8107 39.8199C42.8886 39.6132 43.017 39.4294 43.1842 39.2853C43.3515 39.1411 43.5522 39.0412 43.768 38.9947C44.0588 38.9185 44.3677 38.9553 44.6324 39.0978C44.8593 39.1927 44.9481 39.2175 45.045 39.1184C45.1086 39.0536 45.1679 38.9847 45.2224 38.9121C45.4339 38.602 45.7161 38.3468 46.0458 38.1674C46.3755 37.988 46.7432 37.8897 47.1184 37.8806C48.5625 37.7713 49.3568 39.7126 49.3877 39.7951V39.8137C49.4042 39.8322 49.4228 39.8343 49.4599 39.8137C49.5066 39.7814 49.5483 39.7425 49.5837 39.6981C49.7405 39.5269 49.9963 39.2381 50.4853 39.4134C51.1042 39.6424 51.3332 40.5584 51.3435 40.5976C51.3469 40.613 51.3468 40.629 51.3433 40.6443C51.3397 40.6597 51.3327 40.674 51.3229 40.6863C51.314 40.6985 51.3025 40.7084 51.2893 40.7156C51.2761 40.7227 51.2615 40.7268 51.2465 40.7276ZM41.02 40.5213H51.1083C51.0299 40.2779 50.8154 39.7559 50.4192 39.6094C50.0665 39.4815 49.8932 39.6713 49.7405 39.8384C49.6851 39.9099 49.6147 39.9683 49.5342 40.0097C49.4974 40.0271 49.4573 40.0361 49.4166 40.0361C49.3759 40.0361 49.3358 40.0271 49.299 40.0097C49.2462 39.9774 49.2072 39.9267 49.1897 39.8673C49.1422 39.7518 48.3645 37.9941 47.1266 38.0869C46.7799 38.0933 46.4398 38.1833 46.1352 38.3493C45.8306 38.5152 45.5706 38.7522 45.3772 39.04C45.3176 39.1218 45.2528 39.1997 45.1832 39.2732C44.9769 39.4795 44.7562 39.3866 44.5416 39.2959C44.32 39.1744 44.0609 39.1405 43.8154 39.201C43.6294 39.2399 43.4563 39.3251 43.312 39.4489C43.1678 39.5726 43.0571 39.7307 42.9902 39.9086C42.9636 39.9958 42.9119 40.0732 42.8417 40.1314C42.7385 40.2015 42.5714 40.1561 42.3197 40.0901C42.0681 40.0241 41.7008 39.9271 41.5152 40.0303C41.3174 40.1573 41.1487 40.3246 41.02 40.5213Z" fill="#263238"/>
<path d="M15.1846 25.1743H4.7683C4.75038 25.1738 4.73288 25.1688 4.71738 25.1598C4.70188 25.1508 4.68889 25.1381 4.67959 25.1227C4.67054 25.1071 4.66577 25.0893 4.66577 25.0712C4.66577 25.0531 4.67054 25.0353 4.67959 25.0196C4.84414 24.7278 5.07528 24.479 5.35421 24.2934C5.61002 24.1469 5.99994 24.2501 6.31352 24.3326C6.42992 24.3727 6.55154 24.3956 6.67455 24.4007C6.70333 24.359 6.72689 24.314 6.7447 24.2666C6.82253 24.06 6.95094 23.8762 7.11817 23.732C7.2854 23.5878 7.48612 23.4879 7.70195 23.4414C7.99276 23.3652 8.30165 23.402 8.56636 23.5445C8.7933 23.6394 8.88201 23.6642 8.97897 23.5652C9.04244 23.5002 9.10171 23.4313 9.15639 23.3588C9.36785 23.0488 9.65009 22.7935 9.97978 22.6141C10.3095 22.4347 10.6771 22.3364 11.0523 22.3273C12.4965 22.218 13.2907 24.1593 13.3217 24.2418C13.3226 24.248 13.3226 24.2542 13.3217 24.2604C13.3382 24.279 13.3588 24.281 13.3939 24.2604C13.4414 24.2292 13.4833 24.1902 13.5177 24.1449C13.6745 23.9736 13.9303 23.6848 14.4213 23.8622C15.0402 24.0892 15.2692 25.0052 15.2795 25.0444C15.2829 25.0597 15.2829 25.0757 15.2793 25.0911C15.2757 25.1064 15.2687 25.1208 15.2589 25.1331C15.2502 25.1449 15.2391 25.1547 15.2263 25.1619C15.2135 25.169 15.1992 25.1732 15.1846 25.1743ZM4.9581 24.968H15.0505C14.9721 24.7246 14.7576 24.2026 14.3594 24.0562C14.0066 23.9282 13.8333 24.118 13.6806 24.2852C13.626 24.3574 13.5554 24.416 13.4743 24.4564C13.4372 24.4737 13.3967 24.4827 13.3557 24.4827C13.3147 24.4827 13.2742 24.4737 13.2371 24.4564C13.184 24.4248 13.1455 24.3737 13.1298 24.314C13.0803 24.1985 12.3211 22.4408 11.0668 22.5336C10.7199 22.5397 10.3797 22.6296 10.0751 22.7955C9.77047 22.9615 9.51049 23.1986 9.31731 23.4868C9.25372 23.5689 9.18481 23.6468 9.111 23.7199C8.9047 23.9262 8.68602 23.8333 8.47146 23.7426C8.24977 23.6213 7.99069 23.5874 7.74527 23.6477C7.55927 23.6866 7.3861 23.7719 7.24184 23.8956C7.09758 24.0193 6.9869 24.1774 6.92005 24.3553C6.89339 24.4425 6.84175 24.52 6.77152 24.5781C6.66836 24.6482 6.50126 24.6029 6.2475 24.5368C5.99375 24.4708 5.62859 24.3718 5.44498 24.477C5.25019 24.6049 5.08434 24.7722 4.9581 24.968Z" fill="#263238"/>
<path d="M27.3833 18.5479C27.6181 19.1609 27.8071 19.7905 27.9486 20.4315C28.0414 21.0669 28.3075 21.4114 28.2353 21.5991C28.1631 21.7869 27.93 22.218 27.93 22.3521C28.0904 22.9168 28.2931 23.4685 28.5365 24.0026C28.7243 24.4028 28.1838 24.5204 28.0187 24.7556C27.8537 24.9908 27.8124 25.5334 27.7361 26.2162C27.6597 26.8991 27.8764 27.2766 27.7134 27.6294C27.5504 27.9822 26.4879 28.0296 26.0403 27.912C25.7966 27.8574 25.57 27.7441 25.3801 27.582L25.2398 28.172C24.5465 27.6346 23.7966 27.1746 23.0035 26.8001C22.0269 26.4107 21.028 26.08 20.0121 25.8098L20.1296 24.4915C20.1296 24.4915 18.8815 22.6348 18.3864 21.0772C17.8912 19.5196 18.7866 17.7557 19.3044 17.0728C19.8223 16.39 22.399 15.8721 23.709 15.8494C25.0191 15.8267 27.1234 16.8376 27.2162 16.8603C27.309 16.883 28.1116 16.6726 28.1342 16.98C28.1256 17.2263 28.0614 17.4675 27.9465 17.6855C27.9465 17.6855 28.9595 17.2152 28.8646 17.7557C28.7697 18.2962 27.5937 18.6077 27.3833 18.5479Z" fill="white"/>
<path d="M25.2398 28.2731C25.2166 28.2728 25.1941 28.2648 25.1758 28.2504C24.4879 27.7212 23.745 27.2674 22.9601 26.897C21.9889 26.5109 20.9955 26.183 19.9852 25.915C19.9618 25.9084 19.9414 25.8939 19.9275 25.874C19.9136 25.854 19.907 25.8299 19.9089 25.8057L20.0244 24.5224C19.8594 24.2728 18.7474 22.5543 18.2873 21.1122C17.7798 19.5154 18.6773 17.733 19.224 17.015C19.7707 16.2971 22.4485 15.7772 23.707 15.7504C24.8499 15.7277 26.5436 16.4621 27.0986 16.7035C27.177 16.7386 27.2286 16.7613 27.2451 16.7654L27.3895 16.7468C27.7031 16.7056 27.996 16.6788 28.1487 16.8025C28.175 16.8236 28.1966 16.8498 28.2122 16.8797C28.2279 16.9095 28.2371 16.9422 28.2395 16.9758C28.2426 17.1552 28.2096 17.3334 28.1425 17.4999C28.3756 17.4173 28.7057 17.3369 28.8707 17.4648C28.9161 17.5016 28.9496 17.551 28.9669 17.6068C28.9841 17.6627 28.9844 17.7224 28.9677 17.7784C28.9353 17.8971 28.8776 18.0074 28.7985 18.1018C28.7195 18.1962 28.6209 18.2723 28.5097 18.3251C28.21 18.4983 27.8778 18.6078 27.5339 18.6469C27.7503 19.2187 27.922 19.8063 28.0476 20.4046C28.0906 20.6546 28.1597 20.8994 28.2539 21.1349C28.3366 21.2836 28.3657 21.4563 28.3364 21.6239C28.3117 21.6899 28.2663 21.7869 28.2188 21.8879C28.1416 22.032 28.0807 22.1842 28.0373 22.3418C28.199 22.8925 28.3982 23.4316 28.6335 23.9551C28.7985 24.3038 28.5242 24.4936 28.322 24.6318C28.2449 24.6813 28.1754 24.7417 28.1157 24.8113C27.9754 25.0176 27.9238 25.5189 27.864 26.1069L27.8516 26.2224C27.829 26.4725 27.8346 26.7244 27.8681 26.9733C27.9185 27.205 27.9014 27.4464 27.8186 27.6686C27.6123 28.1101 26.459 28.1225 26.0258 28.0069C25.8233 27.9563 25.6308 27.8719 25.4564 27.7573L25.3533 28.1905C25.3489 28.2075 25.3404 28.2232 25.3285 28.2362C25.3166 28.2491 25.3017 28.2589 25.2852 28.2648C25.271 28.2713 25.2554 28.2742 25.2398 28.2731ZM20.1214 25.7376C21.1145 26.0023 22.0907 26.3268 23.0447 26.7093C23.7982 27.061 24.5125 27.4911 25.1758 27.9925L25.2811 27.5572C25.2849 27.5391 25.2937 27.5224 25.3065 27.5089C25.3192 27.4954 25.3354 27.4857 25.3533 27.4808C25.371 27.4759 25.3897 27.4758 25.4075 27.4805C25.4252 27.4852 25.4414 27.4946 25.4543 27.5077C25.6339 27.6561 25.846 27.76 26.0733 27.8109C26.523 27.9285 27.4968 27.8584 27.6247 27.584C27.6895 27.3955 27.7009 27.1927 27.6577 26.9981C27.622 26.7349 27.6158 26.4685 27.6391 26.2038L27.6515 26.0862C27.7196 25.4199 27.7691 24.9392 27.9403 24.6957C28.0149 24.6031 28.1058 24.5248 28.2085 24.4647C28.4375 24.3058 28.5303 24.2171 28.4499 24.0521C28.2745 23.6807 27.831 22.5275 27.831 22.3501C27.8677 22.1592 27.9375 21.9763 28.0373 21.8095C28.0827 21.7126 28.126 21.6218 28.1487 21.5599C28.1506 21.4393 28.1222 21.3201 28.0662 21.2133C27.9708 20.964 27.9016 20.7054 27.8599 20.4417C27.7196 19.8099 27.5327 19.1893 27.3008 18.585C27.2937 18.5665 27.292 18.5464 27.296 18.527C27.3001 18.5076 27.3096 18.4898 27.3235 18.4757C27.3372 18.4619 27.3545 18.4521 27.3734 18.4474C27.3923 18.4426 27.4121 18.4432 27.4307 18.4488C27.7801 18.4414 28.1212 18.341 28.4189 18.158C28.5035 18.1167 28.579 18.0589 28.641 17.988C28.703 17.9172 28.7503 17.8347 28.78 17.7454C28.7903 17.6855 28.78 17.6484 28.7614 17.6298C28.6624 17.5556 28.2931 17.6525 28.0063 17.7846C27.9868 17.7939 27.9649 17.7968 27.9437 17.793C27.9224 17.7892 27.9029 17.7788 27.8879 17.7633C27.8728 17.7478 27.863 17.728 27.8599 17.7066C27.8567 17.6853 27.8603 17.6635 27.8702 17.6443C27.9769 17.4428 28.0375 17.2201 28.0476 16.9923C28.0479 16.9867 28.0467 16.9811 28.0441 16.976C28.0416 16.971 28.0378 16.9666 28.0331 16.9635C27.9382 16.8871 27.5958 16.9325 27.4307 16.9635C27.3576 16.9796 27.2824 16.9837 27.2079 16.9758C27.1424 16.9536 27.0784 16.9275 27.0161 16.8974C26.4714 16.6602 24.8127 15.934 23.7152 15.9608C22.3433 15.9835 19.8614 16.524 19.3828 17.1429C18.9702 17.6979 17.9799 19.4804 18.4813 21.0627C18.9702 22.5708 20.208 24.4193 20.208 24.4379C20.2219 24.457 20.2285 24.4804 20.2266 24.5039L20.1214 25.7376Z" fill="#263238"/>
<path d="M27.6247 22.7586C27.6988 22.7586 27.7588 22.5785 27.7588 22.3563C27.7588 22.1341 27.6988 21.954 27.6247 21.954C27.5506 21.954 27.4906 22.1341 27.4906 22.3563C27.4906 22.5785 27.5506 22.7586 27.6247 22.7586Z" fill="#263238"/>
<path d="M27.4741 21.6672C27.4481 21.6678 27.4229 21.6582 27.4039 21.6404C27.3943 21.6308 27.3866 21.6194 27.3813 21.6068C27.3761 21.5942 27.3734 21.5807 27.3734 21.5671C27.3734 21.5535 27.3761 21.54 27.3813 21.5274C27.3866 21.5149 27.3943 21.5035 27.4039 21.4939C27.4548 21.4253 27.5211 21.3696 27.5974 21.3313C27.6737 21.293 27.758 21.2731 27.8434 21.2731C27.8954 21.2783 27.9456 21.2949 27.9905 21.3216C28.0354 21.3483 28.0739 21.3846 28.1033 21.4279C28.118 21.4509 28.123 21.4787 28.1172 21.5054C28.1114 21.5321 28.0953 21.5554 28.0723 21.5702C28.0495 21.5846 28.0219 21.5897 27.9954 21.5843C27.9689 21.5789 27.9455 21.5635 27.93 21.5413C27.9178 21.5235 27.9019 21.5086 27.8834 21.4975C27.8649 21.4865 27.8442 21.4796 27.8227 21.4774C27.7696 21.4836 27.7184 21.5008 27.6722 21.5277C27.6261 21.5547 27.586 21.591 27.5545 21.6342C27.5447 21.6457 27.5323 21.6547 27.5183 21.6604C27.5043 21.6662 27.4891 21.6685 27.4741 21.6672Z" fill="#263238"/>
<path d="M27.7134 27.6253C27.8764 27.2725 27.6659 26.895 27.7361 26.2121C27.8062 25.5292 27.8537 24.9887 28.0187 24.7515C27.5484 24.5885 26.5746 25.294 26.4653 25.129C26.3559 24.964 26.259 22.02 26.3229 21.5723C26.3869 21.1246 27.0058 21.1267 27.2657 20.5614C27.5257 19.9962 26.6468 19.3587 26.6055 18.9832C26.5643 18.6077 27.3833 18.5355 27.3833 18.5355C27.5896 18.6057 28.7717 18.3003 28.8666 17.7578C28.9615 17.2152 27.9486 17.6876 27.9486 17.6876C28.0635 17.4696 28.1277 17.2284 28.1363 16.9821C28.1136 16.6747 27.3111 16.8872 27.2183 16.8624C27.1254 16.8376 25.0273 15.8309 23.7111 15.8515C22.3949 15.8721 19.8243 16.392 19.3065 17.0749C18.7887 17.7578 17.8933 19.5237 18.3884 21.0793C18.8011 22.4037 19.7769 23.9469 20.0533 24.3801C20.1353 24.4386 20.2248 24.4858 20.3195 24.5204C21.1511 24.7706 22.029 24.827 22.8859 24.6855C24.0639 24.4791 25.0067 24.05 24.8416 23.72C24.6766 23.3899 24.5817 22.0241 24.9592 21.3887C25.3368 20.7533 25.7597 21.7188 25.6648 22.872C25.5699 24.0253 25.312 24.7556 25.2419 25.4859C25.1717 26.2162 25.3822 27.582 25.3822 27.582C25.572 27.7441 25.7987 27.8574 26.0423 27.912C26.488 28.0379 27.5484 27.9801 27.7134 27.6253Z" fill="#263238"/>
<path d="M26.6035 28.0709C26.403 28.0738 26.2028 28.0531 26.0072 28.009C25.7468 27.9495 25.5047 27.8278 25.3017 27.6541C25.2873 27.6377 25.2773 27.6178 25.2728 27.5964C25.2728 27.5407 25.0665 26.21 25.1305 25.4756C25.1689 25.1462 25.2247 24.8191 25.2976 24.4956C25.4199 23.9573 25.5061 23.4115 25.5554 22.8617C25.6256 22.0035 25.3986 21.3474 25.2192 21.2917C25.149 21.269 25.0706 21.3866 25.0397 21.4402C24.689 22.0303 24.7715 23.363 24.9262 23.6725C24.9475 23.7128 24.9587 23.7578 24.9587 23.8035C24.9587 23.8491 24.9475 23.8941 24.9262 23.9345C24.7199 24.3285 23.7131 24.64 22.9024 24.7844C22.0405 24.9275 21.1573 24.8732 20.3194 24.6256H20.2906C20.1856 24.5869 20.0863 24.5341 19.9955 24.4688C19.9829 24.462 19.9722 24.4521 19.9646 24.4399C19.6799 23.9964 18.7123 22.4491 18.2873 21.1184C17.7798 19.5216 18.6773 17.7391 19.224 17.0212C19.7707 16.3033 22.4485 15.7834 23.707 15.7566C24.8581 15.7401 26.5436 16.4683 27.0986 16.7097C27.177 16.7448 27.2286 16.7675 27.2451 16.7716L27.3895 16.753C27.7031 16.7118 27.996 16.6849 28.1487 16.8087C28.175 16.8298 28.1966 16.856 28.2122 16.8858C28.2279 16.9157 28.2371 16.9484 28.2395 16.982C28.2426 17.1614 28.2096 17.3396 28.1425 17.506C28.3756 17.4235 28.7057 17.343 28.8707 17.4709C28.9161 17.5077 28.9496 17.5572 28.9669 17.613C28.9841 17.6688 28.9844 17.7285 28.9677 17.7845C28.9353 17.9033 28.8776 18.0136 28.7985 18.108C28.7195 18.2023 28.6209 18.2785 28.5097 18.3312C28.1301 18.5582 27.5793 18.6902 27.375 18.6489C27.2224 18.6634 26.8572 18.7294 26.7396 18.8759C26.7268 18.8895 26.7173 18.9059 26.7119 18.9238C26.7065 18.9417 26.7054 18.9606 26.7087 18.979C26.7675 19.1481 26.8594 19.3038 26.9789 19.437C27.2327 19.7774 27.5483 20.2004 27.3585 20.6109C27.2293 20.8619 27.0282 21.0688 26.7809 21.2051C26.5973 21.3247 26.4529 21.4114 26.424 21.597C26.3538 22.053 26.4467 24.7081 26.5436 25.0588C26.6816 25.0216 26.8156 24.9712 26.9439 24.9082C27.3008 24.7514 27.7485 24.5554 28.0517 24.6627C28.0671 24.6679 28.081 24.6765 28.0925 24.688C28.1039 24.6994 28.1126 24.7134 28.1177 24.7287C28.1221 24.744 28.123 24.76 28.1205 24.7757C28.118 24.7914 28.1121 24.8063 28.1033 24.8195C27.963 25.0258 27.9114 25.5271 27.8516 26.1151L27.8392 26.2306C27.8166 26.4808 27.8222 26.7327 27.8557 26.9816C27.9062 27.2133 27.889 27.4546 27.8062 27.6768C27.668 27.9698 27.0965 28.0709 26.6035 28.0709ZM25.4709 27.5283C25.6449 27.6639 25.8462 27.7603 26.0609 27.8109C26.5106 27.9285 27.4844 27.8584 27.6123 27.584C27.6771 27.3955 27.6885 27.1927 27.6453 26.9981C27.6096 26.7348 27.6034 26.4684 27.6267 26.2038L27.6391 26.0862C27.6552 25.6611 27.7245 25.2397 27.8454 24.8319C27.5565 24.8659 27.2765 24.9541 27.0202 25.0918C26.6798 25.2404 26.4735 25.3311 26.3745 25.1909C26.2177 24.9845 26.1517 21.9622 26.2156 21.5599C26.2569 21.2896 26.4632 21.1473 26.6633 21.0256C26.8778 20.9119 27.0527 20.7356 27.1646 20.5201C27.3028 20.2189 27.0408 19.8661 26.8077 19.5526C26.6625 19.3941 26.5559 19.2041 26.4962 18.9976C26.4906 18.9517 26.4945 18.9051 26.5076 18.8607C26.5208 18.8164 26.5428 18.7752 26.5725 18.7397C26.7788 18.4922 27.307 18.4406 27.3668 18.4344C27.3811 18.4313 27.3958 18.4313 27.4101 18.4344C27.7595 18.427 28.1006 18.3266 28.3983 18.1435C28.4829 18.1022 28.5584 18.0444 28.6204 17.9736C28.6824 17.9027 28.7296 17.8202 28.7593 17.7309C28.7697 17.6711 28.7593 17.6339 28.7408 17.6154C28.6417 17.5411 28.2725 17.6381 27.9857 17.7701C27.9662 17.7794 27.9443 17.7823 27.9231 17.7785C27.9018 17.7747 27.8823 17.7643 27.8672 17.7488C27.8522 17.7334 27.8424 17.7135 27.8392 17.6922C27.8361 17.6708 27.8397 17.649 27.8495 17.6298C27.9562 17.4283 28.0168 17.2056 28.027 16.9779C28.0272 16.9722 28.026 16.9666 28.0235 16.9616C28.021 16.9565 28.0172 16.9522 28.0125 16.949C27.9176 16.8727 27.5752 16.9181 27.4101 16.949C27.337 16.9651 27.2618 16.9693 27.1873 16.9614C27.1291 16.9432 27.072 16.9218 27.0161 16.8974C26.4714 16.6602 24.8127 15.934 23.7152 15.9608C22.3433 15.9835 19.8614 16.524 19.3828 17.1429C18.9702 17.6979 17.9799 19.4804 18.4813 21.0627C18.8939 22.35 19.8264 23.854 20.1317 24.3141C20.1948 24.3625 20.2642 24.4021 20.338 24.4317H20.3648C21.1743 24.6725 22.0279 24.7261 22.8611 24.5884C23.9339 24.3945 24.6291 24.0624 24.7364 23.8478C24.7431 23.8362 24.7466 23.823 24.7466 23.8096C24.7466 23.7962 24.7431 23.7831 24.7364 23.7715C24.5672 23.4311 24.4538 22.022 24.8581 21.3412C25.0211 21.0668 25.1903 21.073 25.2707 21.0998C25.607 21.2071 25.8216 22.0076 25.7494 22.8844C25.6995 23.4397 25.6127 23.991 25.4894 24.5348C25.4177 24.8507 25.3632 25.1702 25.3264 25.4921C25.3138 26.174 25.3642 26.8556 25.477 27.5283H25.4709Z" fill="#263238"/>
<path d="M25.541 27.9512C25.541 27.9512 25.6483 27.4685 23.7709 26.5834C21.8935 25.6984 19.9068 25.3208 19.6655 25.4281C19.4241 25.5354 19.1559 26.047 19.1559 26.047C20.4094 26.2697 21.6276 26.6582 22.7786 27.2023C24.4146 28.0275 25.8092 28.7579 25.8092 28.7579L25.541 27.9512Z" fill="white"/>
<path d="M25.8092 28.8631C25.7935 28.866 25.7775 28.866 25.7618 28.8631C25.7494 28.8631 24.3486 28.1286 22.7312 27.3055C21.5896 26.7677 20.3818 26.3834 19.1394 26.1626C19.1233 26.1597 19.108 26.1532 19.0948 26.1436C19.0815 26.1339 19.0707 26.1214 19.0631 26.1069C19.0559 26.0921 19.0522 26.0758 19.0522 26.0594C19.0522 26.043 19.0559 26.0268 19.0631 26.012C19.092 25.9563 19.356 25.4673 19.6222 25.3497C19.9234 25.2156 21.9451 25.622 23.8143 26.503C25.5101 27.3034 25.6504 27.8006 25.6462 27.9471L25.9083 28.7311C25.9145 28.7506 25.915 28.7716 25.9095 28.7914C25.904 28.8112 25.8928 28.8289 25.8773 28.8425C25.8578 28.8572 25.8336 28.8645 25.8092 28.8631ZM19.3168 25.9748C20.53 26.2009 21.7089 26.583 22.824 27.1116C24.0618 27.7305 25.1717 28.3143 25.6318 28.5557L25.4441 27.9925C25.4401 27.9769 25.4401 27.9606 25.4441 27.945C25.4441 27.9223 25.4131 27.4767 23.7297 26.6845C21.8379 25.7912 19.9213 25.4467 19.7109 25.5313C19.5466 25.6462 19.4116 25.7981 19.3168 25.9748Z" fill="#263238"/>
<path d="M26.5891 29.2757C26.3529 28.8108 25.9639 28.4415 25.4874 28.2297C24.6292 27.8006 23.7276 26.8578 20.2287 26.0821C19.5644 25.9356 19.3437 25.9748 19.1559 26.0553C18.7749 26.3134 18.4465 26.6418 18.1883 27.0228L17.9387 27.388C17.9387 27.388 20.2204 27.3612 21.8028 27.8439C23.3852 28.3267 27.0636 29.7481 27.0636 29.7481L26.5891 29.2757Z" fill="#00FF00"/>
<path d="M27.0718 29.8513C27.0595 29.8533 27.047 29.8533 27.0347 29.8513C26.9975 29.8368 23.3439 28.4257 21.7822 27.9492C20.2205 27.4726 17.9697 27.4974 17.949 27.4974C17.9307 27.4966 17.9128 27.4913 17.8969 27.482C17.8811 27.4726 17.8678 27.4595 17.8583 27.4437C17.8486 27.4279 17.8435 27.4097 17.8435 27.3911C17.8435 27.3726 17.8486 27.3544 17.8583 27.3385L18.0996 26.963C18.3667 26.5638 18.7112 26.2221 19.1126 25.9583C19.3375 25.8614 19.5954 25.8345 20.2493 25.979C23.0159 26.5979 24.1836 27.3158 24.9572 27.7965C25.1635 27.9285 25.3512 28.0441 25.5328 28.1328C26.0237 28.3548 26.4255 28.7356 26.6736 29.2138L27.142 29.6821C27.1587 29.699 27.1692 29.721 27.1718 29.7446C27.1744 29.7682 27.169 29.792 27.1564 29.8121C27.1462 29.8246 27.1332 29.8346 27.1186 29.8414C27.1039 29.8481 27.088 29.8515 27.0718 29.8513ZM18.145 27.2849C18.7289 27.2849 20.5361 27.3447 21.8585 27.7449C23.0963 28.1225 25.6359 29.0838 26.6716 29.4799L26.5313 29.3397C26.5219 29.3293 26.5142 29.3174 26.5086 29.3046C26.2816 28.864 25.9112 28.514 25.4585 28.3123C25.2687 28.2174 25.083 28.106 24.8664 27.9657C24.1052 27.4932 22.954 26.7774 20.2225 26.1729C19.5603 26.0264 19.3664 26.0739 19.2116 26.1399C18.8516 26.3915 18.54 26.706 18.2915 27.0682L18.145 27.2849Z" fill="#263238"/>
<path d="M34.2367 55.8188C34.2367 55.8188 33.4115 56.5182 33.6323 57.0566C33.8396 57.5139 34.0731 57.9589 34.3316 58.3893L34.6803 58.0077C34.6803 58.0077 34.2037 56.9287 34.2986 56.7699C34.3935 56.611 36.6794 55.2783 36.6794 55.2783L37.3478 56.675L37.6964 56.3882C37.6964 56.3882 37.125 54.9296 36.9022 54.8017C36.6794 54.6738 34.7979 55.1854 34.2367 55.8188Z" fill="#263238"/>
<path d="M34.3213 58.4946C34.3054 58.4927 34.2901 58.4873 34.2765 58.4787C34.2629 58.4701 34.2515 58.4586 34.2429 58.445C33.9811 58.0105 33.7454 57.5606 33.5374 57.0979C33.296 56.514 34.0841 55.8147 34.1563 55.7466C34.7546 55.0864 36.667 54.5541 36.9455 54.7151C37.1807 54.8492 37.6469 56.0024 37.7831 56.3531C37.791 56.3733 37.7924 56.3954 37.7873 56.4165C37.7821 56.4375 37.7706 56.4565 37.7542 56.4707L37.4035 56.7575C37.3915 56.7671 37.3774 56.7739 37.3624 56.7773C37.3474 56.7808 37.3318 56.7808 37.3167 56.7775C37.3017 56.7741 37.2876 56.7674 37.2755 56.7579C37.2634 56.7484 37.2535 56.7362 37.2467 56.7224L36.6278 55.4248C35.586 56.0437 34.4678 56.7183 34.377 56.8297C34.3543 56.9225 34.5586 57.4981 34.7669 57.9685C34.7748 57.9869 34.7772 58.0072 34.7739 58.0269C34.7706 58.0466 34.7617 58.065 34.7484 58.0799L34.3997 58.4616C34.3896 58.4721 34.3774 58.4805 34.3639 58.4862C34.3504 58.4918 34.3359 58.4947 34.3213 58.4946ZM36.7763 54.8842C36.4071 54.8842 34.8247 55.3092 34.3007 55.8889V55.8993C34.0944 56.0787 33.5683 56.6337 33.7251 57.0195C33.9087 57.4303 34.1154 57.8305 34.344 58.2181L34.5503 57.9891C34.3316 57.4857 34.1047 56.8813 34.2037 56.7183C34.3028 56.5553 35.9264 55.596 36.6195 55.1916C36.6319 55.1844 36.6456 55.1797 36.6597 55.178C36.6739 55.1762 36.6883 55.1773 36.7021 55.1813C36.7158 55.1854 36.7286 55.1923 36.7396 55.2015C36.7506 55.2107 36.7596 55.2221 36.766 55.235L37.3746 56.514L37.5644 56.3593C37.3004 55.6929 36.9579 54.9606 36.8424 54.8925C36.8209 54.8862 36.7986 54.8834 36.7763 54.8842Z" fill="#263238"/>
<path d="M34.734 52.3591L36.9559 54.55C37.0349 54.6763 37.0871 54.8174 37.1091 54.9648C37.1311 55.1121 37.1225 55.2623 37.0838 55.4062C36.9868 55.662 35.2106 57.0566 34.8598 57.2175C34.5091 57.3784 34.3214 56.8998 34.2884 56.7719C34.2554 56.644 34.0986 56.2954 34.0676 56.2005C34.0367 56.1056 33.1785 55.1524 32.9247 54.4221C32.7979 54.0934 32.7019 53.7536 32.6379 53.4071L34.734 52.3591Z" fill="white"/>
<path d="M34.7236 57.3516C34.6649 57.3519 34.607 57.3385 34.5544 57.3124C34.3718 57.1929 34.2413 57.0086 34.1892 56.7967C34.1707 56.7265 34.1005 56.5574 34.0489 56.4336C34.0139 56.3469 33.9809 56.2706 33.9685 56.2273C33.9561 56.184 33.8839 56.1117 33.8096 56.021C33.5332 55.6661 33.0174 55.006 32.8276 54.4551C32.6968 54.1217 32.5994 53.7762 32.5367 53.4236C32.534 53.4025 32.5379 53.381 32.5479 53.3621C32.5579 53.3433 32.5734 53.328 32.5924 53.3184L34.6864 52.2704C34.7061 52.2613 34.7281 52.2584 34.7495 52.2621C34.7708 52.2658 34.7906 52.2759 34.8061 52.291C34.8061 52.291 36.9021 54.354 37.028 54.4819C37.1218 54.6222 37.184 54.7813 37.21 54.9481C37.236 55.1148 37.2253 55.2852 37.1786 55.4474C37.061 55.7631 35.2084 57.1763 34.9092 57.3145C34.8507 57.34 34.7874 57.3527 34.7236 57.3516ZM32.7534 53.4649C32.8206 53.7789 32.9103 54.0878 33.0216 54.3891C33.201 54.9069 33.7024 55.5506 33.9726 55.8972C34.0475 55.979 34.1119 56.0698 34.1645 56.1674C34.1769 56.2025 34.2057 56.2727 34.2387 56.3531C34.2956 56.4818 34.3458 56.6134 34.3893 56.7472C34.4277 56.9008 34.5199 57.0355 34.6493 57.1268C34.6765 57.1405 34.7065 57.1477 34.737 57.1477C34.7674 57.1477 34.7975 57.1405 34.8247 57.1268C35.2104 56.9514 36.9124 55.5754 36.9929 55.3752C37.0571 55.1217 37.0201 54.8531 36.8898 54.6264L34.7132 52.4849L32.7534 53.4649Z" fill="#263238"/>
<path d="M9.70929 53.8259C9.86429 54.2001 10.0406 54.5652 10.2374 54.9193C10.3385 55.0183 11.2978 56.0457 11.3969 56.3098C11.4959 56.5738 11.3969 57.4692 11.762 58.1314C12.1272 58.7937 11.894 59.0577 11.4959 58.9257C11.0977 58.7937 10.8006 57.9994 10.8006 57.9994C10.8006 57.9994 11.1658 59.3239 11.2318 59.5549C11.2978 59.786 12.2922 60.0521 12.1251 60.2832C11.958 60.5142 10.2044 60.6153 9.80831 60.5823C9.41221 60.5493 8.68189 59.621 8.45083 59.4889C8.21977 59.3569 7.62561 56.84 7.45644 56.3758C7.28727 55.9116 7.02527 53.9001 7.02527 53.9001L9.70929 53.8259Z" fill="white"/>
<path d="M9.97543 60.6979H9.80007C9.52362 60.6731 9.18115 60.3472 8.76855 59.9242C8.65752 59.8032 8.53678 59.6914 8.40751 59.59C8.23834 59.4951 8.02791 58.8081 7.61943 57.3062C7.51215 56.9081 7.41313 56.5635 7.36774 56.4233C7.20063 55.9549 6.94275 54.0013 6.93244 53.9187C6.9304 53.9045 6.93136 53.89 6.93527 53.8761C6.93918 53.8622 6.94594 53.8494 6.95513 53.8383C6.97481 53.8165 7.00217 53.8032 7.03147 53.8011L9.71342 53.7351C9.73396 53.7344 9.75424 53.7399 9.77156 53.7509C9.78889 53.762 9.80243 53.7781 9.81038 53.797C9.95463 54.1598 10.12 54.5139 10.3055 54.8574C10.3055 54.8677 11.3721 55.9756 11.4876 56.285C11.5286 56.4399 11.5501 56.5993 11.5516 56.7595C11.555 57.2196 11.6555 57.6737 11.8466 58.0923C12.1169 58.5874 12.0529 58.8329 11.9559 58.9526C11.8912 59.0158 11.8086 59.0577 11.7193 59.0724C11.63 59.0872 11.5383 59.0742 11.4567 59.0351C11.3284 58.9774 11.2164 58.8888 11.1307 58.7772C11.2215 59.1032 11.3102 59.4312 11.337 59.5343C11.3556 59.5962 11.5929 59.7179 11.7352 59.7922C11.991 59.9242 12.2118 60.0398 12.2489 60.1924C12.2553 60.2197 12.2557 60.2481 12.25 60.2755C12.2443 60.303 12.2327 60.3288 12.2159 60.3513C12.0158 60.6339 10.5283 60.6979 9.97543 60.6979ZM7.14287 54.0013C7.2027 54.4324 7.41519 55.9653 7.55548 56.349C7.60912 56.4975 7.69783 56.8297 7.81336 57.2485C8.00728 57.9623 8.36625 59.2888 8.5086 59.4105C8.65358 59.5182 8.78702 59.6406 8.90677 59.7757C9.18115 60.0521 9.59583 60.4689 9.81863 60.4875C10.2973 60.5267 11.9044 60.4008 12.0447 60.2316C11.9213 60.1254 11.7821 60.0391 11.632 59.9758C11.3845 59.8479 11.172 59.7365 11.1307 59.5921C11.0647 59.359 10.6996 58.0345 10.6996 58.0345C10.6911 58.0071 10.6938 57.9775 10.7072 57.9522C10.7205 57.9268 10.7434 57.9078 10.7707 57.8994C10.7981 57.8909 10.8277 57.8936 10.853 57.907C10.8784 57.9203 10.8974 57.9432 10.9059 57.9705C10.9843 58.1768 11.2504 58.7401 11.5371 58.837C11.6651 58.8783 11.7682 58.8721 11.8115 58.8185C11.8549 58.7648 11.8714 58.5399 11.6795 58.1892C11.4728 57.7451 11.3638 57.2618 11.3597 56.7719C11.3576 56.6329 11.3403 56.4945 11.3082 56.3593C11.2256 56.1344 10.3303 55.1627 10.1735 55.0039C9.97178 54.6644 9.79659 54.3099 9.64947 53.9435L7.14287 54.0013Z" fill="#263238"/>
<path d="M10.9244 60.1966C10.9075 60.1965 10.8909 60.1922 10.876 60.1842C10.8611 60.1762 10.8484 60.1647 10.8391 60.1506C10.8297 60.1366 10.8239 60.1204 10.8222 60.1036C10.8206 60.0868 10.823 60.0698 10.8295 60.0542C10.5745 59.967 10.311 59.9069 10.0434 59.8747C9.85792 59.862 9.67588 59.8181 9.50499 59.7447C9.36471 59.6395 9.09239 58.9608 8.97479 58.674C8.97262 58.6631 8.97262 58.6519 8.97479 58.641C8.95912 58.2446 9.01718 57.8486 9.14602 57.4733C9.33376 56.972 9.24092 55.9735 9.23886 55.9632C9.23764 55.9496 9.2391 55.936 9.24316 55.923C9.24722 55.91 9.25379 55.898 9.26251 55.8875C9.27123 55.8771 9.28191 55.8685 9.29396 55.8622C9.30601 55.8559 9.31918 55.852 9.33273 55.8508C9.34628 55.8495 9.35993 55.851 9.37291 55.8551C9.38589 55.8591 9.39795 55.8657 9.40839 55.8744C9.41883 55.8831 9.42745 55.8938 9.43376 55.9059C9.44007 55.9179 9.44395 55.9311 9.44517 55.9446C9.44517 55.9879 9.54419 57.0009 9.33995 57.5476C9.22403 57.8909 9.16956 58.252 9.17903 58.6142C9.29852 58.9514 9.45197 59.2756 9.63703 59.5818C9.78426 59.6206 9.93378 59.6503 10.0847 59.6705C10.7036 59.7736 11.0028 59.8397 11.0523 59.9985C11.0609 60.028 11.0611 60.0593 11.0527 60.0889C11.0443 60.1185 11.0277 60.1451 11.0048 60.1656C10.9944 60.1762 10.9818 60.1844 10.9679 60.1897C10.954 60.195 10.9392 60.1974 10.9244 60.1966Z" fill="#263238"/>
<path d="M25.7989 88.7449C25.7989 88.7449 26.6571 89.3968 27.0656 89.6423C27.4741 89.8878 29.2277 90.0549 29.3514 90.3768C29.4752 90.6986 29.1658 91.0101 28.9945 91.1628C28.8233 91.3155 27.5958 91.7817 26.6571 91.6827C26.3282 91.6663 25.9987 91.6941 25.6772 91.7652C25.3925 91.8065 23.3913 92.0499 22.5352 92.1324C21.679 92.2149 21.4727 91.5135 21.4314 90.6635C21.3902 89.8136 21.4314 88.8254 21.4314 88.8254L24.8602 88.3364L25.7989 88.7449Z" fill="white"/>
<path d="M22.4031 92.2418C22.1784 92.2517 21.958 92.1782 21.7842 92.0355C21.5077 91.7962 21.3716 91.3774 21.3344 90.6739C21.2952 89.8218 21.3344 88.8378 21.3344 88.8275C21.3356 88.8035 21.3452 88.7807 21.3614 88.763C21.3775 88.7453 21.3994 88.7338 21.4231 88.7305L24.8519 88.2395C24.8701 88.2344 24.8894 88.2344 24.9076 88.2395L25.8463 88.6521L25.869 88.6645C25.869 88.6645 26.7252 89.3164 27.1254 89.5557C27.4381 89.6821 27.764 89.7728 28.0971 89.826C28.8852 89.9972 29.3679 90.1169 29.4546 90.3438C29.6093 90.7564 29.2029 91.1236 29.0688 91.2433C28.8625 91.4269 27.6247 91.8911 26.653 91.7879C26.3953 91.7686 26.1362 91.786 25.8834 91.8395L25.6978 91.8684C25.3924 91.9138 23.3872 92.1572 22.5496 92.2377L22.4031 92.2418ZM21.5325 88.9162C21.5325 89.172 21.5015 89.9601 21.5325 90.6574C21.5634 91.2907 21.6831 91.6765 21.91 91.8746C21.9962 91.943 22.096 91.9922 22.2027 92.0189C22.3095 92.0456 22.4207 92.0491 22.5289 92.0293C23.3645 91.9509 25.3636 91.7054 25.6668 91.6621C25.7246 91.6621 25.7844 91.6456 25.8463 91.6332C26.1175 91.5768 26.3954 91.5594 26.6715 91.5816C27.6061 91.6806 28.782 91.2185 28.9306 91.0865C29.2235 90.8245 29.3308 90.6058 29.2586 90.4139C29.207 90.2757 28.4829 90.121 28.0517 90.0261C27.6972 89.9697 27.3509 89.8707 27.0202 89.7311C26.6303 89.4979 25.8566 88.9059 25.7555 88.8336L24.854 88.4417L21.5325 88.9162Z" fill="#263238"/>
<path d="M26.948 91.1401C26.2114 91.0927 25.6874 91.2825 23.6657 91.3774C22.9473 91.4314 22.2252 91.4079 21.5118 91.3073C21.6315 91.8375 21.9079 92.1923 22.5434 92.1325C23.3995 92.0499 25.4007 91.8065 25.6854 91.7652C26.0069 91.6941 26.3365 91.6664 26.6653 91.6827C27.604 91.7838 28.815 91.332 29.0027 91.1628C29.1908 91.0181 29.324 90.8137 29.3803 90.5831C28.7366 91.004 27.5359 91.1773 26.948 91.1401Z" fill="white"/>
<path d="M22.3991 92.2418C21.873 92.2418 21.5491 91.9426 21.4109 91.3299C21.4068 91.3134 21.4072 91.2962 21.4119 91.2799C21.4166 91.2636 21.4255 91.2488 21.4377 91.2371C21.4491 91.2248 21.4633 91.2155 21.4792 91.2101C21.495 91.2047 21.512 91.2034 21.5285 91.2061C22.235 91.305 22.9502 91.3279 23.6616 91.2742C24.6725 91.2267 25.3121 91.1545 25.7825 91.1009C26.1709 91.0432 26.5639 91.0218 26.9563 91.0369C27.5299 91.072 28.7017 90.9028 29.3164 90.4985C29.3328 90.4879 29.3517 90.4821 29.3712 90.4818C29.3907 90.4815 29.4098 90.4868 29.4264 90.4969C29.443 90.5071 29.4564 90.5217 29.4651 90.5391C29.4737 90.5566 29.4773 90.5761 29.4753 90.5955C29.4209 90.8537 29.2742 91.0833 29.0627 91.2412C28.8564 91.4248 27.6186 91.889 26.6469 91.7858C26.3892 91.7665 26.1301 91.7839 25.8774 91.8374L25.6917 91.8663C25.3864 91.9117 23.3811 92.1551 22.5435 92.2356L22.3991 92.2418ZM21.6522 91.4351C21.7946 91.889 22.0649 92.0747 22.5249 92.0293C23.3604 91.9509 25.3595 91.7054 25.6628 91.662C25.7206 91.662 25.7804 91.6455 25.8423 91.6332C26.1135 91.5767 26.3914 91.5594 26.6675 91.5816C27.6021 91.6806 28.778 91.2185 28.9265 91.0865C29.0192 91.006 29.1016 90.9146 29.172 90.8141C28.4681 91.1156 27.7074 91.2619 26.9419 91.2432C26.5618 91.2283 26.1812 91.2497 25.8051 91.3072C25.3348 91.3608 24.689 91.433 23.672 91.4805C22.9987 91.5251 22.3228 91.5099 21.6522 91.4351Z" fill="#263238"/>
<path d="M12.451 55.1648C12.451 55.1648 13.3485 58.4306 14.4522 61.2879C15.5559 64.1452 16.9815 68.4302 16.9815 68.4302L18.013 74.6358C18.013 74.6358 18.176 77.7303 18.7475 80.0224C19.3189 82.3144 21.5243 89.2339 21.5243 89.2339C22.0926 89.4445 22.697 89.5406 23.3026 89.5165C24.3218 89.4752 25.7907 88.7408 25.7907 88.7408C25.7907 88.7408 25.9145 87.8021 25.8319 87.3936C25.7494 86.9851 25.2605 86.7747 25.1388 86.455C25.017 86.1352 23.4636 76.5895 23.4636 76.5895C23.4636 76.5895 22.9746 69.8145 22.8116 68.5086C22.6487 67.2026 22.2402 56.1819 22.2402 56.1819L12.451 55.1648Z" fill="#263238"/>
<path d="M23.1313 89.6279C22.5675 89.631 22.0079 89.5296 21.4809 89.3288C21.4669 89.3232 21.4542 89.3145 21.4439 89.3035C21.4335 89.2924 21.4258 89.2792 21.4211 89.2648C21.4005 89.1967 19.2095 82.3103 18.6442 80.0492C18.079 77.7881 17.9077 74.6709 17.9057 74.6399L16.8865 68.4508C16.8762 68.4219 15.4424 64.1493 14.3614 61.3271C13.2803 58.5049 12.3685 55.2246 12.352 55.1916C12.3475 55.1756 12.3471 55.1588 12.3507 55.1426C12.3543 55.1264 12.3618 55.1114 12.3726 55.0988C12.3832 55.0859 12.3969 55.076 12.4124 55.0699C12.4279 55.0637 12.4448 55.0616 12.4613 55.0637L22.2587 56.0829C22.2835 56.0853 22.3066 56.0967 22.3237 56.1149C22.3408 56.1332 22.3506 56.1569 22.3515 56.1819C22.3515 56.2912 22.7641 67.213 22.9209 68.5003C23.0777 69.7876 23.5708 76.5193 23.5749 76.5874C24.1938 80.4041 25.1552 86.1847 25.2439 86.4219C25.3131 86.5587 25.4109 86.679 25.5307 86.7747C25.7275 86.9277 25.8717 87.1383 25.9433 87.3771C26.0279 87.7897 25.9082 88.7181 25.9041 88.7573C25.9022 88.7743 25.8961 88.7905 25.8864 88.8046C25.8767 88.8186 25.8636 88.83 25.8484 88.8378C25.7865 88.8667 24.3465 89.5825 23.317 89.6238L23.1313 89.6279ZM21.5964 89.1555C22.1447 89.3507 22.7252 89.4396 23.3067 89.4175C24.1897 89.3824 25.442 88.7986 25.704 88.6769C25.763 88.26 25.7747 87.8379 25.739 87.4184C25.6744 87.2219 25.5522 87.0494 25.3883 86.9233C25.2445 86.8077 25.1288 86.661 25.05 86.4942C24.9283 86.1682 23.5295 77.588 23.3707 76.6122C23.3707 76.5338 22.8776 69.8145 22.7167 68.5251C22.5599 67.2769 22.1906 57.4032 22.1473 56.2788L12.5913 55.2845C12.7811 55.9488 13.5918 58.7772 14.547 61.2528C15.6384 64.0792 17.066 68.358 17.0804 68.4013L18.112 74.6213C18.112 74.6626 18.2832 77.751 18.8464 79.9997C19.3828 82.1556 21.4025 88.5428 21.5964 89.1555Z" fill="#263238"/>
<path d="M5.39954 83.5811C5.39954 83.5811 2.28641 84.1835 1.50864 84.4311C0.730873 84.6787 0.730873 85.1367 0.908294 85.9866C1.08572 86.8366 1.4385 87.2595 1.58085 87.3647C1.7232 87.4699 1.82841 88.8089 2.21626 89.663C2.60411 90.5171 3.49741 92.2108 4.302 92.6337C5.10658 93.0567 5.99988 93.0587 6.10716 92.9164C6.21444 92.774 5.90086 91.7858 5.90086 91.7858L5.08802 89.1678C5.08802 89.1678 6.03495 86.587 6.17937 86.4467C6.32378 86.3064 7.02728 85.5616 7.02728 85.5616L5.39954 83.5811Z" fill="white"/>
<path d="M5.70488 93.1041C5.2012 93.0887 4.70753 92.9597 4.26075 92.7266C3.34888 92.25 2.40401 90.2943 2.12963 89.7063C1.91768 89.1744 1.76412 88.621 1.67163 88.0559C1.64087 87.8449 1.58903 87.6376 1.5169 87.437C1.34361 87.307 0.990826 86.8511 0.813405 86.0032C0.646298 85.2006 0.596785 84.6106 1.48389 84.328C2.2596 84.0804 5.25926 83.5028 5.38511 83.4759C5.40324 83.4724 5.422 83.4737 5.43942 83.4799C5.45684 83.4861 5.47228 83.4968 5.48413 83.511L7.11187 85.4915C7.12841 85.5103 7.13753 85.5345 7.13753 85.5596C7.13753 85.5847 7.12841 85.6089 7.11187 85.6277C7.08093 85.6586 6.40218 86.3745 6.25983 86.5148C6.15668 86.6406 5.56046 88.1941 5.19943 89.1679L6.00402 91.7508C6.15462 92.2253 6.31347 92.8236 6.20001 92.9742C6.13023 93.0276 6.05051 93.0666 5.96551 93.0889C5.8805 93.1113 5.7919 93.1164 5.70488 93.1041ZM5.35416 83.6946C4.91679 83.7792 2.24103 84.3135 1.53547 84.5198C0.869107 84.7261 0.819594 85.0645 1.00527 85.964C1.17031 86.7541 1.49008 87.1708 1.63862 87.2802C1.72321 87.3441 1.7624 87.5133 1.86349 88.0167C1.95395 88.5653 2.10264 89.1026 2.30705 89.6197C2.84756 90.7997 3.66659 92.1861 4.34739 92.5409C5.15198 92.9535 5.93594 92.9247 6.02259 92.8504C6.05353 92.7658 5.92975 92.2439 5.79152 91.8189L4.98281 89.1988C4.97558 89.1774 4.97558 89.1542 4.98281 89.1328C5.20768 88.5139 5.95657 86.5189 6.10304 86.3724C6.21651 86.259 6.70958 85.7412 6.887 85.5575L5.35416 83.6946Z" fill="#263238"/>
<path d="M4.30199 92.6338C5.1272 93.0588 5.99987 93.0588 6.10715 92.9164C6.13607 92.8209 6.13607 92.719 6.10715 92.6235C5.38508 92.5884 4.16582 92.4172 3.66451 91.6435C3.02703 90.6533 2.39161 88.5325 2.10897 87.3648C1.88823 86.457 1.64685 85.0129 1.54989 84.4167L1.50656 84.4311C0.728797 84.6787 0.728797 85.1367 0.906219 85.9867C1.08364 86.8366 1.43642 87.2596 1.57877 87.3648C1.72112 87.47 1.82634 88.8089 2.21419 89.663C2.60204 90.5171 3.4974 92.2109 4.30199 92.6338Z" fill="white"/>
<path d="M5.70488 93.1041C5.2012 93.0887 4.70753 92.9596 4.26075 92.7266C3.34888 92.25 2.40401 90.2943 2.12963 89.7063C1.91768 89.1744 1.76412 88.621 1.67163 88.0559C1.64087 87.8449 1.58903 87.6376 1.5169 87.437C1.34361 87.307 0.990826 86.8511 0.813405 86.0032C0.646298 85.2006 0.596785 84.6106 1.48389 84.328L1.52928 84.3135C1.54343 84.3093 1.55833 84.3082 1.57295 84.3103C1.58756 84.3125 1.60153 84.3178 1.61387 84.3259C1.6383 84.3421 1.65535 84.3673 1.66131 84.396C1.75415 84.9778 1.99759 86.4302 2.21627 87.3359C2.4659 88.3674 3.10751 90.5707 3.75943 91.5837C4.20711 92.281 5.29021 92.4749 6.11955 92.5162C6.1432 92.5173 6.16575 92.5265 6.1834 92.5423C6.20106 92.5581 6.21275 92.5794 6.21651 92.6028C6.24952 92.8091 6.24333 92.9102 6.19588 92.9742C6.14843 93.0381 5.95038 93.1041 5.70488 93.1041ZM1.46945 84.5528C0.87117 84.7591 0.829909 85.1057 1.00939 85.966C1.17444 86.7562 1.49421 87.1729 1.64275 87.2822C1.72733 87.3462 1.76653 87.5154 1.86762 88.0187C1.95807 88.5673 2.10677 89.1047 2.31117 89.6217C2.85169 90.8018 3.67072 92.1882 4.35152 92.543C5.15198 92.9556 5.93181 92.9267 6.02671 92.8525C6.02671 92.8525 6.02671 92.8194 6.02671 92.7225C5.16023 92.6688 4.06682 92.446 3.5882 91.691C2.92183 90.6594 2.26991 88.419 2.01822 87.3813C1.8016 86.5334 1.57467 85.1965 1.46945 84.5528Z" fill="#263238"/>
<path d="M15.6342 56.0623C15.6342 56.0623 16.8184 57.6137 16.9422 57.8179C17.066 58.0221 17.9201 65.7771 18.0026 66.5528C18.0483 67.1778 18.0483 67.8052 18.0026 68.4302C18.0026 68.4302 15.1329 71.2937 13.2556 73.6311C11.3782 75.9685 5.26746 83.476 5.26746 83.476L7.94941 87.6515C7.94941 87.6515 11.3019 84.9696 13.7053 82.6734C17.5095 79.0487 21.0889 75.2155 21.3386 75.0113C21.5882 74.8071 23.2345 73.0576 23.3562 72.5687C23.4779 72.0797 24.788 65.216 25.2377 63.0126C25.6874 60.8093 26.2981 54.8492 26.2981 54.8492L15.0731 55.1339" fill="#263238"/>
<path d="M7.94326 87.7444H7.92675C7.89804 87.7384 7.87284 87.7213 7.85661 87.6969L5.17466 83.5213C5.16161 83.5041 5.15454 83.4831 5.15454 83.4615C5.15454 83.4399 5.16161 83.4189 5.17466 83.4017C5.23655 83.3253 11.306 75.8551 13.1628 73.5548C14.9246 71.3721 17.59 68.686 17.8892 68.3848C17.934 67.7791 17.934 67.1709 17.8892 66.5652C17.7489 65.2263 16.9588 58.1727 16.8391 57.8633C16.7483 57.7147 15.952 56.6605 15.5435 56.1262C15.5342 56.1156 15.5272 56.1032 15.5229 56.0898C15.5186 56.0764 15.5171 56.0622 15.5184 56.0482C15.5198 56.0342 15.524 56.0206 15.5308 56.0083C15.5377 55.996 15.5469 55.9852 15.5581 55.9766C15.5692 55.968 15.582 55.9617 15.5956 55.9583C15.6093 55.9548 15.6235 55.9541 15.6374 55.9564C15.6513 55.9586 15.6646 55.9636 15.6765 55.9712C15.6884 55.9788 15.6986 55.9887 15.7065 56.0003C15.756 56.0643 16.8948 57.5579 17.0186 57.7663C17.1671 58.0118 18.0852 66.4579 18.0955 66.5425C18.1405 67.1737 18.1405 67.8072 18.0955 68.4384C18.0936 68.4635 18.0825 68.4869 18.0645 68.5044C18.0357 68.5333 15.1763 71.3927 13.3195 73.6847C11.5495 75.8777 5.95036 82.7621 5.37684 83.4739L7.95151 87.4885C8.50028 87.045 11.4587 84.6395 13.6104 82.5868C16.3357 79.9935 18.9104 77.326 20.2947 75.8922C20.86 75.3063 21.1715 74.9845 21.2458 74.9226C21.5346 74.6812 23.119 72.973 23.2304 72.5336C23.2944 72.2736 23.7008 70.1837 24.1299 67.9701C24.5095 66.0226 24.9015 64.007 25.1098 62.9817C25.5224 60.9785 26.0691 55.7899 26.1579 54.9358L15.0504 55.2184C15.0369 55.219 15.0234 55.2169 15.0106 55.2122C14.9979 55.2075 14.9862 55.2004 14.9763 55.1912C14.9663 55.182 14.9583 55.1709 14.9526 55.1586C14.9469 55.1463 14.9437 55.133 14.9432 55.1194C14.9431 55.092 14.9536 55.0656 14.9724 55.0457C14.9912 55.0257 15.0169 55.0137 15.0442 55.0121L26.2693 54.7274C26.284 54.7265 26.2988 54.7289 26.3124 54.7347C26.326 54.7404 26.3381 54.7492 26.3477 54.7605C26.3579 54.771 26.3657 54.7837 26.3703 54.7976C26.375 54.8115 26.3764 54.8263 26.3745 54.8409C26.3745 54.9007 25.7556 60.8237 25.312 63.0147C25.1057 64.0462 24.7117 66.0535 24.3341 68.0011C23.903 70.2168 23.4965 72.3107 23.4285 72.5748C23.2944 73.1133 21.5717 74.9081 21.3778 75.0732C21.3118 75.1268 20.9466 75.5043 20.4432 76.0263C19.0589 77.4704 16.4801 80.1317 13.7528 82.7291C11.3741 84.9985 8.02578 87.6804 7.99071 87.7134C7.9786 87.7285 7.96197 87.7394 7.94326 87.7444Z" fill="#263238"/>
<path d="M18.1883 27.0063C18.1883 27.0063 16.2037 28.0523 15.1577 28.5619C14.1118 29.0715 10.619 30.1195 10.2724 30.6827C9.92585 31.2459 9.97743 32.1268 9.97743 32.1268C9.97743 32.1268 6.55278 41.5549 6.47026 43.1992C6.38774 44.8434 6.72195 54.1993 6.72195 54.1993C6.72195 54.1993 6.9757 54.5768 8.32493 54.5356C9.67416 54.4943 10.2209 54.2406 10.2209 54.2406C10.2209 54.2406 10.8955 44.8001 11.0213 44.2513C11.1035 43.9049 11.2168 43.5665 11.3597 43.2404L12.8327 40.2903C12.8327 40.2903 13.3402 43.325 13.3402 43.4509C13.3402 43.5767 10.5571 54.9564 10.5571 54.9564C10.5571 54.9564 10.5571 55.7156 15.4878 56.4006C20.4185 57.0855 24.7179 57.496 24.9283 57.496C25.1387 57.496 26.2775 55.6001 26.2775 55.6001C26.2775 55.6001 26.5725 56.6523 26.4838 56.7802C26.3951 56.9081 27.3276 56.5739 27.538 56.4006L28.3798 55.7259C28.3798 55.7259 27.0739 48.4764 27.0739 47.9297C27.0739 47.383 27.4122 45.4004 27.4122 45.4004L32.2995 54.3355C32.2995 54.3355 32.2995 54.4613 33.4796 53.7867C34.134 53.4293 34.7308 52.9751 35.2497 52.4395L31.2886 42.704C31.2886 42.704 30.3623 31.9556 30.2778 31.4089C30.1932 30.8622 30.4036 30.7343 29.8982 30.4805C29.3927 30.2268 27.0697 29.7481 27.0697 29.7481C27.0697 29.7481 23.2448 28.2834 21.809 27.8439C20.3731 27.4045 18.1883 27.0063 18.1883 27.0063Z" fill="#00FF00"/>
<path d="M24.9262 57.5992C24.6807 57.5992 20.2699 57.1577 15.4734 56.5017C10.6768 55.8456 10.4519 55.1091 10.4519 54.9668C10.4509 54.9585 10.4509 54.9502 10.4519 54.942C11.3988 51.0655 13.1999 43.6716 13.2308 43.4529C13.2308 43.358 12.975 41.8128 12.777 40.6307L11.4484 43.3044C11.3143 43.6219 11.208 43.9505 11.1307 44.2864C11.0069 44.8186 10.3384 54.1642 10.3323 54.2571C10.3312 54.2756 10.3251 54.2935 10.3145 54.3088C10.304 54.3241 10.2894 54.3362 10.2724 54.3437C10.2497 54.3561 9.69065 54.6057 8.33523 54.649C6.97981 54.6924 6.6848 54.3086 6.6456 54.2653C6.63488 54.2493 6.62849 54.2309 6.62703 54.2117C6.62703 54.1188 6.29076 44.8331 6.37534 43.2033C6.45993 41.5735 9.66589 32.723 9.88251 32.1227C9.88251 31.9762 9.85775 31.1758 10.194 30.6332C10.421 30.266 11.6567 29.7915 13.3752 29.1602C14.087 28.8982 14.7595 28.6506 15.1206 28.4752C16.1521 27.9719 18.1285 26.9321 18.1491 26.9197C18.1704 26.9116 18.1939 26.9116 18.2151 26.9197C18.2378 26.9197 20.4247 27.3179 21.8502 27.7449C23.2758 28.172 27.078 29.6388 27.1172 29.6532C27.1956 29.6677 29.4422 30.1339 29.9538 30.3897C30.3499 30.596 30.3665 30.7425 30.3665 31.0231C30.3642 31.1466 30.3718 31.2701 30.3891 31.3924C30.4717 31.9329 31.3464 42.0562 31.4 42.6793L35.3569 52.4003C35.3638 52.4179 35.3656 52.437 35.3624 52.4555C35.3591 52.4741 35.3508 52.4914 35.3384 52.5055C34.8129 53.0519 34.2069 53.5145 33.5415 53.8775C32.4171 54.5191 32.3202 54.4634 32.2624 54.4304C32.2451 54.4189 32.2309 54.4033 32.2211 54.385L27.4761 45.7202C27.3833 46.2917 27.1894 47.5295 27.1894 47.938C27.1894 48.3465 28.0435 53.2111 28.4953 55.7156C28.4982 55.7339 28.4963 55.7527 28.4898 55.77C28.4833 55.7874 28.4724 55.8028 28.4581 55.8147L27.6144 56.4893C27.4926 56.5862 26.5828 57.0215 26.424 56.8854C26.4104 56.8764 26.3989 56.8646 26.3901 56.8509C26.3813 56.8372 26.3754 56.8218 26.3729 56.8057C26.3704 56.7896 26.3713 56.7731 26.3754 56.7574C26.3796 56.7416 26.387 56.7269 26.3972 56.7141C26.374 56.4217 26.3193 56.1326 26.2342 55.8518C25.5369 57.0154 25.0954 57.5992 24.9262 57.5992ZM10.6603 54.9709C10.6912 55.0286 11.1121 55.6971 15.5002 56.2974C20.4742 56.9782 24.7364 57.3929 24.9262 57.3929C25.0521 57.331 25.673 56.4047 26.1867 55.5362C26.1973 55.5188 26.2127 55.5049 26.231 55.4961C26.2493 55.4874 26.2697 55.4841 26.2899 55.4866C26.3098 55.4892 26.3284 55.4977 26.3435 55.5109C26.3585 55.5241 26.3693 55.5415 26.3745 55.5609C26.4926 55.9237 26.5688 56.2989 26.6014 56.6791C26.9079 56.5948 27.202 56.4706 27.4761 56.3098L28.2704 55.6723C28.1363 54.9255 26.9727 48.4517 26.9727 47.9194C26.9727 47.3871 27.2987 45.4541 27.3111 45.3736C27.3146 45.3525 27.3247 45.333 27.3399 45.3178C27.355 45.3026 27.3745 45.2926 27.3957 45.289C27.4167 45.2848 27.4386 45.2876 27.4579 45.2969C27.4773 45.3062 27.4931 45.3215 27.503 45.3406L32.3635 54.2385C32.7356 54.0948 33.0928 53.9152 33.4301 53.7021C34.0538 53.3556 34.6265 52.9244 35.1321 52.421L31.1958 42.7453C31.1946 42.7357 31.1946 42.726 31.1958 42.7164C31.1958 42.6091 30.2674 31.9659 30.1849 31.4295C30.1657 31.2929 30.1574 31.1549 30.1601 31.0169C30.1601 30.7817 30.1601 30.7198 29.8631 30.5692C29.3741 30.3258 27.0821 29.8513 27.0594 29.8451C27.0037 29.8265 23.2056 28.3721 21.7904 27.9388C20.4742 27.5366 18.4998 27.1673 18.2131 27.1136C17.9552 27.2498 16.1748 28.1843 15.2093 28.6547C14.84 28.8363 14.1633 29.0838 13.4454 29.3479C12.2344 29.7915 10.5778 30.4001 10.3694 30.7363C10.0414 31.2665 10.0888 32.1165 10.0888 32.1248C10.091 32.1384 10.091 32.1523 10.0888 32.166C10.0558 32.2609 6.66829 41.5982 6.58164 43.2074C6.50119 44.7753 6.81064 53.5123 6.83334 54.1622C6.90554 54.2261 7.24594 54.4716 8.32904 54.4365C8.93923 54.4393 9.54636 54.3503 10.1301 54.1725C10.1961 53.2689 10.8068 44.765 10.9285 44.2327C11.0124 43.8793 11.1277 43.5341 11.273 43.2012L12.7501 40.2469C12.7599 40.2276 12.7755 40.2117 12.7948 40.2017C12.814 40.1917 12.8359 40.1881 12.8574 40.1912C12.8788 40.1947 12.8986 40.2047 12.9141 40.2198C12.9296 40.235 12.9401 40.2545 12.9441 40.2758C13.0286 40.7833 13.4516 43.325 13.4516 43.4529C13.4516 43.5808 11.3205 52.2745 10.6603 54.9709Z" fill="#263238"/>
<path d="M12.8327 40.3006L11.4402 32.8406L12.0302 41.7344L12.8327 40.3006Z" fill="#263238"/>
<path d="M12.0302 41.8375H12.0075C11.9859 41.832 11.9666 41.82 11.9521 41.8029C11.9377 41.7859 11.929 41.7649 11.9271 41.7426L11.337 32.8489C11.3358 32.8226 11.3444 32.7968 11.3612 32.7766C11.378 32.7563 11.4018 32.7431 11.4278 32.7395C11.4539 32.7364 11.4802 32.7431 11.5016 32.7584C11.523 32.7736 11.5379 32.7964 11.5433 32.8221L12.9338 40.282C12.938 40.3061 12.9336 40.3309 12.9215 40.3522L12.121 41.7839C12.1119 41.8 12.0987 41.8135 12.0828 41.8229C12.0669 41.8323 12.0487 41.8374 12.0302 41.8375ZM11.6589 34.5756L12.1107 41.3837L12.7296 40.2882L11.6589 34.5756Z" fill="#263238"/>
<path d="M19.911 38.2128C19.896 38.2128 19.8811 38.2095 19.8676 38.203C19.854 38.1966 19.8421 38.1873 19.8326 38.1756C19.6105 37.9085 19.4182 37.618 19.259 37.3092C19.2501 37.2856 19.2501 37.2595 19.259 37.2359C19.268 37.2123 19.2853 37.1928 19.3077 37.1811C19.3301 37.1694 19.3559 37.1663 19.3804 37.1724C19.4049 37.1785 19.4263 37.1934 19.4406 37.2143C19.5934 37.5082 19.7774 37.7848 19.9894 38.0395C19.999 38.0489 20.0066 38.0601 20.0118 38.0725C20.017 38.0849 20.0197 38.0982 20.0197 38.1117C20.0197 38.1251 20.017 38.1384 20.0118 38.1508C20.0066 38.1632 19.999 38.1745 19.9894 38.1839C19.9789 38.1937 19.9666 38.2013 19.9531 38.2063C19.9396 38.2112 19.9253 38.2134 19.911 38.2128Z" fill="#263238"/>
<path d="M19.1518 36.9523C19.1317 36.9524 19.1119 36.9465 19.0951 36.9355C19.0782 36.9245 19.0649 36.9088 19.0569 36.8904C18.0934 34.7139 17.9965 31.6523 17.9965 31.6214C17.9962 31.6078 17.9986 31.5944 18.0035 31.5818C18.0085 31.5691 18.0158 31.5576 18.0252 31.5478C18.0346 31.5381 18.0458 31.5302 18.0583 31.5248C18.0707 31.5194 18.084 31.5164 18.0976 31.5162C18.1246 31.5166 18.1505 31.5273 18.17 31.5461C18.1895 31.5648 18.2012 31.5903 18.2028 31.6173C18.2028 31.6461 18.2997 34.6664 19.2343 36.8079C19.2401 36.8202 19.2434 36.8335 19.2439 36.8471C19.2445 36.8607 19.2423 36.8742 19.2375 36.8869C19.2327 36.8996 19.2253 36.9112 19.2159 36.9211C19.2065 36.9309 19.1952 36.9387 19.1827 36.944C19.1729 36.9484 19.1625 36.9511 19.1518 36.9523Z" fill="#263238"/>
<path d="M18.5205 36.8223C18.5025 36.8222 18.4848 36.8174 18.4692 36.8083C18.4537 36.7993 18.4408 36.7863 18.4318 36.7707C17.9561 35.9295 17.5979 35.0272 17.3672 34.0888C17.3642 34.0755 17.3638 34.0617 17.3661 34.0483C17.3684 34.0349 17.3733 34.022 17.3806 34.0105C17.3879 33.999 17.3974 33.9891 17.4086 33.9813C17.4197 33.9734 17.4323 33.9679 17.4456 33.965C17.4588 33.9619 17.4724 33.9616 17.4857 33.9639C17.499 33.9662 17.5117 33.9712 17.523 33.9785C17.5344 33.9858 17.5441 33.9953 17.5517 34.0065C17.5594 34.0176 17.5647 34.0301 17.5673 34.0434C17.7939 34.9623 18.1451 35.8459 18.6112 36.6696C18.6241 36.6935 18.6272 36.7215 18.6198 36.7476C18.6125 36.7738 18.5954 36.7961 18.572 36.8099C18.5564 36.819 18.5385 36.8233 18.5205 36.8223Z" fill="#263238"/>
<path d="M17.4992 46.8219C17.4762 46.8214 17.4539 46.8135 17.4357 46.7994C17.4175 46.7853 17.4043 46.7657 17.3981 46.7435C17.3919 46.7167 17.3964 46.6885 17.4106 46.665C17.4249 46.6415 17.4478 46.6245 17.4745 46.6176C19.1105 46.205 21.2045 45.6975 22.3433 45.452C21.8131 45.4768 21.0724 45.5304 20.3834 45.5882C20.356 45.5904 20.3289 45.5816 20.308 45.5638C20.2871 45.546 20.2741 45.5206 20.272 45.4933C20.2698 45.4659 20.2785 45.4388 20.2963 45.4179C20.3141 45.397 20.3395 45.3841 20.3669 45.3819C23.1808 45.1446 23.1932 45.2354 23.2097 45.3489C23.2262 45.4623 23.1251 45.5036 22.7146 45.5861C21.7037 45.7924 19.3333 46.368 17.524 46.8239L17.4992 46.8219Z" fill="#263238"/>
<path d="M15.5291 47.3149C15.5156 47.3166 15.5018 47.3155 15.4887 47.3118C15.4756 47.3081 15.4633 47.3019 15.4525 47.2935C15.4418 47.285 15.4329 47.2746 15.4262 47.2627C15.4195 47.2508 15.4152 47.2377 15.4136 47.2242C15.412 47.2106 15.413 47.1969 15.4167 47.1837C15.4204 47.1706 15.4266 47.1583 15.435 47.1476C15.4435 47.1369 15.4539 47.1279 15.4658 47.1212C15.4777 47.1145 15.4908 47.1102 15.5044 47.1086L16.3935 46.8838C16.4201 46.8775 16.448 46.8821 16.4712 46.8964C16.4943 46.9107 16.5109 46.9336 16.5173 46.9601C16.5207 46.9731 16.5215 46.9866 16.5195 46.9999C16.5176 47.0133 16.5131 47.026 16.5062 47.0376C16.4992 47.0491 16.4901 47.0591 16.4793 47.0671C16.4684 47.075 16.4561 47.0807 16.443 47.0839L15.5539 47.3087L15.5291 47.3149Z" fill="#263238"/>
<path d="M27.4142 45.4004C27.4142 45.4004 26.4446 43.7995 26.36 43.4199C26.2754 43.0403 25.6008 38.9101 25.6008 38.9101C25.6008 38.9101 26.065 45.485 26.2342 46.3701C26.3716 46.9554 26.6621 47.4936 27.0759 47.9297L27.4142 45.4004Z" fill="#263238"/>
<path d="M27.0759 48.0329C27.0624 48.033 27.049 48.0304 27.0365 48.025C27.0241 48.0197 27.0129 48.0118 27.0037 48.0019C26.5739 47.5521 26.2732 46.9948 26.1331 46.3886C25.9639 45.5077 25.5142 39.1865 25.4977 38.9183C25.4961 38.9048 25.4971 38.8911 25.5008 38.8779C25.5045 38.8648 25.5107 38.8525 25.5191 38.8418C25.5276 38.831 25.538 38.8221 25.5499 38.8154C25.5618 38.8087 25.5749 38.8044 25.5885 38.8028C25.602 38.8012 25.6157 38.8022 25.6289 38.8059C25.642 38.8096 25.6543 38.8158 25.665 38.8243C25.6758 38.8327 25.6847 38.8432 25.6914 38.855C25.6981 38.8669 25.7024 38.88 25.704 38.8936C25.704 38.9348 26.3786 43.0197 26.4611 43.3972C26.5271 43.6943 27.2348 44.9053 27.4926 45.3468C27.5055 45.367 27.5107 45.3912 27.5071 45.4149L27.1708 47.9421C27.1681 47.9613 27.16 47.9793 27.1477 47.9943C27.1353 48.0092 27.119 48.0204 27.1007 48.0267C27.0928 48.03 27.0844 48.0321 27.0759 48.0329ZM25.8711 41.1877C26.0217 43.1765 26.2342 45.8192 26.3353 46.3453C26.4473 46.8388 26.6766 47.2981 27.0037 47.6842L27.307 45.4149C27.1667 45.1817 26.3415 43.7995 26.259 43.4343C26.2177 43.259 26.0444 42.2213 25.8711 41.1877Z" fill="#263238"/>
<path d="M25.3491 38.0869C25.3256 38.087 25.3028 38.0791 25.2844 38.0645C25.266 38.0499 25.2532 38.0294 25.248 38.0065C25.248 38.0065 25.1676 37.6578 25.0768 37.1318C25.0745 37.1182 25.0749 37.1043 25.0779 37.0909C25.081 37.0775 25.0867 37.0649 25.0946 37.0537C25.1026 37.0425 25.1126 37.0329 25.1243 37.0256C25.1359 37.0183 25.1489 37.0134 25.1624 37.0111C25.176 37.0088 25.1898 37.0091 25.2032 37.0122C25.2166 37.0153 25.2293 37.0209 25.2405 37.0289C25.2517 37.0368 25.2612 37.0469 25.2685 37.0585C25.2759 37.0702 25.2808 37.0831 25.2831 37.0967C25.3739 37.6166 25.4523 37.957 25.4523 37.959C25.4556 37.9722 25.4563 37.9859 25.4543 37.9993C25.4522 38.0127 25.4475 38.0256 25.4404 38.0371C25.4333 38.0487 25.4239 38.0587 25.4128 38.0665C25.4017 38.0744 25.3892 38.0799 25.3759 38.0828L25.3491 38.0869Z" fill="#263238"/>
<path d="M25.0789 36.5954C25.054 36.5952 25.03 36.5862 25.0111 36.5699C24.9922 36.5537 24.9797 36.5313 24.9758 36.5067C24.7972 35.4035 24.7466 34.2834 24.8252 33.1687C25.0315 31.0561 26.7376 30.5961 26.7562 30.5919C26.7693 30.5885 26.783 30.5877 26.7965 30.5896C26.8099 30.5915 26.8228 30.596 26.8345 30.6029C26.8462 30.6098 26.8564 30.619 26.8646 30.6298C26.8727 30.6407 26.8787 30.653 26.882 30.6662C26.8884 30.6927 26.8842 30.7206 26.8703 30.7441C26.8565 30.7676 26.834 30.7848 26.8078 30.792C26.7438 30.8086 25.2295 31.2232 25.0294 33.1893C24.9541 34.2876 25.0046 35.3909 25.18 36.4778C25.1836 36.5048 25.1766 36.5321 25.1604 36.5541C25.1443 36.576 25.1202 36.5908 25.0934 36.5954H25.0789Z" fill="#263238"/>
<path d="M24.8417 36.1477C24.8214 36.1473 24.8016 36.1411 24.7848 36.1297C24.7679 36.1184 24.7547 36.1024 24.7468 36.0837C24.4988 35.1095 24.3564 34.1114 24.3218 33.1068C24.3218 33.0794 24.3326 33.0532 24.352 33.0338C24.3713 33.0145 24.3976 33.0036 24.4249 33.0036C24.4523 33.0036 24.4785 33.0145 24.4979 33.0338C24.5172 33.0532 24.5281 33.0794 24.5281 33.1068C24.5611 34.0931 24.6994 35.0731 24.9407 36.0301C24.9448 36.0431 24.9462 36.0568 24.9448 36.0703C24.9435 36.0839 24.9394 36.097 24.9329 36.109C24.9263 36.1209 24.9174 36.1314 24.9067 36.1399C24.896 36.1483 24.8837 36.1544 24.8705 36.158L24.8417 36.1477Z" fill="#263238"/>
<path d="M40.1309 54.9936C40.1309 54.9936 31.8127 59.3445 31.5548 59.6602C31.297 59.9758 31.4599 60.4854 31.5239 60.7082C31.5879 60.931 33.5869 69.0903 33.8407 69.2162C34.0945 69.342 34.8887 68.9315 34.8887 68.9315C34.8887 68.9315 35.7779 69.4699 35.9986 69.375C36.2194 69.2801 43.7454 64.6135 44.158 64.2319C44.5706 63.8502 44.5396 63.5655 44.4117 63.2808C44.2838 62.9961 42.3487 58.6451 42.3487 58.6451C42.409 58.5521 42.4486 58.4473 42.465 58.3377C42.4814 58.2281 42.4741 58.1163 42.4436 58.0097C42.3177 57.725 41.2697 55.629 41.0469 55.3113C40.8241 54.9936 40.9561 54.6511 40.1309 54.9936Z" fill="#969696"/>
<path d="M35.9429 69.4885C35.6644 69.4885 35.1548 69.2079 34.8887 69.0491C34.6824 69.1563 34.0634 69.439 33.7994 69.309C33.6694 69.243 33.3868 68.5766 31.5878 61.3725C31.497 61.0053 31.4372 60.7721 31.4289 60.7371V60.7123C31.3567 60.4627 31.2082 59.9449 31.4867 59.5962C31.7652 59.2476 39.2376 55.3484 40.0917 54.9028C40.725 54.6367 40.888 54.7316 41.0365 55.0637C41.0636 55.1316 41.0975 55.1965 41.1376 55.2576C41.3666 55.5836 42.4146 57.6817 42.5446 57.9726C42.582 58.0851 42.5947 58.2043 42.5819 58.3221C42.5691 58.44 42.531 58.5536 42.4703 58.6555L44.5127 63.2416C44.6386 63.5263 44.7046 63.877 44.2342 64.3123C43.8216 64.6878 36.339 69.3482 36.046 69.4699C36.0133 69.483 35.9782 69.4894 35.9429 69.4885ZM34.8928 68.8283C34.9117 68.8279 34.9303 68.8329 34.9464 68.8428C35.3962 69.1151 35.8707 69.3214 35.9635 69.2801C36.2688 69.1419 43.7205 64.5001 44.0919 64.1576C44.4632 63.8151 44.4261 63.5552 44.3209 63.3221C44.195 63.0353 42.2578 58.6864 42.2578 58.6864C42.2497 58.6715 42.2455 58.6549 42.2455 58.6379C42.2455 58.621 42.2497 58.6043 42.2578 58.5894C42.3086 58.5109 42.3425 58.4226 42.3574 58.3303C42.3723 58.238 42.3679 58.1436 42.3445 58.053C42.2186 57.7683 41.1747 55.6805 40.9581 55.3711C40.9098 55.2999 40.869 55.2238 40.8364 55.1442C40.7498 54.9482 40.7106 54.8574 40.1659 55.0885C36.8547 56.8193 31.8539 59.4807 31.6311 59.7262C31.4083 59.9717 31.5486 60.44 31.6105 60.6545V60.6793C31.6208 60.7164 31.6786 60.9516 31.7714 61.3209C33.0092 66.2413 33.7148 68.8675 33.8881 69.1295C34.0325 69.177 34.4802 69.0202 34.8288 68.8386C34.8483 68.8278 34.8709 68.8241 34.8928 68.8283Z" fill="#263238"/>
<path d="M31.528 60.7082C31.5899 60.931 33.5911 69.0903 33.8448 69.2162C34.0986 69.342 34.8928 68.9315 34.8928 68.9315C34.8928 68.9315 35.7366 69.4431 35.9842 69.3791C35.3653 67.7493 32.9618 61.356 32.543 60.3018C32.1882 59.4023 31.8148 59.491 31.6477 59.5941L31.5796 59.6478H31.5693C31.3052 59.9779 31.4641 60.4854 31.528 60.7082Z" fill="#263238"/>
<path d="M35.9408 69.4864C35.6582 69.4864 35.1156 69.1852 34.8887 69.0491C34.6824 69.1564 34.0634 69.439 33.7994 69.309C33.6694 69.243 33.3868 68.5766 31.5878 61.3725C31.497 61.0053 31.4372 60.7722 31.4289 60.7371V60.7123C31.3567 60.4627 31.2082 59.9449 31.4867 59.5962L31.5032 59.5777L31.5197 59.5632C31.5383 59.5467 31.5651 59.5281 31.5981 59.5034C31.6582 59.4636 31.7266 59.438 31.798 59.4283C31.8695 59.4187 31.9422 59.4253 32.0107 59.4477C32.25 59.5261 32.4646 59.7984 32.6461 60.2585C32.9019 60.9062 33.8963 63.5449 34.7752 65.8741C35.3343 67.3553 35.8438 68.7087 36.0873 69.342C36.092 69.3558 36.0939 69.3705 36.0929 69.385C36.0918 69.3996 36.0877 69.4138 36.081 69.4267C36.0742 69.4396 36.0649 69.4511 36.0535 69.4603C36.0422 69.4695 36.0291 69.4763 36.0151 69.4803C35.9906 69.485 35.9657 69.487 35.9408 69.4864ZM34.8928 68.8283C34.9117 68.8279 34.9303 68.8329 34.9464 68.8428C35.2238 69.0141 35.5201 69.1525 35.8294 69.2554C35.5715 68.5746 35.0929 67.3099 34.5751 65.9359C33.6983 63.6088 32.7018 60.9702 32.4481 60.3224C32.2418 59.8252 32.0623 59.6726 31.9406 59.6313C31.901 59.6188 31.859 59.6155 31.8179 59.6215C31.7768 59.6276 31.7376 59.6429 31.7033 59.6664C31.6833 59.6789 31.6647 59.6934 31.6476 59.7097C31.4289 59.9799 31.5568 60.4297 31.6187 60.6442V60.669C31.6291 60.7061 31.6868 60.9413 31.7797 61.3106C33.0175 66.231 33.723 68.8572 33.8963 69.1192C34.0407 69.1667 34.4884 69.0099 34.8371 68.8283C34.8552 68.8228 34.8746 68.8228 34.8928 68.8283Z" fill="#263238"/>
<path d="M34.0676 64.0813C34.0454 64.0812 34.0237 64.074 34.0059 64.0606C33.9882 64.0472 33.9752 64.0285 33.9689 64.0072C33.9626 63.9858 33.9634 63.963 33.9712 63.9422C33.9789 63.9213 33.9932 63.9035 34.0119 63.8915L42.1073 58.8122C42.1187 58.8048 42.1315 58.7997 42.145 58.7973C42.1584 58.7949 42.1722 58.7952 42.1855 58.7983C42.1988 58.8014 42.2114 58.8072 42.2224 58.8152C42.2334 58.8233 42.2427 58.8335 42.2496 58.8453C42.2571 58.8565 42.2621 58.8692 42.2645 58.8825C42.2669 58.8958 42.2665 58.9094 42.2634 58.9225C42.2603 58.9357 42.2546 58.948 42.2465 58.9589C42.2385 58.9697 42.2283 58.9788 42.2166 58.9855L34.1212 64.0648C34.1057 64.0761 34.0868 64.0819 34.0676 64.0813Z" fill="#263238"/>
<path d="M37.812 61.1847L38.3835 62.1688L39.2087 61.5664L38.6702 60.6442L37.812 61.1847Z" fill="white"/>
<path d="M38.3835 62.272H38.3629C38.3487 62.2689 38.3354 62.2628 38.3237 62.2543C38.3119 62.2458 38.3021 62.235 38.2948 62.2225L37.7233 61.2384C37.7102 61.2153 37.7066 61.188 37.7131 61.1622C37.7197 61.1365 37.7359 61.1143 37.7584 61.1002L38.6146 60.5597C38.6389 60.5455 38.6676 60.5411 38.695 60.5473C38.7084 60.5503 38.721 60.5561 38.732 60.5643C38.743 60.5725 38.7522 60.5828 38.759 60.5947L39.2995 61.5148C39.3125 61.537 39.3168 61.5633 39.3115 61.5885C39.3061 61.6137 39.2916 61.636 39.2706 61.651L38.4454 62.2534C38.4275 62.2665 38.4056 62.273 38.3835 62.272ZM37.9523 61.2198L38.4165 62.0182L39.0746 61.5375L38.6352 60.7887L37.9523 61.2198Z" fill="#263238"/>
</svg>
