<svg width="109" height="70" viewBox="0 0 109 70" fill="none" xmlns="http://www.w3.org/2000/svg">
<path d="M31.7417 6.12231L33.1634 7.54405" stroke="white" stroke-linecap="round" stroke-linejoin="round"/>
<path d="M33.1634 6.12231L31.7417 7.54405" stroke="white" stroke-linecap="round" stroke-linejoin="round"/>
<path d="M102.571 32.3832L103.992 33.8049" stroke="white" stroke-linecap="round" stroke-linejoin="round"/>
<path d="M103.992 32.3832L102.571 33.8049" stroke="white" stroke-linecap="round" stroke-linejoin="round"/>
<path d="M20.4967 55.2404L21.9184 56.6621" stroke="white" stroke-linecap="round" stroke-linejoin="round"/>
<path d="M21.9184 55.2404L20.4967 56.6621" stroke="white" stroke-linecap="round" stroke-linejoin="round"/>
<path d="M63.9532 66.0209L65.375 67.4426" stroke="white" stroke-linecap="round" stroke-linejoin="round"/>
<path d="M65.375 66.0209L63.9532 67.4426" stroke="white" stroke-linecap="round" stroke-linejoin="round"/>
<path d="M79.0994 60.8043L80.2215 61.9279" stroke="white" stroke-linecap="round" stroke-linejoin="round"/>
<path d="M80.2215 60.8043L79.0994 61.9279" stroke="white" stroke-linecap="round" stroke-linejoin="round"/>
<path d="M97.8561 4.3501L98.9782 5.4722" stroke="white" stroke-linecap="round" stroke-linejoin="round"/>
<path d="M98.9782 4.3501L97.8561 5.4722" stroke="white" stroke-linecap="round" stroke-linejoin="round"/>
<path d="M64 1L66 3" stroke="white" stroke-linecap="round" stroke-linejoin="round"/>
<path d="M66 1L64 3" stroke="white" stroke-linecap="round" stroke-linejoin="round"/>
<path d="M50.2992 8.03243C50.2992 7.85465 50.2465 7.68086 50.1477 7.53304C50.049 7.38522 49.9086 7.27 49.7443 7.20197C49.5801 7.13393 49.3994 7.11613 49.225 7.15082C49.0506 7.1855 48.8905 7.27111 48.7647 7.39682C48.639 7.52253 48.5534 7.6827 48.5187 7.85706C48.4841 8.03143 48.5019 8.21217 48.5699 8.37642C48.6379 8.54067 48.7531 8.68105 48.901 8.77982C49.0488 8.87859 49.2226 8.93131 49.4003 8.93131C49.6387 8.93131 49.8674 8.83661 50.036 8.66803C50.2045 8.49946 50.2992 8.27083 50.2992 8.03243Z" stroke="white" stroke-linecap="round" stroke-linejoin="round"/>
<path d="M7.29362 4.96419C7.29362 4.78641 7.2409 4.61262 7.14213 4.4648C7.04336 4.31698 6.90297 4.20177 6.73872 4.13373C6.57447 4.0657 6.39374 4.0479 6.21937 4.08258C6.045 4.11726 5.88484 4.20287 5.75913 4.32858C5.63342 4.4543 5.54781 4.61446 5.51312 4.78883C5.47844 4.96319 5.49624 5.14393 5.56427 5.30818C5.63231 5.47243 5.74752 5.61281 5.89534 5.71158C6.04316 5.81035 6.21695 5.86307 6.39473 5.86307C6.63313 5.86307 6.86177 5.76837 7.03034 5.5998C7.19891 5.43122 7.29362 5.20259 7.29362 4.96419Z" stroke="white" stroke-linecap="round" stroke-linejoin="round"/>
<path d="M95.8366 59.4245C95.8366 59.2467 95.7839 59.0729 95.6851 58.9251C95.5863 58.7773 95.4459 58.6621 95.2817 58.5941C95.1174 58.526 94.9367 58.5082 94.7623 58.5429C94.588 58.5776 94.4278 58.6632 94.3021 58.7889C94.1764 58.9146 94.0908 59.0748 94.0561 59.2492C94.0214 59.4235 94.0392 59.6043 94.1072 59.7685C94.1753 59.9328 94.2905 60.0731 94.4383 60.1719C94.5861 60.2707 94.7599 60.3234 94.9377 60.3234C95.1761 60.3234 95.4047 60.2287 95.5733 60.0601C95.7419 59.8916 95.8366 59.6629 95.8366 59.4245Z" stroke="white" stroke-linecap="round" stroke-linejoin="round"/>
<path d="M22.0473 67.8606C22.0473 67.6828 21.9946 67.509 21.8958 67.3612C21.797 67.2133 21.6566 67.0981 21.4924 67.0301C21.3281 66.9621 21.1474 66.9443 20.973 66.9789C20.7987 67.0136 20.6385 67.0992 20.5128 67.2249C20.3871 67.3507 20.3015 67.5108 20.2668 67.6852C20.2321 67.8596 20.2499 68.0403 20.3179 68.2045C20.386 68.3688 20.5012 68.5092 20.649 68.6079C20.7968 68.7067 20.9706 68.7594 21.1484 68.7594C21.3868 68.7594 21.6154 68.6647 21.784 68.4962C21.9526 68.3276 22.0473 68.099 22.0473 67.8606Z" stroke="white" stroke-linecap="round" stroke-linejoin="round"/>
<path d="M7.34452 33.4978C7.34452 33.32 7.2918 33.1462 7.19303 32.9984C7.09426 32.8505 6.95387 32.7353 6.78962 32.6673C6.62537 32.5993 6.44464 32.5815 6.27027 32.6161C6.09591 32.6508 5.93574 32.7364 5.81003 32.8622C5.68432 32.9879 5.59871 33.148 5.56403 33.3224C5.52934 33.4968 5.54714 33.6775 5.61518 33.8417C5.68321 34.006 5.79842 34.1464 5.94624 34.2452C6.09406 34.3439 6.26785 34.3966 6.44564 34.3966C6.68403 34.3966 6.91267 34.3019 7.08124 34.1334C7.24982 33.9648 7.34452 33.7362 7.34452 33.4978Z" stroke="white" stroke-linecap="round" stroke-linejoin="round"/>
<path d="M50.888 51.447C50.888 51.2692 50.8353 51.0954 50.7365 50.9476C50.6377 50.7998 50.4973 50.6846 50.3331 50.6165C50.1688 50.5485 49.9881 50.5307 49.8137 50.5654C49.6394 50.6001 49.4792 50.6857 49.3535 50.8114C49.2278 50.9371 49.1422 51.0972 49.1075 51.2716C49.0728 51.446 49.0906 51.6267 49.1586 51.791C49.2267 51.9552 49.3419 52.0956 49.4897 52.1944C49.6375 52.2931 49.8113 52.3459 49.9891 52.3459C50.2275 52.3459 50.4561 52.2512 50.6247 52.0826C50.7933 51.914 50.888 51.6854 50.888 51.447Z" stroke="white" stroke-linecap="round" stroke-linejoin="round"/>
<path d="M106.346 50.8882L108 51.1698" stroke="#929292" stroke-linecap="round" stroke-linejoin="round"/>
<path d="M22.9912 53.1518L73.4994 45.2881L105.291 50.7084" stroke="#929292" stroke-linecap="round" stroke-linejoin="round"/>
<path d="M1 56.5766L20.7949 53.4934" stroke="#929292" stroke-linecap="round" stroke-linejoin="round"/>
<path d="M86.5257 8.9762L55.9786 12.6526L56.0386 50.7712L86.8238 55.6791L100.277 52.8911L100.337 10.6541L86.5257 8.9762Z" fill="#DBDBDB" stroke="#263238" stroke-linecap="round" stroke-linejoin="round"/>
<path d="M98.8883 51.7121L89.0995 50.2334" stroke="#263238" stroke-linecap="round" stroke-linejoin="round"/>
<path d="M92.9917 27.1621C95.4276 27.1621 97.4022 24.451 97.4022 21.1066C97.4022 17.7623 95.4276 15.0511 92.9917 15.0511C90.5558 15.0511 88.5812 17.7623 88.5812 21.1066C88.5812 24.451 90.5558 27.1621 92.9917 27.1621Z" fill="white"/>
<path d="M92.9917 26.5913C95.1976 26.5913 96.9858 24.1357 96.9858 21.1066C96.9858 18.0775 95.1976 15.6219 92.9917 15.6219C90.7859 15.6219 88.9977 18.0775 88.9977 21.1066C88.9977 24.1357 90.7859 26.5913 92.9917 26.5913Z" fill="#00FF00"/>
<path d="M92.9917 23.1186C93.8009 23.1186 94.4568 22.2178 94.4568 21.1066C94.4568 19.9954 93.8009 19.0946 92.9917 19.0946C92.1825 19.0946 91.5265 19.9954 91.5265 21.1066C91.5265 22.2178 92.1825 23.1186 92.9917 23.1186Z" fill="#263238" stroke="#263238" stroke-linecap="round" stroke-linejoin="round"/>
<path d="M83.6148 20.5118L64.969 21.0197V37.676L84.0388 39.7524V20.8939L83.6148 20.5118Z" fill="#263238" stroke="#263238" stroke-linecap="round" stroke-linejoin="round"/>
<path d="M63.4963 34.0206C65.9322 34.0206 67.9069 31.3095 67.9069 27.9651C67.9069 24.6208 65.9322 21.9097 63.4963 21.9097C61.0605 21.9097 59.0858 24.6208 59.0858 27.9651C59.0858 31.3095 61.0605 34.0206 63.4963 34.0206Z" fill="white"/>
<path d="M63.4964 33.4498C65.7022 33.4498 67.4904 30.9943 67.4904 27.9652C67.4904 24.936 65.7022 22.4805 63.4964 22.4805C61.2905 22.4805 59.5023 24.936 59.5023 27.9652C59.5023 30.9943 61.2905 33.4498 63.4964 33.4498Z" fill="#00FF00"/>
<path d="M63.4964 29.9771C64.3056 29.9771 64.9616 29.0763 64.9616 27.9651C64.9616 26.8539 64.3056 25.9531 63.4964 25.9531C62.6872 25.9531 62.0312 26.8539 62.0312 27.9651C62.0312 29.0763 62.6872 29.9771 63.4964 29.9771Z" fill="#263238" stroke="#263238" stroke-linecap="round" stroke-linejoin="round"/>
<path d="M92.9917 39.4708C95.4276 39.4708 97.4022 36.7597 97.4022 33.4153C97.4022 30.071 95.4276 27.3599 92.9917 27.3599C90.5558 27.3599 88.5812 30.071 88.5812 33.4153C88.5812 36.7597 90.5558 39.4708 92.9917 39.4708Z" fill="white"/>
<path d="M92.9917 38.9C95.1976 38.9 96.9858 36.4445 96.9858 33.4153C96.9858 30.3862 95.1976 27.9307 92.9917 27.9307C90.7859 27.9307 88.9977 30.3862 88.9977 33.4153C88.9977 36.4445 90.7859 38.9 92.9917 38.9Z" fill="#00FF00"/>
<path d="M92.9917 35.4273C93.8009 35.4273 94.4568 34.5265 94.4568 33.4153C94.4568 32.3041 93.8009 31.4033 92.9917 31.4033C92.1825 31.4033 91.5265 32.3041 91.5265 33.4153C91.5265 34.5265 92.1825 35.4273 92.9917 35.4273Z" fill="#263238" stroke="#263238" stroke-linecap="round" stroke-linejoin="round"/>
<path d="M92.9917 51.781C95.4276 51.781 97.4022 49.0699 97.4022 45.7255C97.4022 42.3812 95.4276 39.67 92.9917 39.67C90.5558 39.67 88.5812 42.3812 88.5812 45.7255C88.5812 49.0699 90.5558 51.781 92.9917 51.781Z" fill="white"/>
<path d="M92.9917 51.2102C95.1976 51.2102 96.9858 48.7546 96.9858 45.7255C96.9858 42.6964 95.1976 40.2408 92.9917 40.2408C90.7859 40.2408 88.9977 42.6964 88.9977 45.7255C88.9977 48.7546 90.7859 51.2102 92.9917 51.2102Z" fill="#00FF00"/>
<path d="M92.9917 47.7375C93.8009 47.7375 94.4568 46.8367 94.4568 45.7255C94.4568 44.6143 93.8009 43.7135 92.9917 43.7135C92.1825 43.7135 91.5265 44.6143 91.5265 45.7255C91.5265 46.8367 92.1825 47.7375 92.9917 47.7375Z" fill="#263238" stroke="#263238" stroke-linecap="round" stroke-linejoin="round"/>
<path d="M77.0455 27.0587C76.9639 27.0588 76.8833 27.0398 76.8103 27.0033C76.0882 26.6422 75.0125 25.5396 74.2635 24.3816C73.5384 23.2699 72.7878 21.64 73.3316 20.1988C73.5968 19.4961 74.6605 18.3111 80.8118 16.1193C84.1077 14.9463 87.3407 14.0354 87.3722 14.0219C87.4402 13.9995 87.5121 13.9911 87.5835 13.9972C87.6549 14.0033 87.7244 14.0238 87.7876 14.0575C87.8509 14.0912 87.9066 14.1373 87.9515 14.1932C87.9965 14.249 88.0296 14.3134 88.049 14.3824C88.0683 14.4514 88.0735 14.5236 88.0641 14.5946C88.0548 14.6657 88.0312 14.7341 87.9947 14.7958C87.9582 14.8574 87.9095 14.9111 87.8517 14.9534C87.7939 14.9958 87.7281 15.0259 87.6583 15.0422C82.4343 16.5073 74.8418 19.1905 74.3249 20.5673C73.9159 21.649 74.668 23.0572 75.1519 23.7988C75.9339 24.9973 76.8882 25.8527 77.2867 26.046C77.3936 26.0992 77.4794 26.1871 77.53 26.2952C77.5806 26.4034 77.5932 26.5255 77.5655 26.6417C77.5379 26.7579 77.4718 26.8613 77.3779 26.9351C77.284 27.0089 77.1679 27.0488 77.0485 27.0482L77.0455 27.0587Z" fill="white" stroke="#263238" stroke-linecap="round" stroke-linejoin="round"/>
<path d="M76.665 30.1959C76.5581 30.1968 76.4535 30.1649 76.3654 30.1045C74.8672 29.0888 74.2979 26.9659 74.6949 23.7944C74.8762 22.3367 75.5608 21.0183 76.7923 19.7659C78.4403 18.0835 81.11 16.5014 84.7324 15.0617C92.8224 11.8527 96.6172 12.9224 96.776 12.9643C96.9086 13.0056 97.0197 13.0975 97.0851 13.22C97.1506 13.3425 97.1653 13.4859 97.1259 13.6191C97.0866 13.7523 96.9964 13.8647 96.8748 13.932C96.7533 13.9992 96.6101 14.016 96.4764 13.9786C96.4254 13.9651 92.7954 12.9958 85.125 16.04C79.1848 18.3966 76.1182 20.9749 75.7496 23.9202C75.4065 26.6633 75.814 28.4476 76.9616 29.2206C77.0557 29.2844 77.1268 29.3767 77.1644 29.4839C77.202 29.5911 77.2042 29.7076 77.1707 29.8162C77.1371 29.9248 77.0696 30.0197 76.978 30.087C76.8864 30.1543 76.7756 30.1903 76.662 30.1899L76.665 30.1959Z" fill="white" stroke="#263238" stroke-linecap="round" stroke-linejoin="round"/>
<path d="M76.0687 34.6782V35.5966H79.3991L79.859 35.0228H81.2942V23.0227L79.859 22.7351L79.1699 22.1044H76.5287L76.0687 23.4827V34.6782Z" fill="white" stroke="#263238" stroke-linecap="round" stroke-linejoin="round"/>
<path d="M78.4223 23.4812H76.0687V34.6768H78.4223V23.4812Z" fill="#00FF00" stroke="white" stroke-linecap="round" stroke-linejoin="round"/>
<path d="M85.3706 29.0513L79.9159 28.6498V33.7584L85.1399 34.506L85.3706 29.0513Z" fill="white" stroke="#263238" stroke-linecap="round" stroke-linejoin="round"/>
<path d="M79.9774 29.2715L85.3048 29.7254" stroke="#263238" stroke-linecap="round" stroke-linejoin="round"/>
<path d="M79.9204 30.1494L85.2763 30.7457" stroke="#263238" stroke-linecap="round" stroke-linejoin="round"/>
<path d="M79.9489 31.0004L85.2208 31.6236" stroke="#263238" stroke-linecap="round" stroke-linejoin="round"/>
<path d="M79.9204 31.8497L85.2208 32.5299" stroke="#263238" stroke-linecap="round" stroke-linejoin="round"/>
<path d="M79.8635 32.5869L85.1355 33.324" stroke="#263238" stroke-linecap="round" stroke-linejoin="round"/>
<path d="M79.892 33.267L85.107 34.0894" stroke="#263238" stroke-linecap="round" stroke-linejoin="round"/>
<path d="M79.9159 28.6497V25.5591L80.2605 25.7568V28.6482L79.9159 28.6497Z" fill="#263238" stroke="#263238" stroke-linecap="round" stroke-linejoin="round"/>
<path d="M58.948 36.0656V48.6514L59.8184 48.7428V36.2034L58.948 36.0656Z" fill="#263238" stroke="#263238" stroke-linecap="round" stroke-linejoin="round"/>
<path d="M59.8185 36.2033L70.0912 35.673V37.1397L85.4546 38.837V44.2483L82.704 45.0288L69.9534 43.3779V46.5869L84.9048 48.7892V52.9615L59.8185 48.7427V36.2033Z" fill="#ABABAB" stroke="#263238" stroke-linecap="round" stroke-linejoin="round"/>
<path d="M70.0911 37.1398L59.772 37.8544L79.9968 39.342L85.4545 38.8372L70.0911 37.1398Z" fill="#ABABAB" stroke="#263238" stroke-linecap="round" stroke-linejoin="round"/>
<path d="M79.9968 39.342V44.6155L82.704 45.029L85.4545 44.2484V38.8372L79.9968 39.342Z" fill="#263238" stroke="#263238" stroke-linecap="round" stroke-linejoin="round"/>
<path d="M59.772 37.8544V42.4372L69.9533 43.378L79.9968 44.6155V39.342L59.772 37.8544Z" fill="#263238" stroke="#263238" stroke-linecap="round" stroke-linejoin="round"/>
<path d="M64.0507 42.6693L65.1967 40.5225L73.4275 41.3449L73.9998 41.9532" stroke="white" stroke-linecap="round" stroke-linejoin="round"/>
<path d="M75.044 39.8962C75.044 39.8962 73.9953 40.4461 74.2186 42.5569C74.4418 44.6678 76.5122 47.3719 78.0718 48.3352C79.6313 49.2986 83.2988 49.8484 83.8501 49.8019C84.4014 49.7555 84.7205 49.7105 84.7205 49.7105V47.5967C83.8163 47.8122 82.8741 47.8122 81.9699 47.5967C80.5482 47.2296 77.7961 43.3315 77.4755 42.503C77.1549 41.6745 77.8875 40.8056 77.8875 40.8056V40.121L75.044 39.8962Z" fill="white" stroke="#263238" stroke-linecap="round" stroke-linejoin="round"/>
<path d="M76.4208 40.076C76.4208 40.076 75.5025 40.5345 75.9159 42.5525C76.3294 44.5705 78.0718 47.0004 80.0433 48.2843C82.0149 49.5682 83.8036 49.2941 83.8036 49.2941" stroke="#263238" stroke-linecap="round" stroke-linejoin="round"/>
<path d="M77.8875 40.121C77.5945 40.3851 77.3642 40.7112 77.2131 41.0756C77.062 41.44 76.994 41.8334 77.0141 42.2274C77.0875 43.5652 79.1699 45.7585 80.0807 46.7218" stroke="#263238" stroke-linecap="round" stroke-linejoin="round"/>
<path d="M76.7534 40.4611C76.7534 40.4611 76.304 41.279 76.5677 42.7083C76.8313 44.1375 79.1879 46.9465 80.7505 47.9517" stroke="#263238" stroke-linecap="round" stroke-linejoin="round"/>
<path d="M75.6194 39.9218C75.6194 39.9218 75.08 40.2004 75.1355 41.7615C75.1909 43.3225 76.4373 45.8709 78.0733 47.5068" stroke="#263238" stroke-linecap="round" stroke-linejoin="round"/>
<path d="M74.6155 42.0596C74.6155 42.0596 74.4342 43.6416 76.196 46.0941" stroke="#263238" stroke-linecap="round" stroke-linejoin="round"/>
<path d="M81.4756 48.1016C82.4924 48.3213 83.523 48.4714 84.5603 48.551" stroke="#263238" stroke-linecap="round" stroke-linejoin="round"/>
<path d="M58.948 36.0656L66.0417 35.5623L70.0911 35.6731L59.8184 36.2035L58.948 36.0656Z" fill="white" stroke="#263238" stroke-linecap="round" stroke-linejoin="round"/>
<path d="M59.8814 45.2941L67.6792 44.2529V46.2469L59.8514 47.8529L59.8185 48.7428L69.9534 46.587V43.378L67.0245 43.1218L59.8215 43.5982L59.8814 45.2941Z" fill="#263238" stroke="#263238" stroke-linecap="round" stroke-linejoin="round"/>
<path d="M60.4011 49.4694V51.33C60.4011 51.8035 63.3734 52.1885 67.0394 52.1885C70.7053 52.1885 73.6851 51.8035 73.6851 51.33V49.4694H60.4011Z" fill="white"/>
<path d="M67.0394 50.3278C70.7056 50.3278 73.6776 49.9435 73.6776 49.4694C73.6776 48.9953 70.7056 48.611 67.0394 48.611C63.3732 48.611 60.4011 48.9953 60.4011 49.4694C60.4011 49.9435 63.3732 50.3278 67.0394 50.3278Z" fill="#00FF00"/>
<path d="M68.238 49.3076C68.238 49.4574 67.453 49.5758 66.4852 49.5758C65.5174 49.5758 64.7308 49.4559 64.7308 49.3076C64.7308 49.1593 65.5159 49.0394 66.4852 49.0394C67.4544 49.0394 68.238 49.1593 68.238 49.3076Z" fill="#263238" stroke="#263238" stroke-linecap="round" stroke-linejoin="round"/>
<path d="M74.6021 50.566L74.5481 52.4267C74.5347 52.9016 77.495 53.9443 81.1594 54.0492C84.8239 54.1541 87.8067 53.856 87.8201 53.381L87.8726 50.9481L74.6021 50.566Z" fill="white"/>
<path d="M87.8726 50.948C87.8591 51.423 84.8763 51.7211 81.2134 51.6162C77.5504 51.5113 74.5886 51.0409 74.6021 50.5675C74.6156 50.0941 77.5984 49.7945 81.2628 49.9008C84.9273 50.0072 87.8861 50.4746 87.8726 50.948Z" fill="#00FF00"/>
<path d="M82.4403 50.6304C82.4403 50.7802 81.6478 50.8761 80.68 50.8491C79.7122 50.8222 78.9287 50.6828 78.9287 50.533C78.9287 50.3832 79.7212 50.2873 80.689 50.3158C81.6568 50.3443 82.4448 50.4821 82.4403 50.6304Z" fill="#263238" stroke="#263238" stroke-linecap="round" stroke-linejoin="round"/>
<path d="M59.7166 12.3934V14.4624L67.6102 15.4257L92.2531 13.3073V10.1313L86.5257 8.9762L59.7166 12.3934Z" fill="#263238"/>
<path d="M59.7166 14.4624L83.8306 11.8632L92.2531 13.3074L67.6102 15.4257L59.7166 14.4624Z" fill="white"/>
<path d="M74.4987 26.4879H72.4762C71.8879 26.4879 71.411 26.9648 71.411 27.5531V30.7621C71.411 31.3504 71.8879 31.8273 72.4762 31.8273H74.4987C75.087 31.8273 75.5638 31.3504 75.5638 30.7621V27.5531C75.5638 26.9648 75.087 26.4879 74.4987 26.4879Z" fill="white" stroke="#263238" stroke-linecap="round" stroke-linejoin="round"/>
<path d="M74.1122 27.3823H72.8627C72.4457 27.3823 72.1077 27.7204 72.1077 28.1374V30.1749C72.1077 30.5919 72.4457 30.9299 72.8627 30.9299H74.1122C74.5292 30.9299 74.8672 30.5919 74.8672 30.1749V28.1374C74.8672 27.7204 74.5292 27.3823 74.1122 27.3823Z" fill="#00FF00"/>
<path d="M86.5812 7.92603L86.7624 56.5256L100.695 53.4964L100.816 10.1073L86.5812 7.92603ZM99.8532 52.2859L88.3999 54.5331L88.5168 9.93353L99.8502 11.8122L99.8532 52.2859Z" fill="white" stroke="#263238" stroke-linecap="round" stroke-linejoin="round"/>
<path d="M86.3905 8L55 12.1214V51.3906L86.5718 56.5996L86.3905 8ZM56.576 50.3074L56.3333 13.2195L84.2691 10.1828L84.4519 54.9651L56.576 50.3074Z" fill="white" stroke="#263238" stroke-linecap="round" stroke-linejoin="round"/>
<path d="M67.8335 16.0804V20.094" stroke="#263238" stroke-linecap="round" stroke-linejoin="round"/>
<path d="M36.8055 62.3684C36.8055 62.3684 44.7711 64.4553 45.5022 64.4058C46.2333 64.3564 78.7354 57.459 78.9781 57.3122C79.2208 57.1653 79.6103 56.3893 79.6103 56.3893L78.4432 55.9518C78.4432 55.9518 67.754 53.8634 67.2207 53.9608C66.6873 54.0582 32.0923 59.4021 31.7523 59.7421C31.4122 60.0822 30.9268 60.4223 31.0721 60.5676C31.2174 60.7129 36.8055 62.3684 36.8055 62.3684Z" fill="#263238" stroke="#263238" stroke-linecap="round" stroke-linejoin="round"/>
<path d="M33.1125 60.2769L44.5209 62.9466L78.3368 56.0896" stroke="#A9A9A9" stroke-linecap="round" stroke-linejoin="round"/>
<path d="M45.1396 63.2358L45.6355 63.5654L79.1294 56.5856" stroke="#A9A9A9" stroke-linecap="round" stroke-linejoin="round"/>
<path d="M35.1696 60.3024L35.5905 59.9204L44.0685 61.9833L44.1074 62.5946" stroke="#A9A9A9" stroke-linecap="round" stroke-linejoin="round"/>
<path d="M44.0685 61.9833L45.5906 61.7571L46.064 62.3384" stroke="#A9A9A9" stroke-linecap="round" stroke-linejoin="round"/>
<path d="M46.2094 62.2471L46.3547 61.7377L47.6446 61.4291L48.0805 61.9205L48.2618 61.3752L51.351 60.7579L51.8064 61.3018" stroke="#A9A9A9" stroke-linecap="round" stroke-linejoin="round"/>
<path d="M52.2783 61.0845L52.515 60.5931L53.6416 60.3025L54.1135 60.8119" stroke="#A9A9A9" stroke-linecap="round" stroke-linejoin="round"/>
<path d="M54.2948 60.7384L54.4401 60.1751L55.3315 59.9938L55.8034 60.3384L56.0761 59.8485L57.0753 59.6852L57.4214 59.9758" stroke="#A9A9A9" stroke-linecap="round" stroke-linejoin="round"/>
<path d="M35.5906 59.9204L36.9599 59.7212L37.3779 59.8665L37.5412 59.5219L37.9052 59.4845H38.5404L39.0138 59.3766L39.3943 59.1399H40.3577L41.1397 59.1219L41.303 58.9212L42.4476 58.7579L43.2101 58.8852L43.5921 58.4133L44.7367 58.3579L45.1367 58.3774L45.4094 58.1766L48.3712 57.7227L48.9704 57.7946L49.2806 57.45L51.9697 57.1234L53.0409 57.2867L53.2596 57.5594" stroke="#A9A9A9" stroke-linecap="round" stroke-linejoin="round"/>
<path d="M51.1517 58.0672L52.987 57.6866" stroke="#A9A9A9" stroke-linecap="round" stroke-linejoin="round"/>
<path d="M53.4228 57.6687L55.9112 58.3084L54.1869 58.7219L51.715 58.2125" stroke="#A9A9A9" stroke-linecap="round" stroke-linejoin="round"/>
<path d="M54.1854 58.7219V59.6118" stroke="#A9A9A9" stroke-linecap="round" stroke-linejoin="round"/>
<path d="M57.0753 59.6852L55.4947 59.3212L54.5135 59.4305L54.3861 59.7212" stroke="#A9A9A9" stroke-linecap="round" stroke-linejoin="round"/>
<path d="M55.3315 59.9938L53.5682 59.6118L52.951 59.8665L52.8596 60.0118" stroke="#A9A9A9" stroke-linecap="round" stroke-linejoin="round"/>
<path d="M54.4401 60.1751L53.4589 59.9579" stroke="#A9A9A9" stroke-linecap="round" stroke-linejoin="round"/>
<path d="M56.076 59.8485L54.8955 59.6298" stroke="#A9A9A9" stroke-linecap="round" stroke-linejoin="round"/>
<path d="M52.515 60.5931L51.0063 60.0852L52.2423 59.9025L53.4963 60.1751" stroke="#A9A9A9" stroke-linecap="round" stroke-linejoin="round"/>
<path d="M50.879 59.3211L52.0596 59.6852L53.2775 59.4125L52.151 59.0485L50.879 59.3211Z" stroke="#A9A9A9" stroke-linecap="round" stroke-linejoin="round"/>
<path d="M50.879 59.3212L50.4611 59.7751L50.9704 59.9579" stroke="#A9A9A9" stroke-linecap="round" stroke-linejoin="round"/>
<path d="M53.2776 59.4126L53.5682 59.6119" stroke="#A9A9A9" stroke-linecap="round" stroke-linejoin="round"/>
<path d="M51.3509 60.7564L43.7554 59.0126" stroke="#A9A9A9" stroke-linecap="round" stroke-linejoin="round"/>
<path d="M37.7599 59.9758L45.2641 61.7017" stroke="#A9A9A9" stroke-linecap="round" stroke-linejoin="round"/>
<path d="M37.9951 59.7032L46.118 61.6119" stroke="#A9A9A9" stroke-linecap="round" stroke-linejoin="round"/>
<path d="M39.177 59.5399L47.3538 61.3197" stroke="#A9A9A9" stroke-linecap="round" stroke-linejoin="round"/>
<path d="M41.1038 59.2493L47.6267 60.7025L49.1158 60.4118" stroke="#A9A9A9" stroke-linecap="round" stroke-linejoin="round"/>
<path d="M54.6633 59.4289L54.9734 58.7638L58.8057 57.9997L59.9652 58.2829L75.1788 55.5413L76.6245 55.79L77.1399 56.2724" stroke="#A9A9A9" stroke-linecap="round" stroke-linejoin="round"/>
<path d="M76.6245 55.79L61.6132 58.8328L61.7795 59.3152" stroke="#A9A9A9" stroke-linecap="round" stroke-linejoin="round"/>
<path d="M62.3937 57.8679L63.7899 58.3174L64.172 58.7159" stroke="#A9A9A9" stroke-linecap="round" stroke-linejoin="round"/>
<path d="M64.4222 57.4695L66.0178 57.9519L66.3174 58.301" stroke="#A9A9A9" stroke-linecap="round" stroke-linejoin="round"/>
<path d="M72.5182 56.0568L73.865 56.3729L74.1811 56.638" stroke="#A9A9A9" stroke-linecap="round" stroke-linejoin="round"/>
<path d="M74.2634 55.7571L75.378 56.0897L75.5938 56.3728" stroke="#A9A9A9" stroke-linecap="round" stroke-linejoin="round"/>
<path d="M56.542 59.414L56.8746 59.0484L58.3038 59.4649L61.0304 58.9496L59.6506 58.5001" stroke="#A9A9A9" stroke-linecap="round" stroke-linejoin="round"/>
<path d="M61.0304 58.9496L61.2461 59.414" stroke="#A9A9A9" stroke-linecap="round" stroke-linejoin="round"/>
<path d="M61.6132 58.8328L60.4656 58.4508" stroke="#A9A9A9" stroke-linecap="round" stroke-linejoin="round"/>
<path d="M56.8746 59.0484L59.2851 58.584" stroke="#A9A9A9" stroke-linecap="round" stroke-linejoin="round"/>
<path d="M55.0963 58.8492L55.9772 59.1159" stroke="#A9A9A9" stroke-linecap="round" stroke-linejoin="round"/>
<path d="M40.8879 59.862L41.0992 59.5803L41.8048 59.4215" stroke="#A9A9A9" stroke-linecap="round" stroke-linejoin="round"/>
<path d="M42.6183 60.3039L42.7936 60.0208L43.4303 59.8275" stroke="#A9A9A9" stroke-linecap="round" stroke-linejoin="round"/>
<path d="M44.5944 60.6036L44.7711 60.4268L45.5831 60.286" stroke="#A9A9A9" stroke-linecap="round" stroke-linejoin="round"/>
<path d="M42.0355 61.4156L42.7411 61.2043" stroke="#A9A9A9" stroke-linecap="round" stroke-linejoin="round"/>
<path d="M40.6572 61.0635L41.1351 60.8867" stroke="#A9A9A9" stroke-linecap="round" stroke-linejoin="round"/>
<path d="M37.198 60.1795L38.0265 60.1091" stroke="#A9A9A9" stroke-linecap="round" stroke-linejoin="round"/>
<path d="M38.4865 60.4987L39.3509 60.3923" stroke="#A9A9A9" stroke-linecap="round" stroke-linejoin="round"/>
<path d="M45.3195 59.3677L45.7255 59.0156L46.6783 59.2628V59.4741" stroke="#A9A9A9" stroke-linecap="round" stroke-linejoin="round"/>
<path d="M46.8191 59.2791L47.8438 59.0499L48.2139 59.3151L48.4431 58.8567L49.5202 58.6259L49.9442 59.0319L50.1914 58.5735L51.2865 58.3967L51.7105 58.7847" stroke="#A9A9A9" stroke-linecap="round" stroke-linejoin="round"/>
<path d="M46.0955 58.8912L50.1569 58.1151L50.915 58.2739" stroke="#A9A9A9" stroke-linecap="round" stroke-linejoin="round"/>
<path d="M47.8438 59.05L47.0842 58.7504" stroke="#A9A9A9" stroke-linecap="round" stroke-linejoin="round"/>
<path d="M48.4431 58.8567L47.7374 58.662" stroke="#A9A9A9" stroke-linecap="round" stroke-linejoin="round"/>
<path d="M50.1914 58.5737L49.2566 58.3789" stroke="#A9A9A9" stroke-linecap="round" stroke-linejoin="round"/>
<path d="M45.1367 58.3773L46.6423 58.7683" stroke="#A9A9A9" stroke-linecap="round" stroke-linejoin="round"/>
<path d="M45.5306 58.2201L47.243 58.68" stroke="#A9A9A9" stroke-linecap="round" stroke-linejoin="round"/>
<path d="M46.873 58.0432L48.3382 58.4852" stroke="#A9A9A9" stroke-linecap="round" stroke-linejoin="round"/>
<path d="M47.4198 57.9204L48.8325 58.4328L49.5202 58.626" stroke="#A9A9A9" stroke-linecap="round" stroke-linejoin="round"/>
<path d="M49.1322 57.8679L49.8034 58.0612" stroke="#A9A9A9" stroke-linecap="round" stroke-linejoin="round"/>
<path d="M49.2805 57.45L50.7562 57.7616L50.8626 58.1316" stroke="#A9A9A9" stroke-linecap="round" stroke-linejoin="round"/>
<path d="M52.3636 56.9841L68.5001 54.3534" stroke="#A9A9A9" stroke-linecap="round" stroke-linejoin="round"/>
<path d="M53.7809 57.4695L70.2244 54.6904" stroke="#A9A9A9" stroke-linecap="round" stroke-linejoin="round"/>
<path d="M55.0409 57.916L72.0073 54.9526" stroke="#A9A9A9" stroke-linecap="round" stroke-linejoin="round"/>
<path d="M59.2356 57.8635L73.7645 55.2672" stroke="#A9A9A9" stroke-linecap="round" stroke-linejoin="round"/>
<path d="M66.1287 54.7173L72.7474 55.9263" stroke="#A9A9A9" stroke-linecap="round" stroke-linejoin="round"/>
<path d="M67.7571 54.4897L73.7107 55.6987" stroke="#A9A9A9" stroke-linecap="round" stroke-linejoin="round"/>
<path d="M70.2784 56.4343L65.1653 54.9811" stroke="#A9A9A9" stroke-linecap="round" stroke-linejoin="round"/>
<path d="M68.6156 56.7488L63.9758 55.2957" stroke="#A9A9A9" stroke-linecap="round" stroke-linejoin="round"/>
<path d="M66.0418 57.2387L61.5758 55.5938" stroke="#A9A9A9" stroke-linecap="round" stroke-linejoin="round"/>
<path d="M64.623 57.5024L60.2799 55.838" stroke="#A9A9A9" stroke-linecap="round" stroke-linejoin="round"/>
<path d="M63.0125 57.799L58.7922 56.0657" stroke="#A9A9A9" stroke-linecap="round" stroke-linejoin="round"/>
<path d="M61.2267 58.0791L57.2162 56.2933" stroke="#A9A9A9" stroke-linecap="round" stroke-linejoin="round"/>
<path d="M58.915 58.0972L55.5876 56.5571" stroke="#A9A9A9" stroke-linecap="round" stroke-linejoin="round"/>
<path d="M57.357 58.2905L54.082 56.7833" stroke="#A9A9A9" stroke-linecap="round" stroke-linejoin="round"/>
<path d="M41.6685 58.5526L42.0535 58.1151" stroke="#A9A9A9" stroke-linecap="round" stroke-linejoin="round"/>
<path d="M43.4019 57.8875L44.1539 58.1676" stroke="#A9A9A9" stroke-linecap="round" stroke-linejoin="round"/>
<path d="M45.0123 57.6597L45.8183 57.9218" stroke="#A9A9A9" stroke-linecap="round" stroke-linejoin="round"/>
<path d="M46.939 57.2911L47.9532 57.6417" stroke="#A9A9A9" stroke-linecap="round" stroke-linejoin="round"/>
<path d="M48.8296 56.9766L49.9322 57.2387" stroke="#A9A9A9" stroke-linecap="round" stroke-linejoin="round"/>
<path d="M50.3696 56.7144L51.4902 57.0634" stroke="#A9A9A9" stroke-linecap="round" stroke-linejoin="round"/>
<path d="M52.0505 56.4343L52.9269 56.6965" stroke="#A9A9A9" stroke-linecap="round" stroke-linejoin="round"/>
<path d="M55.9038 55.838L56.6379 56.0657" stroke="#A9A9A9" stroke-linecap="round" stroke-linejoin="round"/>
<path d="M57.4438 55.5758L58.2843 55.7855" stroke="#A9A9A9" stroke-linecap="round" stroke-linejoin="round"/>
<path d="M58.8102 55.3301L59.6506 55.4889" stroke="#A9A9A9" stroke-linecap="round" stroke-linejoin="round"/>
<path d="M60.7188 55.068L61.6116 55.3302" stroke="#A9A9A9" stroke-linecap="round" stroke-linejoin="round"/>
<path d="M62.4342 54.8058L63.4499 55.0155" stroke="#A9A9A9" stroke-linecap="round" stroke-linejoin="round"/>
<path d="M63.712 54.5601L64.7278 54.8058" stroke="#A9A9A9" stroke-linecap="round" stroke-linejoin="round"/>
<path d="M65.1488 54.3503L66.0057 54.5781" stroke="#A9A9A9" stroke-linecap="round" stroke-linejoin="round"/>
<path d="M37.7299 63.1429C37.7299 63.1429 35.9786 60.8598 33.1126 60.271C30.2467 59.6822 28.6916 60.7084 27.2819 61.486C25.8721 62.2635 24.5133 62.8942 24.6586 63.477C24.7366 63.7576 24.8718 64.019 25.0556 64.2448C25.2394 64.4707 25.4679 64.6561 25.7268 64.7894C26.1643 64.9841 30.392 66.4898 32.3845 66.6845C34.3771 66.8793 36.7561 66.3444 37.4857 65.6148C38.2153 64.8853 37.7299 63.1429 37.7299 63.1429Z" fill="#A3A3A3" stroke="#263238" stroke-linecap="round" stroke-linejoin="round"/>
<path d="M37.2879 62.65C36.6002 61.9444 35.135 60.6874 33.1125 60.277C30.2466 59.6942 28.6915 60.7144 27.2818 61.4919C27.0136 61.6418 26.7485 61.7811 26.4938 61.9189C26.7934 61.8485 28.8668 61.3886 29.8571 61.9279C30.9268 62.5122 32.8698 63.3376 34.9583 63.3376C36.1463 63.3376 36.8774 62.9931 37.2879 62.65Z" fill="#707070" stroke="#263238" stroke-linecap="round" stroke-linejoin="round"/>
<path d="M37.8662 64.7115C36.9217 65.2894 35.8262 65.5722 34.7201 65.5235C31.9515 65.4261 30.8339 63.6284 29.0841 62.6576C27.3343 61.6868 24.6631 63.483 24.6631 63.483C24.7411 63.7636 24.8762 64.025 25.06 64.2509C25.2438 64.4767 25.4724 64.6621 25.7313 64.7954C26.1687 64.9902 30.3965 66.4958 32.389 66.6906C34.3815 66.8853 36.7605 66.3505 37.4901 65.6209C37.7127 65.3678 37.845 65.0479 37.8662 64.7115Z" fill="#263238" stroke="#263238" stroke-linecap="round" stroke-linejoin="round"/>
<path d="M9.07201 10.028L8.33643 10.4714L12.3949 49.4544L13.069 49.1713L9.07201 10.028Z" fill="#A3A3A3" stroke="#263238" stroke-linecap="round" stroke-linejoin="round"/>
<path d="M32.2572 47.0874L29.0812 56.307L36.431 54.7414C36.431 54.7414 35.1262 53.8291 35.3014 52.4373C35.4767 51.0455 37.258 46.7833 37.258 46.7833L32.2572 47.0874Z" fill="#A3A3A3" stroke="#263238" stroke-linecap="round" stroke-linejoin="round"/>
<path d="M35.3014 52.4313C35.4752 51.0395 37.258 46.7773 37.258 46.7773L33.7389 46.9916C33.4572 47.8036 31.8557 52.2351 31.7778 53.4755C31.7455 53.8679 31.8128 54.2621 31.9736 54.6214C32.1345 54.9808 32.3835 55.2936 32.6976 55.531L36.431 54.7355C36.431 54.7355 35.1261 53.8291 35.3014 52.4313Z" fill="#263238" stroke="#263238" stroke-linecap="round" stroke-linejoin="round"/>
<path d="M9.07202 10.028L13.0691 49.1713L58.4731 44.948L54.4761 15.3074L9.07202 10.028Z" fill="#263238" stroke="#263238" stroke-linecap="round" stroke-linejoin="round"/>
<path d="M10.6555 11.6115L14.5027 47.4364L57.0409 43.742L53.6476 16.7396L10.6555 11.6115Z" fill="#00FF00" stroke="#263238" stroke-linecap="round" stroke-linejoin="round"/>
<path d="M38.1783 28.801C39.8785 27.7783 40.2721 25.3122 39.0573 23.293C37.8426 21.2738 35.4797 20.466 33.7795 21.4888C32.0793 22.5116 31.6858 24.9776 32.9005 26.9968C34.1152 29.016 36.4782 29.8238 38.1783 28.801Z" fill="white" stroke="#263238" stroke-linecap="round" stroke-linejoin="round"/>
<path d="M36.7683 24.5988C37.2909 24.2174 37.3224 23.3707 36.8386 22.7077C36.3548 22.0447 35.5388 21.8164 35.0162 22.1978C34.4935 22.5792 34.462 23.4259 34.9459 24.0889C35.4297 24.7519 36.2456 24.9802 36.7683 24.5988Z" fill="white" stroke="#263238" stroke-linecap="round" stroke-linejoin="round"/>
<path d="M39.658 26.6888C38.5569 25.4363 37.0168 24.6828 35.6131 24.8581C34.2093 25.0333 33.3524 26.0566 33.1951 27.4454C34.2153 28.7937 35.8423 29.5203 37.3314 29.1502C38.5464 28.8491 39.3779 27.8963 39.658 26.6888Z" fill="white" stroke="#263238" stroke-linecap="round" stroke-linejoin="round"/>
<path d="M43.4558 33.3151H30.6362L30.2842 31.0829H43.1022L43.4558 33.3151Z" fill="white" stroke="#263238" stroke-linecap="round" stroke-linejoin="round"/>
<path d="M12.3949 49.4545L58.2619 45.1878L58.4731 44.9481L13.0691 49.1714L12.3949 49.4545Z" fill="white" stroke="#263238" stroke-linecap="round" stroke-linejoin="round"/>
<path d="M26.5417 60.0613C26.5417 60.0613 27.5065 59.143 28.4474 58.713C29.3882 58.283 33.3568 56.7864 37.8856 56.4268C42.4145 56.0673 53.1277 55.8665 53.8453 55.8441C54.5629 55.8216 55.3929 55.7542 55.4813 55.5085C55.5697 55.2628 55.6116 54.1602 55.6116 54.1602L52.4371 55.3347L52.1195 55.0351C52.1195 55.0351 48.6228 54.698 42.2123 55.2133C35.8017 55.7287 31.9006 56.7115 29.2788 57.5444C26.6571 58.3774 26.5417 60.0613 26.5417 60.0613Z" fill="#263238" stroke="#263238" stroke-linecap="round" stroke-linejoin="round"/>
<path d="M22.7321 58.3024L26.777 59.6942C26.777 59.6942 28.2991 57.4755 35.6924 56.3009C43.0858 55.1264 52.4356 55.3451 52.4356 55.3451L55.6102 54.1706C55.6102 54.1706 43.4753 53.4755 35.6056 54.5182C27.7358 55.5609 23.7328 57.0845 22.7321 58.3024Z" fill="#707070" stroke="#263238" stroke-linecap="round" stroke-linejoin="round"/>
<path d="M22.7321 58.3025C22.7321 58.3025 21.4272 59.9115 21.7763 60.0418C22.1253 60.1722 26.0804 60.2156 26.386 60.0853C26.4738 60.0492 26.5536 59.9961 26.6207 59.9289C26.6878 59.8618 26.741 59.7821 26.777 59.6943L22.7321 58.3025Z" fill="#263238" stroke="#263238" stroke-linecap="round" stroke-linejoin="round"/>
<path d="M7.61731 60.1212L8.41282 66.8179C8.41282 68.0539 10.4877 69.0561 13.0466 69.0561C15.6054 69.0561 17.6803 68.0539 17.6803 66.8179L18.4758 60.1212H7.61731Z" fill="white" stroke="#263238" stroke-linecap="round" stroke-linejoin="round"/>
<path d="M13.0525 61.6597C16.051 61.6597 18.4818 60.9716 18.4818 60.1227C18.4818 59.2738 16.051 58.5856 13.0525 58.5856C10.054 58.5856 7.62329 59.2738 7.62329 60.1227C7.62329 60.9716 10.054 61.6597 13.0525 61.6597Z" fill="white" stroke="#263238" stroke-linecap="round" stroke-linejoin="round"/>
<path d="M13.0525 61.3212C15.3891 61.3212 17.2833 60.7846 17.2833 60.1227C17.2833 59.4608 15.3891 58.9242 13.0525 58.9242C10.7159 58.9242 8.82178 59.4608 8.82178 60.1227C8.82178 60.7846 10.7159 61.3212 13.0525 61.3212Z" fill="#263238"/>
<path d="M3.72209 45.1023C4.22397 45.2401 5.37004 45.0469 5.37004 45.0469C5.37004 45.0469 5.01199 44.3248 4.98352 44.2828C4.65244 43.7884 3.72359 43.0289 3.08389 43.2116C2.97843 43.245 2.88116 43.3002 2.7984 43.3736C2.71563 43.447 2.64921 43.537 2.60345 43.6377C2.55768 43.7384 2.53359 43.8476 2.53274 43.9582C2.53188 44.0688 2.55429 44.1784 2.59849 44.2798C2.78426 44.7158 3.29662 44.9899 3.72209 45.1023Z" fill="#263238"/>
<path d="M15.4601 43.6596C15.4706 43.6596 15.559 42.8611 15.5575 42.8101C15.5575 42.2109 15.1994 41.0693 14.5642 40.8626C14.4579 40.8321 14.3463 40.8244 14.2368 40.84C14.1273 40.8555 14.0223 40.8939 13.9286 40.9527C13.8349 41.0115 13.7546 41.0893 13.693 41.1812C13.6314 41.273 13.5898 41.3768 13.5709 41.4858C13.475 41.9457 13.7552 42.4536 14.0473 42.7877C14.3904 43.1922 15.4586 43.6596 15.4601 43.6596Z" fill="#263238"/>
<path d="M18.3035 38.9689C17.6383 38.9929 16.9896 40.0042 16.8278 40.5764C16.8143 40.6259 16.678 41.4244 16.6975 41.4229H16.711C16.6076 41.5817 16.4982 41.7525 16.3829 41.9427C16.1731 42.2948 15.9334 42.6918 15.7117 43.1413C15.462 43.6271 15.2414 44.1274 15.051 44.6394C14.8345 45.2099 14.6691 45.7985 14.5566 46.3982C14.5566 46.4057 14.5566 46.4132 14.5566 46.4207C14.5327 46.2274 14.4458 45.6881 14.4338 45.6476C14.2735 45.0754 13.6278 44.0626 12.9626 44.0371C12.852 44.0358 12.7424 44.0578 12.6408 44.1016C12.5392 44.1454 12.4481 44.2101 12.3732 44.2915C12.2983 44.3729 12.2413 44.4692 12.2061 44.574C12.1709 44.6789 12.1581 44.79 12.1686 44.9001C12.1986 45.3705 12.6016 45.7855 12.9716 46.0297C13.3896 46.3068 14.4697 46.4791 14.5476 46.4911C14.4481 47.1042 14.39 47.7234 14.3739 48.3443C14.3619 48.7053 14.3604 49.0694 14.3649 49.4349C14.3379 49.2686 14.3124 49.1203 14.3079 49.0993C14.1476 48.5271 13.5004 47.5158 12.8353 47.4889C12.7247 47.4877 12.615 47.5098 12.5135 47.5539C12.4121 47.5979 12.321 47.6628 12.2462 47.7443C12.1715 47.8258 12.1147 47.9222 12.0797 48.0271C12.0446 48.1321 12.032 48.2432 12.0428 48.3533C12.0727 48.8222 12.4757 49.2372 12.8458 49.4829C13.2158 49.7286 14.1327 49.8964 14.3739 49.9323C14.3739 50.0731 14.3739 50.214 14.3829 50.3533C14.3993 51.026 14.4188 51.7016 14.4188 52.3563C14.4188 52.5885 14.4098 52.8177 14.4008 53.0454C14.3769 52.8956 14.3559 52.7743 14.3514 52.7548C14.1911 52.1825 13.5454 51.1698 12.8787 51.1443C12.7682 51.1434 12.6587 51.1657 12.5573 51.2098C12.4559 51.2539 12.3649 51.3188 12.2902 51.4003C12.2155 51.4817 12.1587 51.578 12.1236 51.6828C12.0884 51.7877 12.0757 51.8987 12.0862 52.0087C12.1162 52.4777 12.5192 52.8926 12.8892 53.1383C13.2592 53.384 14.0877 53.5338 14.3754 53.5878C14.3589 53.8215 14.3454 54.0567 14.3199 54.2829C14.299 54.4327 14.29 54.5825 14.26 54.7398C14.23 54.8971 14.2091 55.0395 14.1836 55.1893C14.1237 55.4754 14.0637 55.7721 13.9993 56.0492C13.9544 56.2425 13.9094 56.4267 13.8645 56.6125C13.8645 56.3803 13.8645 55.9279 13.8645 55.8904C13.7826 55.3738 13.5696 54.8869 13.2458 54.4762C13.2382 54.4184 13.2262 54.3613 13.2098 54.3054C13.1803 54.1989 13.1288 54.0998 13.0585 54.0145C12.9883 53.9292 12.9008 53.8596 12.8019 53.8103C12.703 53.761 12.5949 53.7331 12.4845 53.7283C12.3741 53.7235 12.2639 53.742 12.1611 53.7825C11.5499 54.0447 11.3072 55.2207 11.3626 55.8125C11.3626 55.847 11.4435 56.2215 11.4959 56.4582C11.445 56.3234 11.3956 56.193 11.3461 56.0567C11.2383 55.784 11.1229 55.5159 11.0001 55.2267L10.8053 54.8103C10.7424 54.6709 10.6555 54.5301 10.5866 54.3878C10.4113 54.0612 10.2165 53.7391 10.0143 53.42C10.2525 53.3256 11.0914 52.9705 11.4031 52.6559C11.7147 52.3413 12.0188 51.8469 11.9484 51.3825C11.9356 51.2727 11.8998 51.1668 11.8433 51.0717C11.7869 50.9767 11.711 50.8946 11.6207 50.8308C11.5303 50.7671 11.4276 50.7231 11.3191 50.7017C11.2106 50.6804 11.0988 50.6821 10.9911 50.7069C10.3454 50.8731 9.92889 51.9982 9.89293 52.5915C9.89293 52.629 9.91391 53.0574 9.93039 53.2926C9.80754 53.1009 9.68469 52.9106 9.55435 52.7204C9.17532 52.1735 8.77532 51.6312 8.37981 51.0889C8.25696 50.9226 8.13861 50.7563 8.01876 50.5885C8.10415 50.5555 9.1109 50.163 9.45997 49.805C9.77008 49.4874 10.0757 48.996 10.0053 48.5316C9.99206 48.4217 9.95595 48.3159 9.89927 48.2209C9.8426 48.1259 9.76663 48.0438 9.67628 47.98C9.58592 47.9162 9.48319 47.8721 9.3747 47.8504C9.26622 47.8288 9.15441 47.8301 9.04648 47.8544C8.40228 48.0207 7.9858 49.1473 7.94985 49.7406C7.94985 49.7855 7.97981 50.4027 7.99629 50.5585C7.73262 50.1915 7.47344 49.8229 7.23224 49.4499C6.90376 48.9469 6.6085 48.4229 6.34834 47.8814C6.38729 47.8664 7.44048 47.4604 7.79853 47.0948C8.10715 46.7757 8.41427 46.2858 8.34386 45.8199C8.33066 45.7101 8.29454 45.6043 8.23785 45.5094C8.18116 45.4145 8.10516 45.3325 8.01477 45.2688C7.92438 45.2051 7.82161 45.1611 7.71313 45.1396C7.60466 45.1182 7.49288 45.1198 7.38505 45.1443C6.74085 45.3106 6.32437 46.4357 6.28841 47.0304C6.28841 47.0694 6.31088 47.5383 6.32736 47.7615L6.29141 47.772C6.04379 47.2205 5.84623 46.648 5.70114 46.0611C5.61725 45.739 5.55133 45.4259 5.50039 45.1203C5.70414 45.0649 6.63298 44.8027 6.99853 44.5076C7.36407 44.2124 7.69966 43.7705 7.68018 43.309C7.67943 43.1984 7.6554 43.0892 7.60965 42.9885C7.5639 42.8878 7.49746 42.7978 7.41465 42.7245C7.33184 42.6511 7.23451 42.596 7.129 42.5628C7.0235 42.5295 6.91217 42.5189 6.80227 42.5315C6.14309 42.6259 5.60376 43.6986 5.50489 44.2858C5.50489 44.3173 5.47942 44.6469 5.46893 44.8851C5.44646 44.7473 5.42099 44.6049 5.40301 44.4716C5.3311 43.9727 5.29664 43.5128 5.26968 43.1038C5.25619 42.8716 5.24721 42.6619 5.24271 42.4641C5.415 42.3053 6.09815 41.6581 6.27643 41.2386C6.4547 40.8191 6.55957 40.2618 6.32587 39.8543C6.27428 39.7565 6.20268 39.6706 6.11571 39.6023C6.02875 39.534 5.92838 39.4847 5.82113 39.4577C5.71387 39.4307 5.60214 39.4266 5.49319 39.4456C5.38425 39.4647 5.28053 39.5064 5.18878 39.5682C4.64795 39.9562 4.66443 41.1562 4.8457 41.7225C4.86069 41.772 5.19327 42.509 5.20226 42.5016L5.21275 42.4911C5.21275 42.6813 5.21275 42.8836 5.22623 43.1068C5.24421 43.5158 5.26968 43.9787 5.3296 44.4806C5.38988 45.0222 5.48091 45.5599 5.60226 46.0911C5.73644 46.6863 5.92345 47.2684 6.16107 47.8304L6.17006 47.8499C6.04272 47.7001 5.67418 47.3001 5.64122 47.2731C5.19177 46.8836 4.09514 46.3967 3.52585 46.7413C3.43284 46.8012 3.3535 46.8801 3.29299 46.9727C3.23248 47.0653 3.19214 47.1696 3.17462 47.2789C3.1571 47.3881 3.16277 47.4998 3.19128 47.6067C3.21979 47.7136 3.27049 47.8133 3.34008 47.8993C3.62472 48.2754 4.18952 48.3982 4.63297 48.3982C5.13485 48.3982 6.12362 47.9488 6.20152 47.9143C6.4572 48.4801 6.7505 49.0282 7.07943 49.5548C7.26819 49.8634 7.46894 50.1675 7.67868 50.4701C7.56483 50.3458 7.46145 50.2364 7.44497 50.223C6.99553 49.8334 5.8989 49.345 5.3296 49.6911C5.2366 49.751 5.15726 49.8299 5.09675 49.9225C5.03623 50.0151 4.9959 50.1195 4.97838 50.2287C4.96085 50.3379 4.96653 50.4497 4.99504 50.5566C5.02354 50.6635 5.07424 50.7632 5.14383 50.8492C5.42698 51.2237 5.99328 51.3481 6.43673 51.3481C6.88018 51.3481 7.73861 50.9825 7.96183 50.8821C8.04273 50.9975 8.12063 51.1143 8.20153 51.2297C8.58656 51.781 8.97307 52.3293 9.33562 52.8777C9.46297 53.0724 9.58282 53.2672 9.70267 53.4634C9.60079 53.3526 9.5139 53.2612 9.50042 53.2477C9.05098 52.8582 7.95284 52.3713 7.38355 52.7159C7.28888 52.7735 7.2074 52.8504 7.14442 52.9416C7.08145 53.0329 7.03838 53.1363 7.01803 53.2453C6.99768 53.3542 7.0005 53.4662 7.02631 53.574C7.05212 53.6818 7.10033 53.783 7.16782 53.8709C7.45097 54.247 8.01576 54.3698 8.46071 54.3713C8.90566 54.3728 9.6787 54.0402 9.94537 53.9219C10.0607 54.1256 10.1791 54.3294 10.2824 54.5316C10.3499 54.6709 10.4323 54.8013 10.4847 54.9451L10.6705 55.3661C10.7798 55.6387 10.8922 55.9174 10.9926 56.1855C11.0615 56.3713 11.1259 56.5496 11.1903 56.7294C11.0645 56.5346 10.8128 56.1586 10.7873 56.1301C10.4023 55.6807 9.39105 55.029 8.77682 55.2837C8.67575 55.3289 8.58535 55.3949 8.5115 55.4774C8.43766 55.5599 8.38203 55.6571 8.34825 55.7625C8.31447 55.868 8.30329 55.9794 8.31544 56.0894C8.32759 56.1995 8.36279 56.3057 8.41876 56.4013C8.64199 56.8148 9.18132 57.023 9.61727 57.0904C10.1012 57.1638 11.1064 56.8867 11.2323 56.8507C11.3371 57.1503 11.4375 57.438 11.5319 57.7136C11.8435 58.6575 12.0682 59.4575 12.218 60.0223L12.6675 59.9564C12.6631 59.9441 12.6596 59.9316 12.657 59.9189C12.4922 59.3511 12.2465 58.5421 11.9079 57.5863C11.8031 57.2867 11.6832 56.9631 11.5574 56.635C11.8476 56.4668 12.1277 56.2817 12.3963 56.0807C12.7873 56.3968 13.7132 56.6994 13.833 56.7369C13.7566 57.044 13.6832 57.3361 13.6038 57.6193C13.3431 58.5796 13.0885 59.3691 12.9027 59.9234L13.3926 59.8515C13.5604 59.3047 13.7716 58.5781 13.9918 57.7196C14.0697 57.4095 14.1416 57.0754 14.2225 56.7324C14.3514 56.7399 15.3941 56.7998 15.8525 56.6245C16.266 56.4642 16.7514 56.1466 16.8802 55.6957C16.9146 55.5905 16.9265 55.4793 16.915 55.3693C16.9036 55.2593 16.8691 55.153 16.8139 55.0572C16.7586 54.9614 16.6838 54.8783 16.5943 54.8133C16.5048 54.7483 16.4027 54.7028 16.2945 54.6799C15.6398 54.5616 14.7888 55.408 14.5087 55.9324C14.4922 55.9638 14.3499 56.3189 14.263 56.5451C14.2945 56.4043 14.3244 56.2679 14.3544 56.1241C14.4143 55.838 14.4667 55.5503 14.5237 55.2417C14.5446 55.0919 14.5671 54.9421 14.5896 54.7923C14.6121 54.6425 14.6241 54.4777 14.642 54.3189C14.675 53.9503 14.69 53.5698 14.6975 53.1953C14.9491 53.2477 15.842 53.42 16.278 53.3256C16.714 53.2312 17.2383 52.99 17.4346 52.563C17.4843 52.4643 17.5128 52.3563 17.5181 52.2459C17.5234 52.1354 17.5053 52.0252 17.4652 51.9222C17.4251 51.8192 17.3637 51.7257 17.2852 51.648C17.2066 51.5703 17.1125 51.5099 17.0091 51.4709C16.3799 51.2537 15.4106 51.9638 15.0615 52.4387C15.039 52.4687 14.8218 52.8387 14.7064 53.038C14.7064 52.8102 14.7064 52.5885 14.7064 52.3533C14.693 51.6881 14.6585 51.0155 14.627 50.3428C14.6166 50.1376 14.6091 49.9323 14.6016 49.7271C14.69 49.7465 15.7477 49.9758 16.236 49.8694C16.669 49.775 17.1964 49.5338 17.3926 49.1068C17.4426 49.0082 17.4713 48.9001 17.4767 48.7896C17.4821 48.6791 17.4641 48.5687 17.424 48.4657C17.3838 48.3626 17.3224 48.2692 17.2437 48.1915C17.1649 48.1138 17.0707 48.0535 16.9671 48.0147C16.3379 47.7975 15.3686 48.5061 15.0196 48.9825C14.9926 49.0185 14.6795 49.5503 14.6076 49.6896C14.5896 49.2402 14.5761 48.7907 14.5821 48.3413C14.5852 47.7399 14.6277 47.1394 14.7094 46.5435C14.7499 46.5525 15.8525 46.7952 16.3574 46.6933C16.7904 46.599 17.3177 46.3578 17.5155 45.9308C17.5652 45.832 17.5936 45.7238 17.5988 45.6133C17.6039 45.5029 17.5858 45.3925 17.5455 45.2895C17.5053 45.1865 17.4438 45.0931 17.365 45.0154C17.2863 44.9377 17.192 44.8775 17.0885 44.8386C16.4593 44.6214 15.49 45.33 15.1334 45.8064C15.1094 45.8379 14.8712 46.2424 14.7634 46.4387L14.7274 46.4267C14.8249 45.8302 14.9753 45.2436 15.1769 44.6739C15.2847 44.3592 15.4046 44.0641 15.5274 43.775C15.7282 43.8409 16.648 44.1345 17.1095 44.0851C17.5709 44.0356 18.1012 43.8589 18.3439 43.4559C18.4047 43.3635 18.4452 43.2594 18.463 43.1502C18.4808 43.0411 18.4753 42.9295 18.4471 42.8227C18.4188 42.7158 18.3683 42.6161 18.2989 42.53C18.2295 42.444 18.1428 42.3735 18.0443 42.3233C17.445 42.0386 16.3963 42.6364 15.9948 43.0723C15.9739 43.0963 15.7746 43.3615 15.6323 43.5562C15.6907 43.4289 15.7477 43.2956 15.8061 43.1742C16.0203 42.7248 16.2465 42.3158 16.4488 41.9607C16.5656 41.7585 16.675 41.5787 16.7799 41.4124C17.0106 41.375 17.9379 41.2117 18.3185 40.963C18.699 40.7143 19.093 40.3053 19.123 39.8364C19.1345 39.7237 19.1216 39.6099 19.0852 39.5027C19.0487 39.3954 18.9896 39.2973 18.9118 39.215C18.8341 39.1327 18.7395 39.0681 18.6345 39.0256C18.5295 38.9832 18.4166 38.9638 18.3035 38.9689Z" fill="#263238"/>
</svg>
