<svg width="109" height="72" viewBox="0 0 109 72" fill="none" xmlns="http://www.w3.org/2000/svg">
<path d="M31.7417 7.12231L33.1634 8.54405" stroke="#263238" stroke-linecap="round" stroke-linejoin="round"/>
<path d="M33.1634 7.12231L31.7417 8.54405" stroke="#263238" stroke-linecap="round" stroke-linejoin="round"/>
<path d="M102.571 33.3832L103.992 34.8049" stroke="#263238" stroke-linecap="round" stroke-linejoin="round"/>
<path d="M103.992 33.3832L102.571 34.8049" stroke="#263238" stroke-linecap="round" stroke-linejoin="round"/>
<path d="M20.4967 56.2404L21.9184 57.6621" stroke="#263238" stroke-linecap="round" stroke-linejoin="round"/>
<path d="M21.9184 56.2404L20.4967 57.6621" stroke="#263238" stroke-linecap="round" stroke-linejoin="round"/>
<path d="M63.0364 1.90576L64.4581 3.32749" stroke="#263238" stroke-linecap="round" stroke-linejoin="round"/>
<path d="M64.4581 1.90576L63.0364 3.32749" stroke="#263238" stroke-linecap="round" stroke-linejoin="round"/>
<path d="M63.9532 67.0209L65.375 68.4426" stroke="#263238" stroke-linecap="round" stroke-linejoin="round"/>
<path d="M65.375 67.0209L63.9532 68.4426" stroke="#263238" stroke-linecap="round" stroke-linejoin="round"/>
<path d="M79.0994 61.8043L80.2215 62.9279" stroke="#263238" stroke-linecap="round" stroke-linejoin="round"/>
<path d="M80.2215 61.8043L79.0994 62.9279" stroke="#263238" stroke-linecap="round" stroke-linejoin="round"/>
<path d="M97.8561 5.3501L98.9782 6.4722" stroke="#263238" stroke-linecap="round" stroke-linejoin="round"/>
<path d="M98.9782 5.3501L97.8561 6.4722" stroke="#263238" stroke-linecap="round" stroke-linejoin="round"/>
<path d="M50.2992 9.03243C50.2992 8.85465 50.2465 8.68086 50.1477 8.53304C50.049 8.38522 49.9086 8.27 49.7443 8.20197C49.5801 8.13393 49.3994 8.11613 49.225 8.15082C49.0506 8.1855 48.8905 8.27111 48.7647 8.39682C48.639 8.52253 48.5534 8.6827 48.5187 8.85706C48.4841 9.03143 48.5019 9.21217 48.5699 9.37642C48.6379 9.54067 48.7531 9.68105 48.901 9.77982C49.0488 9.87859 49.2226 9.93131 49.4003 9.93131C49.6387 9.93131 49.8674 9.83661 50.036 9.66803C50.2045 9.49946 50.2992 9.27083 50.2992 9.03243Z" stroke="#263238" stroke-linecap="round" stroke-linejoin="round"/>
<path d="M7.29362 5.96419C7.29362 5.78641 7.2409 5.61262 7.14213 5.4648C7.04336 5.31698 6.90297 5.20177 6.73872 5.13373C6.57447 5.0657 6.39374 5.0479 6.21937 5.08258C6.045 5.11726 5.88484 5.20287 5.75913 5.32858C5.63342 5.4543 5.54781 5.61446 5.51312 5.78883C5.47844 5.96319 5.49624 6.14393 5.56427 6.30818C5.63231 6.47243 5.74752 6.61281 5.89534 6.71158C6.04316 6.81035 6.21695 6.86307 6.39473 6.86307C6.63313 6.86307 6.86177 6.76837 7.03034 6.5998C7.19891 6.43122 7.29362 6.20259 7.29362 5.96419Z" stroke="#263238" stroke-linecap="round" stroke-linejoin="round"/>
<path d="M95.8366 60.4245C95.8366 60.2467 95.7839 60.0729 95.6851 59.9251C95.5863 59.7773 95.4459 59.6621 95.2817 59.5941C95.1174 59.526 94.9367 59.5082 94.7623 59.5429C94.588 59.5776 94.4278 59.6632 94.3021 59.7889C94.1764 59.9146 94.0908 60.0748 94.0561 60.2492C94.0214 60.4235 94.0392 60.6043 94.1072 60.7685C94.1753 60.9328 94.2905 61.0731 94.4383 61.1719C94.5861 61.2707 94.7599 61.3234 94.9377 61.3234C95.1761 61.3234 95.4047 61.2287 95.5733 61.0601C95.7419 60.8916 95.8366 60.6629 95.8366 60.4245Z" stroke="#263238" stroke-linecap="round" stroke-linejoin="round"/>
<path d="M22.0473 68.8606C22.0473 68.6828 21.9946 68.509 21.8958 68.3612C21.797 68.2133 21.6566 68.0981 21.4924 68.0301C21.3281 67.9621 21.1474 67.9443 20.973 67.9789C20.7987 68.0136 20.6385 68.0992 20.5128 68.2249C20.3871 68.3507 20.3015 68.5108 20.2668 68.6852C20.2321 68.8596 20.2499 69.0403 20.3179 69.2045C20.386 69.3688 20.5012 69.5092 20.649 69.6079C20.7968 69.7067 20.9706 69.7594 21.1484 69.7594C21.3868 69.7594 21.6154 69.6647 21.784 69.4962C21.9526 69.3276 22.0473 69.099 22.0473 68.8606Z" stroke="#263238" stroke-linecap="round" stroke-linejoin="round"/>
<path d="M7.34452 34.4978C7.34452 34.32 7.2918 34.1462 7.19303 33.9984C7.09426 33.8505 6.95387 33.7353 6.78962 33.6673C6.62537 33.5993 6.44464 33.5815 6.27027 33.6161C6.09591 33.6508 5.93574 33.7364 5.81003 33.8622C5.68432 33.9879 5.59871 34.148 5.56403 34.3224C5.52934 34.4968 5.54714 34.6775 5.61518 34.8417C5.68321 35.006 5.79842 35.1464 5.94624 35.2452C6.09406 35.3439 6.26785 35.3966 6.44564 35.3966C6.68403 35.3966 6.91267 35.3019 7.08124 35.1334C7.24982 34.9648 7.34452 34.7362 7.34452 34.4978Z" stroke="#263238" stroke-linecap="round" stroke-linejoin="round"/>
<path d="M50.888 52.447C50.888 52.2692 50.8353 52.0954 50.7365 51.9476C50.6377 51.7998 50.4973 51.6846 50.3331 51.6165C50.1688 51.5485 49.9881 51.5307 49.8137 51.5654C49.6394 51.6001 49.4792 51.6857 49.3535 51.8114C49.2278 51.9371 49.1422 52.0972 49.1075 52.2716C49.0728 52.446 49.0906 52.6267 49.1586 52.791C49.2267 52.9552 49.3419 53.0956 49.4897 53.1944C49.6375 53.2931 49.8113 53.3459 49.9891 53.3459C50.2275 53.3459 50.4561 53.2512 50.6247 53.0826C50.7933 52.914 50.888 52.6854 50.888 52.447Z" stroke="#263238" stroke-linecap="round" stroke-linejoin="round"/>
<path d="M106.346 51.8882L108 52.1698" stroke="#263238" stroke-linecap="round" stroke-linejoin="round"/>
<path d="M22.9912 54.1518L73.4994 46.2881L105.291 51.7084" stroke="#263238" stroke-linecap="round" stroke-linejoin="round"/>
<path d="M1 57.5766L20.7949 54.4934" stroke="#263238" stroke-linecap="round" stroke-linejoin="round"/>
<path d="M86.5257 9.9762L55.9786 13.6526L56.0386 51.7712L86.8238 56.6791L100.277 53.8911L100.337 11.6541L86.5257 9.9762Z" fill="#DBDBDB" stroke="#263238" stroke-linecap="round" stroke-linejoin="round"/>
<path d="M98.8883 52.7122L89.0995 51.2335" stroke="#263238" stroke-linecap="round" stroke-linejoin="round"/>
<path d="M92.9917 28.1622C95.4276 28.1622 97.4022 25.4511 97.4022 22.1067C97.4022 18.7624 95.4276 16.0513 92.9917 16.0513C90.5558 16.0513 88.5812 18.7624 88.5812 22.1067C88.5812 25.4511 90.5558 28.1622 92.9917 28.1622Z" fill="white"/>
<path d="M92.9917 27.5914C95.1976 27.5914 96.9858 25.1359 96.9858 22.1068C96.9858 19.0776 95.1976 16.6221 92.9917 16.6221C90.7859 16.6221 88.9977 19.0776 88.9977 22.1068C88.9977 25.1359 90.7859 27.5914 92.9917 27.5914Z" fill="#00FF00"/>
<path d="M92.9917 24.1186C93.8009 24.1186 94.4568 23.2178 94.4568 22.1066C94.4568 20.9954 93.8009 20.0946 92.9917 20.0946C92.1825 20.0946 91.5265 20.9954 91.5265 22.1066C91.5265 23.2178 92.1825 24.1186 92.9917 24.1186Z" fill="#263238" stroke="#263238" stroke-linecap="round" stroke-linejoin="round"/>
<path d="M83.6148 21.5118L64.969 22.0197V38.676L84.0388 40.7524V21.8939L83.6148 21.5118Z" fill="#263238" stroke="#263238" stroke-linecap="round" stroke-linejoin="round"/>
<path d="M63.4963 35.0206C65.9322 35.0206 67.9069 32.3095 67.9069 28.9651C67.9069 25.6208 65.9322 22.9097 63.4963 22.9097C61.0605 22.9097 59.0858 25.6208 59.0858 28.9651C59.0858 32.3095 61.0605 35.0206 63.4963 35.0206Z" fill="white"/>
<path d="M63.4964 34.4498C65.7022 34.4498 67.4904 31.9943 67.4904 28.9652C67.4904 25.936 65.7022 23.4805 63.4964 23.4805C61.2905 23.4805 59.5023 25.936 59.5023 28.9652C59.5023 31.9943 61.2905 34.4498 63.4964 34.4498Z" fill="#00FF00"/>
<path d="M63.4964 30.9771C64.3056 30.9771 64.9616 30.0763 64.9616 28.9651C64.9616 27.8539 64.3056 26.9531 63.4964 26.9531C62.6872 26.9531 62.0312 27.8539 62.0312 28.9651C62.0312 30.0763 62.6872 30.9771 63.4964 30.9771Z" fill="#263238" stroke="#263238" stroke-linecap="round" stroke-linejoin="round"/>
<path d="M92.9917 40.4709C95.4276 40.4709 97.4022 37.7598 97.4022 34.4155C97.4022 31.0711 95.4276 28.36 92.9917 28.36C90.5558 28.36 88.5812 31.0711 88.5812 34.4155C88.5812 37.7598 90.5558 40.4709 92.9917 40.4709Z" fill="white"/>
<path d="M92.9917 39.9C95.1976 39.9 96.9858 37.4445 96.9858 34.4153C96.9858 31.3862 95.1976 28.9307 92.9917 28.9307C90.7859 28.9307 88.9977 31.3862 88.9977 34.4153C88.9977 37.4445 90.7859 39.9 92.9917 39.9Z" fill="#00FF00"/>
<path d="M92.9917 36.4273C93.8009 36.4273 94.4568 35.5265 94.4568 34.4153C94.4568 33.3041 93.8009 32.4033 92.9917 32.4033C92.1825 32.4033 91.5265 33.3041 91.5265 34.4153C91.5265 35.5265 92.1825 36.4273 92.9917 36.4273Z" fill="#263238" stroke="#263238" stroke-linecap="round" stroke-linejoin="round"/>
<path d="M92.9917 52.7811C95.4276 52.7811 97.4022 50.07 97.4022 46.7256C97.4022 43.3813 95.4276 40.6702 92.9917 40.6702C90.5558 40.6702 88.5812 43.3813 88.5812 46.7256C88.5812 50.07 90.5558 52.7811 92.9917 52.7811Z" fill="white"/>
<path d="M92.9917 52.2103C95.1976 52.2103 96.9858 49.7548 96.9858 46.7257C96.9858 43.6965 95.1976 41.241 92.9917 41.241C90.7859 41.241 88.9977 43.6965 88.9977 46.7257C88.9977 49.7548 90.7859 52.2103 92.9917 52.2103Z" fill="#00FF00"/>
<path d="M92.9917 48.7376C93.8009 48.7376 94.4568 47.8368 94.4568 46.7256C94.4568 45.6144 93.8009 44.7136 92.9917 44.7136C92.1825 44.7136 91.5265 45.6144 91.5265 46.7256C91.5265 47.8368 92.1825 48.7376 92.9917 48.7376Z" fill="#263238" stroke="#263238" stroke-linecap="round" stroke-linejoin="round"/>
<path d="M77.0455 28.0587C76.9639 28.0588 76.8833 28.0398 76.8103 28.0033C76.0882 27.6422 75.0125 26.5396 74.2635 25.3816C73.5384 24.2699 72.7878 22.64 73.3316 21.1988C73.5968 20.4961 74.6605 19.3111 80.8118 17.1193C84.1077 15.9463 87.3407 15.0354 87.3722 15.0219C87.4402 14.9995 87.5121 14.9911 87.5835 14.9972C87.6549 15.0033 87.7244 15.0238 87.7876 15.0575C87.8509 15.0912 87.9066 15.1373 87.9515 15.1932C87.9965 15.249 88.0296 15.3134 88.049 15.3824C88.0683 15.4514 88.0735 15.5236 88.0641 15.5946C88.0548 15.6657 88.0312 15.7341 87.9947 15.7958C87.9582 15.8574 87.9095 15.9111 87.8517 15.9534C87.7939 15.9958 87.7281 16.0259 87.6583 16.0422C82.4343 17.5073 74.8418 20.1905 74.3249 21.5673C73.9159 22.649 74.668 24.0572 75.1519 24.7988C75.9339 25.9973 76.8882 26.8527 77.2867 27.046C77.3936 27.0992 77.4794 27.1871 77.53 27.2952C77.5806 27.4034 77.5932 27.5255 77.5655 27.6417C77.5379 27.7579 77.4718 27.8613 77.3779 27.9351C77.284 28.0089 77.1679 28.0488 77.0485 28.0482L77.0455 28.0587Z" fill="white" stroke="#263238" stroke-linecap="round" stroke-linejoin="round"/>
<path d="M76.665 31.1959C76.5581 31.1968 76.4535 31.1649 76.3654 31.1045C74.8672 30.0888 74.2979 27.9659 74.6949 24.7944C74.8762 23.3367 75.5608 22.0183 76.7923 20.7659C78.4403 19.0835 81.11 17.5014 84.7324 16.0617C92.8224 12.8527 96.6172 13.9224 96.776 13.9643C96.9086 14.0056 97.0197 14.0975 97.0851 14.22C97.1506 14.3425 97.1653 14.4859 97.1259 14.6191C97.0866 14.7523 96.9964 14.8647 96.8748 14.932C96.7533 14.9992 96.6101 15.016 96.4764 14.9786C96.4254 14.9651 92.7954 13.9958 85.125 17.04C79.1848 19.3966 76.1182 21.9749 75.7496 24.9202C75.4065 27.6633 75.814 29.4476 76.9616 30.2206C77.0557 30.2844 77.1268 30.3767 77.1644 30.4839C77.202 30.5911 77.2042 30.7076 77.1707 30.8162C77.1371 30.9248 77.0696 31.0197 76.978 31.087C76.8864 31.1543 76.7756 31.1903 76.662 31.1899L76.665 31.1959Z" fill="white" stroke="#263238" stroke-linecap="round" stroke-linejoin="round"/>
<path d="M76.0687 35.6784V36.5967H79.3991L79.859 36.0229H81.2942V24.0228L79.859 23.7352L79.1699 23.1045H76.5287L76.0687 24.4828V35.6784Z" fill="white" stroke="#263238" stroke-linecap="round" stroke-linejoin="round"/>
<path d="M78.4223 24.4812H76.0687V35.6768H78.4223V24.4812Z" fill="#00FF00" stroke="white" stroke-linecap="round" stroke-linejoin="round"/>
<path d="M85.3706 30.0513L79.9159 29.6498V34.7584L85.1399 35.506L85.3706 30.0513Z" fill="white" stroke="#263238" stroke-linecap="round" stroke-linejoin="round"/>
<path d="M79.9774 30.2715L85.3048 30.7254" stroke="#263238" stroke-linecap="round" stroke-linejoin="round"/>
<path d="M79.9204 31.1494L85.2763 31.7457" stroke="#263238" stroke-linecap="round" stroke-linejoin="round"/>
<path d="M79.9489 32.0004L85.2208 32.6236" stroke="#263238" stroke-linecap="round" stroke-linejoin="round"/>
<path d="M79.9204 32.8499L85.2208 33.53" stroke="#263238" stroke-linecap="round" stroke-linejoin="round"/>
<path d="M79.8635 33.5869L85.1355 34.324" stroke="#263238" stroke-linecap="round" stroke-linejoin="round"/>
<path d="M79.892 34.2671L85.107 35.0896" stroke="#263238" stroke-linecap="round" stroke-linejoin="round"/>
<path d="M79.9159 29.6499V26.5592L80.2605 26.757V29.6484L79.9159 29.6499Z" fill="#263238" stroke="#263238" stroke-linecap="round" stroke-linejoin="round"/>
<path d="M58.948 37.0656V49.6514L59.8184 49.7428V37.2034L58.948 37.0656Z" fill="#263238" stroke="#263238" stroke-linecap="round" stroke-linejoin="round"/>
<path d="M59.8185 37.2034L70.0912 36.6731V38.1398L85.4546 39.8372V45.2484L82.704 46.029L69.9534 44.378V47.587L84.9048 49.7893V53.9616L59.8185 49.7429V37.2034Z" fill="#ABABAB" stroke="#263238" stroke-linecap="round" stroke-linejoin="round"/>
<path d="M70.0911 38.1398L59.772 38.8544L79.9968 40.342L85.4545 39.8372L70.0911 38.1398Z" fill="#ABABAB" stroke="#263238" stroke-linecap="round" stroke-linejoin="round"/>
<path d="M79.9968 40.342V45.6155L82.704 46.029L85.4545 45.2484V39.8372L79.9968 40.342Z" fill="#263238" stroke="#263238" stroke-linecap="round" stroke-linejoin="round"/>
<path d="M59.772 38.8544V43.4372L69.9533 44.378L79.9968 45.6155V40.342L59.772 38.8544Z" fill="#263238" stroke="#263238" stroke-linecap="round" stroke-linejoin="round"/>
<path d="M64.0507 43.6694L65.1967 41.5226L73.4275 42.3451L73.9998 42.9533" stroke="white" stroke-linecap="round" stroke-linejoin="round"/>
<path d="M75.044 40.8964C75.044 40.8964 73.9953 41.4462 74.2186 43.5571C74.4418 45.6679 76.5122 48.3721 78.0718 49.3354C79.6313 50.2987 83.2988 50.8485 83.8501 50.802C84.4014 50.7556 84.7205 50.7107 84.7205 50.7107V48.5968C83.8163 48.8123 82.8741 48.8123 81.9699 48.5968C80.5482 48.2297 77.7961 44.3316 77.4755 43.5031C77.1549 42.6747 77.8875 41.8057 77.8875 41.8057V41.1211L75.044 40.8964Z" fill="white" stroke="#263238" stroke-linecap="round" stroke-linejoin="round"/>
<path d="M76.4208 41.0762C76.4208 41.0762 75.5025 41.5346 75.9159 43.5526C76.3294 45.5706 78.0718 48.0006 80.0433 49.2845C82.0149 50.5684 83.8036 50.2942 83.8036 50.2942" stroke="#263238" stroke-linecap="round" stroke-linejoin="round"/>
<path d="M77.8875 41.1211C77.5945 41.3853 77.3642 41.7114 77.2131 42.0757C77.062 42.4401 76.994 42.8335 77.0141 43.2275C77.0875 44.5653 79.1699 46.7586 80.0807 47.7219" stroke="#263238" stroke-linecap="round" stroke-linejoin="round"/>
<path d="M76.7534 41.4611C76.7534 41.4611 76.304 42.279 76.5677 43.7083C76.8313 45.1375 79.1879 47.9465 80.7505 48.9517" stroke="#263238" stroke-linecap="round" stroke-linejoin="round"/>
<path d="M75.6194 40.9218C75.6194 40.9218 75.08 41.2004 75.1355 42.7615C75.1909 44.3225 76.4373 46.8709 78.0733 48.5068" stroke="#263238" stroke-linecap="round" stroke-linejoin="round"/>
<path d="M74.6155 43.0596C74.6155 43.0596 74.4342 44.6416 76.196 47.0941" stroke="#263238" stroke-linecap="round" stroke-linejoin="round"/>
<path d="M81.4756 49.1016C82.4924 49.3213 83.523 49.4714 84.5603 49.551" stroke="#263238" stroke-linecap="round" stroke-linejoin="round"/>
<path d="M58.948 37.0656L66.0417 36.5623L70.0911 36.6731L59.8184 37.2035L58.948 37.0656Z" fill="white" stroke="#263238" stroke-linecap="round" stroke-linejoin="round"/>
<path d="M59.8814 46.2941L67.6792 45.2529V47.2469L59.8514 48.8529L59.8185 49.7428L69.9534 47.587V44.378L67.0245 44.1218L59.8215 44.5982L59.8814 46.2941Z" fill="#263238" stroke="#263238" stroke-linecap="round" stroke-linejoin="round"/>
<path d="M60.4011 50.4694V52.33C60.4011 52.8035 63.3734 53.1885 67.0394 53.1885C70.7053 53.1885 73.6851 52.8035 73.6851 52.33V50.4694H60.4011Z" fill="white"/>
<path d="M67.0394 51.3278C70.7056 51.3278 73.6776 50.9435 73.6776 50.4694C73.6776 49.9953 70.7056 49.611 67.0394 49.611C63.3732 49.611 60.4011 49.9953 60.4011 50.4694C60.4011 50.9435 63.3732 51.3278 67.0394 51.3278Z" fill="#00FF00"/>
<path d="M68.238 50.3077C68.238 50.4575 67.453 50.5759 66.4852 50.5759C65.5174 50.5759 64.7308 50.456 64.7308 50.3077C64.7308 50.1594 65.5159 50.0396 66.4852 50.0396C67.4544 50.0396 68.238 50.1594 68.238 50.3077Z" fill="#263238" stroke="#263238" stroke-linecap="round" stroke-linejoin="round"/>
<path d="M74.6021 51.566L74.5481 53.4267C74.5347 53.9016 77.495 54.9443 81.1594 55.0492C84.8239 55.1541 87.8067 54.856 87.8201 54.381L87.8726 51.9481L74.6021 51.566Z" fill="white"/>
<path d="M87.8726 51.948C87.8591 52.423 84.8763 52.7211 81.2134 52.6162C77.5504 52.5113 74.5886 52.0409 74.6021 51.5675C74.6156 51.0941 77.5984 50.7945 81.2628 50.9008C84.9273 51.0072 87.8861 51.4746 87.8726 51.948Z" fill="#00FF00"/>
<path d="M82.4403 51.6305C82.4403 51.7803 81.6478 51.8762 80.68 51.8492C79.7122 51.8223 78.9287 51.683 78.9287 51.5331C78.9287 51.3833 79.7212 51.2874 80.689 51.3159C81.6568 51.3444 82.4448 51.4822 82.4403 51.6305Z" fill="#263238" stroke="#263238" stroke-linecap="round" stroke-linejoin="round"/>
<path d="M59.7166 13.3934V15.4624L67.6102 16.4257L92.2531 14.3073V11.1313L86.5257 9.9762L59.7166 13.3934Z" fill="#263238"/>
<path d="M59.7166 15.4624L83.8306 12.8632L92.2531 14.3074L67.6102 16.4257L59.7166 15.4624Z" fill="white"/>
<path d="M74.4987 27.488H72.4762C71.8879 27.488 71.411 27.9649 71.411 28.5532V31.7622C71.411 32.3505 71.8879 32.8274 72.4762 32.8274H74.4987C75.087 32.8274 75.5638 32.3505 75.5638 31.7622V28.5532C75.5638 27.9649 75.087 27.488 74.4987 27.488Z" fill="white" stroke="#263238" stroke-linecap="round" stroke-linejoin="round"/>
<path d="M74.1122 28.3824H72.8627C72.4457 28.3824 72.1077 28.7205 72.1077 29.1375V31.175C72.1077 31.592 72.4457 31.93 72.8627 31.93H74.1122C74.5292 31.93 74.8672 31.592 74.8672 31.175V29.1375C74.8672 28.7205 74.5292 28.3824 74.1122 28.3824Z" fill="#00FF00"/>
<path d="M86.5812 8.92603L86.7624 57.5256L100.695 54.4964L100.816 11.1073L86.5812 8.92603ZM99.8532 53.2859L88.3999 55.5331L88.5168 10.9335L99.8502 12.8122L99.8532 53.2859Z" fill="#263238" stroke="#263238" stroke-linecap="round" stroke-linejoin="round"/>
<path d="M86.5812 8.92603L55.1907 13.0474V52.3166L86.7624 57.5256L86.5812 8.92603ZM56.7667 51.2334L56.524 14.1455L84.4598 11.1088L84.6426 55.8912L56.7667 51.2334Z" fill="#707070" stroke="#263238" stroke-linecap="round" stroke-linejoin="round"/>
<path d="M67.8335 17.0804V21.094" stroke="#263238" stroke-linecap="round" stroke-linejoin="round"/>
<path d="M36.8055 63.3684C36.8055 63.3684 44.7711 65.4553 45.5022 65.4058C46.2333 65.3564 78.7354 58.459 78.9781 58.3122C79.2208 58.1653 79.6103 57.3893 79.6103 57.3893L78.4432 56.9518C78.4432 56.9518 67.754 54.8634 67.2207 54.9608C66.6873 55.0582 32.0923 60.4021 31.7523 60.7421C31.4122 61.0822 30.9268 61.4223 31.0721 61.5676C31.2174 61.7129 36.8055 63.3684 36.8055 63.3684Z" fill="#263238" stroke="#263238" stroke-linecap="round" stroke-linejoin="round"/>
<path d="M33.1125 61.2769L44.5209 63.9466L78.3368 57.0896" stroke="#B8B8B8" stroke-linecap="round" stroke-linejoin="round"/>
<path d="M45.1396 64.2358L45.6355 64.5654L79.1294 57.5856" stroke="#B8B8B8" stroke-linecap="round" stroke-linejoin="round"/>
<path d="M35.1696 61.3024L35.5905 60.9204L44.0685 62.9833L44.1074 63.5946" stroke="#B8B8B8" stroke-linecap="round" stroke-linejoin="round"/>
<path d="M44.0685 62.9833L45.5906 62.7571L46.064 63.3384" stroke="#B8B8B8" stroke-linecap="round" stroke-linejoin="round"/>
<path d="M46.2094 63.2471L46.3547 62.7377L47.6446 62.4291L48.0805 62.9205L48.2618 62.3752L51.351 61.7579L51.8064 62.3018" stroke="#B8B8B8" stroke-linecap="round" stroke-linejoin="round"/>
<path d="M52.2783 62.0845L52.515 61.5931L53.6416 61.3025L54.1135 61.8119" stroke="#B8B8B8" stroke-linecap="round" stroke-linejoin="round"/>
<path d="M54.2948 61.7384L54.4401 61.1751L55.3315 60.9938L55.8034 61.3384L56.0761 60.8485L57.0753 60.6852L57.4214 60.9758" stroke="#B8B8B8" stroke-linecap="round" stroke-linejoin="round"/>
<path d="M35.5906 60.9204L36.9599 60.7212L37.3779 60.8665L37.5412 60.5219L37.9052 60.4845H38.5404L39.0138 60.3766L39.3943 60.1399H40.3577L41.1397 60.1219L41.303 59.9212L42.4476 59.7579L43.2101 59.8852L43.5921 59.4133L44.7367 59.3579L45.1367 59.3774L45.4094 59.1766L48.3712 58.7227L48.9704 58.7946L49.2806 58.45L51.9697 58.1234L53.0409 58.2867L53.2596 58.5594" stroke="#B8B8B8" stroke-linecap="round" stroke-linejoin="round"/>
<path d="M51.1517 59.0672L52.987 58.6866" stroke="#B8B8B8" stroke-linecap="round" stroke-linejoin="round"/>
<path d="M53.4228 58.6687L55.9112 59.3084L54.1869 59.7219L51.715 59.2125" stroke="#B8B8B8" stroke-linecap="round" stroke-linejoin="round"/>
<path d="M54.1854 59.7219V60.6118" stroke="#B8B8B8" stroke-linecap="round" stroke-linejoin="round"/>
<path d="M57.0753 60.6852L55.4947 60.3212L54.5135 60.4305L54.3861 60.7212" stroke="#B8B8B8" stroke-linecap="round" stroke-linejoin="round"/>
<path d="M55.3315 60.9938L53.5682 60.6118L52.951 60.8665L52.8596 61.0118" stroke="#B8B8B8" stroke-linecap="round" stroke-linejoin="round"/>
<path d="M54.4401 61.1751L53.4589 60.9579" stroke="#B8B8B8" stroke-linecap="round" stroke-linejoin="round"/>
<path d="M56.076 60.8485L54.8955 60.6298" stroke="#B8B8B8" stroke-linecap="round" stroke-linejoin="round"/>
<path d="M52.515 61.5931L51.0063 61.0852L52.2423 60.9025L53.4963 61.1751" stroke="#B8B8B8" stroke-linecap="round" stroke-linejoin="round"/>
<path d="M50.879 60.3211L52.0596 60.6852L53.2775 60.4125L52.151 60.0485L50.879 60.3211Z" stroke="#B8B8B8" stroke-linecap="round" stroke-linejoin="round"/>
<path d="M50.879 60.3212L50.4611 60.7751L50.9704 60.9579" stroke="#B8B8B8" stroke-linecap="round" stroke-linejoin="round"/>
<path d="M53.2776 60.4126L53.5682 60.6119" stroke="#B8B8B8" stroke-linecap="round" stroke-linejoin="round"/>
<path d="M51.3509 61.7564L43.7554 60.0126" stroke="#B8B8B8" stroke-linecap="round" stroke-linejoin="round"/>
<path d="M37.7599 60.9758L45.2641 62.7017" stroke="#B8B8B8" stroke-linecap="round" stroke-linejoin="round"/>
<path d="M37.9951 60.7032L46.118 62.6119" stroke="#B8B8B8" stroke-linecap="round" stroke-linejoin="round"/>
<path d="M39.177 60.5399L47.3538 62.3197" stroke="#B8B8B8" stroke-linecap="round" stroke-linejoin="round"/>
<path d="M41.1038 60.2493L47.6267 61.7025L49.1158 61.4118" stroke="#B8B8B8" stroke-linecap="round" stroke-linejoin="round"/>
<path d="M54.6633 60.4289L54.9734 59.7638L58.8057 58.9997L59.9652 59.2829L75.1788 56.5413L76.6245 56.79L77.1399 57.2724" stroke="#B8B8B8" stroke-linecap="round" stroke-linejoin="round"/>
<path d="M76.6245 56.79L61.6132 59.8328L61.7795 60.3152" stroke="#B8B8B8" stroke-linecap="round" stroke-linejoin="round"/>
<path d="M62.3937 58.8679L63.7899 59.3174L64.172 59.7159" stroke="#B8B8B8" stroke-linecap="round" stroke-linejoin="round"/>
<path d="M64.4222 58.4695L66.0178 58.9519L66.3174 59.301" stroke="#B8B8B8" stroke-linecap="round" stroke-linejoin="round"/>
<path d="M72.5182 57.0568L73.865 57.3729L74.1811 57.638" stroke="#B8B8B8" stroke-linecap="round" stroke-linejoin="round"/>
<path d="M74.2634 56.7571L75.378 57.0897L75.5938 57.3728" stroke="#B8B8B8" stroke-linecap="round" stroke-linejoin="round"/>
<path d="M56.542 60.414L56.8746 60.0484L58.3038 60.4649L61.0304 59.9496L59.6506 59.5001" stroke="#B8B8B8" stroke-linecap="round" stroke-linejoin="round"/>
<path d="M61.0304 59.9496L61.2461 60.414" stroke="#B8B8B8" stroke-linecap="round" stroke-linejoin="round"/>
<path d="M61.6132 59.8328L60.4656 59.4508" stroke="#B8B8B8" stroke-linecap="round" stroke-linejoin="round"/>
<path d="M56.8746 60.0484L59.2851 59.584" stroke="#B8B8B8" stroke-linecap="round" stroke-linejoin="round"/>
<path d="M55.0963 59.8492L55.9772 60.1159" stroke="#B8B8B8" stroke-linecap="round" stroke-linejoin="round"/>
<path d="M40.8879 60.862L41.0992 60.5803L41.8048 60.4215" stroke="#B8B8B8" stroke-linecap="round" stroke-linejoin="round"/>
<path d="M42.6183 61.3039L42.7936 61.0208L43.4303 60.8275" stroke="#B8B8B8" stroke-linecap="round" stroke-linejoin="round"/>
<path d="M44.5944 61.6036L44.7711 61.4268L45.5831 61.286" stroke="#B8B8B8" stroke-linecap="round" stroke-linejoin="round"/>
<path d="M42.0355 62.4156L42.7411 62.2043" stroke="#B8B8B8" stroke-linecap="round" stroke-linejoin="round"/>
<path d="M40.6572 62.0635L41.1351 61.8867" stroke="#B8B8B8" stroke-linecap="round" stroke-linejoin="round"/>
<path d="M37.198 61.1795L38.0265 61.1091" stroke="#B8B8B8" stroke-linecap="round" stroke-linejoin="round"/>
<path d="M38.4865 61.4987L39.3509 61.3923" stroke="#B8B8B8" stroke-linecap="round" stroke-linejoin="round"/>
<path d="M45.3195 60.3677L45.7255 60.0156L46.6783 60.2628V60.4741" stroke="#B8B8B8" stroke-linecap="round" stroke-linejoin="round"/>
<path d="M46.8191 60.2791L47.8438 60.0499L48.2139 60.3151L48.4431 59.8567L49.5202 59.6259L49.9442 60.0319L50.1914 59.5735L51.2865 59.3967L51.7105 59.7847" stroke="#B8B8B8" stroke-linecap="round" stroke-linejoin="round"/>
<path d="M46.0955 59.8912L50.1569 59.1151L50.915 59.2739" stroke="#B8B8B8" stroke-linecap="round" stroke-linejoin="round"/>
<path d="M47.8438 60.05L47.0842 59.7504" stroke="#B8B8B8" stroke-linecap="round" stroke-linejoin="round"/>
<path d="M48.4431 59.8567L47.7374 59.662" stroke="#B8B8B8" stroke-linecap="round" stroke-linejoin="round"/>
<path d="M50.1914 59.5737L49.2566 59.3789" stroke="#B8B8B8" stroke-linecap="round" stroke-linejoin="round"/>
<path d="M45.1367 59.3773L46.6423 59.7683" stroke="#B8B8B8" stroke-linecap="round" stroke-linejoin="round"/>
<path d="M45.5306 59.2201L47.243 59.68" stroke="#B8B8B8" stroke-linecap="round" stroke-linejoin="round"/>
<path d="M46.873 59.0432L48.3382 59.4852" stroke="#B8B8B8" stroke-linecap="round" stroke-linejoin="round"/>
<path d="M47.4198 58.9204L48.8325 59.4328L49.5202 59.626" stroke="#B8B8B8" stroke-linecap="round" stroke-linejoin="round"/>
<path d="M49.1322 58.8679L49.8034 59.0612" stroke="#B8B8B8" stroke-linecap="round" stroke-linejoin="round"/>
<path d="M49.2805 58.45L50.7562 58.7616L50.8626 59.1316" stroke="#B8B8B8" stroke-linecap="round" stroke-linejoin="round"/>
<path d="M52.3636 57.9841L68.5001 55.3534" stroke="#B8B8B8" stroke-linecap="round" stroke-linejoin="round"/>
<path d="M53.7809 58.4695L70.2244 55.6904" stroke="#B8B8B8" stroke-linecap="round" stroke-linejoin="round"/>
<path d="M55.0409 58.916L72.0073 55.9526" stroke="#B8B8B8" stroke-linecap="round" stroke-linejoin="round"/>
<path d="M59.2356 58.8635L73.7645 56.2672" stroke="#B8B8B8" stroke-linecap="round" stroke-linejoin="round"/>
<path d="M66.1287 55.7173L72.7474 56.9263" stroke="#B8B8B8" stroke-linecap="round" stroke-linejoin="round"/>
<path d="M67.7571 55.4897L73.7107 56.6987" stroke="#B8B8B8" stroke-linecap="round" stroke-linejoin="round"/>
<path d="M70.2784 57.4343L65.1653 55.9811" stroke="#B8B8B8" stroke-linecap="round" stroke-linejoin="round"/>
<path d="M68.6156 57.7488L63.9758 56.2957" stroke="#B8B8B8" stroke-linecap="round" stroke-linejoin="round"/>
<path d="M66.0418 58.2387L61.5758 56.5938" stroke="#B8B8B8" stroke-linecap="round" stroke-linejoin="round"/>
<path d="M64.623 58.5024L60.2799 56.838" stroke="#B8B8B8" stroke-linecap="round" stroke-linejoin="round"/>
<path d="M63.0125 58.799L58.7922 57.0657" stroke="#B8B8B8" stroke-linecap="round" stroke-linejoin="round"/>
<path d="M61.2267 59.0791L57.2162 57.2933" stroke="#B8B8B8" stroke-linecap="round" stroke-linejoin="round"/>
<path d="M58.915 59.0972L55.5876 57.5571" stroke="#B8B8B8" stroke-linecap="round" stroke-linejoin="round"/>
<path d="M57.357 59.2905L54.082 57.7833" stroke="#B8B8B8" stroke-linecap="round" stroke-linejoin="round"/>
<path d="M41.6685 59.5526L42.0535 59.1151" stroke="#B8B8B8" stroke-linecap="round" stroke-linejoin="round"/>
<path d="M43.4019 58.8875L44.1539 59.1676" stroke="#B8B8B8" stroke-linecap="round" stroke-linejoin="round"/>
<path d="M45.0123 58.6597L45.8183 58.9218" stroke="#B8B8B8" stroke-linecap="round" stroke-linejoin="round"/>
<path d="M46.939 58.2911L47.9532 58.6417" stroke="#B8B8B8" stroke-linecap="round" stroke-linejoin="round"/>
<path d="M48.8296 57.9766L49.9322 58.2387" stroke="#B8B8B8" stroke-linecap="round" stroke-linejoin="round"/>
<path d="M50.3696 57.7144L51.4902 58.0634" stroke="#B8B8B8" stroke-linecap="round" stroke-linejoin="round"/>
<path d="M52.0505 57.4343L52.9269 57.6965" stroke="#B8B8B8" stroke-linecap="round" stroke-linejoin="round"/>
<path d="M55.9038 56.838L56.6379 57.0657" stroke="#B8B8B8" stroke-linecap="round" stroke-linejoin="round"/>
<path d="M57.4438 56.5758L58.2843 56.7855" stroke="#B8B8B8" stroke-linecap="round" stroke-linejoin="round"/>
<path d="M58.8102 56.3301L59.6506 56.4889" stroke="#B8B8B8" stroke-linecap="round" stroke-linejoin="round"/>
<path d="M60.7188 56.068L61.6116 56.3302" stroke="#B8B8B8" stroke-linecap="round" stroke-linejoin="round"/>
<path d="M62.4342 55.8058L63.4499 56.0155" stroke="#B8B8B8" stroke-linecap="round" stroke-linejoin="round"/>
<path d="M63.712 55.5601L64.7278 55.8058" stroke="#B8B8B8" stroke-linecap="round" stroke-linejoin="round"/>
<path d="M65.1488 55.3503L66.0057 55.5781" stroke="#B8B8B8" stroke-linecap="round" stroke-linejoin="round"/>
<path d="M37.7299 64.1429C37.7299 64.1429 35.9786 61.8598 33.1126 61.271C30.2467 60.6822 28.6916 61.7084 27.2819 62.486C25.8721 63.2635 24.5133 63.8942 24.6586 64.477C24.7366 64.7576 24.8718 65.019 25.0556 65.2448C25.2394 65.4707 25.4679 65.6561 25.7268 65.7894C26.1643 65.9841 30.392 67.4898 32.3845 67.6845C34.3771 67.8793 36.7561 67.3444 37.4857 66.6148C38.2153 65.8853 37.7299 64.1429 37.7299 64.1429Z" fill="#A3A3A3" stroke="#263238" stroke-linecap="round" stroke-linejoin="round"/>
<path d="M37.2879 63.65C36.6002 62.9444 35.135 61.6874 33.1125 61.277C30.2466 60.6942 28.6915 61.7144 27.2818 62.4919C27.0136 62.6418 26.7485 62.7811 26.4938 62.9189C26.7934 62.8485 28.8668 62.3886 29.8571 62.9279C30.9268 63.5122 32.8698 64.3376 34.9583 64.3376C36.1463 64.3376 36.8774 63.9931 37.2879 63.65Z" fill="#707070" stroke="#263238" stroke-linecap="round" stroke-linejoin="round"/>
<path d="M37.8662 65.7115C36.9217 66.2894 35.8262 66.5722 34.7201 66.5235C31.9515 66.4261 30.8339 64.6284 29.0841 63.6576C27.3343 62.6868 24.6631 64.483 24.6631 64.483C24.7411 64.7636 24.8762 65.025 25.06 65.2509C25.2438 65.4767 25.4724 65.6621 25.7313 65.7954C26.1687 65.9902 30.3965 67.4958 32.389 67.6906C34.3815 67.8853 36.7605 67.3505 37.4901 66.6209C37.7127 66.3678 37.845 66.0479 37.8662 65.7115Z" fill="#263238" stroke="#263238" stroke-linecap="round" stroke-linejoin="round"/>
<path d="M9.07201 11.028L8.33643 11.4714L12.3949 50.4544L13.069 50.1713L9.07201 11.028Z" fill="#A3A3A3" stroke="#263238" stroke-linecap="round" stroke-linejoin="round"/>
<path d="M32.2572 48.0874L29.0812 57.307L36.431 55.7414C36.431 55.7414 35.1262 54.8291 35.3014 53.4373C35.4767 52.0455 37.258 47.7833 37.258 47.7833L32.2572 48.0874Z" fill="#A3A3A3" stroke="#263238" stroke-linecap="round" stroke-linejoin="round"/>
<path d="M35.3014 53.4313C35.4752 52.0395 37.258 47.7773 37.258 47.7773L33.7389 47.9916C33.4572 48.8036 31.8557 53.2351 31.7778 54.4755C31.7455 54.8679 31.8128 55.2621 31.9736 55.6214C32.1345 55.9808 32.3835 56.2936 32.6976 56.531L36.431 55.7355C36.431 55.7355 35.1261 54.8291 35.3014 53.4313Z" fill="#263238" stroke="#263238" stroke-linecap="round" stroke-linejoin="round"/>
<path d="M9.07202 11.028L13.0691 50.1713L58.4731 45.948L54.4761 16.3074L9.07202 11.028Z" fill="#263238" stroke="#263238" stroke-linecap="round" stroke-linejoin="round"/>
<path d="M10.6555 12.6115L14.5027 48.4364L57.0409 44.742L53.6476 17.7396L10.6555 12.6115Z" fill="#00FF00" stroke="#263238" stroke-linecap="round" stroke-linejoin="round"/>
<path d="M38.1783 29.801C39.8785 28.7783 40.2721 26.3122 39.0573 24.293C37.8426 22.2738 35.4797 21.466 33.7795 22.4888C32.0793 23.5116 31.6858 25.9776 32.9005 27.9968C34.1152 30.016 36.4782 30.8238 38.1783 29.801Z" fill="white" stroke="#263238" stroke-linecap="round" stroke-linejoin="round"/>
<path d="M36.7683 25.5988C37.2909 25.2174 37.3224 24.3707 36.8386 23.7077C36.3548 23.0447 35.5388 22.8164 35.0162 23.1978C34.4935 23.5792 34.462 24.4259 34.9459 25.0889C35.4297 25.7519 36.2456 25.9802 36.7683 25.5988Z" fill="white" stroke="#263238" stroke-linecap="round" stroke-linejoin="round"/>
<path d="M39.658 27.6888C38.5569 26.4363 37.0168 25.6828 35.6131 25.8581C34.2093 26.0333 33.3524 27.0566 33.1951 28.4454C34.2153 29.7937 35.8423 30.5203 37.3314 30.1502C38.5464 29.8491 39.3779 28.8963 39.658 27.6888Z" fill="white" stroke="#263238" stroke-linecap="round" stroke-linejoin="round"/>
<path d="M43.4558 34.3151H30.6362L30.2842 32.0829H43.1022L43.4558 34.3151Z" fill="white" stroke="#263238" stroke-linecap="round" stroke-linejoin="round"/>
<path d="M12.3949 50.4545L58.2619 46.1878L58.4731 45.9481L13.0691 50.1714L12.3949 50.4545Z" fill="white" stroke="#263238" stroke-linecap="round" stroke-linejoin="round"/>
<path d="M26.5417 61.0613C26.5417 61.0613 27.5065 60.143 28.4474 59.713C29.3882 59.283 33.3568 57.7864 37.8856 57.4268C42.4145 57.0673 53.1277 56.8665 53.8453 56.8441C54.5629 56.8216 55.3929 56.7542 55.4813 56.5085C55.5697 56.2628 55.6116 55.1602 55.6116 55.1602L52.4371 56.3347L52.1195 56.0351C52.1195 56.0351 48.6228 55.698 42.2123 56.2133C35.8017 56.7287 31.9006 57.7115 29.2788 58.5444C26.6571 59.3774 26.5417 61.0613 26.5417 61.0613Z" fill="#263238" stroke="#263238" stroke-linecap="round" stroke-linejoin="round"/>
<path d="M22.7321 59.3024L26.777 60.6942C26.777 60.6942 28.2991 58.4755 35.6924 57.3009C43.0858 56.1264 52.4356 56.3451 52.4356 56.3451L55.6102 55.1706C55.6102 55.1706 43.4753 54.4755 35.6056 55.5182C27.7358 56.5609 23.7328 58.0845 22.7321 59.3024Z" fill="#707070" stroke="#263238" stroke-linecap="round" stroke-linejoin="round"/>
<path d="M22.7321 59.3025C22.7321 59.3025 21.4272 60.9115 21.7763 61.0418C22.1253 61.1722 26.0804 61.2156 26.386 61.0853C26.4738 61.0492 26.5536 60.9961 26.6207 60.9289C26.6878 60.8618 26.741 60.7821 26.777 60.6943L22.7321 59.3025Z" fill="#263238" stroke="#263238" stroke-linecap="round" stroke-linejoin="round"/>
<path d="M7.61731 61.1212L8.41282 67.8179C8.41282 69.0539 10.4877 70.0561 13.0466 70.0561C15.6054 70.0561 17.6803 69.0539 17.6803 67.8179L18.4758 61.1212H7.61731Z" fill="white" stroke="#263238" stroke-linecap="round" stroke-linejoin="round"/>
<path d="M13.0525 62.6597C16.051 62.6597 18.4818 61.9716 18.4818 61.1227C18.4818 60.2738 16.051 59.5856 13.0525 59.5856C10.054 59.5856 7.62329 60.2738 7.62329 61.1227C7.62329 61.9716 10.054 62.6597 13.0525 62.6597Z" fill="white" stroke="#263238" stroke-linecap="round" stroke-linejoin="round"/>
<path d="M13.0525 62.3212C15.3891 62.3212 17.2833 61.7846 17.2833 61.1227C17.2833 60.4608 15.3891 59.9242 13.0525 59.9242C10.7159 59.9242 8.82178 60.4608 8.82178 61.1227C8.82178 61.7846 10.7159 62.3212 13.0525 62.3212Z" fill="#263238"/>
<path d="M3.72209 46.1023C4.22397 46.2401 5.37004 46.0469 5.37004 46.0469C5.37004 46.0469 5.01199 45.3248 4.98352 45.2828C4.65244 44.7884 3.72359 44.0289 3.08389 44.2116C2.97843 44.245 2.88116 44.3002 2.7984 44.3736C2.71563 44.447 2.64921 44.537 2.60345 44.6377C2.55768 44.7384 2.53359 44.8476 2.53274 44.9582C2.53188 45.0688 2.55429 45.1784 2.59849 45.2798C2.78426 45.7158 3.29662 45.9899 3.72209 46.1023Z" fill="#263238"/>
<path d="M15.4601 44.6596C15.4706 44.6596 15.559 43.8611 15.5575 43.8101C15.5575 43.2109 15.1994 42.0693 14.5642 41.8626C14.4579 41.8321 14.3463 41.8244 14.2368 41.84C14.1273 41.8555 14.0223 41.8939 13.9286 41.9527C13.8349 42.0115 13.7546 42.0893 13.693 42.1812C13.6314 42.273 13.5898 42.3768 13.5709 42.4858C13.475 42.9457 13.7552 43.4536 14.0473 43.7877C14.3904 44.1922 15.4586 44.6596 15.4601 44.6596Z" fill="#263238"/>
<path d="M18.3035 39.9689C17.6383 39.9929 16.9896 41.0042 16.8278 41.5764C16.8143 41.6259 16.678 42.4244 16.6975 42.4229H16.711C16.6076 42.5817 16.4982 42.7525 16.3829 42.9427C16.1731 43.2948 15.9334 43.6918 15.7117 44.1413C15.462 44.6271 15.2414 45.1274 15.051 45.6394C14.8345 46.2099 14.6691 46.7985 14.5566 47.3982C14.5566 47.4057 14.5566 47.4132 14.5566 47.4207C14.5327 47.2274 14.4458 46.6881 14.4338 46.6476C14.2735 46.0754 13.6278 45.0626 12.9626 45.0371C12.852 45.0358 12.7424 45.0578 12.6408 45.1016C12.5392 45.1454 12.4481 45.2101 12.3732 45.2915C12.2983 45.3729 12.2413 45.4692 12.2061 45.574C12.1709 45.6789 12.1581 45.79 12.1686 45.9001C12.1986 46.3705 12.6016 46.7855 12.9716 47.0297C13.3896 47.3068 14.4697 47.4791 14.5476 47.4911C14.4481 48.1042 14.39 48.7234 14.3739 49.3443C14.3619 49.7053 14.3604 50.0694 14.3649 50.4349C14.3379 50.2686 14.3124 50.1203 14.3079 50.0993C14.1476 49.5271 13.5004 48.5158 12.8353 48.4889C12.7247 48.4877 12.615 48.5098 12.5135 48.5539C12.4121 48.5979 12.321 48.6628 12.2462 48.7443C12.1715 48.8258 12.1147 48.9222 12.0797 49.0271C12.0446 49.1321 12.032 49.2432 12.0428 49.3533C12.0727 49.8222 12.4757 50.2372 12.8458 50.4829C13.2158 50.7286 14.1327 50.8964 14.3739 50.9323C14.3739 51.0731 14.3739 51.214 14.3829 51.3533C14.3993 52.026 14.4188 52.7016 14.4188 53.3563C14.4188 53.5885 14.4098 53.8177 14.4008 54.0454C14.3769 53.8956 14.3559 53.7743 14.3514 53.7548C14.1911 53.1825 13.5454 52.1698 12.8787 52.1443C12.7682 52.1434 12.6587 52.1657 12.5573 52.2098C12.4559 52.2539 12.3649 52.3188 12.2902 52.4003C12.2155 52.4817 12.1587 52.578 12.1236 52.6828C12.0884 52.7877 12.0757 52.8987 12.0862 53.0087C12.1162 53.4777 12.5192 53.8926 12.8892 54.1383C13.2592 54.384 14.0877 54.5338 14.3754 54.5878C14.3589 54.8215 14.3454 55.0567 14.3199 55.2829C14.299 55.4327 14.29 55.5825 14.26 55.7398C14.23 55.8971 14.2091 56.0395 14.1836 56.1893C14.1237 56.4754 14.0637 56.7721 13.9993 57.0492C13.9544 57.2425 13.9094 57.4267 13.8645 57.6125C13.8645 57.3803 13.8645 56.9279 13.8645 56.8904C13.7826 56.3738 13.5696 55.8869 13.2458 55.4762C13.2382 55.4184 13.2262 55.3613 13.2098 55.3054C13.1803 55.1989 13.1288 55.0998 13.0585 55.0145C12.9883 54.9292 12.9008 54.8596 12.8019 54.8103C12.703 54.761 12.5949 54.7331 12.4845 54.7283C12.3741 54.7235 12.2639 54.742 12.1611 54.7825C11.5499 55.0447 11.3072 56.2207 11.3626 56.8125C11.3626 56.847 11.4435 57.2215 11.4959 57.4582C11.445 57.3234 11.3956 57.193 11.3461 57.0567C11.2383 56.784 11.1229 56.5159 11.0001 56.2267L10.8053 55.8103C10.7424 55.6709 10.6555 55.5301 10.5866 55.3878C10.4113 55.0612 10.2165 54.7391 10.0143 54.42C10.2525 54.3256 11.0914 53.9705 11.4031 53.6559C11.7147 53.3413 12.0188 52.8469 11.9484 52.3825C11.9356 52.2727 11.8998 52.1668 11.8433 52.0717C11.7869 51.9767 11.711 51.8946 11.6207 51.8308C11.5303 51.7671 11.4276 51.7231 11.3191 51.7017C11.2106 51.6804 11.0988 51.6821 10.9911 51.7069C10.3454 51.8731 9.92889 52.9982 9.89293 53.5915C9.89293 53.629 9.91391 54.0574 9.93039 54.2926C9.80754 54.1009 9.68469 53.9106 9.55435 53.7204C9.17532 53.1735 8.77532 52.6312 8.37981 52.0889C8.25696 51.9226 8.13861 51.7563 8.01876 51.5885C8.10415 51.5555 9.1109 51.163 9.45997 50.805C9.77008 50.4874 10.0757 49.996 10.0053 49.5316C9.99206 49.4217 9.95595 49.3159 9.89927 49.2209C9.8426 49.1259 9.76663 49.0438 9.67628 48.98C9.58592 48.9162 9.48319 48.8721 9.3747 48.8504C9.26622 48.8288 9.15441 48.8301 9.04648 48.8544C8.40228 49.0207 7.9858 50.1473 7.94985 50.7406C7.94985 50.7855 7.97981 51.4027 7.99629 51.5585C7.73262 51.1915 7.47344 50.8229 7.23224 50.4499C6.90376 49.9469 6.6085 49.4229 6.34834 48.8814C6.38729 48.8664 7.44048 48.4604 7.79853 48.0948C8.10715 47.7757 8.41427 47.2858 8.34386 46.8199C8.33066 46.7101 8.29454 46.6043 8.23785 46.5094C8.18116 46.4145 8.10516 46.3325 8.01477 46.2688C7.92438 46.2051 7.82161 46.1611 7.71313 46.1396C7.60466 46.1182 7.49288 46.1198 7.38505 46.1443C6.74085 46.3106 6.32437 47.4357 6.28841 48.0304C6.28841 48.0694 6.31088 48.5383 6.32736 48.7615L6.29141 48.772C6.04379 48.2205 5.84623 47.648 5.70114 47.0611C5.61725 46.739 5.55133 46.4259 5.50039 46.1203C5.70414 46.0649 6.63298 45.8027 6.99853 45.5076C7.36407 45.2124 7.69966 44.7705 7.68018 44.309C7.67943 44.1984 7.6554 44.0892 7.60965 43.9885C7.5639 43.8878 7.49746 43.7978 7.41465 43.7245C7.33184 43.6511 7.23451 43.596 7.129 43.5628C7.0235 43.5295 6.91217 43.5189 6.80227 43.5315C6.14309 43.6259 5.60376 44.6986 5.50489 45.2858C5.50489 45.3173 5.47942 45.6469 5.46893 45.8851C5.44646 45.7473 5.42099 45.6049 5.40301 45.4716C5.3311 44.9727 5.29664 44.5128 5.26968 44.1038C5.25619 43.8716 5.24721 43.6619 5.24271 43.4641C5.415 43.3053 6.09815 42.6581 6.27643 42.2386C6.4547 41.8191 6.55957 41.2618 6.32587 40.8543C6.27428 40.7565 6.20268 40.6706 6.11571 40.6023C6.02875 40.534 5.92838 40.4847 5.82113 40.4577C5.71387 40.4307 5.60214 40.4266 5.49319 40.4456C5.38425 40.4647 5.28053 40.5064 5.18878 40.5682C4.64795 40.9562 4.66443 42.1562 4.8457 42.7225C4.86069 42.772 5.19327 43.509 5.20226 43.5016L5.21275 43.4911C5.21275 43.6813 5.21275 43.8836 5.22623 44.1068C5.24421 44.5158 5.26968 44.9787 5.3296 45.4806C5.38988 46.0222 5.48091 46.5599 5.60226 47.0911C5.73644 47.6863 5.92345 48.2684 6.16107 48.8304L6.17006 48.8499C6.04272 48.7001 5.67418 48.3001 5.64122 48.2731C5.19177 47.8836 4.09514 47.3967 3.52585 47.7413C3.43284 47.8012 3.3535 47.8801 3.29299 47.9727C3.23248 48.0653 3.19214 48.1696 3.17462 48.2789C3.1571 48.3881 3.16277 48.4998 3.19128 48.6067C3.21979 48.7136 3.27049 48.8133 3.34008 48.8993C3.62472 49.2754 4.18952 49.3982 4.63297 49.3982C5.13485 49.3982 6.12362 48.9488 6.20152 48.9143C6.4572 49.4801 6.7505 50.0282 7.07943 50.5548C7.26819 50.8634 7.46894 51.1675 7.67868 51.4701C7.56483 51.3458 7.46145 51.2364 7.44497 51.223C6.99553 50.8334 5.8989 50.345 5.3296 50.6911C5.2366 50.751 5.15726 50.8299 5.09675 50.9225C5.03623 51.0151 4.9959 51.1195 4.97838 51.2287C4.96085 51.3379 4.96653 51.4497 4.99504 51.5566C5.02354 51.6635 5.07424 51.7632 5.14383 51.8492C5.42698 52.2237 5.99328 52.3481 6.43673 52.3481C6.88018 52.3481 7.73861 51.9825 7.96183 51.8821C8.04273 51.9975 8.12063 52.1143 8.20153 52.2297C8.58656 52.781 8.97307 53.3293 9.33562 53.8777C9.46297 54.0724 9.58282 54.2672 9.70267 54.4634C9.60079 54.3526 9.5139 54.2612 9.50042 54.2477C9.05098 53.8582 7.95284 53.3713 7.38355 53.7159C7.28888 53.7735 7.2074 53.8504 7.14442 53.9416C7.08145 54.0329 7.03838 54.1363 7.01803 54.2453C6.99768 54.3542 7.0005 54.4662 7.02631 54.574C7.05212 54.6818 7.10033 54.783 7.16782 54.8709C7.45097 55.247 8.01576 55.3698 8.46071 55.3713C8.90566 55.3728 9.6787 55.0402 9.94537 54.9219C10.0607 55.1256 10.1791 55.3294 10.2824 55.5316C10.3499 55.6709 10.4323 55.8013 10.4847 55.9451L10.6705 56.3661C10.7798 56.6387 10.8922 56.9174 10.9926 57.1855C11.0615 57.3713 11.1259 57.5496 11.1903 57.7294C11.0645 57.5346 10.8128 57.1586 10.7873 57.1301C10.4023 56.6807 9.39105 56.029 8.77682 56.2837C8.67575 56.3289 8.58535 56.3949 8.5115 56.4774C8.43766 56.5599 8.38203 56.6571 8.34825 56.7625C8.31447 56.868 8.30329 56.9794 8.31544 57.0894C8.32759 57.1995 8.36279 57.3057 8.41876 57.4013C8.64199 57.8148 9.18132 58.023 9.61727 58.0904C10.1012 58.1638 11.1064 57.8867 11.2323 57.8507C11.3371 58.1503 11.4375 58.438 11.5319 58.7136C11.8435 59.6575 12.0682 60.4575 12.218 61.0223L12.6675 60.9564C12.6631 60.9441 12.6596 60.9316 12.657 60.9189C12.4922 60.3511 12.2465 59.5421 11.9079 58.5863C11.8031 58.2867 11.6832 57.9631 11.5574 57.635C11.8476 57.4668 12.1277 57.2817 12.3963 57.0807C12.7873 57.3968 13.7132 57.6994 13.833 57.7369C13.7566 58.044 13.6832 58.3361 13.6038 58.6193C13.3431 59.5796 13.0885 60.3691 12.9027 60.9234L13.3926 60.8515C13.5604 60.3047 13.7716 59.5781 13.9918 58.7196C14.0697 58.4095 14.1416 58.0754 14.2225 57.7324C14.3514 57.7399 15.3941 57.7998 15.8525 57.6245C16.266 57.4642 16.7514 57.1466 16.8802 56.6957C16.9146 56.5905 16.9265 56.4793 16.915 56.3693C16.9036 56.2593 16.8691 56.153 16.8139 56.0572C16.7586 55.9614 16.6838 55.8783 16.5943 55.8133C16.5048 55.7483 16.4027 55.7028 16.2945 55.6799C15.6398 55.5616 14.7888 56.408 14.5087 56.9324C14.4922 56.9638 14.3499 57.3189 14.263 57.5451C14.2945 57.4043 14.3244 57.2679 14.3544 57.1241C14.4143 56.838 14.4667 56.5503 14.5237 56.2417C14.5446 56.0919 14.5671 55.9421 14.5896 55.7923C14.6121 55.6425 14.6241 55.4777 14.642 55.3189C14.675 54.9503 14.69 54.5698 14.6975 54.1953C14.9491 54.2477 15.842 54.42 16.278 54.3256C16.714 54.2312 17.2383 53.99 17.4346 53.563C17.4843 53.4643 17.5128 53.3563 17.5181 53.2459C17.5234 53.1354 17.5053 53.0252 17.4652 52.9222C17.4251 52.8192 17.3637 52.7257 17.2852 52.648C17.2066 52.5703 17.1125 52.5099 17.0091 52.4709C16.3799 52.2537 15.4106 52.9638 15.0615 53.4387C15.039 53.4687 14.8218 53.8387 14.7064 54.038C14.7064 53.8102 14.7064 53.5885 14.7064 53.3533C14.693 52.6881 14.6585 52.0155 14.627 51.3428C14.6166 51.1376 14.6091 50.9323 14.6016 50.7271C14.69 50.7465 15.7477 50.9758 16.236 50.8694C16.669 50.775 17.1964 50.5338 17.3926 50.1068C17.4426 50.0082 17.4713 49.9001 17.4767 49.7896C17.4821 49.6791 17.4641 49.5687 17.424 49.4657C17.3838 49.3626 17.3224 49.2692 17.2437 49.1915C17.1649 49.1138 17.0707 49.0535 16.9671 49.0147C16.3379 48.7975 15.3686 49.5061 15.0196 49.9825C14.9926 50.0185 14.6795 50.5503 14.6076 50.6896C14.5896 50.2402 14.5761 49.7907 14.5821 49.3413C14.5852 48.7399 14.6277 48.1394 14.7094 47.5435C14.7499 47.5525 15.8525 47.7952 16.3574 47.6933C16.7904 47.599 17.3177 47.3578 17.5155 46.9308C17.5652 46.832 17.5936 46.7238 17.5988 46.6133C17.6039 46.5029 17.5858 46.3925 17.5455 46.2895C17.5053 46.1865 17.4438 46.0931 17.365 46.0154C17.2863 45.9377 17.192 45.8775 17.0885 45.8386C16.4593 45.6214 15.49 46.33 15.1334 46.8064C15.1094 46.8379 14.8712 47.2424 14.7634 47.4387L14.7274 47.4267C14.8249 46.8302 14.9753 46.2436 15.1769 45.6739C15.2847 45.3592 15.4046 45.0641 15.5274 44.775C15.7282 44.8409 16.648 45.1345 17.1095 45.0851C17.5709 45.0356 18.1012 44.8589 18.3439 44.4559C18.4047 44.3635 18.4452 44.2594 18.463 44.1502C18.4808 44.0411 18.4753 43.9295 18.4471 43.8227C18.4188 43.7158 18.3683 43.6161 18.2989 43.53C18.2295 43.444 18.1428 43.3735 18.0443 43.3233C17.445 43.0386 16.3963 43.6364 15.9948 44.0723C15.9739 44.0963 15.7746 44.3615 15.6323 44.5562C15.6907 44.4289 15.7477 44.2956 15.8061 44.1742C16.0203 43.7248 16.2465 43.3158 16.4488 42.9607C16.5656 42.7585 16.675 42.5787 16.7799 42.4124C17.0106 42.375 17.9379 42.2117 18.3185 41.963C18.699 41.7143 19.093 41.3053 19.123 40.8364C19.1345 40.7237 19.1216 40.6099 19.0852 40.5027C19.0487 40.3954 18.9896 40.2973 18.9118 40.215C18.8341 40.1327 18.7395 40.0681 18.6345 40.0256C18.5295 39.9832 18.4166 39.9638 18.3035 39.9689Z" fill="#263238"/>
</svg>
