<svg width="78" height="75" viewBox="0 0 78 75" fill="none" xmlns="http://www.w3.org/2000/svg">
<path d="M8.25037 7.06909L10.4379 9.25659" stroke="#263238" stroke-linecap="round" stroke-linejoin="round"/>
<path d="M10.4379 7.06909L8.25037 9.25659" stroke="#263238" stroke-linecap="round" stroke-linejoin="round"/>
<path d="M69.9298 64.5349L72.1173 66.7224" stroke="#263238" stroke-linecap="round" stroke-linejoin="round"/>
<path d="M72.1173 64.5349L69.9298 66.7224" stroke="#263238" stroke-linecap="round" stroke-linejoin="round"/>
<path d="M21.5933 18.6538L23.0803 20.1409" stroke="#263238" stroke-linecap="round" stroke-linejoin="round"/>
<path d="M23.0803 18.6538L21.5933 20.1409" stroke="#263238" stroke-linecap="round" stroke-linejoin="round"/>
<path d="M59.4592 54.1177L60.9463 55.6047" stroke="#263238" stroke-linecap="round" stroke-linejoin="round"/>
<path d="M60.9463 54.1177L59.4592 55.6047" stroke="#263238" stroke-linecap="round" stroke-linejoin="round"/>
<path d="M14.1658 67.6938L15.6528 69.1809" stroke="#263238" stroke-linecap="round" stroke-linejoin="round"/>
<path d="M15.6528 67.6938L14.1658 69.1809" stroke="#263238" stroke-linecap="round" stroke-linejoin="round"/>
<path d="M58.9907 2.85388L60.4794 4.34094" stroke="#263238" stroke-linecap="round" stroke-linejoin="round"/>
<path d="M60.4794 2.85388L58.9907 4.34094" stroke="#263238" stroke-linecap="round" stroke-linejoin="round"/>
<path d="M10.6198 15.7283C10.6198 15.5423 10.5646 15.3605 10.4613 15.2059C10.358 15.0513 10.2112 14.9308 10.0394 14.8597C9.86756 14.7885 9.67852 14.7699 9.49615 14.8062C9.31377 14.8424 9.14624 14.932 9.01475 15.0635C8.88327 15.1949 8.79372 15.3625 8.75745 15.5449C8.72117 15.7272 8.73979 15.9163 8.81095 16.0881C8.88211 16.2599 9.00261 16.4067 9.15723 16.51C9.31184 16.6133 9.49362 16.6685 9.67957 16.6685C9.92892 16.6685 10.1681 16.5694 10.3444 16.3931C10.5207 16.2168 10.6198 15.9776 10.6198 15.7283Z" stroke="#263238" stroke-linecap="round" stroke-linejoin="round"/>
<path d="M40.8153 3.32251C40.8153 3.13656 40.7602 2.95478 40.6569 2.80017C40.5536 2.64556 40.4067 2.52505 40.2349 2.45389C40.0631 2.38273 39.8741 2.36411 39.6917 2.40039C39.5093 2.43667 39.3418 2.52621 39.2103 2.6577C39.0788 2.78919 38.9893 2.95671 38.953 3.13909C38.9167 3.32147 38.9353 3.51051 39.0065 3.68231C39.0777 3.8541 39.1982 4.00094 39.3528 4.10425C39.5074 4.20756 39.6892 4.2627 39.8751 4.2627C40.1245 4.2627 40.3636 4.16364 40.5399 3.98732C40.7163 3.811 40.8153 3.57186 40.8153 3.32251Z" stroke="#263238" stroke-linecap="round" stroke-linejoin="round"/>
<path d="M69.9596 56.1077C70.4772 56.1077 70.8967 55.6882 70.8967 55.1707C70.8967 54.6532 70.4772 54.2336 69.9596 54.2336C69.4421 54.2336 69.0226 54.6532 69.0226 55.1707C69.0226 55.6882 69.4421 56.1077 69.9596 56.1077Z" stroke="#263238" stroke-linecap="round" stroke-linejoin="round"/>
<path d="M34.4957 72.0236C34.4957 71.8376 34.4406 71.6558 34.3373 71.5012C34.234 71.3466 34.0871 71.2261 33.9153 71.1549C33.7435 71.0838 33.5545 71.0652 33.3721 71.1014C33.1897 71.1377 33.0222 71.2273 32.8907 71.3587C32.7592 71.4902 32.6697 71.6578 32.6334 71.8401C32.5971 72.0225 32.6158 72.2116 32.6869 72.3834C32.7581 72.5552 32.8786 72.702 33.0332 72.8053C33.1878 72.9086 33.3696 72.9637 33.5555 72.9637C33.8049 72.9637 34.044 72.8647 34.2204 72.6884C34.3967 72.5121 34.4957 72.2729 34.4957 72.0236Z" stroke="#263238" stroke-linecap="round" stroke-linejoin="round"/>
<path d="M20.0999 47.6805C20.0999 47.4946 20.0447 47.3128 19.9414 47.1582C19.8381 47.0036 19.6913 46.8831 19.5195 46.8119C19.3477 46.7408 19.1586 46.7221 18.9762 46.7584C18.7939 46.7947 18.6263 46.8842 18.4949 47.0157C18.3634 47.1472 18.2738 47.3147 18.2375 47.4971C18.2013 47.6795 18.2199 47.8685 18.2911 48.0403C18.3622 48.2121 18.4827 48.359 18.6373 48.4623C18.7919 48.5656 18.9737 48.6207 19.1597 48.6207C19.409 48.6207 19.6482 48.5217 19.8245 48.3454C20.0008 48.169 20.0999 47.9299 20.0999 47.6805Z" stroke="#263238" stroke-linecap="round" stroke-linejoin="round"/>
<path d="M75.9282 19.2399C75.9282 19.0539 75.8731 18.8721 75.7698 18.7175C75.6665 18.5629 75.5196 18.4424 75.3478 18.3713C75.176 18.3001 74.987 18.2815 74.8046 18.3177C74.6222 18.354 74.4547 18.4436 74.3232 18.5751C74.1917 18.7065 74.1022 18.8741 74.0659 19.0564C74.0296 19.2388 74.0483 19.4279 74.1194 19.5997C74.1906 19.7715 74.3111 19.9183 74.4657 20.0216C74.6203 20.1249 74.8021 20.1801 74.988 20.1801C75.2374 20.1801 75.4765 20.081 75.6529 19.9047C75.8292 19.7284 75.9282 19.4892 75.9282 19.2399Z" stroke="#263238" stroke-linecap="round" stroke-linejoin="round"/>
<path d="M77 34.8813H1" stroke="#263238" stroke-linecap="round" stroke-linejoin="round"/>
<path d="M7.23962 43.9323L7.65174 47.6789C7.65174 48.7758 9.49921 49.6721 11.7776 49.6721C14.056 49.6721 15.9019 48.7805 15.9019 47.6789L16.3156 43.9323H7.23962Z" fill="#BABDBF" stroke="#263238" stroke-linecap="round" stroke-linejoin="round"/>
<path d="M6.94348 41.7166V44.0263C6.94348 44.617 9.10748 45.3519 11.7776 45.3519C14.4477 45.3519 16.6117 44.617 16.6117 44.0263V41.7166H6.94348Z" fill="#BABDBF" stroke="#263238" stroke-linecap="round" stroke-linejoin="round"/>
<path d="M11.7776 43.0861C14.4474 43.0861 16.6117 42.473 16.6117 41.7166C16.6117 40.9602 14.4474 40.347 11.7776 40.347C9.10779 40.347 6.94348 40.9602 6.94348 41.7166C6.94348 42.473 9.10779 43.0861 11.7776 43.0861Z" fill="#BABDBF" stroke="#263238" stroke-linecap="round" stroke-linejoin="round"/>
<path d="M11.7776 42.7836C13.8581 42.7836 15.5446 42.3059 15.5446 41.7165C15.5446 41.1272 13.8581 40.6494 11.7776 40.6494C9.69717 40.6494 8.01062 41.1272 8.01062 41.7165C8.01062 42.3059 9.69717 42.7836 11.7776 42.7836Z" fill="#263238"/>
<path d="M3.47424 28.3471C3.92083 28.4693 4.9472 28.2969 4.94877 28.2969C4.95034 28.2969 4.63537 27.6545 4.60403 27.6169C4.30944 27.1765 3.48208 26.5012 2.9117 26.6641C2.81772 26.6935 2.731 26.7423 2.65723 26.8075C2.58346 26.8727 2.52429 26.9528 2.48361 27.0424C2.44292 27.1321 2.42164 27.2293 2.42115 27.3278C2.42066 27.4262 2.44098 27.5237 2.48078 27.6137C2.63591 28.0023 3.0919 28.2421 3.47424 28.3471Z" fill="#263238"/>
<path d="M13.9198 27.0638C13.9292 27.0638 14.0075 26.3524 14.0075 26.3054C14.0075 25.7773 13.6941 24.7557 13.1222 24.5817C13.0272 24.5551 12.9277 24.5487 12.8301 24.563C12.7325 24.5772 12.639 24.6119 12.5557 24.6646C12.4724 24.7174 12.4011 24.7871 12.3464 24.8691C12.2917 24.9512 12.2549 25.0439 12.2384 25.1411C12.1538 25.5501 12.3951 26.0014 12.663 26.2991C12.9686 26.6407 13.9198 27.0623 13.9198 27.0638Z" fill="#263238"/>
<path d="M16.452 22.8861C15.8597 22.9081 15.283 23.8075 15.1388 24.3168C15.1263 24.3622 15.0119 25.0721 15.0213 25.0705H15.0307C14.9398 25.2115 14.8411 25.3635 14.7393 25.5406C14.5512 25.854 14.3428 26.2097 14.1407 26.6124C13.9191 27.0435 13.7229 27.4872 13.5531 27.9412C13.3602 28.4495 13.2129 28.9739 13.1127 29.5082C13.112 29.515 13.112 29.5218 13.1127 29.5286C13.0908 29.3562 13.0125 28.8767 13.0031 28.8407C12.8605 28.3298 12.2854 27.4304 11.6931 27.4069C11.5945 27.4058 11.4969 27.4254 11.4064 27.4645C11.316 27.5036 11.2348 27.5614 11.1681 27.6339C11.1014 27.7065 11.0508 27.7923 11.0195 27.8858C10.9882 27.9792 10.9769 28.0782 10.9864 28.1763C11.013 28.5931 11.3718 28.9597 11.7009 29.1807C12.0738 29.4267 13.0281 29.5803 13.1033 29.5912C13.0148 30.1372 12.9624 30.6884 12.9466 31.2413C12.9372 31.562 12.9372 31.8858 12.9466 32.2128C12.9231 32.0639 12.8996 31.9323 12.8949 31.9135C12.7523 31.4042 12.1773 30.5032 11.5849 30.4797C11.4865 30.4788 11.3889 30.4987 11.2986 30.5379C11.2083 30.5771 11.1272 30.6348 11.0606 30.7073C10.9939 30.7798 10.9433 30.8655 10.9119 30.9589C10.8805 31.0522 10.869 31.1511 10.8782 31.2491C10.9049 31.6659 11.2637 32.0326 11.5943 32.2551C11.925 32.4776 12.7398 32.6218 12.9545 32.6578C12.9545 32.7832 12.9545 32.907 12.9545 33.0323C12.9686 33.6309 12.9858 34.2279 12.9858 34.8155C12.9858 35.0224 12.9858 35.2261 12.9701 35.4298C12.9498 35.2982 12.931 35.1869 12.9263 35.1697C12.7837 34.6604 12.2086 33.7594 11.6163 33.7359C11.5177 33.7348 11.4201 33.7544 11.3296 33.7935C11.2392 33.8327 11.158 33.8904 11.0913 33.963C11.0247 34.0355 10.974 34.1213 10.9427 34.2148C10.9114 34.3082 10.9001 34.4072 10.9096 34.5053C10.9362 34.9237 11.295 35.2888 11.6241 35.5113C11.9532 35.7338 12.6912 35.8639 12.9466 35.9077C12.9341 36.1161 12.92 36.3245 12.8981 36.5345C12.8793 36.6708 12.8714 36.804 12.8448 36.9419C12.8181 37.0798 12.7993 37.2115 12.7758 37.3446C12.7241 37.6001 12.6709 37.8633 12.6191 38.1109C12.58 38.2833 12.5392 38.4462 12.4985 38.6108C12.4985 38.4055 12.4985 38.0028 12.4985 37.9699C12.4245 37.5118 12.2347 37.0803 11.9469 36.7163C11.9414 36.6632 11.9309 36.6107 11.9156 36.5596C11.8899 36.4636 11.8442 36.3741 11.7814 36.2971C11.7186 36.2201 11.6402 36.1573 11.5513 36.1129C11.4624 36.0685 11.3651 36.0434 11.2659 36.0394C11.1666 36.0353 11.0676 36.0524 10.9754 36.0895C10.4301 36.323 10.2154 37.3697 10.264 37.8962C10.264 37.9276 10.3361 38.2613 10.3831 38.4713C10.3361 38.3522 10.2922 38.2363 10.2436 38.114C10.148 37.8711 10.0446 37.633 9.93021 37.376L9.75784 37.0046C9.70143 36.8793 9.62778 36.7555 9.56197 36.6285C9.40527 36.3386 9.2329 36.0519 9.0527 35.7667C9.26424 35.6821 10.0117 35.3718 10.289 35.0866C10.5664 34.8014 10.8375 34.3674 10.7748 33.9537C10.7634 33.8559 10.7316 33.7616 10.6813 33.677C10.631 33.5923 10.5634 33.5192 10.483 33.4624C10.4026 33.4057 10.3111 33.3665 10.2145 33.3474C10.1179 33.3284 10.0183 33.33 9.92237 33.352C9.34886 33.4993 8.98219 34.5021 8.94615 35.0302C8.94615 35.0631 8.96338 35.4439 8.97905 35.657C8.86936 35.4862 8.75968 35.3154 8.64372 35.1477C8.30682 34.6604 7.95112 34.1778 7.59855 33.6952C7.48886 33.5463 7.38387 33.3974 7.27731 33.2501C7.35253 33.2204 8.24884 32.8709 8.5591 32.5528C8.83489 32.2692 9.10754 31.832 9.04487 31.4183C9.03348 31.3205 9.00161 31.2262 8.95133 31.1416C8.90105 31.0569 8.83349 30.9838 8.75305 30.9271C8.67262 30.8703 8.58112 30.8311 8.48452 30.8121C8.38792 30.793 8.28839 30.7946 8.19243 30.8166C7.61892 30.9639 7.25224 31.9668 7.2162 32.4948C7.2162 32.534 7.24284 33.084 7.25694 33.2219C7.0219 32.896 6.78685 32.5685 6.57688 32.2347C6.2854 31.7876 6.02367 31.3217 5.79339 30.8401C5.82786 30.826 6.76491 30.4656 7.08301 30.1397C7.3588 29.8561 7.63145 29.4189 7.56877 29.0052C7.55965 28.9067 7.52978 28.8113 7.48114 28.7252C7.43249 28.6391 7.36617 28.5643 7.28653 28.5057C7.2069 28.4471 7.11575 28.406 7.0191 28.3851C6.92244 28.3643 6.82246 28.3641 6.72574 28.3847C6.15222 28.532 5.78555 29.5348 5.74951 30.0629C5.74951 30.0974 5.76832 30.5158 5.78399 30.7148L5.75108 30.7226C5.53143 30.2314 5.35577 29.7217 5.22614 29.1995C5.15093 28.9127 5.09608 28.6354 5.04751 28.3627C5.22927 28.3142 6.05664 28.0791 6.37474 27.8174C6.69283 27.5557 7.00153 27.1609 6.98116 26.744C6.98075 26.6453 6.95946 26.5477 6.9187 26.4578C6.87794 26.3679 6.81862 26.2875 6.74463 26.2221C6.67065 26.1567 6.58367 26.1077 6.4894 26.0783C6.39514 26.0489 6.29572 26.0397 6.19767 26.0514C5.61005 26.1361 5.13055 27.0903 5.04124 27.6184C5.04124 27.6466 5.0193 27.9412 5.0099 28.1559C4.98953 28.0321 4.96759 27.9052 4.95035 27.7876C4.88767 27.3442 4.85633 26.9336 4.83283 26.5701C4.82029 26.3633 4.81246 26.1768 4.80776 26.0013C4.96446 25.8603 5.57088 25.282 5.72914 24.9044C5.88741 24.5268 5.98142 24.0347 5.77302 23.6728C5.72734 23.5848 5.66353 23.5075 5.58578 23.4461C5.50803 23.3846 5.41813 23.3404 5.32201 23.3162C5.22588 23.2921 5.12573 23.2886 5.02817 23.306C4.93061 23.3235 4.83786 23.3614 4.75605 23.4173C4.27342 23.7621 4.28595 24.8276 4.45049 25.3338C4.46459 25.3776 4.76388 26.0342 4.76388 26.0264L4.77328 26.0185C4.77328 26.1878 4.77328 26.368 4.78425 26.5654C4.80149 26.9305 4.82343 27.3489 4.8767 27.7892C4.93022 28.2714 5.01131 28.7501 5.11959 29.223C5.24308 29.7531 5.41351 30.2712 5.62885 30.7712C5.62944 30.7769 5.62944 30.7827 5.62885 30.7884C5.51603 30.6568 5.18697 30.2995 5.15876 30.2744C4.75918 29.9281 3.78139 29.491 3.27839 29.8043C3.19555 29.8575 3.12487 29.9275 3.07098 30.0099C3.01709 30.0923 2.9812 30.1851 2.96567 30.2823C2.95013 30.3795 2.95531 30.4788 2.98084 30.5739C3.00638 30.6689 3.05171 30.7575 3.11385 30.8339C3.36614 31.1676 3.86914 31.2789 4.26402 31.2789C4.7106 31.2789 5.59125 30.8793 5.66019 30.848C5.88919 31.3513 6.15091 31.8392 6.44368 32.3084C6.61292 32.5826 6.79155 32.8537 6.97489 33.1232C6.87303 33.012 6.78058 32.9148 6.76648 32.9023C6.3669 32.556 5.38911 32.1188 4.88611 32.4322C4.80342 32.4856 4.7329 32.5559 4.67914 32.6384C4.62539 32.7209 4.58959 32.8138 4.57407 32.911C4.55855 33.0083 4.56366 33.1077 4.58908 33.2028C4.61449 33.298 4.65963 33.3867 4.72157 33.4632C4.97386 33.797 5.47686 33.9067 5.8733 33.9067C6.26975 33.9067 7.0313 33.5823 7.23031 33.493L7.44185 33.8064C7.78502 34.2969 8.12975 34.7858 8.45255 35.2762C8.56694 35.4486 8.67192 35.6225 8.77848 35.7965C8.68916 35.6978 8.61238 35.6163 8.59828 35.6053C8.1987 35.259 7.22247 34.8218 6.7179 35.1352C6.63581 35.1893 6.566 35.2601 6.51299 35.3429C6.45998 35.4257 6.42495 35.5187 6.41018 35.6159C6.39541 35.7131 6.40122 35.8123 6.42723 35.9071C6.45325 36.0019 6.49889 36.0902 6.56121 36.1663C6.81349 36.5 7.31649 36.6097 7.71293 36.6097C8.10938 36.6097 8.79728 36.3167 9.0339 36.2117C9.13732 36.3935 9.24231 36.5737 9.33476 36.7539C9.3943 36.8793 9.46168 36.9952 9.51496 37.1237C9.56824 37.2522 9.62621 37.3744 9.68106 37.4982C9.77664 37.7395 9.8785 37.9887 9.96625 38.2269C10.0289 38.3914 10.0853 38.5512 10.1433 38.7111C10.0305 38.5371 9.80642 38.2033 9.78448 38.1767C9.44131 37.774 8.54187 37.1973 7.99342 37.4246C7.90416 37.4654 7.82446 37.5245 7.75946 37.5981C7.69447 37.6717 7.64563 37.7581 7.61609 37.8517C7.58656 37.9453 7.57699 38.0441 7.588 38.1416C7.59901 38.2392 7.63037 38.3333 7.68003 38.418C7.87903 38.7863 8.3601 38.9727 8.75027 39.0323C9.17963 39.0981 10.0759 38.8505 10.1872 38.8192C10.2812 39.084 10.3705 39.3425 10.4504 39.587C10.7278 40.4285 10.9205 41.1399 11.06 41.6413L11.458 41.5833C11.458 41.5724 11.458 41.563 11.4486 41.5504C11.3029 41.0443 11.0835 40.325 10.7826 39.4742C10.6886 39.2046 10.5821 38.9195 10.4692 38.6264C10.7284 38.4776 10.978 38.3127 11.2167 38.1328C11.5646 38.4149 12.3888 38.6844 12.4954 38.7173C12.428 38.99 12.3606 39.2548 12.2916 39.5008C12.0597 40.3548 11.8325 41.0584 11.6649 41.5504L12.1005 41.4877C12.2572 41.0004 12.4374 40.3548 12.6285 39.5901C12.6975 39.3128 12.7664 39.0166 12.8354 38.7111C12.9482 38.7111 13.8774 38.7706 14.2848 38.6139C14.6531 38.4729 15.084 38.1892 15.2 37.7881C15.2307 37.6945 15.2414 37.5955 15.2312 37.4975C15.2211 37.3995 15.1904 37.3047 15.1412 37.2194C15.0919 37.1341 15.0252 37.0601 14.9454 37.0023C14.8657 36.9445 14.7746 36.9042 14.6782 36.884C14.0952 36.7774 13.3384 37.5327 13.0877 37.9981C13.0736 38.0263 12.9466 38.3428 12.8699 38.5434C12.8981 38.418 12.9247 38.2974 12.9513 38.1689C13.0046 37.9135 13.0516 37.658 13.108 37.3854C13.1284 37.2522 13.1472 37.1174 13.1676 36.9811C13.188 36.8448 13.1974 36.7006 13.213 36.5596C13.2428 36.2305 13.2569 35.8968 13.2632 35.5599C13.4872 35.6069 14.2817 35.7604 14.6735 35.6758C15.0652 35.5912 15.5275 35.3765 15.703 34.9973C15.7473 34.9094 15.7727 34.8131 15.7774 34.7147C15.7821 34.6163 15.766 34.518 15.7303 34.4262C15.6945 34.3344 15.6398 34.2512 15.5698 34.182C15.4998 34.1127 15.4159 34.059 15.3237 34.0242C14.7643 33.8315 13.9009 34.463 13.5828 34.8861C13.564 34.9127 13.3697 35.2418 13.2694 35.4251C13.2694 35.2214 13.2694 35.0193 13.2694 34.8155C13.2585 34.2232 13.2271 33.6246 13.1989 33.0261C13.1989 32.8427 13.1848 32.6609 13.177 32.4776C13.2569 32.4948 14.1971 32.6986 14.6311 32.6045C15.0182 32.5199 15.4867 32.3052 15.6622 31.926C15.7084 31.8354 15.7343 31.7357 15.7381 31.634C15.7419 31.5324 15.7236 31.4311 15.6844 31.3371C15.6452 31.2432 15.5861 31.159 15.5111 31.0902C15.4361 31.0214 15.347 30.9698 15.2501 30.9388C14.6907 30.7461 13.8273 31.3776 13.5092 31.8007C13.4857 31.832 13.2083 32.3068 13.1425 32.4275C13.1268 32.0248 13.1159 31.6236 13.1206 31.2287C13.1235 30.6941 13.1612 30.1602 13.2334 29.6304C13.271 29.6304 14.2519 29.8545 14.697 29.7573C15.0824 29.6743 15.551 29.4596 15.7265 29.0804C15.7691 28.9928 15.7931 28.8973 15.7967 28.7999C15.8004 28.7025 15.7837 28.6055 15.7477 28.5149C15.7117 28.4244 15.6572 28.3423 15.5878 28.274C15.5183 28.2057 15.4353 28.1527 15.3441 28.1183C14.7847 27.9255 13.9213 28.557 13.6048 28.9801C13.5828 29.0068 13.3713 29.3687 13.2741 29.5427L13.2428 29.5317C13.3286 28.9983 13.4629 28.4738 13.6439 27.9647C13.7395 27.6842 13.8461 27.4225 13.9573 27.1687C14.136 27.2282 14.9555 27.4821 15.3676 27.446C15.7797 27.41 16.2498 27.2439 16.4645 26.8851C16.5183 26.8027 16.5541 26.7099 16.5697 26.6127C16.5852 26.5155 16.5801 26.4162 16.5547 26.3211C16.5292 26.2261 16.4841 26.1374 16.4221 26.061C16.3601 25.9845 16.2827 25.922 16.195 25.8775C15.6591 25.6236 14.733 26.1564 14.3695 26.5419C14.3507 26.5623 14.1736 26.7973 14.0482 26.9712C14.0984 26.8584 14.1501 26.7393 14.2049 26.6312C14.3961 26.2269 14.5967 25.8681 14.7769 25.5516C14.8803 25.3714 14.9774 25.2115 15.0715 25.0627C15.2767 25.0298 16.1025 24.884 16.441 24.6615C16.7795 24.439 17.1305 24.0739 17.1571 23.6571C17.1668 23.559 17.1557 23.46 17.1246 23.3665C17.0935 23.273 17.043 23.187 16.9765 23.1143C16.91 23.0416 16.8289 22.9837 16.7385 22.9444C16.6482 22.9051 16.5505 22.8852 16.452 22.8861Z" fill="#263238"/>
<path d="M54.2051 66.4012L54.1315 65.9123C54.1565 65.9123 56.554 65.5347 57.701 64.4315C57.9471 64.1949 57.9408 64.0241 57.9142 63.916C57.6493 62.8191 53.594 61.0955 45.5178 58.6588C44.1874 58.2577 42.8994 57.8753 41.6646 57.5086C33.6009 55.1143 28.2732 53.5332 27.905 51.739C27.8125 51.2909 28.0146 50.8553 28.5067 50.4478C31.3006 48.1271 42.4261 47.2857 42.8994 47.2496L42.9354 47.7448C42.821 47.7526 31.4965 48.6082 28.8232 50.8286C28.3108 51.2533 28.3703 51.5447 28.3907 51.6387C28.7041 53.143 34.4831 54.8604 41.8056 57.0338C43.0404 57.4005 44.33 57.7829 45.6604 58.184C56.449 61.4386 58.157 62.8066 58.3968 63.8001C58.4814 64.1495 58.3623 64.4817 58.0442 64.7888C56.7765 66.0017 54.3038 66.3856 54.2051 66.4012Z" fill="white" stroke="#263238" stroke-linecap="round" stroke-linejoin="round"/>
<path d="M28.8516 50.1924L29.5661 50.3491C33.1451 48.4891 42.8243 47.7526 42.923 47.7448L42.887 47.2496C42.4388 47.2841 32.1203 48.0645 28.8516 50.1924Z" fill="#263238" stroke="#263238" stroke-linecap="round" stroke-linejoin="round"/>
<path d="M55.5293 66.9308C55.6214 66.6334 55.6149 66.3141 55.5107 66.0207C55.4065 65.7273 55.2102 65.4754 54.951 65.3027C54.2302 64.8326 52.914 64.2529 50.6936 64.0946C46.7557 63.8125 44.0825 65.2667 42.8164 66.4842C41.5502 67.7018 41.8323 69.1575 43.661 70.0475C45.4896 70.9376 46.8028 71.1726 48.3494 70.9391C49.896 70.7057 52.4235 69.485 53.3183 68.8754C54.213 68.2659 55.2879 67.7033 55.523 66.9543L55.5293 66.9308Z" fill="#00FF00" stroke="#263238" stroke-linecap="round" stroke-linejoin="round"/>
<path d="M49.4745 69.8141C47.2714 71.3137 45.1606 70.6102 45.1606 70.6102L45.1121 70.6509C46.15 71.0169 47.2632 71.116 48.3494 70.9392C49.896 70.7042 52.4236 69.4851 53.3183 68.8755C54.2131 68.266 55.288 67.7034 55.5231 66.9544V66.9309C55.5418 66.8709 55.5559 66.8097 55.5654 66.7476C54.1849 67.0845 51.4254 68.4853 49.4745 69.8141Z" fill="white" stroke="#263238" stroke-linecap="round" stroke-linejoin="round"/>
<path d="M46.2403 67.2348C46.2403 67.5717 45.8297 67.8444 45.3252 67.8444C44.8206 67.8444 44.4116 67.5717 44.4116 67.2348C44.4116 66.8979 44.8206 66.6252 45.3252 66.6252C45.8297 66.6252 46.2403 66.8979 46.2403 67.2348Z" fill="white" stroke="#263238" stroke-linecap="round" stroke-linejoin="round"/>
<path d="M27.8173 57.9128L27.717 57.4286C29.2009 57.1152 30.1819 56.6765 30.3198 56.4571C30.1631 56.3004 29.5363 55.9604 29.0145 55.6861C27.1231 54.688 23.9594 53.0223 24.9654 50.8614C25.553 49.6 28.7575 48.4953 34.759 47.4877C39.1136 46.7559 43.3617 46.3642 43.404 46.3595L43.4495 46.8531C43.4072 46.8531 39.1748 47.248 34.8311 47.9766C27.2955 49.2427 25.6909 50.4587 25.4057 51.0714C24.5987 52.7951 27.3911 54.2727 29.2385 55.249C30.3605 55.8413 30.8713 56.1108 30.8181 56.4869C30.7193 57.2343 28.687 57.7342 27.8173 57.9128Z" fill="white" stroke="#263238" stroke-linecap="round" stroke-linejoin="round"/>
<path d="M43.404 46.3595C43.3617 46.3595 39.1136 46.7559 34.759 47.4877C30.7366 48.1631 27.974 48.8823 26.4102 49.6627L27.2313 49.8398C28.5883 49.285 30.9043 48.6379 34.8389 47.9766C39.1748 47.248 43.4072 46.8578 43.4573 46.8531L43.404 46.3595Z" fill="#263238" stroke="#263238" stroke-linecap="round" stroke-linejoin="round"/>
<path d="M43.2019 61.4464L34.2404 66.5484L1.59241 55.2255L11.5192 51.6465L43.2019 61.4464Z" fill="white" stroke="#263238" stroke-linecap="round" stroke-linejoin="round"/>
<path d="M28.8046 58.8546L29.8701 59.1821L30.9842 58.6007L29.9312 58.2858L28.8046 58.8546Z" fill="#263238" stroke="#263238" stroke-linecap="round" stroke-linejoin="round"/>
<path d="M27.1513 57.496L26.2284 58.0632L28.3501 58.7151L29.472 58.1479L27.2046 57.4694L27.1513 57.496Z" fill="#263238" stroke="#263238" stroke-linecap="round" stroke-linejoin="round"/>
<path d="M30.3181 59.32L31.4526 59.6678L32.5808 59.0786L31.4369 58.7355L30.3181 59.32Z" fill="#263238" stroke="#263238" stroke-linecap="round" stroke-linejoin="round"/>
<path d="M23.0787 57.0965L24.1035 57.4115L25.155 56.8552L24.2132 56.5731L23.0787 57.0965Z" fill="#263238" stroke="#263238" stroke-linecap="round" stroke-linejoin="round"/>
<path d="M24.5502 57.5477L25.8085 57.9348L26.7753 57.3409L25.6047 56.9899L24.5502 57.5477Z" fill="#263238" stroke="#263238" stroke-linecap="round" stroke-linejoin="round"/>
<path d="M29.6523 60.6065L28.5319 60.2523L27.4193 60.8337L28.5256 61.1956L29.6523 60.6065Z" fill="#263238" stroke="#263238" stroke-linecap="round" stroke-linejoin="round"/>
<path d="M31.9025 59.8057L33.3347 60.246L34.4801 59.6474L33.0354 59.215L31.9025 59.8057Z" fill="#263238" stroke="#263238" stroke-linecap="round" stroke-linejoin="round"/>
<path d="M20.3365 56.2549L21.3159 56.5558L22.4034 56.0308L21.399 55.73L20.3365 56.2549Z" fill="#263238" stroke="#263238" stroke-linecap="round" stroke-linejoin="round"/>
<path d="M33.1294 61.708L31.9573 61.3367L30.7993 61.9415L32.0216 62.3427L33.1294 61.708Z" fill="#263238" stroke="#263238" stroke-linecap="round" stroke-linejoin="round"/>
<path d="M34.4676 60.9403L33.366 60.6018L32.371 61.1205L33.518 61.484L34.4676 60.9403Z" fill="#263238" stroke="#263238" stroke-linecap="round" stroke-linejoin="round"/>
<path d="M33.7828 60.384L34.8609 60.7146L35.9531 60.0878L34.9346 59.7838L33.7828 60.384Z" fill="#263238" stroke="#263238" stroke-linecap="round" stroke-linejoin="round"/>
<path d="M31.5122 61.1956L30.0973 60.7474L28.9628 61.3398L30.3605 61.7973L31.5122 61.1956Z" fill="#263238" stroke="#263238" stroke-linecap="round" stroke-linejoin="round"/>
<path d="M37.6798 60.605L36.3887 60.2195L35.2933 60.8478L36.5642 61.238L37.6798 60.605Z" fill="#263238" stroke="#263238" stroke-linecap="round" stroke-linejoin="round"/>
<path d="M36.1677 61.4621L34.9 61.0719L33.9457 61.6203L35.193 62.0137L36.1677 61.4621Z" fill="#263238" stroke="#263238" stroke-linecap="round" stroke-linejoin="round"/>
<path d="M22.8563 56.1783L21.7798 56.6985L22.6056 56.9508L23.7354 56.4305L22.8735 56.172L22.8563 56.1783Z" fill="#263238" stroke="#263238" stroke-linecap="round" stroke-linejoin="round"/>
<path d="M7.52026 55.3634L8.44321 54.9591L7.87596 54.7742L6.90601 55.1565L7.52026 55.3634Z" fill="#263238" stroke="#263238" stroke-linecap="round" stroke-linejoin="round"/>
<path d="M7.78345 54.395L8.89757 54.7601L9.85342 54.3418L8.72207 53.9845L7.78345 54.395Z" fill="#263238" stroke="#263238" stroke-linecap="round" stroke-linejoin="round"/>
<path d="M9.18127 53.7823L10.3126 54.1412L11.1431 53.7776L9.99767 53.425L9.18127 53.7823Z" fill="#263238" stroke="#263238" stroke-linecap="round" stroke-linejoin="round"/>
<path d="M12.3622 56.2441L11.6978 56.0262L10.6683 56.4258L11.4142 56.6781L12.3622 56.2441Z" fill="#263238" stroke="#263238" stroke-linecap="round" stroke-linejoin="round"/>
<path d="M9.82993 55.4136L8.91481 55.1143L7.9856 55.5217L8.89444 55.8272L9.82993 55.4136Z" fill="#263238" stroke="#263238" stroke-linecap="round" stroke-linejoin="round"/>
<path d="M10.7905 54.2915L11.2763 54.445L12.0707 54.0611L11.6273 53.9248L10.7905 54.2915Z" fill="#263238" stroke="#263238" stroke-linecap="round" stroke-linejoin="round"/>
<path d="M11.2026 55.8648L10.2985 55.5686L9.35828 55.9839L10.1794 56.2612L11.2026 55.8648Z" fill="#263238" stroke="#263238" stroke-linecap="round" stroke-linejoin="round"/>
<path d="M18.9529 55.8303L19.8774 56.1139L20.9351 55.5906L20.031 55.321L18.9529 55.8303Z" fill="#263238" stroke="#263238" stroke-linecap="round" stroke-linejoin="round"/>
<path d="M16.3439 55.028L17.1054 55.2631L18.0989 54.7413L17.3452 54.5156L16.3439 55.028Z" fill="#263238" stroke="#263238" stroke-linecap="round" stroke-linejoin="round"/>
<path d="M12.4593 54.8197L13.2867 54.4342L12.5345 54.2039L11.7354 54.5909L12.4593 54.8197Z" fill="#263238" stroke="#263238" stroke-linecap="round" stroke-linejoin="round"/>
<path d="M17.5536 55.3994L18.4844 55.6861L19.5578 55.1784L18.5502 54.8776L17.5536 55.3994Z" fill="#263238" stroke="#263238" stroke-linecap="round" stroke-linejoin="round"/>
<path d="M16.0306 54.1317L14.9697 54.6064L15.8927 54.8901L16.8877 54.3792L16.0447 54.127L16.0306 54.1317Z" fill="#263238" stroke="#263238" stroke-linecap="round" stroke-linejoin="round"/>
<path d="M13.5829 54.1803L14.4902 54.4593L15.5588 53.9813L14.6014 53.6946L13.5829 54.1803Z" fill="#263238" stroke="#263238" stroke-linecap="round" stroke-linejoin="round"/>
<path d="M12.0911 53.7227L13.1159 54.0377L14.1297 53.5535L13.1472 53.2589L12.0911 53.7227Z" fill="#263238" stroke="#263238" stroke-linecap="round" stroke-linejoin="round"/>
<path d="M25.4574 58.9329L26.9711 59.4124L27.9238 58.9298L26.3239 58.4393L25.4574 58.9329Z" fill="#263238" stroke="#263238" stroke-linecap="round" stroke-linejoin="round"/>
<path d="M27.4209 59.555L28.5005 59.8966L29.4533 59.3998L28.3799 59.0692L27.4209 59.555Z" fill="#263238" stroke="#263238" stroke-linecap="round" stroke-linejoin="round"/>
<path d="M32.9162 60.4639L31.4855 60.0236L30.5109 60.5328L31.9258 60.981L32.9162 60.4639Z" fill="#263238" stroke="#263238" stroke-linecap="round" stroke-linejoin="round"/>
<path d="M28.9456 60.0361L30.0659 60.3918L31.0359 59.8857L29.903 59.5378L28.9456 60.0361Z" fill="#263238" stroke="#263238" stroke-linecap="round" stroke-linejoin="round"/>
<path d="M13.7489 56.6984L12.8244 56.396L11.8717 56.8332L12.7962 57.145L13.7489 56.6984Z" fill="#263238" stroke="#263238" stroke-linecap="round" stroke-linejoin="round"/>
<path d="M20.9429 57.5039L22.0492 57.8549L22.8499 57.3723L21.7734 57.0416L20.9429 57.5039Z" fill="#263238" stroke="#263238" stroke-linecap="round" stroke-linejoin="round"/>
<path d="M22.4692 57.9881L23.5458 58.3281L24.3715 57.8392L23.2747 57.5023L22.4692 57.9881Z" fill="#263238" stroke="#263238" stroke-linecap="round" stroke-linejoin="round"/>
<path d="M23.9688 58.4613L25.0296 58.7982L25.8914 58.3061L24.7977 57.9692L23.9688 58.4613Z" fill="#263238" stroke="#263238" stroke-linecap="round" stroke-linejoin="round"/>
<path d="M13.1802 55.3948L12.4813 55.1738L11.5192 55.6204L12.2603 55.8633L13.1802 55.3948Z" fill="#263238" stroke="#263238" stroke-linecap="round" stroke-linejoin="round"/>
<path d="M11.607 53.5739L12.6584 53.1132L11.0491 52.6306L11.0523 52.64L9.8739 53.0412L11.607 53.5739Z" fill="#263238" stroke="#263238" stroke-linecap="round" stroke-linejoin="round"/>
<path d="M9.33482 52.8766L10.5195 52.4723L10.181 52.3705L9.03552 52.7842L9.33482 52.8766Z" fill="#263238" stroke="#263238" stroke-linecap="round" stroke-linejoin="round"/>
<path d="M40.4738 61.0969L42.0924 61.5827L42.5124 61.3429L40.9172 60.8556L40.4738 61.0969Z" fill="#263238" stroke="#263238" stroke-linecap="round" stroke-linejoin="round"/>
<path d="M12.0159 55.0248L11.3014 54.7992L10.3784 55.2458L11.0601 55.4699L12.0159 55.0248Z" fill="#263238" stroke="#263238" stroke-linecap="round" stroke-linejoin="round"/>
<path d="M19.575 57.0714L20.5104 57.3675L21.3362 56.9069L20.3976 56.6185L19.575 57.0714Z" fill="#263238" stroke="#263238" stroke-linecap="round" stroke-linejoin="round"/>
<path d="M9.36768 54.9152L9.92552 55.0985L10.8438 54.655L10.3314 54.4921L9.36768 54.9152Z" fill="#263238" stroke="#263238" stroke-linecap="round" stroke-linejoin="round"/>
<path d="M18.113 56.609L19.141 56.9334L19.9589 56.4837L18.9091 56.1609L18.113 56.609Z" fill="#263238" stroke="#263238" stroke-linecap="round" stroke-linejoin="round"/>
<path d="M17.2872 56.6937L16.3658 56.4022L15.4021 56.8943L16.3689 57.2108L17.2872 56.6937Z" fill="#263238" stroke="#263238" stroke-linecap="round" stroke-linejoin="round"/>
<path d="M18.7414 57.1544L17.7197 56.8301L16.7952 57.3503L17.7918 57.6762L18.7414 57.1544Z" fill="#263238" stroke="#263238" stroke-linecap="round" stroke-linejoin="round"/>
<path d="M21.6732 58.082L20.5465 57.7247L19.5797 58.2638L20.7408 58.643L21.6732 58.082Z" fill="#263238" stroke="#263238" stroke-linecap="round" stroke-linejoin="round"/>
<path d="M28.0869 60.1112L27.001 59.7681L25.8868 60.3306L26.9806 60.6894L28.0869 60.1112Z" fill="#263238" stroke="#263238" stroke-linecap="round" stroke-linejoin="round"/>
<path d="M23.165 58.5538L22.0916 58.2153L21.1545 58.7794L22.2044 59.1242L23.165 58.5538Z" fill="#263238" stroke="#263238" stroke-linecap="round" stroke-linejoin="round"/>
<path d="M26.5496 59.6255L23.588 58.6885L22.6212 59.2604L25.4433 60.1849L26.5496 59.6255Z" fill="#263238" stroke="#263238" stroke-linecap="round" stroke-linejoin="round"/>
<path d="M20.1141 57.5885L19.1755 57.2924L18.2212 57.8173L19.1535 58.1229L20.1141 57.5885Z" fill="#263238" stroke="#263238" stroke-linecap="round" stroke-linejoin="round"/>
<path d="M15.5212 55.788L16.3361 56.0465L17.1634 55.625L16.3486 55.3759L15.5212 55.788Z" fill="#263238" stroke="#263238" stroke-linecap="round" stroke-linejoin="round"/>
<path d="M14.0468 55.3226L15.07 55.6454L15.8911 55.2348L14.8475 54.9136L14.0468 55.3226Z" fill="#263238" stroke="#263238" stroke-linecap="round" stroke-linejoin="round"/>
<path d="M15.9176 56.2612L15.095 55.9995L14.1156 56.4712L14.9602 56.7485L15.9176 56.2612Z" fill="#263238" stroke="#263238" stroke-linecap="round" stroke-linejoin="round"/>
<path d="M16.7858 56.1892L17.6821 56.4728L18.4718 56.0278L17.6163 55.7645L16.7858 56.1892Z" fill="#263238" stroke="#263238" stroke-linecap="round" stroke-linejoin="round"/>
<path d="M12.9247 54.9669L13.5985 55.18L14.3929 54.7757L13.7583 54.5798L12.9247 54.9669Z" fill="#263238" stroke="#263238" stroke-linecap="round" stroke-linejoin="round"/>
<path d="M14.6359 55.8554L13.6284 55.5358L12.7023 56.009L13.6644 56.324L14.6359 55.8554Z" fill="#263238" stroke="#263238" stroke-linecap="round" stroke-linejoin="round"/>
<path d="M7.31332 54.2414L8.24568 53.8324L7.12059 53.4767L6.10205 53.8449L7.31332 54.2414Z" fill="#263238" stroke="#263238" stroke-linecap="round" stroke-linejoin="round"/>
<path d="M16.5319 58.7559L11.433 57.0338L11.4283 57.0354L11.4267 57.0307L8.91171 56.1814L7.23975 56.921L14.9461 59.5864L16.5319 58.7559Z" fill="#263238" stroke="#263238" stroke-linecap="round" stroke-linejoin="round"/>
<path d="M4.16384 55.8585L5.76059 55.1189L5.02411 54.8698L3.2926 55.5561L4.16384 55.8585Z" fill="#263238" stroke="#263238" stroke-linecap="round" stroke-linejoin="round"/>
<path d="M7.07042 55.5608L6.21485 55.2725L4.6134 56.0136L5.40943 56.2879L7.07042 55.5608Z" fill="#263238" stroke="#263238" stroke-linecap="round" stroke-linejoin="round"/>
<path d="M8.44792 56.0262L7.53594 55.7175L5.87024 56.4477L6.78222 56.7627L8.44792 56.0262Z" fill="#263238" stroke="#263238" stroke-linecap="round" stroke-linejoin="round"/>
<path d="M20.8583 60.2163L19.9103 59.8966L18.2587 60.7318L19.2929 61.0891L20.8583 60.2163Z" fill="#263238" stroke="#263238" stroke-linecap="round" stroke-linejoin="round"/>
<path d="M17.9 59.2166L16.9645 58.9016L15.374 59.7337L16.2547 60.0392L17.9 59.2166Z" fill="#263238" stroke="#263238" stroke-linecap="round" stroke-linejoin="round"/>
<path d="M19.4716 59.7478L18.3402 59.3655L16.6918 60.1897L17.8231 60.5815L19.4716 59.7478Z" fill="#263238" stroke="#263238" stroke-linecap="round" stroke-linejoin="round"/>
<path d="M14.8771 53.4328L15.529 53.0912L14.3538 52.7308L13.6157 53.0536L14.8771 53.4328Z" fill="#263238" stroke="#263238" stroke-linecap="round" stroke-linejoin="round"/>
<path d="M15.3301 53.5676L16.0274 53.7775L16.7748 53.472L15.9788 53.2275L15.3301 53.5676Z" fill="#263238" stroke="#263238" stroke-linecap="round" stroke-linejoin="round"/>
<path d="M23.5708 61.133L21.2814 60.3589L19.7113 61.2348L21.8847 61.9854L23.5708 61.133Z" fill="#263238" stroke="#263238" stroke-linecap="round" stroke-linejoin="round"/>
<path d="M16.5319 53.928L17.3232 54.1646L18.0299 53.8559L17.273 53.624L16.5319 53.928Z" fill="#263238" stroke="#263238" stroke-linecap="round" stroke-linejoin="round"/>
<path d="M5.01455 54.5172L5.02238 54.5141L5.02552 54.5219L6.4217 54.9936L7.38539 54.6128L5.59747 54.0267L4.6134 54.3824L5.01455 54.5172Z" fill="#263238" stroke="#263238" stroke-linecap="round" stroke-linejoin="round"/>
<path d="M12.2133 52.6336L13.1268 52.9078L13.8696 52.5835L12.9873 52.3124L12.2133 52.6336Z" fill="#263238" stroke="#263238" stroke-linecap="round" stroke-linejoin="round"/>
<path d="M9.51341 53.2761L8.51995 52.9706L7.63147 53.2918L8.70328 53.6318L9.51341 53.2761Z" fill="#263238" stroke="#263238" stroke-linecap="round" stroke-linejoin="round"/>
<path d="M35.063 63.6872L33.6981 63.239L32.6326 63.8439L33.9598 64.292L35.063 63.6872Z" fill="#263238" stroke="#263238" stroke-linecap="round" stroke-linejoin="round"/>
<path d="M40.0679 61.321L38.9067 61.9572L40.5458 62.4602L41.6944 61.8084L40.0679 61.321Z" fill="#263238" stroke="#263238" stroke-linecap="round" stroke-linejoin="round"/>
<path d="M11.7119 52.4849L12.4907 52.1621L11.5536 51.8754L10.7028 52.1825L11.7119 52.4849Z" fill="#263238" stroke="#263238" stroke-linecap="round" stroke-linejoin="round"/>
<path d="M38.5025 62.1782L37.4808 62.7392L39.1371 63.2626L40.151 62.6859L38.5025 62.1782Z" fill="#263238" stroke="#263238" stroke-linecap="round" stroke-linejoin="round"/>
<path d="M33.9927 64.6509L32.2894 65.5848L34.0068 66.1771L35.6866 65.2228L33.9927 64.6509Z" fill="#263238" stroke="#263238" stroke-linecap="round" stroke-linejoin="round"/>
<path d="M37.0813 62.9585L35.8904 63.6104L37.5608 64.1588L38.7454 63.485L37.0813 62.9585Z" fill="#263238" stroke="#263238" stroke-linecap="round" stroke-linejoin="round"/>
<path d="M4.61659 54.7036L4.11359 54.5626L2.3053 55.216L2.81457 55.3915L4.61659 54.7036Z" fill="#263238" stroke="#263238" stroke-linecap="round" stroke-linejoin="round"/>
<path d="M33.5665 64.5067L32.2472 64.0616L30.594 64.9971L31.8679 65.439L33.5665 64.5067Z" fill="#263238" stroke="#263238" stroke-linecap="round" stroke-linejoin="round"/>
<path d="M28.4675 62.7862L27.087 62.3192L25.3978 63.1999L26.7658 63.6731L28.4675 62.7862Z" fill="#263238" stroke="#263238" stroke-linecap="round" stroke-linejoin="round"/>
<path d="M31.8272 63.9206L30.6363 63.5179L30.6049 63.5352L30.5861 63.5007L28.9001 62.9319L27.1952 63.8219L30.1787 64.8546L31.8272 63.9206Z" fill="#263238" stroke="#263238" stroke-linecap="round" stroke-linejoin="round"/>
<path d="M26.653 62.1735L25.5593 61.8037L23.8842 62.6781L24.9685 63.0526L26.653 62.1735Z" fill="#263238" stroke="#263238" stroke-linecap="round" stroke-linejoin="round"/>
<path d="M37.1721 64.3781L35.4938 63.8281L34.386 64.4345L36.0705 65.0049L37.1721 64.3781Z" fill="#263238" stroke="#263238" stroke-linecap="round" stroke-linejoin="round"/>
<path d="M17.8121 54.3103L18.5235 54.5234L19.2161 54.2178L18.5141 54.0032L17.8121 54.3103Z" fill="#263238" stroke="#263238" stroke-linecap="round" stroke-linejoin="round"/>
<path d="M25.1267 61.6579L24.0111 61.2803L22.3187 62.1358L23.4548 62.5292L25.1267 61.6579Z" fill="#263238" stroke="#263238" stroke-linecap="round" stroke-linejoin="round"/>
<path d="M26.0842 56.7877L27.1717 57.1137L27.7327 56.8222L26.7408 56.5198L26.0842 56.7877Z" fill="#263238" stroke="#263238" stroke-linecap="round" stroke-linejoin="round"/>
<path d="M31.636 62.5636L30.3903 62.1547L29.3059 62.7203L30.6002 63.1575L31.636 62.5636Z" fill="#263238" stroke="#263238" stroke-linecap="round" stroke-linejoin="round"/>
<path d="M28.1165 61.4087L27.0103 61.0468L25.9651 61.5921L27.0588 61.9619L28.1165 61.4087Z" fill="#263238" stroke="#263238" stroke-linecap="round" stroke-linejoin="round"/>
<path d="M39.623 61.1879L38.1187 60.7366L36.9983 61.3712L38.4665 61.8225L39.623 61.1879Z" fill="#263238" stroke="#263238" stroke-linecap="round" stroke-linejoin="round"/>
<path d="M33.2751 63.1011L32.0592 62.7015L31.0187 63.2986L32.2127 63.7013L33.2751 63.1011Z" fill="#263238" stroke="#263238" stroke-linecap="round" stroke-linejoin="round"/>
<path d="M38.0622 62.0434L36.6034 61.5952L35.6224 62.1499L37.0453 62.6012L38.0622 62.0434Z" fill="#263238" stroke="#263238" stroke-linecap="round" stroke-linejoin="round"/>
<path d="M34.7997 62.2362L33.5571 61.8429L32.4446 62.4807L33.6637 62.8802L34.7997 62.2362Z" fill="#263238" stroke="#263238" stroke-linecap="round" stroke-linejoin="round"/>
<path d="M36.6457 62.8206L35.2307 62.3724L34.0884 63.0196L35.4611 63.4693L36.6457 62.8206Z" fill="#263238" stroke="#263238" stroke-linecap="round" stroke-linejoin="round"/>
<path d="M29.9515 62.0105L28.5537 61.553L27.4913 62.1077L28.8734 62.5731L29.9515 62.0105Z" fill="#263238" stroke="#263238" stroke-linecap="round" stroke-linejoin="round"/>
<path d="M17.8748 58.0522L16.875 57.7247L15.9004 58.1933L16.9362 58.5427L17.8748 58.0522Z" fill="#263238" stroke="#263238" stroke-linecap="round" stroke-linejoin="round"/>
<path d="M19.2977 58.5176L18.3121 58.1948L17.3688 58.69L18.3152 59.0081L19.2977 58.5176Z" fill="#263238" stroke="#263238" stroke-linecap="round" stroke-linejoin="round"/>
<path d="M16.4222 57.5759L15.5792 57.2986L14.6641 57.7765L15.4523 58.0429L16.4222 57.5759Z" fill="#263238" stroke="#263238" stroke-linecap="round" stroke-linejoin="round"/>
<path d="M25.0265 60.3965L21.3221 59.1821L20.324 59.6867L23.9844 60.923L25.0265 60.3965Z" fill="#263238" stroke="#263238" stroke-linecap="round" stroke-linejoin="round"/>
<path d="M26.5715 60.9026L25.47 60.5422L24.4232 61.0719L25.5311 61.4464L26.5715 60.9026Z" fill="#263238" stroke="#263238" stroke-linecap="round" stroke-linejoin="round"/>
<path d="M20.8788 59.0363L19.7427 58.6649L18.7571 59.1569L19.8853 59.5393L20.8788 59.0363Z" fill="#263238" stroke="#263238" stroke-linecap="round" stroke-linejoin="round"/>
<path d="M21.8658 55.5247L22.8562 55.8225L23.5409 55.5404L22.5365 55.2333L21.8658 55.5247Z" fill="#263238" stroke="#263238" stroke-linecap="round" stroke-linejoin="round"/>
<path d="M23.3593 55.973L24.1929 56.2221L24.851 55.9417L24.0393 55.6925L23.3593 55.973Z" fill="#263238" stroke="#263238" stroke-linecap="round" stroke-linejoin="round"/>
<path d="M24.6881 56.371L25.5829 56.6374L26.2426 56.3663L25.3431 56.092L24.6881 56.371Z" fill="#263238" stroke="#263238" stroke-linecap="round" stroke-linejoin="round"/>
<path d="M27.6261 57.25L28.5318 57.5211L28.5302 57.5195L29.1132 57.2453L28.1824 56.9601L27.6261 57.25Z" fill="#263238" stroke="#263238" stroke-linecap="round" stroke-linejoin="round"/>
<path d="M15.1405 57.156L14.2081 56.8489L13.2491 57.2986L14.2301 57.6292L15.1405 57.156Z" fill="#263238" stroke="#263238" stroke-linecap="round" stroke-linejoin="round"/>
<path d="M20.4697 55.1064L21.3754 55.3775L22.0508 55.0845L21.1059 54.7961L20.4697 55.1064Z" fill="#263238" stroke="#263238" stroke-linecap="round" stroke-linejoin="round"/>
<path d="M19.0109 54.6692L20.0043 54.967L20.6437 54.6551L19.6988 54.3652L19.0109 54.6692Z" fill="#263238" stroke="#263238" stroke-linecap="round" stroke-linejoin="round"/>
<path d="M35.3545 59.5645L36.348 59.8622L36.8086 59.5989L35.8497 59.3059L35.3545 59.5645Z" fill="#263238" stroke="#263238" stroke-linecap="round" stroke-linejoin="round"/>
<path d="M33.4553 58.9956L34.9001 59.4281L35.3999 59.168L33.9662 58.7292L33.4553 58.9956Z" fill="#263238" stroke="#263238" stroke-linecap="round" stroke-linejoin="round"/>
<path d="M40.4753 60.7209L38.9648 60.2587L38.5166 60.511L40.0303 60.9654L40.4753 60.7209Z" fill="#263238" stroke="#263238" stroke-linecap="round" stroke-linejoin="round"/>
<path d="M36.7836 59.9923L38.0779 60.3793L38.5292 60.1255L37.2411 59.7306L36.7836 59.9923Z" fill="#263238" stroke="#263238" stroke-linecap="round" stroke-linejoin="round"/>
<path d="M29.0035 57.6622L29.9014 57.9317L30.4734 57.6606L29.5833 57.3895L29.0035 57.6622Z" fill="#263238" stroke="#263238" stroke-linecap="round" stroke-linejoin="round"/>
<path d="M30.3746 58.0726L31.4041 58.3813L31.9306 58.1071L30.9434 57.8047L30.3746 58.0726Z" fill="#263238" stroke="#263238" stroke-linecap="round" stroke-linejoin="round"/>
<path d="M31.8569 58.5176L33.0008 58.8592L33.5164 58.5913L32.3803 58.2434L31.8569 58.5176Z" fill="#263238" stroke="#263238" stroke-linecap="round" stroke-linejoin="round"/>
<path d="M34.2404 66.5484L34.1652 67.5622L43.1079 62.5792L43.2019 61.4463L34.2404 66.5484Z" fill="white" stroke="#263238" stroke-linecap="round" stroke-linejoin="round"/>
<path d="M41.9012 63.2389V64.4674L43.0467 63.8485L43.1078 62.5792L41.9012 63.2389Z" fill="white" stroke="#263238" stroke-linecap="round" stroke-linejoin="round"/>
<path d="M41.9013 64.4675L40.3234 64.1588L41.9326 63.239L41.9013 64.4675Z" fill="#263238" stroke="#263238" stroke-linecap="round" stroke-linejoin="round"/>
<path d="M34.1651 67.5623L1.58606 56.1108L1.59233 55.2255L34.2403 66.5484L34.1651 67.5623Z" fill="white" stroke="#263238" stroke-linecap="round" stroke-linejoin="round"/>
<path d="M41.5456 48.7477L32.0717 52.1637L49.3648 56.5669L59.0158 52.4818L41.5456 48.7477Z" fill="#263238" stroke="#263238" stroke-linecap="round" stroke-linejoin="round"/>
<path d="M32.0717 52.1636V52.701L49.3366 57.2735L49.3648 56.5668L32.0717 52.1636Z" fill="white" stroke="#263238" stroke-linecap="round" stroke-linejoin="round"/>
<path d="M49.3648 56.5668L59.0158 52.4817L58.9453 53.0724L49.3365 57.2735L49.3648 56.5668Z" fill="white" stroke="#263238" stroke-linecap="round" stroke-linejoin="round"/>
<path d="M42.6612 44.4855L42.271 50.5277L41.7257 50.7628L51.5883 53.1007L52.1336 52.8672L52.5629 46.3173L42.6612 44.4855Z" fill="white" stroke="#263238" stroke-linecap="round" stroke-linejoin="round"/>
<path d="M42.1159 44.7205L41.7257 50.7627L51.5883 53.1007L52.0176 46.5523L42.1159 44.7205Z" fill="#263238" stroke="#263238" stroke-linecap="round" stroke-linejoin="round"/>
<path d="M74.5524 6.62105L73.9632 6.39697L73.1374 6.44868L73.07 6.67433L27.015 9.41497C26.8932 9.42205 26.7779 9.47206 26.6895 9.55612C26.6012 9.64018 26.5455 9.75285 26.5323 9.8741L23.4924 41.3547C23.4818 41.4584 23.5104 41.5623 23.5724 41.646C23.6344 41.7298 23.7255 41.7874 23.8277 41.8075L66.7755 50.0357L66.3054 50.3225L68.2092 50.6923L68.4302 50.6625L68.9677 50.4024C69.055 50.3772 69.1331 50.3273 69.1927 50.2586C69.2522 50.1899 69.2905 50.1054 69.303 50.0154L74.8673 7.12092C74.8799 7.01414 74.8555 6.90628 74.7982 6.81532C74.7409 6.72436 74.6541 6.65579 74.5524 6.62105Z" fill="white" stroke="#263238" stroke-linecap="round" stroke-linejoin="round"/>
<path d="M26.2565 9.57157L22.8656 41.6131C22.8543 41.717 22.8825 41.8212 22.9447 41.9051C23.0068 41.9891 23.0983 42.0465 23.2009 42.066L68.1199 50.6734C68.1823 50.6848 68.2464 50.6834 68.3082 50.6694C68.3701 50.6554 68.4285 50.629 68.4799 50.5918C68.5313 50.5546 68.5746 50.5074 68.6072 50.453C68.6399 50.3986 68.6612 50.3382 68.6699 50.2754L74.2437 6.89203C74.2517 6.82424 74.2449 6.75551 74.2237 6.69062C74.2025 6.62573 74.1674 6.56624 74.1208 6.51628C74.0743 6.46633 74.0175 6.4271 73.9543 6.40134C73.891 6.37558 73.823 6.36389 73.7548 6.3671L26.7454 9.11244C26.6225 9.11775 26.5055 9.16702 26.4158 9.25127C26.3261 9.33553 26.2696 9.44918 26.2565 9.57157Z" fill="#263238" stroke="#263238" stroke-linecap="round" stroke-linejoin="round"/>
<path d="M27.2891 10.5384L24.4341 37.1159L67.41 43.7082L72.252 8.04688L27.2891 10.5384Z" fill="#00FF00" stroke="#263238" stroke-linecap="round" stroke-linejoin="round"/>
<path d="M32.0214 28.1528C38.8988 26.0468 46.5943 23.7276 53.7177 21.6718C60.9258 19.5893 66.7237 18.8058 70.7837 18.5739" stroke="#263238" stroke-linecap="round" stroke-linejoin="round"/>
<path d="M26.9037 14.5138C26.9037 14.5138 40.7918 14.8272 55.9602 21.0309" stroke="#263238" stroke-linecap="round" stroke-linejoin="round"/>
<path d="M37.9399 39.316C37.9399 39.316 48.4826 29.4221 58.4674 24.2135C66.8789 19.8259 70.5017 19.7209 70.5017 19.7209" stroke="#263238" stroke-linecap="round" stroke-linejoin="round"/>
<path d="M23.2009 42.0644L68.1199 50.6734C68.1823 50.6847 68.2463 50.6834 68.3082 50.6694C68.3701 50.6553 68.4284 50.6289 68.4798 50.5917C68.5312 50.5546 68.5745 50.5074 68.6072 50.453C68.6399 50.3986 68.6612 50.3382 68.6699 50.2754L69.2105 46.0602L23.1868 38.5669L22.8656 41.6131C22.8547 41.7167 22.8831 41.8205 22.9452 41.9041C23.0073 41.9877 23.0986 42.0449 23.2009 42.0644Z" fill="white" stroke="#263238" stroke-linecap="round" stroke-linejoin="round"/>
<path d="M24.4341 37.1159L30.9198 38.1094L32.2893 25.713L25.7096 25.2413L24.4341 37.1159Z" fill="#263238" stroke="#263238" stroke-linecap="round" stroke-linejoin="round"/>
<path d="M31.5702 29.56L30.1928 29.4017L29.6726 33.4759L31.1158 33.6623L31.5702 29.56Z" fill="#BABDBF" stroke="#263238" stroke-linecap="round" stroke-linejoin="round"/>
<path d="M29.4469 29.1291C29.4452 29.1392 29.4414 29.1488 29.4359 29.1573L31.5858 29.4049L31.9337 26.2506L29.8527 26.0939L29.4469 29.1291Z" fill="#BABDBF" stroke="#263238" stroke-linecap="round" stroke-linejoin="round"/>
<path d="M29.5174 33.4554L30.0377 29.3844L27.9818 29.1478L27.4803 33.1922L29.5174 33.4554Z" fill="#BABDBF" stroke="#263238" stroke-linecap="round" stroke-linejoin="round"/>
<path d="M29.9499 33.6701L27.46 33.3473L27.0118 36.967L29.5174 37.3509L29.9499 33.6701Z" fill="#BABDBF" stroke="#263238" stroke-linecap="round" stroke-linejoin="round"/>
<path d="M29.2902 29.1416C29.2879 29.1308 29.2879 29.1195 29.2902 29.1087L29.6945 26.0907L28.3704 25.9951L27.999 28.9927L29.2902 29.1416Z" fill="#BABDBF" stroke="#263238" stroke-linecap="round" stroke-linejoin="round"/>
<path d="M30.1051 33.6906L29.6726 37.3745L30.6896 37.5312L31.0986 33.819L30.1051 33.6906Z" fill="#BABDBF" stroke="#263238" stroke-linecap="round" stroke-linejoin="round"/>
</svg>
